# Blender 4.4.3
# www.blender.org
mtllib Coxa_Mirrored.mtl
o Coxa_Mirrored
v -0.210032 -0.094437 0.730294
v -0.153284 -0.172545 0.730294
v -0.069673 -0.220818 0.730294
v 0.026345 -0.230910 0.730294
v 0.118167 -0.201076 0.730294
v 0.189915 -0.136473 0.730294
v 0.229184 -0.048274 0.730294
v 0.229184 0.048273 0.730294
v 0.189915 0.136473 0.730294
v 0.118167 0.201075 0.730294
v 0.026345 0.230910 0.730294
v -0.069672 0.220818 0.730294
v -0.153284 0.172544 0.730294
v -0.210032 0.094437 0.730294
v -0.230106 -0.000000 0.730294
v -0.210032 -0.094437 0.131041
v -0.153284 -0.172545 0.131041
v -0.069673 -0.220818 0.131041
v 0.026345 -0.230910 0.131041
v 0.118167 -0.201076 0.131041
v 0.189915 -0.136473 0.131041
v 0.229184 -0.048274 0.131041
v 0.229184 0.048273 0.131041
v 0.189915 0.136473 0.131041
v 0.118167 0.201075 0.131041
v 0.026345 0.230910 0.131041
v -0.069672 0.220818 0.131041
v -0.153284 0.172544 0.131041
v -0.210032 0.094437 0.131041
v -0.230106 -0.000000 0.131041
v -0.045875 -0.020464 0.094209
v -0.033577 -0.037390 0.094209
v -0.015459 -0.047851 0.094209
v 0.005348 -0.050037 0.094209
v 0.025245 -0.043572 0.094209
v 0.040793 -0.029573 0.094209
v 0.049302 -0.010461 0.094209
v 0.049302 0.010461 0.094209
v 0.040793 0.029573 0.094209
v 0.025245 0.043573 0.094209
v 0.005348 0.050037 0.094209
v -0.015459 0.047851 0.094209
v -0.033577 0.037390 0.094209
v -0.045875 0.020464 0.094209
v -0.050225 -0.000000 0.094209
v -0.221017 -0.099367 0.131041
v -0.161306 -0.181552 0.131041
v -0.161306 -0.181552 0.094209
v -0.221017 -0.099367 0.094209
v -0.073330 -0.232345 0.131041
v -0.073330 -0.232345 0.094209
v 0.027700 -0.242964 0.131041
v 0.027700 -0.242964 0.094209
v 0.124315 -0.211572 0.131041
v 0.124315 -0.211572 0.094209
v 0.199808 -0.143597 0.131041
v 0.199808 -0.143597 0.094209
v 0.241127 -0.050794 0.131041
v 0.241127 -0.050794 0.094209
v 0.241127 0.050793 0.131041
v 0.241127 0.050793 0.094209
v 0.199808 0.143597 0.131041
v 0.199808 0.143597 0.094209
v 0.124315 0.211572 0.131041
v 0.124315 0.211572 0.094209
v 0.027700 0.242964 0.131041
v 0.027700 0.242964 0.094209
v -0.073330 0.232345 0.131041
v -0.073330 0.232345 0.094209
v -0.161306 0.181552 0.131041
v -0.161306 0.181552 0.094209
v -0.221017 0.099367 0.131041
v -0.221017 0.099367 0.094209
v -0.242139 -0.000000 0.131041
v -0.242139 -0.000000 0.094209
v -0.210032 -0.094437 0.745909
v -0.153284 -0.172545 0.745909
v 0.002076 -0.000000 0.745909
v -0.069673 -0.220818 0.745909
v 0.026345 -0.230910 0.745909
v 0.118167 -0.201076 0.745909
v 0.189915 -0.136473 0.745909
v 0.229184 -0.048274 0.745909
v 0.229184 0.048273 0.745909
v 0.189915 0.136473 0.745909
v 0.118167 0.201075 0.745909
v 0.026345 0.230910 0.745909
v -0.069672 0.220818 0.745909
v -0.153284 0.172544 0.745909
v -0.210032 0.094437 0.745909
v -0.230106 -0.000000 0.745909
v -0.224437 -0.100850 0.730294
v -0.163834 -0.184262 0.730294
v -0.224437 -0.100850 0.745909
v -0.163834 -0.184262 0.745909
v -0.074545 -0.235813 0.730294
v -0.074545 -0.235813 0.745909
v 0.027993 -0.246591 0.730294
v 0.027993 -0.246591 0.745909
v 0.126050 -0.214731 0.730294
v 0.126050 -0.214731 0.745909
v 0.202671 -0.145741 0.730294
v 0.202671 -0.145741 0.745909
v 0.244607 -0.051552 0.730294
v 0.244607 -0.051552 0.745909
v 0.244607 0.051552 0.730294
v 0.244607 0.051552 0.745909
v 0.202671 0.145740 0.730294
v 0.202671 0.145740 0.745909
v 0.126051 0.214730 0.730294
v 0.126051 0.214730 0.745909
v 0.027994 0.246591 0.730294
v 0.027994 0.246591 0.745909
v -0.074544 0.235814 0.730294
v -0.074544 0.235814 0.745909
v -0.163834 0.184262 0.730294
v -0.163834 0.184262 0.745909
v -0.224437 0.100850 0.730294
v -0.224437 0.100850 0.745909
v -0.245874 -0.000000 0.730294
v -0.245874 -0.000000 0.745909
v -0.045875 -0.020464 0.000000
v -0.033577 -0.037390 0.000000
v 0.000000 0.000000 0.000000
v -0.015459 -0.047851 -0.000000
v 0.005348 -0.050037 -0.000000
v 0.025245 -0.043572 -0.000000
v 0.040793 -0.029573 -0.000000
v 0.049302 -0.010461 -0.000000
v 0.049302 0.010461 -0.000000
v 0.040793 0.029573 -0.000000
v 0.025245 0.043572 0.000000
v 0.005348 0.050037 0.000000
v -0.015459 0.047851 0.000000
v -0.033577 0.037390 0.000000
v -0.045875 0.020464 0.000000
v -0.050225 0.000000 0.000000
v -0.020966 0.347270 0.894234
v -0.020966 0.319177 0.894234
v -0.537635 0.347270 0.894234
v -0.537635 0.319177 0.894234
v -0.537635 0.347270 0.677891
v -0.537635 0.319177 0.677891
v -0.020966 0.347270 0.677891
v -0.020966 0.319177 0.677891
v -0.048383 0.347270 0.894234
v -0.048383 0.347270 0.677891
v -0.048383 0.319177 0.677891
v -0.048383 0.319177 0.894234
v -0.020966 -0.066507 0.783267
v -0.020966 -0.066507 0.894234
v -0.048383 -0.066507 0.783267
v -0.048383 -0.066507 0.894234
v -0.020966 0.211542 0.783267
v -0.020966 0.211542 0.894234
v -0.048383 0.211542 0.894234
v -0.048383 0.211542 0.783267
v -0.020966 0.373284 0.677891
v -0.020966 0.373284 0.894234
v -0.048383 0.373284 0.894234
v -0.048383 0.373284 0.677891
v -0.537635 0.516544 0.894234
v -0.537635 0.516544 0.677891
v -0.020966 0.347270 0.731976
v -0.020966 0.373284 0.731976
v -0.048383 0.373284 0.731976
v -0.537635 0.516544 0.731976
v -0.537635 0.347270 0.731976
v -0.537635 0.319177 0.731976
v -0.048383 0.319177 0.731976
v -0.048383 0.211542 0.811009
v -0.048383 -0.066507 0.811009
v -0.020966 -0.066507 0.811009
v -0.020966 0.211542 0.811009
v -0.020966 0.319177 0.731976
v -0.537635 0.347270 0.840148
v -0.537635 0.516544 0.840148
v -0.048383 0.373284 0.840148
v -0.020966 0.373284 0.840148
v -0.020966 0.347270 0.840148
v -0.020966 0.319177 0.840148
v -0.020966 0.211542 0.866492
v -0.020966 -0.066507 0.866492
v -0.048383 -0.066507 0.866492
v -0.048383 0.211542 0.866492
v -0.048383 0.319177 0.840148
v -0.537635 0.319177 0.840148
v -0.537635 0.474225 0.731976
v -0.537635 0.474225 0.677891
v -0.048383 0.366780 0.677891
v -0.020966 0.366780 0.677891
v -0.020966 0.366780 0.731976
v -0.020966 0.366780 0.840148
v -0.020966 0.366780 0.894234
v -0.048383 0.366780 0.894234
v -0.537635 0.474225 0.894234
v -0.537635 0.474225 0.840148
v -0.020966 0.353774 0.677891
v -0.048383 0.353774 0.677891
v -0.537635 0.389588 0.677891
v -0.537635 0.389588 0.731976
v -0.537635 0.389588 0.840148
v -0.537635 0.389588 0.894234
v -0.048383 0.353774 0.894234
v -0.020966 0.353774 0.894234
v -0.020966 0.353774 0.840148
v -0.020966 0.353774 0.731976
v -0.537635 0.389588 0.840148
v -0.537635 0.474225 0.840148
v -0.537635 0.389588 0.731976
v -0.537635 0.474225 0.731976
vn -0.9135 -0.4067 -0.0000
vn -0.6691 -0.7431 -0.0000
vn -0.3090 -0.9511 -0.0000
vn 0.1045 -0.9945 -0.0000
vn 0.5000 -0.8660 -0.0000
vn 0.8090 -0.5878 -0.0000
vn 0.9781 -0.2079 -0.0000
vn 0.9781 0.2079 -0.0000
vn 0.8090 0.5878 -0.0000
vn 0.5000 0.8660 -0.0000
vn 0.1045 0.9945 -0.0000
vn -0.3090 0.9511 -0.0000
vn -0.6691 0.7431 -0.0000
vn -0.9135 0.4067 -0.0000
vn -1.0000 -0.0000 -0.0000
vn -0.0000 -0.0000 1.0000
vn -0.0000 -0.0000 -1.0000
vn -0.9135 -0.4068 -0.0000
vn 0.1046 -0.9945 -0.0000
vn -0.9135 0.4068 -0.0000
vn -0.0000 -0.1607 -0.9870
vn 1.0000 -0.0000 -0.0000
vn -0.0000 -1.0000 -0.0000
vn 0.2678 0.9635 -0.0000
vn -0.0000 1.0000 -0.0000
vn 0.2659 0.9640 -0.0000
vn 0.2810 0.9597 -0.0000
vn -0.0000 -0.2663 -0.9639
vn -0.0000 -0.6132 -0.7899
vn -0.0000 -0.2664 -0.9639
vn 0.2660 0.9640 -0.0000
vn -0.0000 -0.0000 -0.0000
vt 0.242230 0.490874
vt 0.247735 0.367009
vt 0.242230 0.367009
vt 0.247735 0.490874
vt 0.253240 0.367009
vt 0.253240 0.490874
vt 0.258745 0.367009
vt 0.258745 0.490874
vt 0.264251 0.367009
vt 0.264251 0.490874
vt 0.269756 0.367009
vt 0.269756 0.490874
vt 0.275261 0.367009
vt 0.275261 0.490874
vt 0.280766 0.367009
vt 0.280766 0.490874
vt 0.286271 0.367009
vt 0.286271 0.490874
vt 0.291776 0.367009
vt 0.291776 0.490874
vt 0.297281 0.367009
vt 0.297281 0.490874
vt 0.302786 0.367009
vt 0.302786 0.490874
vt 0.308292 0.367009
vt 0.308292 0.490874
vt 0.313797 0.367009
vt 0.313797 0.490874
vt 0.319302 0.367009
vt 0.319302 0.490874
vt 0.324807 0.367009
vt 0.557948 0.766079
vt 0.532693 0.794127
vt 0.567173 0.778776
vt 0.544356 0.758231
vt 0.528748 0.756591
vt 0.513822 0.761441
vt 0.502158 0.771942
vt 0.495775 0.786280
vt 0.495775 0.801974
vt 0.502158 0.816311
vt 0.513822 0.826813
vt 0.528748 0.831663
vt 0.544356 0.830022
vt 0.557948 0.822175
vt 0.567173 0.809478
vt 0.570436 0.794127
vt 0.736780 0.430707
vt 0.699997 0.414330
vt 0.726939 0.444252
vt 0.712439 0.452624
vt 0.695788 0.454374
vt 0.679865 0.449200
vt 0.667422 0.437997
vt 0.660612 0.422702
vt 0.660612 0.405959
vt 0.667422 0.390664
vt 0.679865 0.379461
vt 0.695788 0.374287
vt 0.712439 0.376037
vt 0.726939 0.384408
vt 0.736780 0.397954
vt 0.740261 0.414330
vt 0.534319 0.697941
vt 0.524478 0.711486
vt 0.509979 0.719857
vt 0.493328 0.721607
vt 0.477404 0.716433
vt 0.464962 0.705230
vt 0.458152 0.689935
vt 0.458152 0.673192
vt 0.464962 0.657897
vt 0.477404 0.646694
vt 0.493328 0.641520
vt 0.509979 0.643270
vt 0.524478 0.651642
vt 0.534319 0.665187
vt 0.537801 0.681564
vt 0.525330 0.713615
vt 0.535171 0.700070
vt 0.510830 0.721986
vt 0.494179 0.723736
vt 0.478256 0.718563
vt 0.465814 0.707360
vt 0.459004 0.692064
vt 0.459004 0.675322
vt 0.465814 0.660026
vt 0.478256 0.648823
vt 0.494179 0.643649
vt 0.510830 0.645399
vt 0.525330 0.653771
vt 0.535171 0.667316
vt 0.538652 0.683693
vt 0.504911 0.572081
vt 0.569528 0.578872
vt 0.705535 0.336217
vt 0.717512 0.335581
vt 0.705535 0.335581
vt 0.705535 0.350552
vt 0.717512 0.347558
vt 0.705535 0.347558
vt 0.705535 0.371512
vt 0.717512 0.370876
vt 0.705535 0.370876
vt 0.705535 0.383489
vt 0.717512 0.380494
vt 0.705535 0.380494
vt 0.717512 0.336217
vt 0.720506 0.335581
vt 0.702541 0.335581
vt 0.702541 0.336217
vt 0.702541 0.347558
vt 0.717512 0.359535
vt 0.705535 0.359535
vt 0.720506 0.336217
vt 0.729489 0.335581
vt 0.729489 0.336217
vt 0.693559 0.336217
vt 0.693559 0.335581
vt 0.693559 0.347558
vt 0.696553 0.347558
vt 0.696553 0.336217
vt 0.696553 0.335581
vt 0.705535 0.374506
vt 0.717512 0.371512
vt 0.726495 0.335581
vt 0.726495 0.336217
vt 0.729489 0.347558
vt 0.726495 0.347558
vt 0.717512 0.356541
vt 0.705535 0.356541
vt 0.717512 0.374506
vt 0.720506 0.347558
vt 0.324807 0.490874
vt 0.717512 0.350552
vt 0.717512 0.383489
s 1
usemtl lambert2SG.002
f 16/1/1 2/2/2 1/3/1
f 17/4/2 3/5/3 2/2/2
f 18/6/3 4/7/4 3/5/3
f 19/8/4 5/9/5 4/7/4
f 20/10/5 6/11/6 5/9/5
f 21/12/6 7/13/7 6/11/6
f 22/14/7 8/15/8 7/13/7
f 23/16/8 9/17/9 8/15/8
f 24/18/9 10/19/10 9/17/9
f 25/20/10 11/21/11 10/19/10
f 26/22/11 12/23/12 11/21/11
f 27/24/12 13/25/13 12/23/12
f 28/26/13 14/27/14 13/25/13
f 29/28/14 15/29/15 14/27/14
f 30/30/15 1/31/1 15/29/15
f 77/32/16 78/33/16 76/34/16
f 79/35/16 78/33/16 77/32/16
f 80/36/16 78/33/16 79/35/16
f 81/37/16 78/33/16 80/36/16
f 82/38/16 78/33/16 81/37/16
f 83/39/16 78/33/16 82/38/16
f 84/40/16 78/33/16 83/39/16
f 85/41/16 78/33/16 84/40/16
f 86/42/16 78/33/16 85/41/16
f 87/43/16 78/33/16 86/42/16
f 88/44/16 78/33/16 87/43/16
f 89/45/16 78/33/16 88/44/16
f 90/46/16 78/33/16 89/45/16
f 91/47/16 78/33/16 90/46/16
f 76/34/16 78/33/16 91/47/16
f 122/48/17 124/49/17 123/50/17
f 123/50/17 124/49/17 125/51/17
f 125/51/17 124/49/17 126/52/17
f 126/52/17 124/49/17 127/53/17
f 127/53/17 124/49/17 128/54/17
f 128/54/17 124/49/17 129/55/17
f 129/55/17 124/49/17 130/56/17
f 130/56/17 124/49/17 131/57/17
f 131/57/17 124/49/17 132/58/17
f 132/58/17 124/49/17 133/59/17
f 133/59/17 124/49/17 134/60/17
f 134/60/17 124/49/17 135/61/17
f 135/61/17 124/49/17 136/62/17
f 136/62/17 124/49/17 137/63/17
f 137/63/17 124/49/17 122/48/17
f 49/64/1 47/65/2 46/64/1
f 48/65/2 50/66/3 47/65/2
f 51/66/3 52/67/4 50/66/3
f 53/67/4 54/68/5 52/67/4
f 55/68/5 56/69/6 54/68/5
f 57/69/6 58/70/7 56/69/6
f 59/70/7 60/71/8 58/70/7
f 61/71/8 62/72/9 60/71/8
f 63/72/9 64/73/10 62/72/9
f 65/73/10 66/74/11 64/73/10
f 67/74/11 68/75/12 66/74/11
f 69/75/12 70/76/13 68/75/12
f 71/76/13 72/77/14 70/76/13
f 73/77/14 74/78/15 72/77/14
f 75/78/15 46/64/1 74/78/15
f 46/64/16 17/65/16 16/64/16
f 32/79/17 49/64/17 31/80/17
f 47/65/16 18/66/16 17/65/16
f 33/81/17 48/65/17 32/79/17
f 50/66/16 19/67/16 18/66/16
f 34/82/17 51/66/17 33/81/17
f 52/67/16 20/68/16 19/67/16
f 35/83/17 53/67/17 34/82/17
f 54/68/16 21/69/16 20/68/16
f 36/84/17 55/68/17 35/83/17
f 56/69/16 22/70/16 21/69/16
f 37/85/17 57/69/17 36/84/17
f 58/70/16 23/71/16 22/70/16
f 61/71/17 37/85/17 38/86/17
f 23/71/16 62/72/16 24/72/16
f 63/72/17 38/86/17 39/87/17
f 24/72/16 64/73/16 25/73/16
f 65/73/17 39/87/17 40/88/17
f 25/73/16 66/74/16 26/74/16
f 67/74/17 40/88/17 41/89/17
f 26/74/16 68/75/16 27/75/16
f 69/75/17 41/89/17 42/90/17
f 27/75/16 70/76/16 28/76/16
f 71/76/17 42/90/17 43/91/17
f 28/76/16 72/77/16 29/77/16
f 73/77/17 43/91/17 44/92/17
f 29/77/16 74/78/16 30/78/16
f 75/78/17 44/92/17 45/93/17
f 74/78/16 16/64/16 30/78/16
f 31/80/17 75/78/17 45/93/17
f 95/32/2 92/34/1 93/32/2
f 97/35/3 93/32/2 96/35/3
f 99/94/4 96/95/3 98/94/4
f 101/37/5 98/36/4 100/37/5
f 103/38/6 100/37/5 102/38/6
f 105/39/7 102/38/6 104/39/7
f 107/40/8 104/39/7 106/40/8
f 109/41/9 106/40/8 108/41/9
f 111/42/10 108/41/9 110/42/10
f 113/43/11 110/42/10 112/43/11
f 115/44/12 112/43/11 114/44/12
f 117/45/13 114/44/12 116/45/13
f 119/46/14 116/45/13 118/46/14
f 121/47/15 118/46/14 120/47/15
f 94/34/1 120/47/15 92/34/1
f 93/32/17 1/34/17 2/32/17
f 76/34/16 95/32/16 77/32/16
f 3/35/17 93/32/17 2/32/17
f 95/32/16 79/35/16 77/32/16
f 4/94/17 96/95/17 3/95/17
f 97/95/16 80/94/16 79/95/16
f 100/37/17 4/36/17 5/37/17
f 80/36/16 101/37/16 81/37/16
f 102/38/17 5/37/17 6/38/17
f 81/37/16 103/38/16 82/38/16
f 7/39/17 102/38/17 6/38/17
f 103/38/16 83/39/16 82/38/16
f 8/40/17 104/39/17 7/39/17
f 105/39/16 84/40/16 83/39/16
f 108/41/17 8/40/17 9/41/17
f 107/40/16 85/41/16 84/40/16
f 110/42/17 9/41/17 10/42/17
f 85/41/16 111/42/16 86/42/16
f 112/43/17 10/42/17 11/43/17
f 86/42/16 113/43/16 87/43/16
f 114/44/17 11/43/17 12/44/17
f 87/43/16 115/44/16 88/44/16
f 116/45/17 12/44/17 13/45/17
f 88/44/16 117/45/16 89/45/16
f 118/46/17 13/45/17 14/46/17
f 89/45/16 119/46/16 90/46/16
f 15/47/17 118/46/17 14/46/17
f 119/46/16 91/47/16 90/46/16
f 92/34/17 15/47/17 1/34/17
f 91/47/16 94/34/16 76/34/16
f 122/48/1 32/50/2 31/48/18
f 123/50/2 33/51/3 32/50/2
f 125/51/3 34/52/19 33/51/3
f 126/52/4 35/53/5 34/52/19
f 127/53/5 36/54/6 35/53/5
f 128/54/6 37/55/7 36/54/6
f 129/55/7 38/56/8 37/55/7
f 130/56/8 39/57/9 38/56/8
f 39/57/9 132/58/10 40/58/10
f 40/58/10 133/59/11 41/59/11
f 133/59/11 42/60/12 41/59/11
f 134/60/12 43/61/13 42/60/12
f 135/61/13 44/62/14 43/61/13
f 136/62/20 45/63/15 44/62/14
f 137/63/15 31/48/18 45/63/15
f 146/96/16 139/97/16 138/98/16
f 176/99/15 141/100/15 140/101/15
f 144/102/17 148/103/21 147/104/17
f 138/105/22 181/106/22 180/107/22
f 153/108/23 183/109/23 151/97/23
f 160/96/24 179/110/25 178/111/26
f 162/101/27 178/111/26 177/112/27
f 147/104/17 143/113/17 142/114/17
f 141/100/23 186/115/23 149/108/23
f 140/101/16 149/108/16 146/96/16
f 139/97/22 182/109/22 181/109/22
f 154/116/28 148/117/21 145/116/29
f 185/115/15 149/108/15 186/115/15
f 156/108/16 139/97/16 149/108/16
f 151/97/22 182/109/22 155/97/22
f 153/108/16 155/97/16 156/108/16
f 153/108/15 185/115/15 184/115/15
f 150/116/17 157/117/30 154/116/28
f 138/98/22 206/110/22 205/98/22
f 205/98/16 146/96/16 138/98/16
f 199/118/17 144/119/17 147/118/17
f 204/96/16 140/101/16 146/96/16
f 203/101/15 176/112/15 140/101/15
f 142/120/17 199/118/17 147/118/17
f 142/120/15 201/121/15 200/120/15
f 163/120/27 166/122/31 161/118/24
f 161/118/24 165/123/25 158/119/25
f 198/119/22 164/123/22 144/119/22
f 164/124/22 145/125/22 144/102/22
f 154/116/22 175/126/22 174/126/22
f 150/116/22 174/126/22 173/126/22
f 152/117/23 173/126/23 172/127/23
f 152/117/15 171/127/15 157/117/15
f 157/117/15 170/127/15 148/117/15
f 143/128/23 170/127/23 169/129/23
f 142/114/15 169/130/15 168/131/15
f 168/121/15 202/112/15 201/121/15
f 167/121/27 178/111/26 166/122/31
f 165/123/25 178/111/26 179/110/25
f 164/123/22 206/110/22 180/110/22
f 175/132/22 180/107/22 181/106/22
f 174/126/22 181/109/22 182/109/22
f 173/126/22 182/109/22 183/109/22
f 172/127/23 183/109/23 184/115/23
f 172/127/15 185/115/15 171/127/15
f 186/115/15 171/127/15 185/115/15
f 170/127/23 187/133/23 169/129/23
f 169/130/15 176/99/15 168/131/15
f 161/118/17 191/119/17 190/118/17
f 189/120/17 161/118/17 190/118/17
f 163/120/15 188/121/15 167/121/15
f 188/121/15 177/112/15 167/121/15
f 162/101/15 197/112/15 196/101/15
f 160/96/16 196/101/16 195/96/16
f 159/98/16 195/96/16 194/98/16
f 159/98/22 193/110/22 179/110/22
f 165/123/22 193/110/22 192/123/22
f 158/119/22 192/123/22 191/119/22
f 191/119/17 199/118/17 190/118/17
f 190/118/17 200/120/17 189/120/17
f 188/121/15 200/120/15 201/121/15
f 211/121/15 208/112/15 209/112/15
f 197/112/15 203/101/15 196/101/15
f 195/96/16 203/101/16 204/96/16
f 195/96/16 205/98/16 194/98/16
f 193/110/22 205/98/22 206/110/22
f 193/110/22 207/123/22 192/123/22
f 192/123/22 198/119/22 191/119/22
s 0
f 197/112/32 208/112/32 202/112/32
f 202/112/23 210/121/23 201/121/23
f 201/121/32 211/121/32 188/121/32
f 188/121/23 209/112/23 197/112/23
s 1
f 16/1/1 17/4/2 2/2/2
f 17/4/2 18/6/3 3/5/3
f 18/6/3 19/8/4 4/7/4
f 19/8/4 20/10/5 5/9/5
f 20/10/5 21/12/6 6/11/6
f 21/12/6 22/14/7 7/13/7
f 22/14/7 23/16/8 8/15/8
f 23/16/8 24/18/9 9/17/9
f 24/18/9 25/20/10 10/19/10
f 25/20/10 26/22/11 11/21/11
f 26/22/11 27/24/12 12/23/12
f 27/24/12 28/26/13 13/25/13
f 28/26/13 29/28/14 14/27/14
f 29/28/14 30/30/15 15/29/15
f 30/30/15 16/134/1 1/31/1
f 49/64/1 48/65/2 47/65/2
f 48/65/2 51/66/3 50/66/3
f 51/66/3 53/67/4 52/67/4
f 53/67/4 55/68/5 54/68/5
f 55/68/5 57/69/6 56/69/6
f 57/69/6 59/70/7 58/70/7
f 59/70/7 61/71/8 60/71/8
f 61/71/8 63/72/9 62/72/9
f 63/72/9 65/73/10 64/73/10
f 65/73/10 67/74/11 66/74/11
f 67/74/11 69/75/12 68/75/12
f 69/75/12 71/76/13 70/76/13
f 71/76/13 73/77/14 72/77/14
f 73/77/14 75/78/15 74/78/15
f 75/78/15 49/64/1 46/64/1
f 46/64/16 47/65/16 17/65/16
f 32/79/17 48/65/17 49/64/17
f 47/65/16 50/66/16 18/66/16
f 33/81/17 51/66/17 48/65/17
f 50/66/16 52/67/16 19/67/16
f 34/82/17 53/67/17 51/66/17
f 52/67/16 54/68/16 20/68/16
f 35/83/17 55/68/17 53/67/17
f 54/68/16 56/69/16 21/69/16
f 36/84/17 57/69/17 55/68/17
f 56/69/16 58/70/16 22/70/16
f 37/85/17 59/70/17 57/69/17
f 58/70/16 60/71/16 23/71/16
f 61/71/17 59/70/17 37/85/17
f 23/71/16 60/71/16 62/72/16
f 63/72/17 61/71/17 38/86/17
f 24/72/16 62/72/16 64/73/16
f 65/73/17 63/72/17 39/87/17
f 25/73/16 64/73/16 66/74/16
f 67/74/17 65/73/17 40/88/17
f 26/74/16 66/74/16 68/75/16
f 69/75/17 67/74/17 41/89/17
f 27/75/16 68/75/16 70/76/16
f 71/76/17 69/75/17 42/90/17
f 28/76/16 70/76/16 72/77/16
f 73/77/17 71/76/17 43/91/17
f 29/77/16 72/77/16 74/78/16
f 75/78/17 73/77/17 44/92/17
f 74/78/16 46/64/16 16/64/16
f 31/80/17 49/64/17 75/78/17
f 95/32/2 94/34/1 92/34/1
f 97/35/3 95/32/2 93/32/2
f 99/94/4 97/95/3 96/95/3
f 101/37/5 99/36/4 98/36/4
f 103/38/6 101/37/5 100/37/5
f 105/39/7 103/38/6 102/38/6
f 107/40/8 105/39/7 104/39/7
f 109/41/9 107/40/8 106/40/8
f 111/42/10 109/41/9 108/41/9
f 113/43/11 111/42/10 110/42/10
f 115/44/12 113/43/11 112/43/11
f 117/45/13 115/44/12 114/44/12
f 119/46/14 117/45/13 116/45/13
f 121/47/15 119/46/14 118/46/14
f 94/34/1 121/47/15 120/47/15
f 93/32/17 92/34/17 1/34/17
f 76/34/16 94/34/16 95/32/16
f 3/35/17 96/35/17 93/32/17
f 95/32/16 97/35/16 79/35/16
f 4/94/17 98/94/17 96/95/17
f 97/95/16 99/94/16 80/94/16
f 100/37/17 98/36/17 4/36/17
f 80/36/16 99/36/16 101/37/16
f 102/38/17 100/37/17 5/37/17
f 81/37/16 101/37/16 103/38/16
f 7/39/17 104/39/17 102/38/17
f 103/38/16 105/39/16 83/39/16
f 8/40/17 106/40/17 104/39/17
f 105/39/16 107/40/16 84/40/16
f 108/41/17 106/40/17 8/40/17
f 107/40/16 109/41/16 85/41/16
f 110/42/17 108/41/17 9/41/17
f 85/41/16 109/41/16 111/42/16
f 112/43/17 110/42/17 10/42/17
f 86/42/16 111/42/16 113/43/16
f 114/44/17 112/43/17 11/43/17
f 87/43/16 113/43/16 115/44/16
f 116/45/17 114/44/17 12/44/17
f 88/44/16 115/44/16 117/45/16
f 118/46/17 116/45/17 13/45/17
f 89/45/16 117/45/16 119/46/16
f 15/47/17 120/47/17 118/46/17
f 119/46/16 121/47/16 91/47/16
f 92/34/17 120/47/17 15/47/17
f 91/47/16 121/47/16 94/34/16
f 122/48/1 123/50/2 32/50/2
f 123/50/2 125/51/3 33/51/3
f 125/51/3 126/52/4 34/52/19
f 126/52/4 127/53/5 35/53/5
f 127/53/5 128/54/6 36/54/6
f 128/54/6 129/55/7 37/55/7
f 129/55/7 130/56/8 38/56/8
f 130/56/8 131/57/9 39/57/9
f 39/57/9 131/57/9 132/58/10
f 40/58/10 132/58/10 133/59/11
f 133/59/11 134/60/12 42/60/12
f 134/60/12 135/61/13 43/61/13
f 135/61/13 136/62/20 44/62/14
f 136/62/20 137/63/15 45/63/15
f 137/63/15 122/48/1 31/48/18
f 146/96/16 149/108/16 139/97/16
f 176/99/15 187/135/15 141/100/15
f 144/102/17 145/125/29 148/103/21
f 138/105/22 139/136/22 181/106/22
f 153/108/23 184/115/23 183/109/23
f 160/96/24 159/98/25 179/110/25
f 162/101/27 160/96/24 178/111/26
f 147/104/17 148/103/21 143/113/17
f 141/100/23 187/133/23 186/115/23
f 140/101/16 141/100/16 149/108/16
f 139/97/22 155/97/22 182/109/22
f 154/116/28 157/117/30 148/117/21
f 185/115/15 156/108/15 149/108/15
f 156/108/16 155/97/16 139/97/16
f 151/97/22 183/109/22 182/109/22
f 153/108/16 151/97/16 155/97/16
f 153/108/15 156/108/15 185/115/15
f 150/116/17 152/117/17 157/117/30
f 138/98/22 180/110/22 206/110/22
f 205/98/16 204/96/16 146/96/16
f 199/118/17 198/119/17 144/119/17
f 204/96/16 203/101/16 140/101/16
f 203/101/15 202/112/15 176/112/15
f 142/120/17 200/120/17 199/118/17
f 142/120/15 168/121/15 201/121/15
f 163/120/27 167/121/27 166/122/31
f 161/118/24 166/122/31 165/123/25
f 198/119/22 207/123/22 164/123/22
f 164/124/22 175/132/22 145/125/22
f 154/116/22 145/116/22 175/126/22
f 150/116/22 154/116/22 174/126/22
f 152/117/23 150/116/23 173/126/23
f 152/117/15 172/127/15 171/127/15
f 157/117/15 171/127/15 170/127/15
f 143/128/23 148/117/23 170/127/23
f 142/114/15 143/113/15 169/130/15
f 168/121/15 176/112/15 202/112/15
f 167/121/27 177/112/27 178/111/26
f 165/123/25 166/122/31 178/111/26
f 164/123/22 207/123/22 206/110/22
f 175/132/22 164/124/22 180/107/22
f 174/126/22 175/126/22 181/109/22
f 173/126/22 174/126/22 182/109/22
f 172/127/23 173/126/23 183/109/23
f 172/127/15 184/115/15 185/115/15
f 186/115/15 170/127/15 171/127/15
f 170/127/23 186/115/23 187/133/23
f 169/130/15 187/135/15 176/99/15
f 161/118/17 158/119/17 191/119/17
f 189/120/17 163/120/17 161/118/17
f 163/120/15 189/120/15 188/121/15
f 188/121/15 197/112/15 177/112/15
f 162/101/15 177/112/15 197/112/15
f 160/96/16 162/101/16 196/101/16
f 159/98/16 160/96/16 195/96/16
f 159/98/22 194/98/22 193/110/22
f 165/123/22 179/110/22 193/110/22
f 158/119/22 165/123/22 192/123/22
f 191/119/17 198/119/17 199/118/17
f 190/118/17 199/118/17 200/120/17
f 188/121/15 189/120/15 200/120/15
f 211/121/15 210/121/15 208/112/15
f 197/112/15 202/112/15 203/101/15
f 195/96/16 196/101/16 203/101/16
f 195/96/16 204/96/16 205/98/16
f 193/110/22 194/98/22 205/98/22
f 193/110/22 206/110/22 207/123/22
f 192/123/22 207/123/22 198/119/22
s 0
f 197/112/32 209/112/32 208/112/32
f 202/112/23 208/112/23 210/121/23
f 201/121/32 210/121/32 211/121/32
f 188/121/23 211/121/23 209/112/23
