# Blender 4.4.3
# www.blender.org
mtllib Coxa.mtl
o Coxa
v -0.210033 0.094437 0.730294
v -0.153284 0.172545 0.730294
v -0.069673 0.220818 0.730294
v 0.026345 0.230910 0.730294
v 0.118167 0.201075 0.730294
v 0.189915 0.136473 0.730294
v 0.229184 0.048273 0.730294
v 0.229184 -0.048273 0.730294
v 0.189915 -0.136473 0.730294
v 0.118167 -0.201075 0.730294
v 0.026345 -0.230910 0.730294
v -0.069672 -0.220818 0.730294
v -0.153284 -0.172545 0.730294
v -0.210033 -0.094437 0.730294
v -0.230106 -0.000000 0.730294
v -0.210033 0.094437 0.131041
v -0.153284 0.172545 0.131041
v -0.069673 0.220818 0.131041
v 0.026345 0.230910 0.131041
v 0.118167 0.201075 0.131041
v 0.189915 0.136473 0.131041
v 0.229184 0.048273 0.131041
v 0.229184 -0.048273 0.131041
v 0.189915 -0.136473 0.131041
v 0.118167 -0.201075 0.131041
v 0.026345 -0.230910 0.131041
v -0.069672 -0.220818 0.131041
v -0.153284 -0.172545 0.131041
v -0.210033 -0.094437 0.131041
v -0.230106 -0.000000 0.131041
v -0.045875 0.020464 0.094209
v -0.033577 0.037390 0.094209
v -0.015459 0.047851 0.094209
v 0.005348 0.050037 0.094209
v 0.025245 0.043572 0.094209
v 0.040793 0.029573 0.094209
v 0.049302 0.010461 0.094209
v 0.049302 -0.010461 0.094209
v 0.040793 -0.029573 0.094209
v 0.025245 -0.043572 0.094209
v 0.005348 -0.050038 0.094209
v -0.015459 -0.047851 0.094209
v -0.033577 -0.037390 0.094209
v -0.045875 -0.020464 0.094209
v -0.050225 -0.000000 0.094209
v -0.221017 0.099367 0.131041
v -0.161306 0.181552 0.131041
v -0.161306 0.181552 0.094209
v -0.221017 0.099367 0.094209
v -0.073330 0.232345 0.131041
v -0.073330 0.232345 0.094209
v 0.027700 0.242964 0.131041
v 0.027700 0.242964 0.094209
v 0.124315 0.211572 0.131041
v 0.124315 0.211572 0.094209
v 0.199809 0.143597 0.131041
v 0.199809 0.143597 0.094209
v 0.241127 0.050793 0.131041
v 0.241127 0.050793 0.094209
v 0.241127 -0.050793 0.131041
v 0.241127 -0.050793 0.094209
v 0.199809 -0.143597 0.131041
v 0.199809 -0.143597 0.094209
v 0.124315 -0.211572 0.131041
v 0.124315 -0.211572 0.094209
v 0.027700 -0.242964 0.131041
v 0.027700 -0.242964 0.094209
v -0.073330 -0.232345 0.131041
v -0.073330 -0.232345 0.094209
v -0.161306 -0.181552 0.131041
v -0.161306 -0.181552 0.094209
v -0.221017 -0.099367 0.131041
v -0.221017 -0.099367 0.094209
v -0.242139 -0.000000 0.131041
v -0.242139 -0.000000 0.094209
v -0.210033 0.094437 0.745909
v -0.153284 0.172545 0.745909
v 0.002076 -0.000000 0.745909
v -0.069673 0.220818 0.745909
v 0.026345 0.230910 0.745909
v 0.118167 0.201075 0.745909
v 0.189915 0.136473 0.745909
v 0.229184 0.048273 0.745909
v 0.229184 -0.048273 0.745909
v 0.189915 -0.136473 0.745909
v 0.118167 -0.201075 0.745909
v 0.026345 -0.230910 0.745909
v -0.069672 -0.220818 0.745909
v -0.153284 -0.172545 0.745909
v -0.210033 -0.094437 0.745909
v -0.230106 -0.000000 0.745909
v -0.224437 0.100850 0.730294
v -0.163834 0.184262 0.730294
v -0.224437 0.100850 0.745909
v -0.163834 0.184262 0.745909
v -0.074545 0.235814 0.730294
v -0.074545 0.235814 0.745909
v 0.027993 0.246591 0.730294
v 0.027993 0.246591 0.745909
v 0.126050 0.214730 0.730294
v 0.126050 0.214730 0.745909
v 0.202671 0.145741 0.730294
v 0.202671 0.145741 0.745909
v 0.244607 0.051552 0.730294
v 0.244607 0.051552 0.745909
v 0.244607 -0.051551 0.730294
v 0.244607 -0.051551 0.745909
v 0.202671 -0.145741 0.730294
v 0.202671 -0.145741 0.745909
v 0.126051 -0.214730 0.730294
v 0.126051 -0.214730 0.745909
v 0.027994 -0.246591 0.730294
v 0.027994 -0.246591 0.745909
v -0.074545 -0.235814 0.730294
v -0.074545 -0.235814 0.745909
v -0.163834 -0.184262 0.730294
v -0.163834 -0.184262 0.745909
v -0.224437 -0.100850 0.730294
v -0.224437 -0.100850 0.745909
v -0.245873 -0.000000 0.730294
v -0.245873 -0.000000 0.745909
v -0.045875 0.020464 0.000000
v -0.033577 0.037390 0.000000
v 0.000000 0.000000 0.000000
v -0.015459 0.047851 0.000000
v 0.005348 0.050037 0.000000
v 0.025245 0.043572 0.000000
v 0.040793 0.029573 -0.000000
v 0.049302 0.010461 -0.000000
v 0.049302 -0.010461 -0.000000
v 0.040793 -0.029573 -0.000000
v 0.025245 -0.043572 -0.000000
v 0.005348 -0.050037 -0.000000
v -0.015459 -0.047851 -0.000000
v -0.033577 -0.037390 0.000000
v -0.045875 -0.020464 0.000000
v -0.050225 0.000000 0.000000
v -0.020966 -0.347270 0.894234
v -0.020966 -0.319177 0.894234
v -0.537635 -0.347270 0.894234
v -0.537635 -0.319177 0.894234
v -0.537635 -0.347270 0.677891
v -0.537635 -0.319177 0.677891
v -0.020966 -0.347270 0.677891
v -0.020966 -0.319177 0.677891
v -0.048383 -0.347270 0.894234
v -0.048383 -0.347270 0.677891
v -0.048383 -0.319177 0.677891
v -0.048383 -0.319177 0.894234
v -0.020966 0.066507 0.783268
v -0.020966 0.066507 0.894234
v -0.048383 0.066507 0.783268
v -0.048383 0.066507 0.894234
v -0.020966 -0.211542 0.783268
v -0.020966 -0.211542 0.894234
v -0.048383 -0.211542 0.894234
v -0.048383 -0.211542 0.783268
v -0.020966 -0.373284 0.677891
v -0.020966 -0.373284 0.894234
v -0.048383 -0.373284 0.894234
v -0.048383 -0.373284 0.677891
v -0.537635 -0.516544 0.894234
v -0.537635 -0.516544 0.677891
v -0.020966 -0.347270 0.731977
v -0.020966 -0.373284 0.731977
v -0.048383 -0.373284 0.731977
v -0.537635 -0.516544 0.731977
v -0.537635 -0.347270 0.731977
v -0.537635 -0.319177 0.731977
v -0.048383 -0.319177 0.731977
v -0.048383 -0.211542 0.811009
v -0.048383 0.066507 0.811009
v -0.020966 0.066507 0.811009
v -0.020966 -0.211542 0.811009
v -0.020966 -0.319177 0.731977
v -0.537635 -0.347270 0.840148
v -0.537635 -0.516544 0.840148
v -0.048383 -0.373284 0.840148
v -0.020966 -0.373284 0.840148
v -0.020966 -0.347270 0.840148
v -0.020966 -0.319177 0.840148
v -0.020966 -0.211542 0.866492
v -0.020966 0.066507 0.866492
v -0.048383 0.066507 0.866492
v -0.048383 -0.211542 0.866492
v -0.048383 -0.319177 0.840148
v -0.537635 -0.319177 0.840148
v -0.537635 -0.474225 0.731977
v -0.537635 -0.474225 0.677891
v -0.048383 -0.366780 0.677891
v -0.020966 -0.366780 0.677891
v -0.020966 -0.366780 0.731977
v -0.020966 -0.366780 0.840148
v -0.020966 -0.366780 0.894234
v -0.048383 -0.366780 0.894234
v -0.537635 -0.474225 0.894234
v -0.537635 -0.474225 0.840148
v -0.020966 -0.353773 0.677891
v -0.048383 -0.353773 0.677891
v -0.537635 -0.389588 0.677891
v -0.537635 -0.389588 0.731977
v -0.537635 -0.389588 0.840148
v -0.537635 -0.389588 0.894234
v -0.048383 -0.353773 0.894234
v -0.020966 -0.353773 0.894234
v -0.020966 -0.353773 0.840148
v -0.020966 -0.353773 0.731977
v -0.537635 -0.389588 0.840148
v -0.537635 -0.474225 0.840148
v -0.537635 -0.389588 0.731977
v -0.537635 -0.474225 0.731977
vn -0.6691 0.7431 -0.0000
vn -0.9135 0.4067 -0.0000
vn -0.3090 0.9511 -0.0000
vn 0.1045 0.9945 -0.0000
vn 0.5000 0.8660 -0.0000
vn 0.8090 0.5878 -0.0000
vn 0.9781 0.2079 -0.0000
vn 0.9781 -0.2079 -0.0000
vn 0.8090 -0.5878 -0.0000
vn 0.5000 -0.8660 -0.0000
vn 0.1045 -0.9945 -0.0000
vn -0.3090 -0.9511 -0.0000
vn -0.6691 -0.7431 -0.0000
vn -0.9135 -0.4067 -0.0000
vn -1.0000 -0.0000 -0.0000
vn -0.0000 -0.0000 1.0000
vn -0.0000 -0.0000 -1.0000
vn -0.9135 0.4068 -0.0000
vn 0.1046 0.9945 -0.0000
vn 0.1046 -0.9945 -0.0000
vn -0.9135 -0.4068 -0.0000
vn -0.0000 0.1607 -0.9870
vn 1.0000 -0.0000 -0.0000
vn -0.0000 1.0000 -0.0000
vn -0.0000 -1.0000 -0.0000
vn 0.2678 -0.9635 -0.0000
vn 0.2659 -0.9640 -0.0000
vn 0.2810 -0.9597 -0.0000
vn -0.0000 0.2663 -0.9639
vn -0.0000 0.6132 -0.7899
vn -0.0000 0.2664 -0.9639
vn 0.2653 -0.9641 0.0135
vn -0.0000 -0.0000 -0.0000
vt 0.247735 0.367009
vt 0.242230 0.490874
vt 0.242230 0.367009
vt 0.253240 0.367009
vt 0.247735 0.490874
vt 0.258745 0.367009
vt 0.253240 0.490874
vt 0.264251 0.367009
vt 0.258745 0.490874
vt 0.269756 0.367009
vt 0.264251 0.490874
vt 0.275261 0.367009
vt 0.269756 0.490874
vt 0.280766 0.367009
vt 0.275261 0.490874
vt 0.286271 0.367009
vt 0.280766 0.490874
vt 0.291776 0.367009
vt 0.286271 0.490874
vt 0.297281 0.367009
vt 0.291776 0.490874
vt 0.302786 0.367009
vt 0.297281 0.490874
vt 0.308292 0.367009
vt 0.302786 0.490874
vt 0.313797 0.367009
vt 0.308292 0.490874
vt 0.319302 0.367009
vt 0.313797 0.490874
vt 0.324807 0.367009
vt 0.319302 0.490874
vt 0.557948 0.766079
vt 0.567173 0.778776
vt 0.532693 0.794127
vt 0.544356 0.758231
vt 0.528748 0.756591
vt 0.513822 0.761441
vt 0.502158 0.771942
vt 0.495775 0.786280
vt 0.495775 0.801974
vt 0.502158 0.816311
vt 0.513822 0.826813
vt 0.528748 0.831663
vt 0.544356 0.830022
vt 0.557948 0.822175
vt 0.567173 0.809478
vt 0.570436 0.794127
vt 0.736780 0.430707
vt 0.726939 0.444252
vt 0.699997 0.414330
vt 0.712439 0.452624
vt 0.695788 0.454374
vt 0.679865 0.449200
vt 0.667422 0.437997
vt 0.660612 0.422702
vt 0.660612 0.405959
vt 0.667422 0.390664
vt 0.679865 0.379461
vt 0.695788 0.374287
vt 0.712439 0.376037
vt 0.726939 0.384408
vt 0.736780 0.397954
vt 0.740261 0.414330
vt 0.524478 0.711486
vt 0.534319 0.697941
vt 0.509979 0.719857
vt 0.493328 0.721607
vt 0.477404 0.716433
vt 0.464962 0.705230
vt 0.458152 0.689935
vt 0.458152 0.673192
vt 0.464962 0.657897
vt 0.477404 0.646694
vt 0.493328 0.641520
vt 0.509979 0.643270
vt 0.524478 0.651642
vt 0.534319 0.665187
vt 0.537801 0.681564
vt 0.525330 0.713615
vt 0.510830 0.721986
vt 0.494179 0.723736
vt 0.478256 0.718563
vt 0.465814 0.707360
vt 0.459004 0.692064
vt 0.459004 0.675322
vt 0.465814 0.660026
vt 0.478256 0.648823
vt 0.494179 0.643649
vt 0.510830 0.645399
vt 0.525330 0.653771
vt 0.535171 0.667316
vt 0.538652 0.683693
vt 0.535171 0.700070
vt 0.556545 0.589494
vt 0.491929 0.582703
vt 0.717512 0.335581
vt 0.705535 0.336217
vt 0.705535 0.335581
vt 0.717512 0.347558
vt 0.705535 0.350552
vt 0.705535 0.347558
vt 0.717512 0.370876
vt 0.705535 0.371512
vt 0.705535 0.370876
vt 0.717512 0.380494
vt 0.705535 0.383489
vt 0.705535 0.380494
vt 0.720506 0.335581
vt 0.717512 0.336217
vt 0.702541 0.335581
vt 0.702541 0.336217
vt 0.702541 0.347558
vt 0.717512 0.359535
vt 0.705535 0.359535
vt 0.720506 0.336217
vt 0.729489 0.336217
vt 0.729489 0.335581
vt 0.693559 0.335581
vt 0.693559 0.336217
vt 0.693559 0.347558
vt 0.696553 0.347558
vt 0.696553 0.336217
vt 0.696553 0.335581
vt 0.717512 0.371512
vt 0.705535 0.374506
vt 0.726495 0.335581
vt 0.726495 0.336217
vt 0.729489 0.347558
vt 0.726495 0.347558
vt 0.717512 0.356541
vt 0.705535 0.356541
vt 0.717512 0.374506
vt 0.720506 0.347558
vt 0.324807 0.490874
vt 0.717512 0.350552
vt 0.717512 0.383489
s 1
usemtl lambert2SG.001
f 2/1/1 16/2/2 1/3/2
f 3/4/3 17/5/1 2/1/1
f 4/6/4 18/7/3 3/4/3
f 5/8/5 19/9/4 4/6/4
f 6/10/6 20/11/5 5/8/5
f 7/12/7 21/13/6 6/10/6
f 8/14/8 22/15/7 7/12/7
f 9/16/9 23/17/8 8/14/8
f 10/18/10 24/19/9 9/16/9
f 11/20/11 25/21/10 10/18/10
f 12/22/12 26/23/11 11/20/11
f 13/24/13 27/25/12 12/22/12
f 14/26/14 28/27/13 13/24/13
f 15/28/15 29/29/14 14/26/14
f 1/30/2 30/31/15 15/28/15
f 77/32/16 76/33/16 78/34/16
f 79/35/16 77/32/16 78/34/16
f 80/36/16 79/35/16 78/34/16
f 81/37/16 80/36/16 78/34/16
f 82/38/16 81/37/16 78/34/16
f 83/39/16 82/38/16 78/34/16
f 84/40/16 83/39/16 78/34/16
f 85/41/16 84/40/16 78/34/16
f 86/42/16 85/41/16 78/34/16
f 87/43/16 86/42/16 78/34/16
f 88/44/16 87/43/16 78/34/16
f 89/45/16 88/44/16 78/34/16
f 90/46/16 89/45/16 78/34/16
f 91/47/16 90/46/16 78/34/16
f 76/33/16 91/47/16 78/34/16
f 122/48/17 123/49/17 124/50/17
f 123/49/17 125/51/17 124/50/17
f 125/51/17 126/52/17 124/50/17
f 126/52/17 127/53/17 124/50/17
f 127/53/17 128/54/17 124/50/17
f 128/54/17 129/55/17 124/50/17
f 129/55/17 130/56/17 124/50/17
f 130/56/17 131/57/17 124/50/17
f 131/57/17 132/58/17 124/50/17
f 132/58/17 133/59/17 124/50/17
f 133/59/17 134/60/17 124/50/17
f 134/60/17 135/61/17 124/50/17
f 135/61/17 136/62/17 124/50/17
f 136/62/17 137/63/17 124/50/17
f 137/63/17 122/48/17 124/50/17
f 47/64/1 49/65/2 46/65/2
f 50/66/3 48/64/1 47/64/1
f 52/67/4 51/66/3 50/66/3
f 54/68/5 53/67/4 52/67/4
f 56/69/6 55/68/5 54/68/5
f 58/70/7 57/69/6 56/69/6
f 60/71/8 59/70/7 58/70/7
f 62/72/9 61/71/8 60/71/8
f 64/73/10 63/72/9 62/72/9
f 66/74/11 65/73/10 64/73/10
f 68/75/12 67/74/11 66/74/11
f 70/76/13 69/75/12 68/75/12
f 72/77/14 71/76/13 70/76/13
f 74/78/15 73/77/14 72/77/14
f 46/65/2 75/78/15 74/78/15
f 17/64/16 46/65/16 16/65/16
f 32/79/17 49/65/17 48/64/17
f 18/66/16 47/64/16 17/64/16
f 33/80/17 48/64/17 51/66/17
f 19/67/16 50/66/16 18/66/16
f 34/81/17 51/66/17 53/67/17
f 20/68/16 52/67/16 19/67/16
f 35/82/17 53/67/17 55/68/17
f 21/69/16 54/68/16 20/68/16
f 36/83/17 55/68/17 57/69/17
f 22/70/16 56/69/16 21/69/16
f 37/84/17 57/69/17 59/70/17
f 23/71/16 58/70/16 22/70/16
f 37/84/17 61/71/17 38/85/17
f 23/71/16 62/72/16 60/71/16
f 38/85/17 63/72/17 39/86/17
f 24/72/16 64/73/16 62/72/16
f 39/86/17 65/73/17 40/87/17
f 25/73/16 66/74/16 64/73/16
f 40/87/17 67/74/17 41/88/17
f 26/74/16 68/75/16 66/74/16
f 41/88/17 69/75/17 42/89/17
f 27/75/16 70/76/16 68/75/16
f 42/89/17 71/76/17 43/90/17
f 28/76/16 72/77/16 70/76/16
f 43/90/17 73/77/17 44/91/17
f 29/77/16 74/78/16 72/77/16
f 44/91/17 75/78/17 45/92/17
f 16/65/16 74/78/16 30/78/16
f 31/93/17 75/78/17 49/65/17
f 92/33/2 95/32/1 93/32/1
f 93/32/1 97/35/3 96/35/3
f 96/94/3 99/95/4 98/95/4
f 98/36/4 101/37/5 100/37/5
f 100/37/5 103/38/6 102/38/6
f 102/38/6 105/39/7 104/39/7
f 104/39/7 107/40/8 106/40/8
f 106/40/8 109/41/9 108/41/9
f 108/41/9 111/42/10 110/42/10
f 110/42/10 113/43/11 112/43/11
f 112/43/11 115/44/12 114/44/12
f 114/44/12 117/45/13 116/45/13
f 116/45/13 119/46/14 118/46/14
f 118/46/14 121/47/15 120/47/15
f 120/47/15 94/33/2 92/33/2
f 1/33/17 93/32/17 2/32/17
f 76/33/16 95/32/16 94/33/16
f 3/35/17 93/32/17 96/35/17
f 79/35/16 95/32/16 77/32/16
f 4/95/17 96/94/17 98/95/17
f 80/95/16 97/94/16 79/94/16
f 4/36/17 100/37/17 5/37/17
f 80/36/16 101/37/16 99/36/16
f 5/37/17 102/38/17 6/38/17
f 81/37/16 103/38/16 101/37/16
f 6/38/17 104/39/17 7/39/17
f 82/38/16 105/39/16 103/38/16
f 7/39/17 106/40/17 8/40/17
f 83/39/16 107/40/16 105/39/16
f 8/40/17 108/41/17 9/41/17
f 84/40/16 109/41/16 107/40/16
f 9/41/17 110/42/17 10/42/17
f 85/41/16 111/42/16 109/41/16
f 10/42/17 112/43/17 11/43/17
f 86/42/16 113/43/16 111/42/16
f 11/43/17 114/44/17 12/44/17
f 87/43/16 115/44/16 113/43/16
f 13/45/17 114/44/17 116/45/17
f 89/45/16 115/44/16 88/44/16
f 14/46/17 116/45/17 118/46/17
f 90/46/16 117/45/16 89/45/16
f 14/46/17 120/47/17 15/47/17
f 90/46/16 121/47/16 119/46/16
f 1/33/17 120/47/17 92/33/17
f 76/33/16 121/47/16 91/47/16
f 32/49/1 122/48/2 31/48/18
f 33/51/3 123/49/1 32/49/1
f 34/52/19 125/51/3 33/51/3
f 35/53/5 126/52/4 34/52/19
f 36/54/6 127/53/5 35/53/5
f 37/55/7 128/54/6 36/54/6
f 38/56/8 129/55/7 37/55/7
f 39/57/9 130/56/8 38/56/8
f 40/58/10 131/57/9 39/57/9
f 40/58/10 133/59/20 132/58/10
f 42/60/12 133/59/20 41/59/20
f 43/61/13 134/60/12 42/60/12
f 44/62/14 135/61/13 43/61/13
f 45/63/15 136/62/21 44/62/14
f 31/48/18 137/63/15 45/63/15
f 139/96/16 146/97/16 138/98/16
f 141/99/15 176/100/15 140/101/15
f 148/102/22 144/103/17 147/104/17
f 181/105/23 138/106/23 180/107/23
f 183/108/24 153/109/24 151/96/24
f 179/110/25 160/97/26 178/111/27
f 178/111/27 162/101/28 177/112/28
f 143/113/17 147/104/17 142/114/17
f 186/115/24 141/99/24 149/109/24
f 149/109/16 140/101/16 146/97/16
f 139/96/23 182/108/23 155/96/23
f 148/116/22 154/117/29 145/117/30
f 185/115/15 149/109/15 156/109/15
f 139/96/16 156/109/16 149/109/16
f 182/108/23 151/96/23 155/96/23
f 155/96/16 153/109/16 156/109/16
f 185/115/15 153/109/15 184/115/15
f 157/116/31 150/117/17 154/117/29
f 206/110/23 138/98/23 205/98/23
f 146/97/16 205/98/16 138/98/16
f 144/118/17 199/119/17 147/119/17
f 140/101/16 204/97/16 146/97/16
f 176/112/15 203/101/15 140/101/15
f 142/120/17 199/119/17 200/120/17
f 201/121/15 142/120/15 200/120/15
f 166/122/32 163/120/28 161/119/26
f 165/123/25 161/119/26 158/118/25
f 164/123/23 198/118/23 144/118/23
f 145/124/23 164/125/23 144/103/23
f 175/126/23 154/117/23 174/126/23
f 174/126/23 150/117/23 173/126/23
f 173/126/24 152/116/24 172/127/24
f 171/127/15 152/116/15 157/116/15
f 170/127/15 157/116/15 148/116/15
f 170/127/24 143/128/24 169/129/24
f 169/130/15 142/114/15 168/131/15
f 202/112/15 168/121/15 201/121/15
f 178/111/27 167/121/28 166/122/32
f 178/111/27 165/123/25 179/110/25
f 206/110/23 164/123/23 180/110/23
f 180/107/23 175/132/23 181/105/23
f 181/108/23 174/126/23 182/108/23
f 182/108/23 173/126/23 183/108/23
f 183/108/24 172/127/24 184/115/24
f 185/115/15 172/127/15 171/127/15
f 186/115/15 171/127/15 170/127/15
f 187/133/24 170/127/24 169/129/24
f 176/100/15 169/130/15 168/131/15
f 191/118/17 161/119/17 190/119/17
f 189/120/17 161/119/17 163/120/17
f 188/121/15 163/120/15 167/121/15
f 177/112/15 188/121/15 167/121/15
f 197/112/15 162/101/15 196/101/15
f 196/101/16 160/97/16 195/97/16
f 195/97/16 159/98/16 194/98/16
f 193/110/23 159/98/23 179/110/23
f 193/110/23 165/123/23 192/123/23
f 192/123/23 158/118/23 191/118/23
f 199/119/17 191/118/17 190/119/17
f 200/120/17 190/119/17 189/120/17
f 200/120/15 188/121/15 201/121/15
f 208/112/15 211/121/15 209/112/15
f 203/101/15 197/112/15 196/101/15
f 195/97/16 203/101/16 196/101/16
f 205/98/16 195/97/16 194/98/16
f 205/98/23 193/110/23 206/110/23
f 207/123/23 193/110/23 192/123/23
f 198/118/23 192/123/23 191/118/23
s 0
f 197/112/33 208/112/33 209/112/33
f 202/112/25 210/121/25 208/112/25
f 201/121/33 211/121/33 210/121/33
f 188/121/25 209/112/25 211/121/25
s 1
f 2/1/1 17/5/1 16/2/2
f 3/4/3 18/7/3 17/5/1
f 4/6/4 19/9/4 18/7/3
f 5/8/5 20/11/5 19/9/4
f 6/10/6 21/13/6 20/11/5
f 7/12/7 22/15/7 21/13/6
f 8/14/8 23/17/8 22/15/7
f 9/16/9 24/19/9 23/17/8
f 10/18/10 25/21/10 24/19/9
f 11/20/11 26/23/11 25/21/10
f 12/22/12 27/25/12 26/23/11
f 13/24/13 28/27/13 27/25/12
f 14/26/14 29/29/14 28/27/13
f 15/28/15 30/31/15 29/29/14
f 1/30/2 16/134/2 30/31/15
f 47/64/1 48/64/1 49/65/2
f 50/66/3 51/66/3 48/64/1
f 52/67/4 53/67/4 51/66/3
f 54/68/5 55/68/5 53/67/4
f 56/69/6 57/69/6 55/68/5
f 58/70/7 59/70/7 57/69/6
f 60/71/8 61/71/8 59/70/7
f 62/72/9 63/72/9 61/71/8
f 64/73/10 65/73/10 63/72/9
f 66/74/11 67/74/11 65/73/10
f 68/75/12 69/75/12 67/74/11
f 70/76/13 71/76/13 69/75/12
f 72/77/14 73/77/14 71/76/13
f 74/78/15 75/78/15 73/77/14
f 46/65/2 49/65/2 75/78/15
f 17/64/16 47/64/16 46/65/16
f 32/79/17 31/93/17 49/65/17
f 18/66/16 50/66/16 47/64/16
f 33/80/17 32/79/17 48/64/17
f 19/67/16 52/67/16 50/66/16
f 34/81/17 33/80/17 51/66/17
f 20/68/16 54/68/16 52/67/16
f 35/82/17 34/81/17 53/67/17
f 21/69/16 56/69/16 54/68/16
f 36/83/17 35/82/17 55/68/17
f 22/70/16 58/70/16 56/69/16
f 37/84/17 36/83/17 57/69/17
f 23/71/16 60/71/16 58/70/16
f 37/84/17 59/70/17 61/71/17
f 23/71/16 24/72/16 62/72/16
f 38/85/17 61/71/17 63/72/17
f 24/72/16 25/73/16 64/73/16
f 39/86/17 63/72/17 65/73/17
f 25/73/16 26/74/16 66/74/16
f 40/87/17 65/73/17 67/74/17
f 26/74/16 27/75/16 68/75/16
f 41/88/17 67/74/17 69/75/17
f 27/75/16 28/76/16 70/76/16
f 42/89/17 69/75/17 71/76/17
f 28/76/16 29/77/16 72/77/16
f 43/90/17 71/76/17 73/77/17
f 29/77/16 30/78/16 74/78/16
f 44/91/17 73/77/17 75/78/17
f 16/65/16 46/65/16 74/78/16
f 31/93/17 45/92/17 75/78/17
f 92/33/2 94/33/2 95/32/1
f 93/32/1 95/32/1 97/35/3
f 96/94/3 97/94/3 99/95/4
f 98/36/4 99/36/4 101/37/5
f 100/37/5 101/37/5 103/38/6
f 102/38/6 103/38/6 105/39/7
f 104/39/7 105/39/7 107/40/8
f 106/40/8 107/40/8 109/41/9
f 108/41/9 109/41/9 111/42/10
f 110/42/10 111/42/10 113/43/11
f 112/43/11 113/43/11 115/44/12
f 114/44/12 115/44/12 117/45/13
f 116/45/13 117/45/13 119/46/14
f 118/46/14 119/46/14 121/47/15
f 120/47/15 121/47/15 94/33/2
f 1/33/17 92/33/17 93/32/17
f 76/33/16 77/32/16 95/32/16
f 3/35/17 2/32/17 93/32/17
f 79/35/16 97/35/16 95/32/16
f 4/95/17 3/94/17 96/94/17
f 80/95/16 99/95/16 97/94/16
f 4/36/17 98/36/17 100/37/17
f 80/36/16 81/37/16 101/37/16
f 5/37/17 100/37/17 102/38/17
f 81/37/16 82/38/16 103/38/16
f 6/38/17 102/38/17 104/39/17
f 82/38/16 83/39/16 105/39/16
f 7/39/17 104/39/17 106/40/17
f 83/39/16 84/40/16 107/40/16
f 8/40/17 106/40/17 108/41/17
f 84/40/16 85/41/16 109/41/16
f 9/41/17 108/41/17 110/42/17
f 85/41/16 86/42/16 111/42/16
f 10/42/17 110/42/17 112/43/17
f 86/42/16 87/43/16 113/43/16
f 11/43/17 112/43/17 114/44/17
f 87/43/16 88/44/16 115/44/16
f 13/45/17 12/44/17 114/44/17
f 89/45/16 117/45/16 115/44/16
f 14/46/17 13/45/17 116/45/17
f 90/46/16 119/46/16 117/45/16
f 14/46/17 118/46/17 120/47/17
f 90/46/16 91/47/16 121/47/16
f 1/33/17 15/47/17 120/47/17
f 76/33/16 94/33/16 121/47/16
f 32/49/1 123/49/1 122/48/2
f 33/51/3 125/51/3 123/49/1
f 34/52/19 126/52/4 125/51/3
f 35/53/5 127/53/5 126/52/4
f 36/54/6 128/54/6 127/53/5
f 37/55/7 129/55/7 128/54/6
f 38/56/8 130/56/8 129/55/7
f 39/57/9 131/57/9 130/56/8
f 40/58/10 132/58/10 131/57/9
f 40/58/10 41/59/20 133/59/20
f 42/60/12 134/60/12 133/59/20
f 43/61/13 135/61/13 134/60/12
f 44/62/14 136/62/21 135/61/13
f 45/63/15 137/63/15 136/62/21
f 31/48/18 122/48/2 137/63/15
f 139/96/16 149/109/16 146/97/16
f 141/99/15 187/135/15 176/100/15
f 148/102/22 145/124/30 144/103/17
f 181/105/23 139/136/23 138/106/23
f 183/108/24 184/115/24 153/109/24
f 179/110/25 159/98/25 160/97/26
f 178/111/27 160/97/26 162/101/28
f 143/113/17 148/102/22 147/104/17
f 186/115/24 187/133/24 141/99/24
f 149/109/16 141/99/16 140/101/16
f 139/96/23 181/108/23 182/108/23
f 148/116/22 157/116/31 154/117/29
f 185/115/15 186/115/15 149/109/15
f 139/96/16 155/96/16 156/109/16
f 182/108/23 183/108/23 151/96/23
f 155/96/16 151/96/16 153/109/16
f 185/115/15 156/109/15 153/109/15
f 157/116/31 152/116/17 150/117/17
f 206/110/23 180/110/23 138/98/23
f 146/97/16 204/97/16 205/98/16
f 144/118/17 198/118/17 199/119/17
f 140/101/16 203/101/16 204/97/16
f 176/112/15 202/112/15 203/101/15
f 142/120/17 147/119/17 199/119/17
f 201/121/15 168/121/15 142/120/15
f 166/122/32 167/121/28 163/120/28
f 165/123/25 166/122/32 161/119/26
f 164/123/23 207/123/23 198/118/23
f 145/124/23 175/132/23 164/125/23
f 175/126/23 145/117/23 154/117/23
f 174/126/23 154/117/23 150/117/23
f 173/126/24 150/117/24 152/116/24
f 171/127/15 172/127/15 152/116/15
f 170/127/15 171/127/15 157/116/15
f 170/127/24 148/116/24 143/128/24
f 169/130/15 143/113/15 142/114/15
f 202/112/15 176/112/15 168/121/15
f 178/111/27 177/112/28 167/121/28
f 178/111/27 166/122/32 165/123/25
f 206/110/23 207/123/23 164/123/23
f 180/107/23 164/125/23 175/132/23
f 181/108/23 175/126/23 174/126/23
f 182/108/23 174/126/23 173/126/23
f 183/108/24 173/126/24 172/127/24
f 185/115/15 184/115/15 172/127/15
f 186/115/15 185/115/15 171/127/15
f 187/133/24 186/115/24 170/127/24
f 176/100/15 187/135/15 169/130/15
f 191/118/17 158/118/17 161/119/17
f 189/120/17 190/119/17 161/119/17
f 188/121/15 189/120/15 163/120/15
f 177/112/15 197/112/15 188/121/15
f 197/112/15 177/112/15 162/101/15
f 196/101/16 162/101/16 160/97/16
f 195/97/16 160/97/16 159/98/16
f 193/110/23 194/98/23 159/98/23
f 193/110/23 179/110/23 165/123/23
f 192/123/23 165/123/23 158/118/23
f 199/119/17 198/118/17 191/118/17
f 200/120/17 199/119/17 190/119/17
f 200/120/15 189/120/15 188/121/15
f 208/112/15 210/121/15 211/121/15
f 203/101/15 202/112/15 197/112/15
f 195/97/16 204/97/16 203/101/16
f 205/98/16 204/97/16 195/97/16
f 205/98/23 194/98/23 193/110/23
f 207/123/23 206/110/23 193/110/23
f 198/118/23 207/123/23 192/123/23
s 0
f 197/112/33 202/112/33 208/112/33
f 202/112/25 201/121/25 210/121/25
f 201/121/33 188/121/33 211/121/33
f 188/121/25 197/112/25 209/112/25
