# Blender 4.4.3
# www.blender.org
mtllib Femur.mtl
o Femur
v -0.198153 -0.289557 0.119403
v -0.132023 -0.289710 0.189745
v -0.042999 -0.289721 0.227108
v 0.053525 -0.289587 0.225032
v 0.140860 -0.289333 0.183876
v 0.203904 -0.289001 0.110756
v 0.231757 -0.288650 0.018315
v 0.219603 -0.288339 -0.077463
v 0.169542 -0.288124 -0.160017
v 0.090233 -0.288040 -0.215073
v -0.004615 -0.288103 -0.233111
v -0.098598 -0.288301 -0.211012
v -0.175467 -0.288601 -0.152597
v -0.221931 -0.288950 -0.067967
v -0.229956 -0.289289 0.028245
v -0.198938 0.309692 0.121444
v -0.132808 0.309539 0.191786
v -0.043785 0.309529 0.229149
v 0.052740 0.309662 0.227073
v 0.140074 0.309917 0.185917
v 0.203119 0.310249 0.112797
v 0.230972 0.310600 0.020356
v 0.218817 0.310910 -0.075422
v 0.168757 0.311126 -0.157976
v 0.089447 0.311209 -0.213032
v -0.005400 0.311146 -0.231070
v -0.099383 0.310948 -0.208971
v -0.176252 0.310648 -0.150556
v -0.222716 0.310299 -0.065926
v -0.230741 0.309961 0.030286
v -0.055319 0.347297 -0.050267
v -0.040989 0.347264 -0.035024
v -0.021698 0.347262 -0.026927
v -0.000781 0.347291 -0.027377
v 0.018144 0.347346 -0.036296
v 0.031806 0.347418 -0.052140
v 0.037841 0.347494 -0.072172
v 0.035207 0.347561 -0.092927
v 0.024360 0.347608 -0.110816
v 0.007173 0.347626 -0.122747
v -0.013380 0.347613 -0.126655
v -0.033746 0.347570 -0.121867
v -0.050403 0.347505 -0.109208
v -0.060472 0.347429 -0.090869
v -0.062211 0.347356 -0.070020
v -0.209215 0.309657 0.127717
v -0.139632 0.309496 0.201731
v -0.139681 0.346328 0.201857
v -0.209263 0.346489 0.127843
v -0.045962 0.309485 0.241045
v -0.046010 0.346317 0.241170
v 0.055601 0.309626 0.238861
v 0.055553 0.346458 0.238986
v 0.147495 0.309894 0.195556
v 0.147447 0.346726 0.195682
v 0.213831 0.310243 0.118619
v 0.213782 0.347074 0.118744
v 0.243137 0.310612 0.021352
v 0.243089 0.347444 0.021478
v 0.230348 0.310939 -0.079426
v 0.230300 0.347771 -0.079300
v 0.177675 0.311166 -0.166289
v 0.177627 0.347997 -0.166164
v 0.094224 0.311254 -0.224219
v 0.094176 0.348085 -0.224093
v -0.005573 0.311187 -0.243198
v -0.005622 0.348019 -0.243073
v -0.104463 0.310979 -0.219946
v -0.104511 0.347810 -0.219820
v -0.185345 0.310663 -0.158482
v -0.185393 0.347495 -0.158356
v -0.234234 0.310296 -0.069434
v -0.234283 0.347128 -0.069308
v -0.242678 0.309940 0.031801
v -0.242726 0.346772 0.031926
v -0.198132 -0.305172 0.119350
v -0.132002 -0.305325 0.189692
v 0.000399 -0.304501 -0.001037
v -0.042979 -0.305335 0.227055
v 0.053545 -0.305202 0.224979
v 0.140880 -0.304947 0.183823
v 0.203925 -0.304615 0.110703
v 0.231778 -0.304264 0.018262
v 0.219623 -0.303954 -0.077516
v 0.169563 -0.303738 -0.160070
v 0.090253 -0.303655 -0.215126
v -0.004594 -0.303717 -0.233164
v -0.098578 -0.303916 -0.211065
v -0.175446 -0.304216 -0.152650
v -0.221910 -0.304565 -0.068020
v -0.229935 -0.304903 0.028192
v -0.211635 -0.289603 0.127578
v -0.141014 -0.289766 0.202697
v -0.211615 -0.305217 0.127525
v -0.140994 -0.305380 0.202644
v -0.045945 -0.289777 0.242598
v -0.045924 -0.305392 0.242545
v 0.057134 -0.289635 0.240381
v 0.057155 -0.305249 0.240328
v 0.150400 -0.289363 0.196430
v 0.150420 -0.304977 0.196377
v 0.217726 -0.289009 0.118344
v 0.217746 -0.304623 0.118291
v 0.247470 -0.288633 0.019625
v 0.247490 -0.304248 0.019572
v 0.234490 -0.288302 -0.082657
v 0.234511 -0.303916 -0.082710
v 0.181030 -0.288072 -0.170817
v 0.181051 -0.303686 -0.170870
v 0.096334 -0.287983 -0.229612
v 0.096355 -0.303597 -0.229665
v -0.004954 -0.288050 -0.248874
v -0.004933 -0.303664 -0.248928
v -0.105319 -0.288262 -0.225275
v -0.105299 -0.303876 -0.225328
v -0.187409 -0.288582 -0.162893
v -0.187388 -0.304196 -0.162946
v -0.237028 -0.288955 -0.072516
v -0.237007 -0.304569 -0.072569
v -0.245598 -0.289316 0.030230
v -0.245577 -0.304930 0.030177
v -0.055442 0.441506 -0.049946
v -0.041112 0.441473 -0.034703
v -0.012509 0.441651 -0.076022
v -0.021821 0.441470 -0.026606
v -0.000905 0.441499 -0.027057
v 0.018021 0.441554 -0.035975
v 0.031682 0.441626 -0.051820
v 0.037718 0.441702 -0.071851
v 0.035084 0.441770 -0.092606
v 0.024236 0.441816 -0.110495
v 0.007050 0.441834 -0.122425
v -0.013503 0.441821 -0.126334
v -0.033869 0.441778 -0.121546
v -0.050526 0.441713 -0.108887
v -0.060595 0.441637 -0.090548
v -0.062334 0.441564 -0.069699
v -0.034951 0.438751 0.111488
v -0.020621 0.438718 0.126731
v 0.007982 0.438896 0.085412
v -0.001330 0.438715 0.134827
v 0.019587 0.438744 0.134377
v 0.038512 0.438800 0.125459
v 0.052174 0.438871 0.109614
v 0.058209 0.438948 0.089582
v 0.055575 0.439015 0.068828
v 0.044727 0.439062 0.050938
v 0.027541 0.439080 0.039008
v 0.006988 0.439066 0.035099
v -0.013378 0.439023 0.039888
v -0.030035 0.438958 0.052546
v -0.040104 0.438882 0.070885
v -0.041843 0.438809 0.091734
v -0.034881 0.385383 0.111306
v -0.041773 0.385441 0.091552
v -0.040034 0.385515 0.070704
v -0.029966 0.385590 0.052364
v -0.013308 0.385655 0.039706
v 0.007058 0.385698 0.034918
v 0.027611 0.385712 0.038826
v 0.044797 0.385694 0.050757
v 0.055645 0.385647 0.068646
v 0.058279 0.385580 0.089401
v 0.052243 0.385504 0.109432
v 0.038582 0.385432 0.125277
v 0.019657 0.385377 0.134195
v -0.001260 0.385348 0.134646
v -0.020551 0.385350 0.126549
v -0.034811 0.332015 0.111124
v -0.020481 0.331982 0.126367
v 0.008122 0.332160 0.085048
v -0.001190 0.331980 0.134464
v 0.019726 0.332009 0.134014
v 0.038652 0.332064 0.125095
v 0.052313 0.332136 0.109250
v 0.058349 0.332212 0.089219
v 0.055715 0.332279 0.068464
v 0.044867 0.332326 0.050575
v 0.027681 0.332344 0.038645
v 0.007128 0.332330 0.034736
v -0.013238 0.332287 0.039524
v -0.029896 0.332222 0.052183
v -0.039964 0.332147 0.070522
v -0.041703 0.332074 0.091371
v 0.030282 -0.456564 0.130369
v -0.135372 -0.456853 0.151390
v 0.017142 -0.456229 0.026824
v -0.148512 -0.456517 0.047846
v 0.016946 -0.306670 0.027334
v -0.148708 -0.306959 0.048355
v 0.030086 -0.307006 0.130879
v -0.135568 -0.307294 0.151900
v 0.017009 -0.354667 0.027170
v 0.030149 -0.355002 0.130715
v -0.135505 -0.355291 0.151736
v -0.148646 -0.354956 0.048191
v 0.018934 -0.456274 0.040944
v 0.018801 -0.354713 0.041290
v 0.018738 -0.306716 0.041454
v -0.146917 -0.307005 0.062475
v -0.146854 -0.355001 0.062311
v -0.146721 -0.456563 0.061965
v 0.028177 -0.456510 0.113778
v 0.028044 -0.354949 0.114124
v 0.027981 -0.306952 0.114287
v -0.137674 -0.307241 0.135308
v -0.137611 -0.355237 0.135145
v -0.137478 -0.456799 0.134799
v -1.592997 -0.357774 0.319830
v -1.592864 -0.459335 0.319484
v -1.602239 -0.357538 0.246996
v -1.602106 -0.459099 0.246650
v -1.287410 -0.357241 0.281051
v -1.287276 -0.458803 0.280706
v -1.296519 -0.458567 0.207872
v -1.296652 -0.357005 0.208218
v -1.296678 -0.337305 0.208285
v -1.287435 -0.337541 0.281119
v -1.602265 -0.337838 0.247063
v -1.593022 -0.338074 0.319897
v -1.296899 -0.356999 0.206270
v -1.623518 -0.356995 0.079317
v -1.623544 -0.337295 0.079384
v -1.296925 -0.337299 0.206337
v -2.029859 -0.358535 0.375266
v -2.039102 -0.358299 0.302433
v -2.029885 -0.338835 0.375334
v -2.039128 -0.338599 0.302500
v -2.060407 -0.338056 0.134821
v -2.060381 -0.357756 0.134754
vn -0.8551 -0.0029 0.5185
vn -0.5703 -0.0035 0.8215
vn -0.1868 -0.0036 0.9824
vn -0.5702 -0.0035 0.8215
vn 0.2289 -0.0030 0.9734
vn 0.6050 -0.0019 0.7962
vn 0.8766 -0.0005 0.4813
vn 0.9965 0.0010 0.0831
vn 0.9442 0.0024 -0.3294
vn 0.7286 0.0033 -0.6849
vn 0.3870 0.0036 -0.9221
vn 0.7286 0.0033 -0.6850
vn -0.0215 0.0034 -0.9998
vn -0.4263 0.0025 -0.9046
vn -0.7574 0.0012 -0.6530
vn -0.9575 -0.0003 -0.2885
vn -0.9920 -0.0017 0.1259
vn 0.0013 -1.0000 -0.0034
vn -0.0013 1.0000 0.0034
vn -0.5702 -0.0036 0.8215
vn 0.3870 0.0037 -0.9221
vn 0.0013 -1.0000 -0.0035
vn -0.9920 -0.0018 0.1259
vn -0.0014 1.0000 0.0034
vn 0.0014 -1.0000 -0.0034
vn 0.6051 -0.0019 0.7962
vn -0.1259 0.0032 -0.9920
vn 0.1259 -0.0032 0.9920
vn 0.9920 0.0017 -0.1259
vn -0.9920 -0.0017 0.1258
vn -0.0013 1.0000 0.0033
vn 0.9921 0.0017 -0.1258
vn 0.0927 0.0035 -0.9957
vn 0.3623 0.0036 -0.9321
vn 0.0013 -1.0000 -0.0033
vn 0.0013 -1.0000 -0.0032
vn 0.9921 0.0017 -0.1257
vn 0.1259 -0.0033 0.9920
vn 0.0933 0.0035 -0.9956
vt 0.244441 0.343059
vt 0.250753 0.485078
vt 0.244441 0.485078
vt 0.257065 0.343059
vt 0.250753 0.343059
vt 0.263377 0.485078
vt 0.257065 0.485078
vt 0.263377 0.343059
vt 0.269689 0.485078
vt 0.276001 0.343059
vt 0.269689 0.343059
vt 0.282313 0.485078
vt 0.276001 0.485078
vt 0.288625 0.343059
vt 0.282313 0.343059
vt 0.294937 0.485078
vt 0.288625 0.485078
vt 0.301249 0.343059
vt 0.294937 0.343059
vt 0.307561 0.343059
vt 0.301249 0.485078
vt 0.313873 0.343059
vt 0.307561 0.485078
vt 0.320185 0.485078
vt 0.313873 0.485078
vt 0.326497 0.343059
vt 0.320185 0.343059
vt 0.332809 0.485078
vt 0.326497 0.485078
vt 0.339121 0.343059
vt 0.332809 0.343059
vt 0.510804 0.565082
vt 0.516024 0.572265
vt 0.496516 0.580950
vt 0.503115 0.560642
vt 0.494284 0.559714
vt 0.485840 0.562458
vt 0.479241 0.568399
vt 0.475630 0.576511
vt 0.475630 0.585390
vt 0.479241 0.593502
vt 0.485840 0.599443
vt 0.494284 0.602187
vt 0.503115 0.601259
vt 0.510804 0.596819
vt 0.516024 0.589636
vt 0.517870 0.580950
vt 0.737789 0.429045
vt 0.729797 0.440045
vt 0.707916 0.415745
vt 0.718021 0.446844
vt 0.704498 0.448265
vt 0.691566 0.444063
vt 0.681462 0.434965
vt 0.675931 0.422543
vt 0.675931 0.408946
vt 0.681462 0.396524
vt 0.691566 0.387426
vt 0.704498 0.383224
vt 0.718021 0.384645
vt 0.729797 0.391444
vt 0.737789 0.402444
vt 0.740616 0.415745
vt 0.527408 0.800909
vt 0.539406 0.784395
vt 0.509730 0.811115
vt 0.489430 0.813249
vt 0.470016 0.806941
vt 0.454847 0.793282
vt 0.446544 0.774635
vt 0.446544 0.754222
vt 0.454847 0.735575
vt 0.470016 0.721916
vt 0.489430 0.715608
vt 0.509730 0.717742
vt 0.527408 0.727948
vt 0.539406 0.744462
vt 0.543650 0.764429
vt 0.514371 0.628451
vt 0.509152 0.621268
vt 0.501462 0.616828
vt 0.492632 0.615900
vt 0.484187 0.618644
vt 0.477589 0.624585
vt 0.473977 0.632697
vt 0.473977 0.641576
vt 0.477589 0.649688
vt 0.484187 0.655629
vt 0.492632 0.658373
vt 0.501462 0.657445
vt 0.509152 0.653005
vt 0.514371 0.645822
vt 0.568666 0.670187
vt 0.555157 0.733740
vt 0.555157 0.606634
vt 0.570318 0.614001
vt 0.556810 0.677554
vt 0.556810 0.550448
vt 0.732426 0.348469
vt 0.723201 0.361166
vt 0.697946 0.333118
vt 0.709609 0.369013
vt 0.694001 0.370654
vt 0.679075 0.365804
vt 0.667411 0.355303
vt 0.661028 0.340965
vt 0.661028 0.325271
vt 0.667412 0.310933
vt 0.679075 0.300432
vt 0.694001 0.295582
vt 0.709609 0.297223
vt 0.723201 0.305070
vt 0.732426 0.317767
vt 0.735689 0.333118
vt 0.913325 0.287705
vt 0.883194 0.292533
vt 0.883194 0.287705
vt 0.913325 0.317836
vt 0.883194 0.338297
vt 0.883194 0.317836
vt 0.913325 0.373270
vt 0.883194 0.378098
vt 0.883194 0.373270
vt 0.913325 0.387768
vt 0.883194 0.408229
vt 0.883194 0.387768
vt 0.933787 0.287705
vt 0.913325 0.292533
vt 0.862733 0.292533
vt 0.862733 0.287705
vt 0.853063 0.292533
vt 0.853063 0.287705
vt 0.943456 0.292533
vt 0.943456 0.287705
vt 0.913325 0.347967
vt 0.883194 0.347967
vt 0.862733 0.317836
vt 0.883194 0.313727
vt 0.853063 0.313727
vt 0.853063 0.317836
vt 0.883194 0.352076
vt 0.933787 0.313727
vt 0.943456 0.317836
vt 0.933787 0.317836
vt 0.913325 0.313727
vt 0.862733 0.313727
vt 0.943456 0.313727
vt 0.933787 0.292533
vt 0.684255 0.419489
vt 0.684255 0.398295
vt 0.339121 0.485078
vt 0.913325 0.338297
vt 0.913325 0.378098
vt 0.913325 0.408229
vt 0.913325 0.352076
s 1
usemtl lambert2SG.003
f 1/1/1 17/2/2 16/3/1
f 3/4/3 17/2/2 2/5/4
f 3/4/3 19/6/5 18/7/3
f 4/8/5 20/9/6 19/6/5
f 6/10/7 20/9/6 5/11/6
f 6/10/7 22/12/8 21/13/7
f 8/14/9 22/12/8 7/15/8
f 8/14/9 24/16/10 23/17/9
f 10/18/11 24/16/10 9/19/12
f 11/20/13 25/21/11 10/18/11
f 12/22/14 26/23/13 11/20/13
f 12/22/14 28/24/15 27/25/14
f 14/26/16 28/24/15 13/27/15
f 14/26/16 30/28/17 29/29/16
f 1/30/1 30/28/17 15/31/17
f 77/32/18 76/33/18 78/34/18
f 79/35/18 77/32/18 78/34/18
f 80/36/18 79/35/18 78/34/18
f 81/37/18 80/36/18 78/34/18
f 82/38/18 81/37/18 78/34/18
f 83/39/18 82/38/18 78/34/18
f 84/40/18 83/39/18 78/34/18
f 85/41/18 84/40/18 78/34/18
f 86/42/18 85/41/18 78/34/18
f 87/43/18 86/42/18 78/34/18
f 88/44/18 87/43/18 78/34/18
f 89/45/18 88/44/18 78/34/18
f 90/46/18 89/45/18 78/34/18
f 91/47/18 90/46/18 78/34/18
f 76/33/18 91/47/18 78/34/18
f 122/48/19 123/49/19 124/50/19
f 123/49/19 125/51/19 124/50/19
f 125/51/19 126/52/19 124/50/19
f 126/52/19 127/53/19 124/50/19
f 127/53/19 128/54/19 124/50/19
f 128/54/19 129/55/19 124/50/19
f 129/55/19 130/56/19 124/50/19
f 130/56/19 131/57/19 124/50/19
f 131/57/19 132/58/19 124/50/19
f 132/58/19 133/59/19 124/50/19
f 133/59/19 134/60/19 124/50/19
f 134/60/19 135/61/19 124/50/19
f 135/61/19 136/62/19 124/50/19
f 136/62/19 137/63/19 124/50/19
f 137/63/19 122/48/19 124/50/19
f 47/64/20 49/65/1 46/65/1
f 47/64/20 51/66/3 48/64/20
f 52/67/5 51/66/3 50/66/3
f 54/68/6 53/67/5 52/67/5
f 54/68/6 57/69/7 55/68/6
f 56/69/7 59/70/8 57/69/7
f 58/70/8 61/71/9 59/70/8
f 60/71/9 63/72/12 61/71/9
f 62/72/10 65/73/21 63/72/12
f 66/74/13 65/73/21 64/73/21
f 68/75/14 67/74/13 66/74/13
f 70/76/15 69/75/14 68/75/14
f 72/77/16 71/76/15 70/76/15
f 74/78/17 73/77/16 72/77/16
f 46/65/1 75/78/17 74/78/17
f 17/64/18 46/65/18 16/65/18
f 32/64/19 49/65/19 48/64/19
f 18/66/22 47/64/18 17/64/18
f 33/66/19 48/64/19 51/66/19
f 19/67/18 50/66/22 18/66/22
f 34/67/19 51/66/19 53/67/19
f 20/68/18 52/67/18 19/67/18
f 34/67/19 55/68/19 35/68/19
f 21/69/18 54/68/18 20/68/18
f 35/68/19 57/69/19 36/69/19
f 22/70/18 56/69/18 21/69/18
f 36/69/19 59/70/19 37/70/19
f 23/71/18 58/70/18 22/70/18
f 37/70/19 61/71/19 38/71/19
f 23/71/18 62/72/18 60/71/18
f 38/71/19 63/72/19 39/72/19
f 24/72/18 64/73/18 62/72/18
f 39/72/19 65/73/19 40/73/19
f 25/73/18 66/74/18 64/73/18
f 40/73/19 67/74/19 41/74/19
f 26/74/18 68/75/18 66/74/18
f 42/75/19 67/74/19 69/75/19
f 27/75/18 70/76/18 68/75/18
f 43/76/19 69/75/19 71/76/19
f 28/76/18 72/77/18 70/76/18
f 44/77/19 71/76/19 73/77/19
f 29/77/18 74/78/18 72/77/18
f 45/78/19 73/77/19 75/78/19
f 16/65/18 74/78/18 30/78/18
f 31/65/19 75/78/19 49/65/19
f 92/79/1 95/80/2 93/80/2
f 96/81/3 95/80/2 97/81/3
f 98/82/5 97/81/3 99/82/5
f 98/82/5 101/83/6 100/83/6
f 100/83/6 103/84/7 102/84/7
f 102/84/7 105/85/8 104/85/8
f 104/85/8 107/86/9 106/86/9
f 106/86/9 109/87/10 108/87/12
f 108/87/12 111/88/11 110/88/21
f 110/88/21 113/89/13 112/89/13
f 112/89/13 115/90/14 114/90/14
f 116/91/15 115/90/14 117/91/15
f 116/91/15 119/92/16 118/92/16
f 120/93/23 119/94/16 121/93/23
f 92/95/1 121/93/23 94/95/1
f 1/33/19 93/32/19 2/32/19
f 76/33/18 95/32/18 94/33/18
f 2/32/19 96/35/19 3/35/19
f 79/35/18 95/32/18 77/32/18
f 3/35/19 98/36/19 4/36/19
f 80/36/18 97/35/18 79/35/18
f 4/36/19 100/37/19 5/37/19
f 81/37/18 99/36/18 80/36/18
f 6/38/19 100/37/19 102/38/19
f 82/38/18 101/37/18 81/37/18
f 7/39/24 102/38/19 104/39/24
f 83/39/18 103/38/18 82/38/18
f 8/40/19 104/39/24 106/40/19
f 84/40/18 105/39/18 83/39/18
f 9/41/19 106/40/19 108/41/19
f 85/41/18 107/40/25 84/40/18
f 10/42/19 108/41/19 110/42/19
f 86/42/18 109/41/18 85/41/18
f 11/43/19 110/42/19 112/43/19
f 86/42/18 113/43/18 111/42/18
f 11/43/19 114/44/19 12/44/19
f 87/43/18 115/44/18 113/43/18
f 12/44/19 116/45/19 13/45/19
f 88/44/18 117/45/18 115/44/18
f 14/46/24 116/45/19 118/46/24
f 90/46/18 117/45/18 89/45/18
f 15/96/19 118/97/24 120/96/19
f 91/96/18 119/97/18 90/97/18
f 15/96/19 92/98/19 1/98/19
f 91/96/18 94/98/18 121/96/18
f 32/49/2 122/48/1 31/48/1
f 32/49/2 125/51/3 123/49/2
f 34/52/5 125/51/3 33/51/3
f 34/52/5 127/53/6 126/52/5
f 36/54/7 127/53/6 35/53/6
f 36/54/7 129/55/8 128/54/7
f 38/56/9 129/55/8 37/55/8
f 38/56/9 131/57/12 130/56/9
f 39/57/10 132/58/21 131/57/12
f 41/59/13 132/58/21 40/58/21
f 41/59/13 134/60/14 133/59/13
f 42/60/14 135/61/15 134/60/14
f 43/61/15 136/62/16 135/61/15
f 45/63/17 136/62/16 44/62/16
f 45/63/17 122/48/1 137/63/17
f 138/99/19 139/100/19 140/101/19
f 139/100/19 141/102/19 140/101/19
f 141/102/19 142/103/19 140/101/19
f 142/103/19 143/104/19 140/101/19
f 143/104/19 144/105/19 140/101/19
f 144/105/19 145/106/19 140/101/19
f 145/106/19 146/107/19 140/101/19
f 146/107/19 147/108/19 140/101/19
f 147/108/19 148/109/19 140/101/19
f 148/109/19 149/110/19 140/101/19
f 149/110/19 150/111/19 140/101/19
f 150/111/19 151/112/19 140/101/19
f 151/112/19 152/113/19 140/101/19
f 152/113/19 153/114/19 140/101/19
f 153/114/19 138/99/19 140/101/19
f 154/99/1 153/114/17 155/114/17
f 156/113/16 153/114/17 152/113/16
f 157/112/15 152/113/16 151/112/15
f 158/111/14 151/112/15 150/111/14
f 158/111/14 149/110/13 159/110/13
f 160/109/11 149/110/13 148/109/11
f 161/108/10 148/109/11 147/108/12
f 161/108/10 146/107/9 162/107/9
f 163/106/8 146/107/9 145/106/8
f 163/106/8 144/105/7 164/105/7
f 165/104/6 144/105/7 143/104/6
f 165/104/6 142/103/5 166/103/5
f 166/103/5 141/102/3 167/102/3
f 168/100/2 141/102/3 139/100/4
f 168/100/2 138/99/1 154/99/1
f 169/99/18 171/101/18 170/100/18
f 170/100/18 171/101/18 172/102/18
f 172/102/18 171/101/18 173/103/18
f 173/103/18 171/101/18 174/104/18
f 174/104/18 171/101/18 175/105/18
f 175/105/18 171/101/18 176/106/18
f 176/106/18 171/101/18 177/107/18
f 177/107/18 171/101/18 178/108/18
f 178/108/18 171/101/18 179/109/18
f 179/109/18 171/101/18 180/110/18
f 180/110/18 171/101/18 181/111/18
f 181/111/18 171/101/18 182/112/18
f 182/112/18 171/101/18 183/113/18
f 183/113/18 171/101/18 184/114/18
f 184/114/18 171/101/18 169/99/18
f 184/114/17 154/99/1 155/114/17
f 183/113/16 155/114/17 156/113/16
f 157/112/15 183/113/16 156/113/16
f 181/111/14 157/112/15 158/111/14
f 159/110/13 181/111/14 158/111/14
f 179/109/11 159/110/13 160/109/11
f 178/108/12 160/109/11 161/108/10
f 162/107/9 178/108/12 161/108/10
f 176/106/8 162/107/9 163/106/8
f 175/105/7 163/106/8 164/105/7
f 165/104/6 175/105/7 164/105/7
f 166/103/5 174/104/26 165/104/6
f 167/102/3 173/103/5 166/103/5
f 168/100/2 172/102/3 167/102/3
f 154/99/1 170/100/2 168/100/2
f 186/115/18 203/116/18 185/117/18
f 188/118/27 193/119/27 187/120/27
f 206/121/19 191/122/19 205/123/19
f 195/124/28 185/125/28 194/126/28
f 195/127/17 208/128/17 186/115/17
f 204/129/29 185/117/29 203/116/29
f 194/130/29 205/131/29 191/132/29
f 191/122/28 195/124/28 194/126/28
f 206/133/17 195/127/17 192/134/17
f 193/119/27 190/135/27 189/136/27
f 193/137/29 197/138/29 187/120/29
f 199/139/29 193/137/29 189/140/29
f 190/135/19 199/141/19 189/136/19
f 201/142/17 190/143/30 196/144/17
f 202/145/30 196/144/17 188/118/30
f 197/138/18 188/118/18 187/120/18
f 198/146/29 203/116/29 197/138/29
f 205/131/29 198/146/29 199/139/29
f 199/141/19 206/121/19 205/123/19
f 201/142/17 206/133/17 200/147/17
f 210/128/17 211/142/17 212/145/17
f 208/128/18 197/138/18 203/116/18
f 207/148/28 214/128/28 208/128/28
f 201/142/19 213/148/19 207/148/19
f 202/145/27 216/142/27 201/142/27
f 208/128/18 215/145/18 202/145/18
f 213/148/28 210/128/28 214/128/28
f 214/128/18 212/145/18 215/145/18
f 215/145/27 211/142/27 216/142/27
f 217/149/31 220/150/19 218/150/19
f 213/150/29 217/149/32 218/150/29
f 222/149/33 224/149/34 221/149/34
f 225/150/17 228/149/17 226/149/17
f 213/150/28 220/150/28 209/150/28
f 211/149/18 221/149/35 216/149/36
f 228/149/17 230/149/17 226/149/17
f 219/149/19 224/149/31 223/149/19
f 216/149/32 224/149/37 217/149/32
f 209/150/18 226/149/18 211/149/18
f 209/150/28 227/150/38 225/150/38
f 219/149/19 227/150/19 220/150/19
f 219/149/19 229/149/19 228/149/19
f 222/149/33 229/149/27 223/149/39
f 211/149/18 230/149/18 222/149/18
f 1/1/1 2/5/4 17/2/2
f 3/4/3 18/7/3 17/2/2
f 3/4/3 4/8/5 19/6/5
f 4/8/5 5/11/6 20/9/6
f 6/10/7 21/13/7 20/9/6
f 6/10/7 7/15/8 22/12/8
f 8/14/9 23/17/9 22/12/8
f 8/14/9 9/19/12 24/16/10
f 10/18/11 25/21/11 24/16/10
f 11/20/13 26/23/13 25/21/11
f 12/22/14 27/25/14 26/23/13
f 12/22/14 13/27/15 28/24/15
f 14/26/16 29/29/16 28/24/15
f 14/26/16 15/31/17 30/28/17
f 1/30/1 16/151/1 30/28/17
f 47/64/20 48/64/20 49/65/1
f 47/64/20 50/66/3 51/66/3
f 52/67/5 53/67/5 51/66/3
f 54/68/6 55/68/6 53/67/5
f 54/68/6 56/69/7 57/69/7
f 56/69/7 58/70/8 59/70/8
f 58/70/8 60/71/9 61/71/9
f 60/71/9 62/72/10 63/72/12
f 62/72/10 64/73/21 65/73/21
f 66/74/13 67/74/13 65/73/21
f 68/75/14 69/75/14 67/74/13
f 70/76/15 71/76/15 69/75/14
f 72/77/16 73/77/16 71/76/15
f 74/78/17 75/78/17 73/77/16
f 46/65/1 49/65/1 75/78/17
f 17/64/18 47/64/18 46/65/18
f 32/64/19 31/65/19 49/65/19
f 18/66/22 50/66/22 47/64/18
f 33/66/19 32/64/19 48/64/19
f 19/67/18 52/67/18 50/66/22
f 34/67/19 33/66/19 51/66/19
f 20/68/18 54/68/18 52/67/18
f 34/67/19 53/67/19 55/68/19
f 21/69/18 56/69/18 54/68/18
f 35/68/19 55/68/19 57/69/19
f 22/70/18 58/70/18 56/69/18
f 36/69/19 57/69/19 59/70/19
f 23/71/18 60/71/18 58/70/18
f 37/70/19 59/70/19 61/71/19
f 23/71/18 24/72/18 62/72/18
f 38/71/19 61/71/19 63/72/19
f 24/72/18 25/73/18 64/73/18
f 39/72/19 63/72/19 65/73/19
f 25/73/18 26/74/18 66/74/18
f 40/73/19 65/73/19 67/74/19
f 26/74/18 27/75/18 68/75/18
f 42/75/19 41/74/19 67/74/19
f 27/75/18 28/76/18 70/76/18
f 43/76/19 42/75/19 69/75/19
f 28/76/18 29/77/18 72/77/18
f 44/77/19 43/76/19 71/76/19
f 29/77/18 30/78/18 74/78/18
f 45/78/19 44/77/19 73/77/19
f 16/65/18 46/65/18 74/78/18
f 31/65/19 45/78/19 75/78/19
f 92/79/1 94/79/1 95/80/2
f 96/81/3 93/80/2 95/80/2
f 98/82/5 96/81/3 97/81/3
f 98/82/5 99/82/5 101/83/6
f 100/83/6 101/83/6 103/84/7
f 102/84/7 103/84/7 105/85/8
f 104/85/8 105/85/8 107/86/9
f 106/86/9 107/86/9 109/87/10
f 108/87/12 109/87/10 111/88/11
f 110/88/21 111/88/11 113/89/13
f 112/89/13 113/89/13 115/90/14
f 116/91/15 114/90/14 115/90/14
f 116/91/15 117/91/15 119/92/16
f 120/93/23 118/94/16 119/94/16
f 92/95/1 120/93/23 121/93/23
f 1/33/19 92/33/19 93/32/19
f 76/33/18 77/32/18 95/32/18
f 2/32/19 93/32/19 96/35/19
f 79/35/18 97/35/18 95/32/18
f 3/35/19 96/35/19 98/36/19
f 80/36/18 99/36/18 97/35/18
f 4/36/19 98/36/19 100/37/19
f 81/37/18 101/37/18 99/36/18
f 6/38/19 5/37/19 100/37/19
f 82/38/18 103/38/18 101/37/18
f 7/39/24 6/38/19 102/38/19
f 83/39/18 105/39/18 103/38/18
f 8/40/19 7/39/24 104/39/24
f 84/40/18 107/40/25 105/39/18
f 9/41/19 8/40/19 106/40/19
f 85/41/18 109/41/18 107/40/25
f 10/42/19 9/41/19 108/41/19
f 86/42/18 111/42/18 109/41/18
f 11/43/19 10/42/19 110/42/19
f 86/42/18 87/43/18 113/43/18
f 11/43/19 112/43/19 114/44/19
f 87/43/18 88/44/18 115/44/18
f 12/44/19 114/44/19 116/45/19
f 88/44/18 89/45/18 117/45/18
f 14/46/24 13/45/19 116/45/19
f 90/46/18 119/46/18 117/45/18
f 15/96/19 14/97/24 118/97/24
f 91/96/18 121/96/18 119/97/18
f 15/96/19 120/96/19 92/98/19
f 91/96/18 76/98/18 94/98/18
f 32/49/2 123/49/2 122/48/1
f 32/49/2 33/51/3 125/51/3
f 34/52/5 126/52/5 125/51/3
f 34/52/5 35/53/6 127/53/6
f 36/54/7 128/54/7 127/53/6
f 36/54/7 37/55/8 129/55/8
f 38/56/9 130/56/9 129/55/8
f 38/56/9 39/57/10 131/57/12
f 39/57/10 40/58/21 132/58/21
f 41/59/13 133/59/13 132/58/21
f 41/59/13 42/60/14 134/60/14
f 42/60/14 43/61/15 135/61/15
f 43/61/15 44/62/16 136/62/16
f 45/63/17 137/63/17 136/62/16
f 45/63/17 31/48/1 122/48/1
f 154/99/1 138/99/1 153/114/17
f 156/113/16 155/114/17 153/114/17
f 157/112/15 156/113/16 152/113/16
f 158/111/14 157/112/15 151/112/15
f 158/111/14 150/111/14 149/110/13
f 160/109/11 159/110/13 149/110/13
f 161/108/10 160/109/11 148/109/11
f 161/108/10 147/108/12 146/107/9
f 163/106/8 162/107/9 146/107/9
f 163/106/8 145/106/8 144/105/7
f 165/104/6 164/105/7 144/105/7
f 165/104/6 143/104/6 142/103/5
f 166/103/5 142/103/5 141/102/3
f 168/100/2 167/102/3 141/102/3
f 168/100/2 139/100/4 138/99/1
f 184/114/17 169/99/1 154/99/1
f 183/113/16 184/114/17 155/114/17
f 157/112/15 182/112/15 183/113/16
f 181/111/14 182/112/15 157/112/15
f 159/110/13 180/110/13 181/111/14
f 179/109/11 180/110/13 159/110/13
f 178/108/12 179/109/11 160/109/11
f 162/107/9 177/107/9 178/108/12
f 176/106/8 177/107/9 162/107/9
f 175/105/7 176/106/8 163/106/8
f 165/104/6 174/104/26 175/105/7
f 166/103/5 173/103/5 174/104/26
f 167/102/3 172/102/3 173/103/5
f 168/100/2 170/100/2 172/102/3
f 154/99/1 169/99/1 170/100/2
f 186/115/18 208/128/18 203/116/18
f 188/118/27 196/152/27 193/119/27
f 206/121/19 192/153/19 191/122/19
f 195/124/28 186/154/28 185/125/28
f 195/127/17 207/148/17 208/128/17
f 204/129/29 194/130/29 185/117/29
f 194/130/29 204/129/29 205/131/29
f 191/122/28 192/153/28 195/124/28
f 206/133/17 207/148/17 195/127/17
f 193/119/27 196/152/27 190/135/27
f 193/137/29 198/146/29 197/138/29
f 199/139/29 198/146/29 193/137/29
f 190/135/19 200/155/19 199/141/19
f 201/142/17 200/147/17 190/143/30
f 202/145/30 201/142/17 196/144/17
f 197/138/18 202/145/18 188/118/18
f 198/146/29 204/129/29 203/116/29
f 205/131/29 204/129/29 198/146/29
f 199/141/19 200/155/19 206/121/19
f 201/142/17 207/148/17 206/133/17
f 210/128/17 209/148/17 211/142/17
f 208/128/18 202/145/18 197/138/18
f 207/148/28 213/148/28 214/128/28
f 201/142/19 216/142/19 213/148/19
f 202/145/27 215/145/27 216/142/27
f 208/128/18 214/128/18 215/145/18
f 213/148/28 209/148/28 210/128/28
f 214/128/18 210/128/18 212/145/18
f 215/145/27 212/145/27 211/142/27
f 217/149/31 219/149/19 220/150/19
f 213/150/29 216/149/32 217/149/32
f 222/149/33 223/149/39 224/149/34
f 225/150/17 227/150/17 228/149/17
f 213/150/28 218/150/38 220/150/28
f 211/149/18 222/149/18 221/149/35
f 228/149/17 229/149/17 230/149/17
f 219/149/19 217/149/31 224/149/31
f 216/149/32 221/149/32 224/149/37
f 209/150/18 225/150/18 226/149/18
f 209/150/28 220/150/28 227/150/38
f 219/149/19 228/149/19 227/150/19
f 219/149/19 223/149/19 229/149/19
f 222/149/33 230/149/27 229/149/27
f 211/149/18 226/149/18 230/149/18
