# Blender 4.4.3
# www.blender.org
mtllib Femur_Mirrored.mtl
o Femur_Mirrored
v -0.196361 0.357546 0.121085
v -0.130231 0.357699 0.191427
v -0.041208 0.357709 0.228791
v 0.055317 0.357575 0.226715
v 0.142651 0.357320 0.185559
v 0.205696 0.356989 0.112439
v 0.233549 0.356638 0.019997
v 0.221394 0.356328 -0.075781
v 0.171334 0.356112 -0.158335
v 0.092024 0.356028 -0.213391
v -0.002823 0.356091 -0.231428
v -0.096806 0.356289 -0.209329
v -0.173676 0.356590 -0.150915
v -0.220139 0.356939 -0.066285
v -0.228164 0.357277 0.029927
v -0.197147 -0.241704 0.123126
v -0.131016 -0.241551 0.193468
v -0.041993 -0.241540 0.230832
v 0.054531 -0.241674 0.228756
v 0.141866 -0.241929 0.187600
v 0.204910 -0.242260 0.114479
v 0.232763 -0.242612 0.022038
v 0.220609 -0.242922 -0.073740
v 0.170548 -0.243138 -0.156294
v 0.091239 -0.243221 -0.211350
v -0.003609 -0.243158 -0.229387
v -0.097592 -0.242960 -0.207289
v -0.174461 -0.242660 -0.148874
v -0.220925 -0.242311 -0.064244
v -0.228950 -0.241973 0.031968
v -0.053527 -0.279309 -0.048584
v -0.039197 -0.279276 -0.033341
v -0.019906 -0.279274 -0.025245
v 0.001010 -0.279303 -0.025695
v 0.019935 -0.279358 -0.034613
v 0.033597 -0.279430 -0.050458
v 0.039632 -0.279506 -0.070489
v 0.036999 -0.279573 -0.091244
v 0.026151 -0.279619 -0.109134
v 0.008964 -0.279638 -0.121064
v -0.011589 -0.279624 -0.124973
v -0.031954 -0.279582 -0.120184
v -0.048612 -0.279517 -0.107526
v -0.058680 -0.279441 -0.089187
v -0.060420 -0.279368 -0.068338
v -0.207424 -0.241669 0.129400
v -0.137841 -0.241508 0.203414
v -0.137890 -0.278340 0.203539
v -0.207472 -0.278501 0.129525
v -0.044170 -0.241498 0.242727
v -0.044218 -0.278329 0.242853
v 0.057393 -0.241637 0.240543
v 0.057344 -0.278470 0.240669
v 0.149286 -0.241906 0.197239
v 0.149238 -0.278737 0.197364
v 0.215622 -0.242255 0.120301
v 0.215574 -0.279087 0.120427
v 0.244929 -0.242624 0.023035
v 0.244880 -0.279456 0.023160
v 0.232140 -0.242951 -0.077743
v 0.232091 -0.279783 -0.077618
v 0.179466 -0.243178 -0.164607
v 0.179418 -0.280010 -0.164481
v 0.096015 -0.243266 -0.222537
v 0.095968 -0.280097 -0.222411
v -0.003782 -0.243199 -0.241516
v -0.003831 -0.280031 -0.241391
v -0.102671 -0.242991 -0.218263
v -0.102719 -0.279822 -0.218138
v -0.183553 -0.242675 -0.156799
v -0.183602 -0.279507 -0.156674
v -0.232443 -0.242308 -0.067752
v -0.232491 -0.279139 -0.067626
v -0.240887 -0.241952 0.033483
v -0.240935 -0.278784 0.033609
v -0.196341 0.373160 0.121032
v -0.130211 0.373312 0.191374
v 0.002190 0.372490 0.000645
v -0.041187 0.373323 0.228738
v 0.055337 0.373190 0.226662
v 0.142671 0.372935 0.185506
v 0.205716 0.372603 0.112385
v 0.233569 0.372252 0.019944
v 0.221414 0.371941 -0.075834
v 0.171354 0.371726 -0.158388
v 0.092044 0.371643 -0.213444
v -0.002803 0.371705 -0.231482
v -0.096786 0.371904 -0.209383
v -0.173656 0.372203 -0.150968
v -0.220119 0.372553 -0.066338
v -0.228144 0.372891 0.029874
v -0.209844 0.357591 0.129261
v -0.139223 0.357754 0.204380
v -0.209823 0.373205 0.129208
v -0.139202 0.373369 0.204327
v -0.044154 0.357766 0.244280
v -0.044133 0.373380 0.244227
v 0.058925 0.357623 0.242064
v 0.058946 0.373237 0.242010
v 0.152191 0.357351 0.198113
v 0.152211 0.372965 0.198059
v 0.219517 0.356997 0.120027
v 0.219537 0.372610 0.119973
v 0.249262 0.356621 0.021308
v 0.249282 0.372236 0.021255
v 0.236281 0.356290 -0.080974
v 0.236302 0.371905 -0.081027
v 0.182822 0.356059 -0.169135
v 0.182842 0.371674 -0.169188
v 0.098125 0.355971 -0.227929
v 0.098146 0.371585 -0.227982
v -0.003162 0.356037 -0.247192
v -0.003142 0.371652 -0.247245
v -0.103528 0.356250 -0.223592
v -0.103507 0.371864 -0.223645
v -0.185617 0.356570 -0.161211
v -0.185597 0.372184 -0.161264
v -0.235236 0.356943 -0.070834
v -0.235215 0.372558 -0.070887
v -0.243806 0.357304 0.031912
v -0.243786 0.372918 0.031859
v -0.053651 -0.373517 -0.048263
v -0.039321 -0.373485 -0.033020
v -0.010718 -0.373663 -0.074340
v -0.020030 -0.373482 -0.024924
v 0.000887 -0.373511 -0.025374
v 0.019812 -0.373566 -0.034292
v 0.033473 -0.373638 -0.050137
v 0.039509 -0.373714 -0.070169
v 0.036875 -0.373781 -0.090924
v 0.026028 -0.373828 -0.108813
v 0.008841 -0.373846 -0.120743
v -0.011712 -0.373832 -0.124652
v -0.032078 -0.373790 -0.119863
v -0.048735 -0.373725 -0.107205
v -0.058804 -0.373649 -0.088866
v -0.060543 -0.373576 -0.068017
v -0.033160 -0.370763 0.113170
v -0.018830 -0.370730 0.128413
v 0.009774 -0.370908 0.087094
v 0.000462 -0.370727 0.136510
v 0.021378 -0.370756 0.136059
v 0.040303 -0.370811 0.127141
v 0.053966 -0.370883 0.111296
v 0.060000 -0.370960 0.091265
v 0.057367 -0.371027 0.070510
v 0.046519 -0.371074 0.052621
v 0.029332 -0.371091 0.040691
v 0.008780 -0.371078 0.036782
v -0.011587 -0.371034 0.041570
v -0.028244 -0.370970 0.054229
v -0.038312 -0.370894 0.072568
v -0.040052 -0.370821 0.093417
v -0.033090 -0.317395 0.112989
v -0.039982 -0.317453 0.093235
v -0.038242 -0.317526 0.072386
v -0.028174 -0.317602 0.054047
v -0.011517 -0.317667 0.041389
v 0.008849 -0.317710 0.036600
v 0.029402 -0.317724 0.040509
v 0.046589 -0.317705 0.052439
v 0.057436 -0.317659 0.070328
v 0.060071 -0.317592 0.091083
v 0.054035 -0.317515 0.111115
v 0.040373 -0.317443 0.126959
v 0.021448 -0.317388 0.135878
v 0.000531 -0.317359 0.136328
v -0.018759 -0.317361 0.128232
v -0.033020 -0.264027 0.112807
v -0.018690 -0.263994 0.128050
v 0.009913 -0.264172 0.086731
v 0.000601 -0.263992 0.136146
v 0.021518 -0.264021 0.135696
v 0.040443 -0.264076 0.126778
v 0.054105 -0.264148 0.110933
v 0.060140 -0.264224 0.090901
v 0.057506 -0.264291 0.070147
v 0.046658 -0.264338 0.052257
v 0.029472 -0.264356 0.040327
v 0.008919 -0.264342 0.036418
v -0.011446 -0.264300 0.041207
v -0.028104 -0.264234 0.053865
v -0.038172 -0.264159 0.072204
v -0.039912 -0.264085 0.093053
v 0.032074 0.524551 0.132052
v -0.133581 0.524841 0.153073
v 0.018933 0.524216 0.028507
v -0.146722 0.524505 0.049528
v 0.018737 0.374658 0.029016
v -0.146917 0.374947 0.050037
v 0.031877 0.374993 0.132561
v -0.133777 0.375282 0.153582
v 0.018800 0.422655 0.028853
v 0.031940 0.422990 0.132398
v -0.133714 0.423279 0.153419
v -0.146854 0.422944 0.049874
v 0.020725 0.524262 0.042627
v 0.020592 0.422701 0.042973
v 0.020529 0.374704 0.043136
v -0.145125 0.374993 0.064158
v -0.145063 0.422989 0.063994
v -0.144929 0.524551 0.063648
v 0.029968 0.524499 0.115460
v 0.029835 0.422937 0.115806
v 0.029772 0.374940 0.115970
v -0.135883 0.375229 0.136991
v -0.135820 0.423225 0.136827
v -0.135687 0.524787 0.136482
v -1.591206 0.425762 0.321512
v -1.591072 0.527323 0.321166
v -1.600448 0.425526 0.248679
v -1.600315 0.527087 0.248333
v -1.285618 0.425229 0.282734
v -1.285485 0.526791 0.282388
v -1.294728 0.526555 0.209554
v -1.294861 0.424994 0.209900
v -1.294887 0.405293 0.209967
v -1.285644 0.405530 0.282801
v -1.600474 0.405826 0.248746
v -1.591232 0.406061 0.321579
v -1.295108 0.424987 0.207953
v -1.621728 0.424982 0.080999
v -1.621753 0.405283 0.081066
v -1.295134 0.405287 0.208020
v -2.028068 0.426523 0.376949
v -2.037311 0.426287 0.304115
v -2.028094 0.406823 0.377016
v -2.037337 0.406587 0.304182
v -2.058616 0.406044 0.136503
v -2.058590 0.425744 0.136436
vn -0.8551 0.0029 0.5185
vn -0.5703 0.0035 0.8215
vn -0.1868 0.0036 0.9824
vn 0.2293 0.0030 0.9734
vn 0.2285 0.0030 0.9735
vn 0.6050 0.0019 0.7962
vn 0.8764 0.0005 0.4817
vn 0.8768 0.0005 0.4809
vn 0.9965 -0.0010 0.0831
vn 0.9442 -0.0024 -0.3294
vn 0.9440 -0.0024 -0.3298
vn 0.7283 -0.0033 -0.6852
vn 0.7286 -0.0033 -0.6849
vn 0.3870 -0.0036 -0.9221
vn -0.0220 -0.0034 -0.9998
vn -0.0215 -0.0034 -0.9998
vn -0.4260 -0.0025 -0.9047
vn -0.7577 -0.0012 -0.6526
vn -0.7571 -0.0012 -0.6533
vn -0.9573 0.0003 -0.2889
vn -0.9576 0.0003 -0.2882
vn -0.9921 0.0017 0.1254
vn 0.0013 1.0000 -0.0034
vn -0.0013 -1.0000 0.0034
vn -0.5702 0.0035 0.8215
vn 0.2289 0.0030 0.9734
vn 0.2294 0.0030 0.9733
vn 0.6047 0.0019 0.7965
vn 0.9965 -0.0010 0.0835
vn 0.9966 -0.0010 0.0828
vn 0.9441 -0.0024 -0.3297
vn 0.7286 -0.0033 -0.6850
vn -0.4263 -0.0025 -0.9046
vn -0.7574 -0.0012 -0.6530
vn -0.9574 0.0003 -0.2888
vn -0.9576 0.0003 -0.2880
vn -0.9921 0.0017 0.1255
vn -0.9920 0.0017 0.1259
vn 0.0013 1.0000 -0.0033
vn 0.0013 1.0000 -0.0035
vn 0.0014 1.0000 -0.0034
vn -0.5703 0.0036 0.8215
vn -0.8553 0.0029 0.5182
vn -0.5702 0.0036 0.8215
vn 0.2289 0.0031 0.9734
vn 0.6050 0.0020 0.7962
vn 0.8766 0.0005 0.4813
vn 0.6053 0.0019 0.7960
vn 0.8769 0.0005 0.4808
vn 0.7288 -0.0033 -0.6847
vn 0.3870 -0.0037 -0.9221
vn -0.7577 -0.0013 -0.6526
vn -0.9576 0.0003 -0.2879
vn -0.7571 -0.0013 -0.6533
vn -0.9920 0.0017 0.1262
vn -0.0014 -1.0000 0.0034
vn 0.0012 1.0000 -0.0034
vn -0.0014 -1.0000 0.0035
vn -0.8549 0.0029 0.5188
vn -0.0219 -0.0034 -0.9998
vn -0.0211 -0.0034 -0.9998
vn -0.7576 -0.0012 -0.6527
vn -0.7571 -0.0012 -0.6534
vn -0.9573 0.0003 -0.2890
vn -0.9575 0.0003 -0.2885
vn 0.9442 -0.0023 -0.3294
vn 0.8764 0.0005 0.4816
vn -0.9574 0.0003 -0.2889
vn -0.7570 -0.0012 -0.6534
vn 0.9966 -0.0010 0.0827
vn -0.1259 -0.0032 -0.9920
vn 0.1259 0.0032 0.9920
vn 0.9920 -0.0017 -0.1259
vn -0.9920 0.0017 0.1258
vn -0.9920 0.0017 0.1260
vn -0.0013 -1.0000 0.0033
vn 0.3623 -0.0036 -0.9321
vn 0.0927 -0.0035 -0.9957
vn 0.0932 -0.0035 -0.9956
vn 0.0013 1.0000 -0.0037
vn 0.0013 1.0000 -0.0038
vn 0.9920 -0.0017 -0.1258
vn -0.9920 0.0017 0.1263
vn 0.7289 -0.0033 -0.6846
vn -0.9920 0.0017 0.1264
vt 0.244441 0.343059
vt 0.250753 0.485078
vt 0.250753 0.343059
vt 0.257065 0.343059
vt 0.257065 0.485078
vt 0.263377 0.343059
vt 0.263377 0.485078
vt 0.269689 0.343059
vt 0.276001 0.485078
vt 0.276001 0.343059
vt 0.282313 0.343059
vt 0.288625 0.485078
vt 0.288625 0.343059
vt 0.294937 0.343059
vt 0.294937 0.485078
vt 0.301249 0.343059
vt 0.307561 0.485078
vt 0.307561 0.343059
vt 0.313873 0.343059
vt 0.320185 0.485078
vt 0.320185 0.343059
vt 0.326497 0.343059
vt 0.326497 0.485078
vt 0.332809 0.343059
vt 0.339121 0.485078
vt 0.339121 0.343059
vt 0.510804 0.565082
vt 0.496516 0.580950
vt 0.516024 0.572265
vt 0.503115 0.560642
vt 0.494284 0.559714
vt 0.485840 0.562458
vt 0.479241 0.568399
vt 0.475630 0.576511
vt 0.475630 0.585390
vt 0.479241 0.593502
vt 0.485840 0.599443
vt 0.494284 0.602187
vt 0.503115 0.601259
vt 0.510804 0.596819
vt 0.516024 0.589636
vt 0.517870 0.580950
vt 0.737789 0.429045
vt 0.707916 0.415745
vt 0.729797 0.440045
vt 0.718021 0.446844
vt 0.704498 0.448265
vt 0.691566 0.444063
vt 0.681462 0.434965
vt 0.675931 0.422543
vt 0.675931 0.408946
vt 0.681462 0.396524
vt 0.691566 0.387426
vt 0.704498 0.383224
vt 0.718021 0.384645
vt 0.729797 0.391444
vt 0.737789 0.402444
vt 0.740616 0.415745
vt 0.539406 0.784395
vt 0.527408 0.800909
vt 0.509730 0.811115
vt 0.489430 0.813249
vt 0.470016 0.806941
vt 0.454847 0.793282
vt 0.446544 0.774635
vt 0.446544 0.754222
vt 0.454847 0.735575
vt 0.470016 0.721916
vt 0.489430 0.715608
vt 0.509730 0.717742
vt 0.527408 0.727948
vt 0.539406 0.744462
vt 0.543650 0.764429
vt 0.509152 0.621268
vt 0.514371 0.628451
vt 0.501462 0.616828
vt 0.492632 0.615900
vt 0.484187 0.618644
vt 0.477589 0.624585
vt 0.473977 0.632697
vt 0.473977 0.641576
vt 0.477589 0.649688
vt 0.484187 0.655629
vt 0.492632 0.658373
vt 0.501462 0.657445
vt 0.509152 0.653005
vt 0.514371 0.645822
vt 0.568666 0.670187
vt 0.555157 0.733740
vt 0.555157 0.606634
vt 0.570318 0.614001
vt 0.556810 0.677554
vt 0.556810 0.550448
vt 0.732426 0.348469
vt 0.697946 0.333118
vt 0.723201 0.361166
vt 0.709609 0.369013
vt 0.694001 0.370654
vt 0.679075 0.365804
vt 0.667411 0.355303
vt 0.661028 0.340965
vt 0.661028 0.325271
vt 0.667412 0.310933
vt 0.679075 0.300432
vt 0.694001 0.295582
vt 0.709609 0.297223
vt 0.723201 0.305070
vt 0.732426 0.317767
vt 0.735689 0.333118
vt 0.883194 0.292533
vt 0.913325 0.287705
vt 0.883194 0.287705
vt 0.883194 0.317836
vt 0.913325 0.338297
vt 0.913325 0.317836
vt 0.883194 0.373270
vt 0.913325 0.378098
vt 0.913325 0.373270
vt 0.883194 0.408229
vt 0.913325 0.387768
vt 0.883194 0.387768
vt 0.913325 0.292533
vt 0.933787 0.287705
vt 0.862733 0.292533
vt 0.853063 0.292533
vt 0.862733 0.287705
vt 0.853063 0.287705
vt 0.883194 0.378098
vt 0.943456 0.292533
vt 0.933787 0.292533
vt 0.883194 0.338297
vt 0.913325 0.347967
vt 0.862733 0.313727
vt 0.862733 0.317836
vt 0.853063 0.313727
vt 0.883194 0.352076
vt 0.883194 0.347967
vt 0.943456 0.317836
vt 0.933787 0.313727
vt 0.933787 0.317836
vt 0.913325 0.313727
vt 0.883194 0.313727
vt 0.913325 0.352076
vt 0.943456 0.313727
vt 0.684255 0.398295
vt 0.684255 0.419489
vt 0.244441 0.485078
vt 0.269689 0.485078
vt 0.282313 0.485078
vt 0.301249 0.485078
vt 0.313873 0.485078
vt 0.332809 0.485078
vt 0.913325 0.408229
vt 0.943456 0.287705
vt 0.853063 0.317836
s 1
usemtl lambert2SG.004
f 1/1/1 17/2/2 2/3/2
f 17/2/2 3/4/3 2/3/2
f 18/5/3 4/6/4 3/4/3
f 19/7/5 5/8/6 4/6/4
f 5/8/6 21/9/7 6/10/8
f 21/9/7 7/11/9 6/10/8
f 7/11/9 23/12/10 8/13/11
f 23/12/10 9/14/12 8/13/11
f 24/15/13 10/16/14 9/14/12
f 10/16/14 26/17/15 11/18/16
f 26/17/15 12/19/17 11/18/16
f 12/19/17 28/20/18 13/21/19
f 28/20/18 14/22/20 13/21/19
f 29/23/21 15/24/22 14/22/20
f 15/24/22 16/25/1 1/26/1
f 77/27/23 78/28/23 76/29/23
f 79/30/23 78/28/23 77/27/23
f 80/31/23 78/28/23 79/30/23
f 81/32/23 78/28/23 80/31/23
f 82/33/23 78/28/23 81/32/23
f 83/34/23 78/28/23 82/33/23
f 84/35/23 78/28/23 83/34/23
f 85/36/23 78/28/23 84/35/23
f 86/37/23 78/28/23 85/36/23
f 87/38/23 78/28/23 86/37/23
f 88/39/23 78/28/23 87/38/23
f 89/40/23 78/28/23 88/39/23
f 90/41/23 78/28/23 89/40/23
f 91/42/23 78/28/23 90/41/23
f 76/29/23 78/28/23 91/42/23
f 122/43/24 124/44/24 123/45/24
f 123/45/24 124/44/24 125/46/24
f 125/46/24 124/44/24 126/47/24
f 126/47/24 124/44/24 127/48/24
f 127/48/24 124/44/24 128/49/24
f 128/49/24 124/44/24 129/50/24
f 129/50/24 124/44/24 130/51/24
f 130/51/24 124/44/24 131/52/24
f 131/52/24 124/44/24 132/53/24
f 132/53/24 124/44/24 133/54/24
f 133/54/24 124/44/24 134/55/24
f 134/55/24 124/44/24 135/56/24
f 135/56/24 124/44/24 136/57/24
f 136/57/24 124/44/24 137/58/24
f 137/58/24 124/44/24 122/43/24
f 46/59/1 48/60/25 47/60/25
f 48/60/25 50/61/3 47/60/25
f 50/61/3 53/62/26 52/62/27
f 52/62/27 55/63/28 54/63/6
f 55/63/28 56/64/8 54/63/6
f 56/64/8 59/65/29 58/65/30
f 59/65/29 60/66/31 58/65/30
f 61/66/10 62/67/32 60/66/31
f 62/67/32 65/68/14 64/68/14
f 64/68/14 67/69/16 66/69/16
f 67/69/16 68/70/33 66/69/16
f 68/70/33 71/71/34 70/71/19
f 71/71/34 72/72/35 70/71/19
f 73/72/36 74/73/37 72/72/35
f 75/73/38 46/59/1 74/73/37
f 46/59/23 17/60/23 16/59/23
f 32/60/24 49/59/24 31/59/24
f 47/60/23 18/61/39 17/60/23
f 33/61/24 48/60/24 32/60/24
f 50/61/39 19/62/23 18/61/39
f 34/62/24 51/61/24 33/61/24
f 52/62/40 20/63/23 19/62/23
f 55/63/24 34/62/24 35/63/24
f 54/63/23 21/64/41 20/63/23
f 57/64/24 35/63/24 36/64/24
f 56/64/41 22/65/23 21/64/41
f 59/65/24 36/64/24 37/65/24
f 22/65/23 60/66/23 23/66/23
f 61/66/24 37/65/24 38/66/24
f 23/66/23 62/67/23 24/67/23
f 63/67/24 38/66/24 39/67/24
f 24/67/23 64/68/23 25/68/23
f 65/68/24 39/67/24 40/68/24
f 25/68/23 66/69/23 26/69/23
f 67/69/24 40/68/24 41/69/24
f 26/69/23 68/70/23 27/70/23
f 42/70/24 67/69/24 41/69/24
f 27/70/23 70/71/23 28/71/23
f 43/71/24 69/70/24 42/70/24
f 28/71/23 72/72/23 29/72/23
f 44/72/24 71/71/24 43/71/24
f 29/72/23 74/73/23 30/73/23
f 45/73/24 73/72/24 44/72/24
f 74/73/23 16/59/23 30/73/23
f 31/59/24 75/73/24 45/73/24
f 93/74/42 94/75/43 92/75/1
f 96/76/3 95/74/44 93/74/42
f 98/77/45 97/76/3 96/76/3
f 100/78/46 99/77/45 98/77/45
f 102/79/47 101/78/48 100/78/46
f 104/80/9 103/79/49 102/79/47
f 107/81/31 104/80/9 106/81/10
f 109/82/12 106/81/10 108/82/50
f 111/83/14 108/82/50 110/83/51
f 113/84/16 110/83/51 112/84/16
f 114/85/33 113/84/16 112/84/16
f 116/86/52 115/85/33 114/85/33
f 118/87/53 117/86/54 116/86/52
f 120/88/55 119/89/20 118/89/53
f 92/90/1 121/88/37 120/88/55
f 2/27/24 92/29/24 1/29/24
f 94/29/23 77/27/23 76/29/23
f 96/30/24 2/27/24 3/30/24
f 95/27/40 79/30/23 77/27/23
f 98/31/24 3/30/24 4/31/24
f 79/30/23 99/31/23 80/31/23
f 100/32/24 4/31/24 5/32/24
f 99/31/23 81/32/23 80/31/23
f 102/33/24 5/32/24 6/33/24
f 101/32/23 82/33/23 81/32/23
f 104/34/56 6/33/24 7/34/56
f 82/33/23 105/34/23 83/34/23
f 106/35/56 7/34/56 8/35/56
f 83/34/23 107/35/57 84/35/23
f 108/36/58 8/35/56 9/36/58
f 84/35/23 109/36/23 85/36/23
f 10/37/24 108/36/58 9/36/58
f 85/36/23 111/37/23 86/37/23
f 11/38/24 110/37/24 10/37/24
f 86/37/23 113/38/23 87/38/23
f 12/39/24 112/38/24 11/38/24
f 87/38/23 115/39/23 88/39/23
f 13/40/24 114/39/24 12/39/24
f 88/39/23 117/40/23 89/40/23
f 118/41/24 13/40/24 14/41/24
f 89/40/23 119/41/41 90/41/23
f 15/91/24 118/92/24 14/92/24
f 90/92/23 121/91/23 91/91/23
f 1/93/24 120/91/24 15/91/24
f 121/91/23 76/93/23 91/91/23
f 122/43/59 32/45/25 31/43/1
f 32/45/25 125/46/3 33/46/3
f 125/46/3 34/47/26 33/46/3
f 34/47/26 127/48/6 35/48/6
f 127/48/6 36/49/8 35/48/6
f 36/49/8 129/50/9 37/50/9
f 37/50/9 130/51/10 38/51/31
f 38/51/31 131/52/32 39/52/32
f 131/52/32 40/53/14 39/52/32
f 40/53/14 133/54/60 41/54/61
f 133/54/60 42/55/33 41/54/61
f 42/55/33 135/56/62 43/56/63
f 43/56/63 136/57/21 44/57/64
f 136/57/21 45/58/22 44/57/64
f 45/58/22 122/43/59 31/43/1
f 138/94/24 140/95/24 139/96/24
f 139/96/24 140/95/24 141/97/24
f 141/97/24 140/95/24 142/98/24
f 142/98/24 140/95/24 143/99/24
f 143/99/24 140/95/24 144/100/24
f 144/100/24 140/95/24 145/101/24
f 145/101/24 140/95/24 146/102/24
f 146/102/24 140/95/24 147/103/24
f 147/103/24 140/95/24 148/104/24
f 148/104/24 140/95/24 149/105/24
f 149/105/24 140/95/24 150/106/24
f 150/106/24 140/95/24 151/107/24
f 151/107/24 140/95/24 152/108/24
f 152/108/24 140/95/24 153/109/24
f 153/109/24 140/95/24 138/94/24
f 153/109/55 154/94/1 155/109/38
f 152/108/21 155/109/38 156/108/65
f 157/107/34 152/108/21 156/108/65
f 150/106/33 157/107/34 158/106/33
f 159/105/16 150/106/33 158/106/33
f 160/104/51 149/105/16 159/105/16
f 161/103/13 148/104/51 160/104/51
f 162/102/66 147/103/32 161/103/13
f 163/101/9 146/102/10 162/102/66
f 144/100/67 163/101/9 164/100/47
f 143/99/6 164/100/47 165/99/6
f 166/98/26 143/99/6 165/99/6
f 141/97/3 166/98/26 167/97/3
f 168/96/25 141/97/3 167/97/3
f 154/94/1 139/96/2 168/96/25
f 169/94/23 170/96/23 171/95/23
f 170/96/23 172/97/23 171/95/23
f 172/97/23 173/98/23 171/95/23
f 173/98/23 174/99/23 171/95/23
f 174/99/23 175/100/23 171/95/23
f 175/100/23 176/101/23 171/95/23
f 176/101/23 177/102/23 171/95/23
f 177/102/23 178/103/23 171/95/23
f 178/103/23 179/104/23 171/95/23
f 179/104/23 180/105/23 171/95/23
f 180/105/23 181/106/23 171/95/23
f 181/106/23 182/107/23 171/95/23
f 182/107/23 183/108/23 171/95/23
f 183/108/23 184/109/23 171/95/23
f 184/109/23 169/94/23 171/95/23
f 155/109/38 169/94/1 184/109/37
f 155/109/38 183/108/68 156/108/65
f 157/107/34 183/108/68 182/107/69
f 157/107/34 181/106/33 158/106/33
f 159/105/16 181/106/33 180/105/16
f 159/105/16 179/104/14 160/104/51
f 161/103/13 179/104/14 178/103/12
f 161/103/13 177/102/31 162/102/66
f 162/102/66 176/101/70 163/101/9
f 164/100/47 176/101/70 175/100/47
f 165/99/6 175/100/47 174/99/6
f 165/99/6 173/98/4 166/98/26
f 167/97/3 173/98/4 172/97/3
f 168/96/25 172/97/3 170/96/25
f 168/96/25 169/94/1 154/94/1
f 203/110/23 186/111/23 185/112/39
f 187/113/71 196/114/71 188/115/71
f 205/116/24 192/117/24 206/118/24
f 185/119/72 195/120/72 194/121/72
f 208/122/38 195/123/38 186/111/38
f 185/112/73 204/124/73 203/110/73
f 205/125/73 194/126/73 191/127/73
f 194/121/72 192/117/72 191/128/72
f 206/129/38 195/123/38 207/130/38
f 193/131/71 190/132/71 196/114/71
f 187/113/73 198/133/73 193/134/73
f 199/135/73 193/134/73 198/133/73
f 199/136/24 190/132/24 189/137/24
f 190/138/38 201/139/38 196/140/74
f 202/141/75 196/140/74 201/139/38
f 187/113/23 202/141/23 197/142/23
f 197/142/73 204/124/73 198/133/73
f 205/125/73 198/133/73 204/124/73
f 205/116/24 200/143/24 199/136/24
f 200/144/38 207/130/38 201/139/38
f 212/141/38 209/130/38 210/122/38
f 203/110/23 202/141/23 208/122/23
f 208/122/72 213/130/72 207/130/72
f 213/130/24 201/139/24 207/130/24
f 201/139/71 215/141/71 202/141/71
f 215/141/23 208/122/23 202/141/23
f 210/122/72 213/130/72 214/122/72
f 215/141/23 210/122/23 214/122/23
f 216/139/71 212/141/71 215/141/71
f 218/145/24 219/146/24 217/146/76
f 218/145/73 216/146/73 213/145/73
f 221/146/77 223/146/78 222/146/79
f 226/146/38 227/145/38 225/145/38
f 209/145/72 218/145/72 213/145/72
f 221/146/80 211/146/23 216/146/81
f 230/146/38 228/146/38 226/146/38
f 219/146/24 224/146/76 217/146/76
f 217/146/73 221/146/82 216/146/73
f 226/146/23 209/145/23 211/146/23
f 225/145/72 220/145/72 209/145/72
f 220/145/24 228/146/24 219/146/24
f 228/146/24 223/146/24 219/146/24
f 229/146/71 222/146/79 223/146/78
f 222/146/23 226/146/23 211/146/23
f 1/1/1 16/147/1 17/2/2
f 17/2/2 18/5/3 3/4/3
f 18/5/3 19/7/5 4/6/4
f 19/7/5 20/148/6 5/8/6
f 5/8/6 20/148/6 21/9/7
f 21/9/7 22/149/9 7/11/9
f 7/11/9 22/149/9 23/12/10
f 23/12/10 24/15/13 9/14/12
f 24/15/13 25/150/14 10/16/14
f 10/16/14 25/150/14 26/17/15
f 26/17/15 27/151/33 12/19/17
f 12/19/17 27/151/33 28/20/18
f 28/20/18 29/23/21 14/22/20
f 29/23/21 30/152/83 15/24/22
f 15/24/22 30/152/83 16/25/1
f 46/59/1 49/59/1 48/60/25
f 48/60/25 51/61/3 50/61/3
f 50/61/3 51/61/3 53/62/26
f 52/62/27 53/62/26 55/63/28
f 55/63/28 57/64/67 56/64/8
f 56/64/8 57/64/67 59/65/29
f 59/65/29 61/66/10 60/66/31
f 61/66/10 63/67/84 62/67/32
f 62/67/32 63/67/84 65/68/14
f 64/68/14 65/68/14 67/69/16
f 67/69/16 69/70/33 68/70/33
f 68/70/33 69/70/33 71/71/34
f 71/71/34 73/72/36 72/72/35
f 73/72/36 75/73/38 74/73/37
f 75/73/38 49/59/1 46/59/1
f 46/59/23 47/60/23 17/60/23
f 32/60/24 48/60/24 49/59/24
f 47/60/23 50/61/39 18/61/39
f 33/61/24 51/61/24 48/60/24
f 50/61/39 52/62/40 19/62/23
f 34/62/24 53/62/24 51/61/24
f 52/62/40 54/63/23 20/63/23
f 55/63/24 53/62/24 34/62/24
f 54/63/23 56/64/41 21/64/41
f 57/64/24 55/63/24 35/63/24
f 56/64/41 58/65/23 22/65/23
f 59/65/24 57/64/24 36/64/24
f 22/65/23 58/65/23 60/66/23
f 61/66/24 59/65/24 37/65/24
f 23/66/23 60/66/23 62/67/23
f 63/67/24 61/66/24 38/66/24
f 24/67/23 62/67/23 64/68/23
f 65/68/24 63/67/24 39/67/24
f 25/68/23 64/68/23 66/69/23
f 67/69/24 65/68/24 40/68/24
f 26/69/23 66/69/23 68/70/23
f 42/70/24 69/70/24 67/69/24
f 27/70/23 68/70/23 70/71/23
f 43/71/24 71/71/24 69/70/24
f 28/71/23 70/71/23 72/72/23
f 44/72/24 73/72/24 71/71/24
f 29/72/23 72/72/23 74/73/23
f 45/73/24 75/73/24 73/72/24
f 74/73/23 46/59/23 16/59/23
f 31/59/24 49/59/24 75/73/24
f 93/74/42 95/74/44 94/75/43
f 96/76/3 97/76/3 95/74/44
f 98/77/45 99/77/45 97/76/3
f 100/78/46 101/78/48 99/77/45
f 102/79/47 103/79/49 101/78/48
f 104/80/9 105/80/70 103/79/49
f 107/81/31 105/80/70 104/80/9
f 109/82/12 107/81/31 106/81/10
f 111/83/14 109/82/12 108/82/50
f 113/84/16 111/83/14 110/83/51
f 114/85/33 115/85/33 113/84/16
f 116/86/52 117/86/54 115/85/33
f 118/87/53 119/87/20 117/86/54
f 120/88/55 121/88/37 119/89/20
f 92/90/1 94/90/43 121/88/37
f 2/27/24 93/27/24 92/29/24
f 94/29/23 95/27/40 77/27/23
f 96/30/24 93/27/24 2/27/24
f 95/27/40 97/30/23 79/30/23
f 98/31/24 96/30/24 3/30/24
f 79/30/23 97/30/23 99/31/23
f 100/32/24 98/31/24 4/31/24
f 99/31/23 101/32/23 81/32/23
f 102/33/24 100/32/24 5/32/24
f 101/32/23 103/33/41 82/33/23
f 104/34/56 102/33/24 6/33/24
f 82/33/23 103/33/41 105/34/23
f 106/35/56 104/34/56 7/34/56
f 83/34/23 105/34/23 107/35/57
f 108/36/58 106/35/56 8/35/56
f 84/35/23 107/35/57 109/36/23
f 10/37/24 110/37/24 108/36/58
f 85/36/23 109/36/23 111/37/23
f 11/38/24 112/38/24 110/37/24
f 86/37/23 111/37/23 113/38/23
f 12/39/24 114/39/24 112/38/24
f 87/38/23 113/38/23 115/39/23
f 13/40/24 116/40/24 114/39/24
f 88/39/23 115/39/23 117/40/23
f 118/41/24 116/40/24 13/40/24
f 89/40/23 117/40/23 119/41/41
f 15/91/24 120/91/24 118/92/24
f 90/92/23 119/92/41 121/91/23
f 1/93/24 92/93/24 120/91/24
f 121/91/23 94/93/23 76/93/23
f 122/43/59 123/45/25 32/45/25
f 32/45/25 123/45/25 125/46/3
f 125/46/3 126/47/26 34/47/26
f 34/47/26 126/47/26 127/48/6
f 127/48/6 128/49/7 36/49/8
f 36/49/8 128/49/7 129/50/9
f 37/50/9 129/50/9 130/51/10
f 38/51/31 130/51/10 131/52/32
f 131/52/32 132/53/14 40/53/14
f 40/53/14 132/53/14 133/54/60
f 133/54/60 134/55/33 42/55/33
f 42/55/33 134/55/33 135/56/62
f 43/56/63 135/56/62 136/57/21
f 136/57/21 137/58/85 45/58/22
f 45/58/22 137/58/85 122/43/59
f 153/109/55 138/94/1 154/94/1
f 152/108/21 153/109/55 155/109/38
f 157/107/34 151/107/34 152/108/21
f 150/106/33 151/107/34 157/107/34
f 159/105/16 149/105/16 150/106/33
f 160/104/51 148/104/51 149/105/16
f 161/103/13 147/103/32 148/104/51
f 162/102/66 146/102/10 147/103/32
f 163/101/9 145/101/9 146/102/10
f 144/100/67 145/101/9 163/101/9
f 143/99/6 144/100/67 164/100/47
f 166/98/26 142/98/26 143/99/6
f 141/97/3 142/98/26 166/98/26
f 168/96/25 139/96/2 141/97/3
f 154/94/1 138/94/1 139/96/2
f 155/109/38 154/94/1 169/94/1
f 155/109/38 184/109/37 183/108/68
f 157/107/34 156/108/65 183/108/68
f 157/107/34 182/107/69 181/106/33
f 159/105/16 158/106/33 181/106/33
f 159/105/16 180/105/16 179/104/14
f 161/103/13 160/104/51 179/104/14
f 161/103/13 178/103/12 177/102/31
f 162/102/66 177/102/31 176/101/70
f 164/100/47 163/101/9 176/101/70
f 165/99/6 164/100/47 175/100/47
f 165/99/6 174/99/6 173/98/4
f 167/97/3 166/98/26 173/98/4
f 168/96/25 167/97/3 172/97/3
f 168/96/25 170/96/25 169/94/1
f 203/110/23 208/122/23 186/111/23
f 187/113/71 193/131/71 196/114/71
f 205/116/24 191/128/24 192/117/24
f 185/119/72 186/153/72 195/120/72
f 208/122/38 207/130/38 195/123/38
f 185/112/73 194/126/73 204/124/73
f 205/125/73 204/124/73 194/126/73
f 194/121/72 195/120/72 192/117/72
f 206/129/38 192/154/38 195/123/38
f 193/131/71 189/137/71 190/132/71
f 187/113/73 197/142/73 198/133/73
f 199/135/73 189/155/73 193/134/73
f 199/136/24 200/143/24 190/132/24
f 190/138/38 200/144/38 201/139/38
f 202/141/75 188/115/75 196/140/74
f 187/113/23 188/115/23 202/141/23
f 197/142/73 203/110/73 204/124/73
f 205/125/73 199/135/73 198/133/73
f 205/116/24 206/118/24 200/143/24
f 200/144/38 206/129/38 207/130/38
f 212/141/38 211/139/38 209/130/38
f 203/110/23 197/142/23 202/141/23
f 208/122/72 214/122/72 213/130/72
f 213/130/24 216/139/24 201/139/24
f 201/139/71 216/139/71 215/141/71
f 215/141/23 214/122/23 208/122/23
f 210/122/72 209/130/72 213/130/72
f 215/141/23 212/141/23 210/122/23
f 216/139/71 211/139/71 212/141/71
f 218/145/24 220/145/24 219/146/24
f 218/145/73 217/146/73 216/146/73
f 221/146/77 224/146/77 223/146/78
f 226/146/38 228/146/38 227/145/38
f 209/145/72 220/145/72 218/145/72
f 221/146/80 222/146/23 211/146/23
f 230/146/38 229/146/38 228/146/38
f 219/146/24 223/146/24 224/146/76
f 217/146/73 224/146/82 221/146/82
f 226/146/23 225/145/23 209/145/23
f 225/145/72 227/145/72 220/145/72
f 220/145/24 227/145/24 228/146/24
f 228/146/24 229/146/24 223/146/24
f 229/146/71 230/146/71 222/146/79
f 222/146/23 230/146/23 226/146/23
