# Blender 4.4.3
# www.blender.org
mtllib Tibia_Mirrored.mtl
o Tibia_Mirrored
v -0.165632 0.357545 0.160579
v -0.085889 0.357698 0.215006
v 0.009096 0.357709 0.232294
v 0.102902 0.357575 0.209453
v 0.179308 0.357320 0.150433
v 0.225102 0.356989 0.065438
v 0.232366 0.356638 -0.030834
v 0.199844 0.356327 -0.121738
v 0.133160 0.356112 -0.191555
v 0.043844 0.356028 -0.228214
v -0.052661 0.356091 -0.225375
v -0.139669 0.356289 -0.183530
v -0.202133 0.356589 -0.109914
v -0.229253 0.356939 -0.017256
v -0.216343 0.357276 0.078423
v -0.165959 -0.241704 0.162741
v -0.086216 -0.241551 0.217169
v 0.008769 -0.241541 0.234456
v 0.102575 -0.241674 0.211615
v 0.178981 -0.241929 0.152595
v 0.224775 -0.242261 0.067600
v 0.232039 -0.242612 -0.028672
v 0.199517 -0.242922 -0.119576
v 0.132834 -0.243138 -0.189393
v 0.043518 -0.243221 -0.226052
v -0.052987 -0.243158 -0.223213
v -0.139994 -0.242960 -0.181368
v -0.202459 -0.242661 -0.107752
v -0.229581 -0.242310 -0.015093
v -0.216671 -0.241973 0.080586
v -0.062744 -0.279309 -0.035899
v -0.045465 -0.279276 -0.024104
v -0.024882 -0.279274 -0.020358
v -0.004554 -0.279303 -0.025308
v 0.012002 -0.279358 -0.038097
v 0.021926 -0.279430 -0.056516
v 0.023501 -0.279506 -0.077378
v 0.016452 -0.279573 -0.097076
v 0.002003 -0.279620 -0.112205
v -0.017352 -0.279638 -0.120149
v -0.038264 -0.279624 -0.119534
v -0.057118 -0.279582 -0.110466
v -0.070654 -0.279516 -0.094514
v -0.076532 -0.279441 -0.074435
v -0.073734 -0.279367 -0.053701
v -0.174641 -0.241669 0.171083
v -0.090735 -0.241509 0.228351
v -0.090755 -0.278340 0.228484
v -0.174661 -0.278501 0.171216
v 0.009209 -0.241497 0.246542
v 0.009189 -0.278329 0.246675
v 0.107911 -0.241638 0.222508
v 0.107891 -0.278470 0.222641
v 0.188305 -0.241905 0.160407
v 0.188285 -0.278737 0.160540
v 0.236490 -0.242254 0.070976
v 0.236470 -0.279086 0.071109
v 0.244134 -0.242624 -0.030322
v 0.244113 -0.279456 -0.030189
v 0.209914 -0.242951 -0.125971
v 0.209894 -0.279783 -0.125839
v 0.139749 -0.243177 -0.199433
v 0.139729 -0.280009 -0.199301
v 0.045770 -0.243265 -0.238005
v 0.045750 -0.280097 -0.237872
v -0.055772 -0.243199 -0.235018
v -0.055792 -0.280031 -0.234885
v -0.147321 -0.242990 -0.190989
v -0.147341 -0.279822 -0.190856
v -0.213047 -0.242675 -0.113530
v -0.213066 -0.279507 -0.113397
v -0.241585 -0.242308 -0.016035
v -0.241604 -0.279140 -0.015902
v -0.227999 -0.241951 0.084638
v -0.228020 -0.278783 0.084772
v -0.165624 0.373159 0.160523
v -0.085880 0.373312 0.214950
v 0.002278 0.372490 0.000158
v 0.009106 0.373323 0.232238
v 0.102911 0.373189 0.209397
v 0.179316 0.372935 0.150377
v 0.225111 0.372603 0.065382
v 0.232374 0.372253 -0.030890
v 0.199853 0.371941 -0.121794
v 0.133169 0.371726 -0.191611
v 0.043853 0.371643 -0.228270
v -0.052652 0.371705 -0.225431
v -0.139660 0.371904 -0.183586
v -0.202124 0.372203 -0.109970
v -0.229245 0.372553 -0.017312
v -0.216335 0.372891 0.078367
v -0.177034 0.357591 0.171469
v -0.091876 0.357754 0.229593
v -0.177025 0.373205 0.171413
v -0.091867 0.373368 0.229536
v 0.009560 0.357766 0.248054
v 0.009568 0.373379 0.247998
v 0.109736 0.357623 0.223662
v 0.109745 0.373237 0.223606
v 0.191330 0.357350 0.160634
v 0.191339 0.372965 0.160578
v 0.240235 0.356997 0.069867
v 0.240243 0.372611 0.069811
v 0.247992 0.356621 -0.032942
v 0.248000 0.372236 -0.032999
v 0.213262 0.356290 -0.130020
v 0.213270 0.371905 -0.130076
v 0.142050 0.356060 -0.204578
v 0.142058 0.371674 -0.204634
v 0.046668 0.355971 -0.243726
v 0.046676 0.371585 -0.243783
v -0.056391 0.356037 -0.240695
v -0.056382 0.371652 -0.240751
v -0.149306 0.356250 -0.196008
v -0.149299 0.371864 -0.196064
v -0.216013 0.356570 -0.117392
v -0.216004 0.372184 -0.117449
v -0.244977 0.356943 -0.018442
v -0.244968 0.372557 -0.018498
v -0.231189 0.357304 0.083735
v -0.231181 0.372919 0.083678
v -0.062797 -0.373518 -0.035559
v -0.045516 -0.373484 -0.023764
v -0.026496 -0.373663 -0.070280
v -0.024933 -0.373482 -0.020018
v -0.004606 -0.373511 -0.024968
v 0.011951 -0.373566 -0.037758
v 0.021874 -0.373638 -0.056175
v 0.023448 -0.373714 -0.077037
v 0.016401 -0.373782 -0.096736
v 0.001951 -0.373827 -0.111865
v -0.017404 -0.373846 -0.119809
v -0.038316 -0.373833 -0.119194
v -0.057170 -0.373789 -0.110126
v -0.070706 -0.373725 -0.094174
v -0.076583 -0.373649 -0.074095
v -0.073786 -0.373576 -0.053361
v -0.007976 -0.370763 0.117658
v 0.009303 -0.370730 0.129453
v 0.028323 -0.370908 0.082938
v 0.029887 -0.370727 0.133199
v 0.050213 -0.370756 0.128249
v 0.066771 -0.370811 0.115459
v 0.076694 -0.370884 0.097042
v 0.078268 -0.370960 0.076180
v 0.071221 -0.371027 0.056481
v 0.056771 -0.371074 0.041352
v 0.037416 -0.371092 0.033408
v 0.016504 -0.371078 0.034023
v -0.002350 -0.371035 0.043091
v -0.015887 -0.370970 0.059043
v -0.021764 -0.370894 0.079122
v -0.018966 -0.370821 0.099856
v -0.007948 -0.317395 0.117466
v -0.018936 -0.317453 0.099663
v -0.021735 -0.317527 0.078930
v -0.015858 -0.317602 0.058851
v -0.002322 -0.317667 0.042898
v 0.016533 -0.317710 0.033831
v 0.037445 -0.317724 0.033216
v 0.056800 -0.317706 0.041159
v 0.071250 -0.317659 0.056288
v 0.078297 -0.317592 0.075987
v 0.076723 -0.317516 0.096849
v 0.066800 -0.317444 0.115267
v 0.050243 -0.317388 0.128057
v 0.029915 -0.317360 0.133006
v 0.009332 -0.317362 0.129260
v -0.007919 -0.264027 0.117273
v 0.009361 -0.263994 0.129068
v 0.028382 -0.264172 0.082552
v 0.029944 -0.263992 0.132814
v 0.050272 -0.264021 0.127864
v 0.066828 -0.264076 0.115075
v 0.076752 -0.264148 0.096656
v 0.078326 -0.264224 0.075795
v 0.071279 -0.264292 0.056096
v 0.056829 -0.264338 0.040967
v 0.037474 -0.264356 0.033023
v 0.016562 -0.264342 0.033638
v -0.002293 -0.264299 0.042706
v -0.015829 -0.264235 0.058658
v -0.021705 -0.264159 0.078737
v -0.018908 -0.264086 0.099471
v -0.332330 0.402845 0.008714
v -0.302302 0.402459 -0.093868
v -0.233147 0.402127 -0.175371
v -0.136818 0.401907 -0.221699
v -0.029974 0.401838 -0.224841
v 0.068913 0.401929 -0.184256
v 0.142734 0.402168 -0.106959
v 0.178745 0.402512 -0.006316
v 0.170700 0.402901 0.100268
v 0.120005 0.403268 0.194368
v 0.035413 0.403550 0.259710
v -0.261893 0.403516 0.205605
v -0.318035 0.403219 0.114647
v -0.332262 0.527880 0.008267
v -0.302235 0.527493 -0.094319
v -0.233078 0.527161 -0.175827
v -0.136750 0.526941 -0.222150
v -0.029906 0.526871 -0.225293
v 0.068979 0.526964 -0.184707
v 0.142805 0.527203 -0.107410
v 0.178814 0.527547 -0.006767
v 0.170771 0.527935 0.099820
v 0.120073 0.528302 0.193919
v 0.035480 0.528584 0.259265
v -0.261824 0.528552 0.205154
v -0.317967 0.528254 0.114196
v -0.115432 0.535533 0.032209
v -0.110780 0.535473 0.016317
v -0.100067 0.535421 0.003691
v -0.085144 0.535387 -0.003485
v -0.068592 0.535376 -0.003972
v -0.053274 0.535391 0.002311
v -0.041837 0.535428 0.014289
v -0.036259 0.535481 0.029880
v -0.037505 0.535541 0.046392
v -0.045359 0.535598 0.060969
v -0.058463 0.535642 0.071092
v -0.074552 0.535665 0.075006
v -0.090843 0.535663 0.072045
v -0.104520 0.535637 0.062709
v -0.113216 0.535590 0.048619
v -0.314652 0.527875 0.009692
v -0.286714 0.527516 -0.085749
v -0.286710 0.535201 -0.085781
v -0.314647 0.535560 0.009667
v -0.222372 0.527207 -0.161579
v -0.222367 0.534891 -0.161607
v -0.132747 0.527002 -0.204683
v -0.132743 0.534687 -0.204711
v -0.033340 0.526937 -0.207607
v -0.033336 0.534622 -0.207635
v 0.058663 0.527024 -0.169846
v 0.058667 0.534708 -0.169878
v 0.127350 0.527245 -0.097929
v 0.127356 0.534931 -0.097957
v 0.160851 0.527565 -0.004292
v 0.160856 0.535250 -0.004319
v 0.153370 0.527927 0.094876
v 0.153374 0.535612 0.094849
v 0.106198 0.528269 0.182427
v 0.106202 0.535953 0.182400
v 0.027495 0.528531 0.243223
v 0.027499 0.536215 0.243195
v -0.069132 0.528669 0.266750
v -0.069128 0.536353 0.266723
v -0.166976 0.528658 0.248943
v -0.166970 0.536343 0.248915
v -0.249116 0.528500 0.192879
v -0.249112 0.536185 0.192851
v -0.301352 0.528223 0.108252
v -0.301348 0.535909 0.108224
v -0.332332 0.399587 0.008730
v -0.302304 0.399200 -0.093856
v -0.076004 0.399517 0.028071
v -0.233148 0.398868 -0.175359
v -0.136820 0.398649 -0.221687
v -0.029975 0.398579 -0.224829
v 0.068911 0.398672 -0.184244
v 0.142738 0.398910 -0.106947
v 0.178744 0.399254 -0.006304
v 0.170703 0.399643 0.100283
v 0.120002 0.400010 0.194384
v 0.035410 0.400292 0.259728
v -0.068445 0.400440 0.285012
v -0.173607 0.400428 0.265875
v -0.261895 0.400259 0.205614
v -0.318038 0.399961 0.114656
v -0.335608 0.402859 0.005720
v -0.305335 0.402469 -0.097701
v -0.335610 0.399601 0.005732
v -0.305337 0.399211 -0.097687
v -0.235617 0.402134 -0.179864
v -0.235619 0.398876 -0.179852
v -0.138507 0.401913 -0.226568
v -0.138509 0.398655 -0.226556
v -0.030794 0.401843 -0.229736
v -0.030796 0.398585 -0.229729
v 0.068894 0.401936 -0.188821
v 0.068894 0.398678 -0.188809
v 0.143320 0.402177 -0.110897
v 0.143321 0.398919 -0.110884
v 0.179621 0.402523 -0.009435
v 0.179619 0.399265 -0.009424
v 0.171514 0.402915 0.098017
v 0.171511 0.399658 0.098028
v 0.120401 0.403285 0.192883
v 0.120392 0.400027 0.192894
v 0.035121 0.403569 0.258757
v 0.035121 0.400311 0.258769
v -0.069576 0.403719 0.284250
v -0.069579 0.400461 0.284259
v -0.175592 0.403707 0.264955
v -0.175595 0.400449 0.264965
v -0.264597 0.403536 0.204204
v -0.264599 0.400278 0.204219
v -0.321197 0.403236 0.112506
v -0.321199 0.399978 0.112523
v -0.115380 0.629489 0.031870
v -0.110729 0.629429 0.015978
v -0.075738 0.629478 0.034890
v -0.100016 0.629377 0.003352
v -0.085093 0.629343 -0.003827
v -0.068541 0.629332 -0.004311
v -0.053222 0.629346 0.001976
v -0.041786 0.629384 0.013946
v -0.036208 0.629437 0.029541
v -0.037453 0.629497 0.046053
v -0.045308 0.629554 0.060630
v -0.058412 0.629598 0.070752
v -0.074501 0.629620 0.074670
v -0.090792 0.629619 0.071705
v -0.104469 0.629593 0.062370
v -0.113165 0.629547 0.048280
v -0.077900 0.415746 0.283238
v -0.063941 0.403760 0.280228
v -0.164470 0.416037 0.267477
v -0.177657 0.403900 0.259494
v -0.078417 0.515951 0.282773
v -0.064120 0.528714 0.280040
v -0.163692 0.516156 0.267252
v -0.175848 0.528702 0.259884
v -0.411287 0.421061 1.623572
v -0.324717 0.420769 1.639330
v -0.410509 0.521179 1.623343
v -0.325234 0.520975 1.638864
v -0.466329 0.521590 1.613182
v -0.467113 0.421471 1.613411
v -0.480352 0.521876 1.690230
v -0.481131 0.421757 1.690459
v -0.268895 0.421104 1.649488
v -0.269411 0.521310 1.649023
v -0.282919 0.421390 1.726536
v -0.283437 0.521596 1.726071
v -0.411635 0.361535 1.623728
v -0.324685 0.361242 1.639556
v -0.425658 0.361820 1.700777
v -0.338703 0.361528 1.716605
v -0.467571 0.361946 1.613547
v -0.481593 0.362231 1.690595
v -0.282613 0.361864 1.726812
v -0.268587 0.361578 1.649765
v -0.325301 0.580500 1.638632
v -0.410189 0.580705 1.623181
v -0.339322 0.580786 1.715679
v -0.424211 0.580991 1.700229
v -0.479889 0.581401 1.690094
v -0.465868 0.581115 1.613046
v -0.269718 0.580836 1.648747
v -0.283742 0.581121 1.725794
v -0.333558 0.519615 1.200521
v -0.334336 0.419495 1.200751
v -0.389380 0.520026 1.190360
v -0.390159 0.419906 1.190590
v -0.466863 0.422362 1.783269
v -0.346358 0.421370 1.805210
v -0.466086 0.522480 1.783041
v -0.346871 0.521576 1.804744
v -0.541946 0.422410 1.769614
v -0.541168 0.522530 1.769386
v -0.299332 0.521919 1.813403
v -0.298815 0.421713 1.813868
v -0.337310 0.361852 1.807207
v -0.467212 0.362836 1.783427
v -0.542407 0.362886 1.769747
v -0.298508 0.362188 1.814144
v -0.465766 0.582008 1.782878
v -0.337930 0.581111 1.806282
v -0.540703 0.582057 1.769249
v -0.299639 0.581445 1.813126
v -0.558689 0.422814 1.905210
v -0.633772 0.422863 1.891557
v -0.559039 0.363289 1.905370
v -0.634234 0.363338 1.891693
v -0.557913 0.522934 1.904984
v -0.632994 0.522983 1.891329
v -0.632529 0.582509 1.891192
v -0.557596 0.582461 1.904821
v -0.452498 0.428186 1.786228
v -0.351013 0.427305 1.804486
v -0.452019 0.516567 1.785989
v -0.351307 0.515763 1.804106
v -0.494766 0.428569 1.850664
v -0.343288 0.427708 1.865184
v -0.494288 0.516950 1.850425
v -0.343581 0.516165 1.864803
v -0.655825 0.428739 1.901535
v -0.337822 0.427892 1.916057
v -0.655341 0.517120 1.901294
v -0.338106 0.516348 1.915673
v -0.662348 0.369061 1.988715
v -0.341779 0.367092 1.987306
v -0.661832 0.578195 1.988011
v -0.341982 0.576408 1.986511
v -0.094801 0.400437 0.280215
v -0.096150 0.400458 0.279425
v -0.096147 0.403715 0.279414
v -0.092442 0.403795 0.275032
v -0.099596 0.415818 0.279289
v -0.346415 0.420842 1.635380
v -0.346476 0.361316 1.635589
v -0.360496 0.361601 1.712637
v -0.369869 0.362099 1.801248
v -0.376558 0.421618 1.799708
v -0.376447 0.427527 1.799911
v -0.381256 0.427924 1.861545
v -0.389058 0.428104 1.912416
v -0.394866 0.367583 1.986507
v -0.394887 0.576853 1.985736
v -0.389159 0.516542 1.912069
v -0.381358 0.516362 1.861199
v -0.376547 0.515965 1.799565
v -0.376749 0.521802 1.799304
v -0.369970 0.581336 1.800416
v -0.360597 0.580837 1.711807
v -0.346576 0.580552 1.634760
v -0.346607 0.521026 1.634974
v -0.099790 0.516002 0.278882
v -0.092122 0.528711 0.274988
v -0.093655 0.528666 0.262287
v -0.093650 0.536351 0.262258
v -0.078635 0.535665 0.074265
v -0.078584 0.629620 0.073927
v -0.070888 0.400142 0.201978
v -0.120269 0.400435 0.275582
v -0.121824 0.400455 0.274752
v -0.121821 0.403713 0.274741
v -0.119980 0.403830 0.270009
v -0.120562 0.415890 0.275470
v -0.367380 0.420913 1.631563
v -0.367533 0.361387 1.631756
v -0.381555 0.361672 1.708805
v -0.401327 0.362337 1.795488
v -0.405742 0.421859 1.794396
v -0.401025 0.427740 1.795489
v -0.417936 0.428133 1.858027
v -0.438574 0.428309 1.908899
v -0.435490 0.368055 1.985286
v -0.435340 0.577282 1.984536
v -0.438486 0.516729 1.908587
v -0.417850 0.516552 1.857718
v -0.400937 0.516159 1.795178
v -0.405621 0.522022 1.794049
v -0.400925 0.581553 1.794746
v -0.381154 0.580886 1.708064
v -0.367137 0.580601 1.631018
v -0.367258 0.521075 1.631215
v -0.120441 0.516052 0.275124
v -0.119179 0.528708 0.270106
v -0.117349 0.528663 0.257975
v -0.117345 0.536349 0.257945
v -0.082580 0.535664 0.073547
v -0.082530 0.629619 0.073210
v -0.074902 0.629575 0.061814
v -0.071103 0.535660 0.074167
v -0.071053 0.629616 0.073830
v -0.075080 0.629553 0.056044
v -0.084301 0.629620 0.072887
v -0.084352 0.535664 0.073225
v -0.127981 0.536347 0.256011
v -0.127986 0.528662 0.256039
v -0.131325 0.528707 0.267916
v -0.129710 0.516074 0.273437
v -0.376527 0.521097 1.629528
v -0.376363 0.580624 1.629338
v -0.390384 0.580909 1.706386
v -0.414825 0.581650 1.792203
v -0.418579 0.522120 1.791689
v -0.411886 0.516247 1.793208
v -0.434234 0.516637 1.856154
v -0.484967 0.516813 1.907024
v -0.483025 0.577481 1.981096
v -0.483254 0.368274 1.981837
v -0.485136 0.428401 1.907320
v -0.434404 0.428227 1.856449
v -0.412058 0.427835 1.793503
v -0.418841 0.421967 1.792012
v -0.415447 0.362444 1.792903
v -0.391008 0.361704 1.707084
v -0.376985 0.361418 1.630035
v -0.376789 0.420945 1.629851
v -0.129972 0.415921 0.273759
v -0.132342 0.403844 0.267756
v -0.133346 0.403711 0.272644
v -0.133349 0.400453 0.272654
v -0.131701 0.400433 0.273502
v -0.071985 0.400008 0.164705
v -0.046186 0.400408 0.279593
v -0.047139 0.400428 0.278798
v -0.047137 0.403687 0.278786
v -0.042649 0.403715 0.275832
v -0.042773 0.528686 0.275586
v -0.048423 0.528640 0.261707
v -0.048418 0.536324 0.261680
v -0.062891 0.535648 0.072170
v -0.062840 0.629604 0.071830
v -0.075508 0.629504 0.042299
v -0.088518 0.629619 0.072120
v -0.088569 0.535663 0.072458
v -0.153314 0.536344 0.251401
v -0.153319 0.528659 0.251429
v -0.160252 0.528704 0.262697
v -0.151789 0.516128 0.269416
v -0.398606 0.521150 1.625507
v -0.398340 0.580677 1.625338
v -0.412361 0.580962 1.702385
v -0.447924 0.581882 1.786145
v -0.449447 0.522354 1.786069
v -0.437960 0.516454 1.788518
v -0.473251 0.516841 1.852430
v -0.595662 0.517012 1.903301
v -0.589521 0.577945 1.983397
v -0.589940 0.368785 1.984116
v -0.596035 0.428621 1.903561
v -0.473630 0.428449 1.852690
v -0.438333 0.428063 1.788777
v -0.450046 0.422223 1.786331
v -0.449083 0.362699 1.786745
v -0.413522 0.361779 1.702984
v -0.399499 0.361494 1.625937
v -0.399203 0.421019 1.625771
v -0.152386 0.415996 0.269679
v -0.161785 0.403881 0.262386
v -0.160796 0.403709 0.267649
v -0.160798 0.400450 0.267659
v -0.158929 0.400429 0.268546
v -0.074596 0.399689 0.075930
v 0.006829 0.400332 0.266686
v 0.006308 0.400352 0.265784
v 0.006309 0.403610 0.265773
v 0.008069 0.403608 0.265359
v 0.008070 0.528620 0.264982
v 0.000903 0.528569 0.249695
v 0.000908 0.536254 0.249668
v -0.392364 0.367671 2.009566
v -0.346875 0.367182 2.010685
v -0.392387 0.576942 2.008794
v -0.347076 0.576498 2.009890
v -0.613505 0.578029 1.999380
v -0.613919 0.368869 2.000098
v -0.686716 0.369139 2.012968
v -0.686199 0.578273 2.012261
v -0.442562 0.368141 2.008620
v -0.442409 0.577367 2.007871
v -0.502682 0.368362 2.003266
v -0.502455 0.577569 2.002526
v -0.408364 0.367768 2.029857
v -0.351693 0.367274 2.034873
v -0.408387 0.577039 2.029084
v -0.351898 0.576591 2.034078
v -0.612836 0.578108 2.020495
v -0.613246 0.368949 2.021211
v -0.704079 0.369219 2.037757
v -0.703568 0.578353 2.037052
v -0.436344 0.368231 2.028365
v -0.436192 0.577457 2.027615
v -0.505773 0.368437 2.048165
v -0.505539 0.577643 2.047424
v -0.411056 0.367850 2.056248
v -0.351470 0.367358 2.056770
v -0.411081 0.577120 2.055474
v -0.351669 0.576674 2.055976
v -0.618836 0.578162 2.063533
v -0.619251 0.369002 2.064250
v -0.704202 0.369278 2.070837
v -0.703687 0.578413 2.070130
v -0.436565 0.368304 2.058083
v -0.436414 0.577530 2.057334
v -0.468264 0.368517 2.058326
v -0.468035 0.577725 2.057586
v -0.558678 0.368653 2.015910
v -0.562511 0.368720 2.056208
v -0.562189 0.577903 2.055477
v -0.558359 0.577836 2.015182
v -0.387916 0.367928 2.084679
v -0.340044 0.367444 2.080175
v -0.387940 0.577198 2.083907
v -0.340243 0.576759 2.079380
v -0.416226 0.368380 2.086788
v -0.416075 0.577606 2.086038
v -0.468153 0.368591 2.092729
v -0.467926 0.577798 2.091989
v -0.636269 0.578307 2.109825
v -0.636683 0.369147 2.110542
v -0.685932 0.369415 2.120385
v -0.685418 0.578550 2.119679
v -0.611547 0.578401 2.141308
v -0.611962 0.369241 2.142025
v -0.656332 0.369503 2.161207
v -0.655816 0.578637 2.160501
v -0.576493 0.578456 2.169726
v -0.576905 0.369297 2.170441
v -0.621273 0.369558 2.189624
v -0.620757 0.578693 2.188916
v -0.533708 0.578496 2.188813
v -0.534122 0.369337 2.189530
v -0.557677 0.369588 2.218571
v -0.557163 0.578723 2.217864
v -0.362432 0.368105 2.129200
v -0.294238 0.367620 2.124584
v -0.362456 0.577376 2.128429
v -0.294439 0.576936 2.123789
v -0.433035 0.368539 2.132983
v -0.432885 0.577765 2.132234
v -0.477633 0.368749 2.138615
v -0.477405 0.577955 2.137874
v -0.337983 0.368225 2.159356
v -0.266460 0.367740 2.154597
v -0.338007 0.577495 2.158584
v -0.266659 0.577056 2.153802
v -0.438422 0.368642 2.170888
v -0.438273 0.577868 2.170138
v -0.498625 0.368850 2.183144
v -0.498398 0.578056 2.182404
v -0.345791 0.368381 2.205415
v -0.218897 0.367900 2.182809
v -0.345815 0.577651 2.204643
v -0.219096 0.577216 2.182013
v -0.434259 0.368786 2.211660
v -0.434109 0.578013 2.210909
v -0.503481 0.369000 2.217733
v -0.503255 0.578207 2.216994
v -0.348796 0.368473 2.245064
v -0.237219 0.368004 2.208789
v -0.348820 0.577744 2.244292
v -0.237419 0.577320 2.207993
v -0.438040 0.368867 2.252507
v -0.437889 0.578093 2.251756
v -0.500144 0.369083 2.252326
v -0.499918 0.578289 2.251586
v -0.546841 0.578815 2.234874
v -0.547356 0.369682 2.235581
vn -0.7234 0.0029 0.6904
vn -0.3797 0.0035 0.9251
vn 0.0294 0.0036 0.9996
vn 0.4331 0.0030 0.9013
vn 0.4334 0.0030 0.9012
vn 0.7625 0.0019 0.6470
vn 0.9596 0.0005 0.2813
vn 0.9597 0.0005 0.2809
vn 0.9911 -0.0010 -0.1334
vn 0.9910 -0.0010 -0.1337
vn 0.8508 -0.0024 -0.5256
vn 0.8509 -0.0024 -0.5252
vn 0.5637 -0.0033 -0.8259
vn 0.1791 -0.0036 -0.9838
vn -0.2369 -0.0034 -0.9715
vn -0.2366 -0.0034 -0.9716
vn -0.6113 -0.0025 -0.7914
vn -0.8801 -0.0012 -0.4747
vn -0.9972 0.0003 -0.0748
vn -0.9971 0.0003 -0.0757
vn -0.9417 0.0017 0.3364
vn -0.7231 0.0029 0.6907
vn 0.0005 1.0000 -0.0036
vn 0.0006 1.0000 -0.0036
vn -0.0005 -1.0000 0.0036
vn -0.0006 -1.0000 0.0036
vn 0.7622 0.0019 0.6473
vn 0.9599 0.0005 0.2805
vn 0.9911 -0.0010 -0.1331
vn 0.9910 -0.0010 -0.1341
vn 0.8509 -0.0023 -0.5252
vn 0.8510 -0.0023 -0.5252
vn -0.6110 -0.0025 -0.7916
vn -0.8804 -0.0013 -0.4743
vn -0.9971 0.0002 -0.0757
vn -0.9417 0.0018 0.3365
vn -0.9414 0.0018 0.3372
vn 0.0005 1.0000 -0.0035
vn 0.0005 1.0000 -0.0037
vn 0.0004 1.0000 -0.0036
vn -0.3797 0.0036 0.9251
vn -0.7229 0.0029 0.6909
vn 0.7622 0.0019 0.6474
vn 0.9598 0.0005 0.2806
vn 0.8512 -0.0023 -0.5248
vn 0.9910 -0.0010 -0.1342
vn 0.5642 -0.0033 -0.8256
vn 0.1791 -0.0037 -0.9838
vn -0.2362 -0.0034 -0.9717
vn -0.2366 -0.0033 -0.9716
vn -0.6113 -0.0026 -0.7914
vn -0.8805 -0.0012 -0.4740
vn -0.6110 -0.0026 -0.7917
vn -0.9414 0.0017 0.3373
vn -0.0005 -1.0000 0.0037
vn 0.4338 0.0030 0.9010
vn 0.7623 0.0019 0.6473
vn 0.9911 -0.0010 -0.1333
vn 0.8509 -0.0024 -0.5253
vn 0.5638 -0.0033 -0.8259
vn -0.8803 -0.0012 -0.4743
vn -0.9971 0.0003 -0.0758
vn -0.9414 0.0017 0.3372
vn -0.9415 0.0017 0.3369
vn -0.7232 0.0029 0.6907
vn -0.9416 0.0017 0.3369
vn -0.9972 0.0003 -0.0752
vn -0.8804 -0.0012 -0.4743
vn -0.9972 0.0003 -0.0747
vn -0.6117 -0.0025 -0.7911
vn 0.1790 -0.0036 -0.9838
vn 0.5637 -0.0033 -0.8260
vn 0.8510 -0.0024 -0.5252
vn 0.4330 0.0030 0.9014
vn -0.7229 0.0029 0.6910
vn -0.9416 0.0017 0.3368
vn -0.8802 -0.0012 -0.4746
vn -0.9969 0.0003 -0.0792
vn -0.8821 -0.0012 -0.4711
vn -0.8786 -0.0013 -0.4776
vn -0.6091 -0.0026 -0.7931
vn -0.6135 -0.0025 -0.7897
vn -0.2352 -0.0034 -0.9719
vn -0.2380 -0.0034 -0.9713
vn 0.5651 -0.0033 -0.8250
vn 0.5624 -0.0033 -0.8269
vn 0.8494 -0.0024 -0.5277
vn 0.8525 -0.0024 -0.5228
vn 0.9905 -0.0010 -0.1375
vn 0.9915 -0.0010 -0.1301
vn 0.9608 0.0005 0.2772
vn 0.9586 0.0005 0.2846
vn 0.7646 0.0019 0.6445
vn 0.7604 0.0019 0.6495
vn 0.5366 0.0027 0.8439
vn -0.7197 0.0029 0.6943
vn -0.9404 0.0017 0.3400
vn -0.9427 0.0017 0.3336
vn -0.9974 0.0003 -0.0714
vn -0.0008 -1.0000 0.0035
vn -0.0008 -1.0000 0.0036
vn -0.0007 -1.0000 0.0034
vn -0.0006 -1.0000 0.0034
vn -0.0005 -1.0000 0.0034
vn -0.0004 -1.0000 0.0035
vn -0.0002 -1.0000 0.0035
vn 0.0621 -0.9976 0.0306
vn 0.0462 -0.9970 0.0618
vn -0.0620 -0.9966 -0.0535
vn -0.0016 -0.9997 0.0239
vn 0.0402 -0.9748 -0.2195
vn -0.0097 -0.9982 0.0588
vn -0.0004 -1.0000 0.0034
vn 0.0086 -0.9992 -0.0399
vn -0.0008 -1.0000 0.0037
vn 0.0008 1.0000 -0.0038
vn -0.9975 0.0004 -0.0713
vn -0.8786 -0.0015 -0.4775
vn -0.9969 0.0004 -0.0791
vn -0.8821 -0.0015 -0.4711
vn -0.6091 -0.0025 -0.7931
vn -0.6135 -0.0024 -0.7897
vn -0.2351 -0.0034 -0.9720
vn 0.1790 -0.0037 -0.9838
vn 0.5651 -0.0037 -0.8250
vn 0.5624 -0.0037 -0.8269
vn 0.8525 -0.0026 -0.5227
vn 0.8494 -0.0026 -0.5277
vn 0.9905 -0.0011 -0.1375
vn 0.9915 -0.0011 -0.1300
vn 0.9586 0.0006 0.2846
vn 0.7647 0.0019 0.6444
vn 0.7603 0.0020 0.6495
vn 0.5412 0.0028 0.8409
vn 0.2365 0.0033 0.9716
vn 0.0134 0.0036 0.9999
vn -0.1791 0.0038 0.9838
vn -0.1790 0.0038 0.9838
vn -0.5231 0.0035 0.8522
vn -0.7215 0.0029 0.6924
vn -0.7248 0.0029 0.6890
vn -0.8786 -0.0014 -0.4775
vn -0.8821 -0.0014 -0.4711
vn -0.6136 -0.0025 -0.7896
vn 0.1790 -0.0022 -0.9838
vn 0.1791 -0.0022 -0.9838
vn 0.5623 -0.0030 -0.8269
vn 0.5651 -0.0030 -0.8250
vn 0.8525 -0.0017 -0.5227
vn 0.9915 -0.0010 -0.1300
vn 0.8494 -0.0018 -0.5278
vn 0.9608 -0.0000 0.2772
vn 0.9586 0.0001 0.2846
vn 0.7603 0.0002 0.6495
vn 0.5388 0.0029 0.8425
vn 0.7646 0.0001 0.6445
vn 0.2366 0.0032 0.9716
vn 0.0133 0.0026 0.9999
vn -0.1790 0.0035 0.9838
vn -0.7215 0.0036 0.6924
vn -0.5232 0.0033 0.8522
vn -0.5224 0.0030 0.8527
vn -0.9427 0.0023 0.3337
vn -0.9404 0.0023 0.3401
vn 0.0052 1.0000 -0.0015
vn 0.0067 1.0000 -0.0027
vn 0.0078 1.0000 -0.0038
vn -0.0067 -1.0000 0.0027
vn 0.0033 1.0000 -0.0002
vn 0.0047 1.0000 -0.0011
vn -0.0049 -1.0000 0.0010
vn 0.0015 1.0000 0.0007
vn 0.0031 1.0000 -0.0002
vn -0.0032 -1.0000 -0.0000
vn -0.0001 1.0000 0.0010
vn -0.0006 1.0000 0.0011
vn 0.0001 -1.0000 -0.0012
vn -0.0025 1.0000 0.0015
vn -0.0038 1.0000 0.0015
vn 0.0020 -1.0000 -0.0014
vn -0.0060 1.0000 0.0014
vn -0.0091 1.0000 0.0009
vn 0.0057 -1.0000 -0.0015
vn -0.0116 0.9999 0.0003
vn -0.0258 0.9997 -0.0035
vn 0.0115 -0.9999 -0.0003
vn -0.0371 0.9993 -0.0069
vn -0.0747 -0.9967 -0.0328
vn 0.0393 -0.9992 0.0075
vn -0.0406 -0.9989 -0.0222
vn -0.0169 -0.9997 -0.0162
vn 0.0392 0.9990 0.0211
vn -0.0092 -0.9997 -0.0213
vn -0.0141 -0.9997 -0.0198
vn 0.0132 0.9998 0.0157
vn -0.0028 0.9995 0.0324
vn -0.0063 -0.9971 0.0761
vn -0.0366 -0.9977 0.0567
vn 0.0113 0.9999 -0.0089
vn 0.0140 0.9998 -0.0131
vn 0.0318 0.9984 -0.0478
vn -0.0130 -0.9998 0.0118
vn 0.0090 0.9999 -0.0054
vn -0.0092 -0.9999 0.0057
vn -0.9969 0.0003 -0.0790
vn -0.8786 -0.0012 -0.4775
vn 0.1789 -0.0036 -0.9839
vn 0.5650 -0.0033 -0.8251
vn 0.8495 -0.0024 -0.5277
vn 0.9905 -0.0010 -0.1374
vn 0.9587 0.0005 0.2845
vn 0.7603 0.0019 0.6495
vn 0.5368 0.0028 0.8437
vn 0.2366 0.0034 0.9716
vn 0.2364 0.0034 0.9716
vn 0.0127 0.0036 0.9999
vn -0.1788 0.0036 0.9839
vn 0.0137 0.0036 0.9999
vn -0.5193 0.0034 0.8546
vn -0.5189 0.0034 0.8548
vn -0.9427 0.0017 0.3337
vn -0.1638 -0.4151 0.8949
vn -0.1640 -0.4147 0.8951
vn -0.1636 -0.4153 0.8948
vn 0.2066 0.0028 0.9784
vn 0.1879 0.0020 0.9822
vn 0.2154 0.0056 0.9765
vn -0.5151 0.0049 0.8571
vn -0.5386 0.0044 0.8426
vn -0.5219 0.0060 0.8530
vn -0.1646 0.3786 0.9108
vn -0.1645 0.3789 0.9107
vn -0.1643 0.3791 0.9107
vn 0.5330 0.0026 0.8461
vn 0.2024 0.0031 0.9793
vn -0.7152 0.0034 0.6989
vn 0.0076 -0.9994 0.0334
vn 0.0078 -0.9994 0.0340
vn -0.0004 0.9999 0.0107
vn -0.0024 0.9999 0.0157
vn -0.0023 0.9999 0.0168
vn -0.0169 0.9991 0.0400
vn -0.0304 0.9985 0.0460
vn -0.0039 -1.0000 0.0030
vn -0.9838 0.0072 -0.1791
vn 0.0030 1.0000 -0.0032
vn 0.9838 0.0059 0.1790
vn 0.0026 -1.0000 0.0042
vn -0.0044 -1.0000 0.0044
vn -0.9050 -0.0105 -0.4253
vn -0.9838 0.0073 -0.1791
vn 0.0034 1.0000 -0.0048
vn -0.0029 1.0000 -0.0042
vn 0.9838 0.0059 0.1791
vn 0.0069 1.0000 -0.0024
vn 0.0068 1.0000 -0.0052
vn 0.0062 1.0000 -0.0056
vn -0.1789 0.0036 0.9839
vn -0.0063 -1.0000 0.0055
vn -0.0078 -1.0000 0.0023
vn -0.0071 -1.0000 0.0024
vn 0.0051 -1.0000 0.0046
vn -0.0001 -1.0000 0.0059
vn -0.1786 0.0043 0.9839
vn -0.1793 0.0024 0.9838
vn -0.1793 0.0049 0.9838
vn -0.0019 1.0000 -0.0053
vn -0.0052 1.0000 -0.0047
vn -0.1799 0.0054 0.9837
vn -0.1793 0.0051 0.9838
vn -0.9041 0.0060 -0.4272
vn -0.1789 0.0037 0.9839
vn -0.1786 0.0050 0.9839
vn -0.1800 0.0019 0.9837
vn -0.1793 0.0023 0.9838
vn -0.9039 0.0245 -0.4270
vn -0.1786 0.0030 0.9839
vn -0.1786 0.0022 0.9839
vn 0.9838 -0.0072 0.1791
vn 0.0078 1.0000 -0.0023
vn -0.7951 0.0048 -0.6064
vn -0.0080 -1.0000 0.0043
vn -0.0035 -1.0000 0.0051
vn -0.0066 -1.0000 0.0055
vn -0.7964 0.0048 -0.6047
vn 0.0056 -1.0000 0.0043
vn 0.0019 -1.0000 0.0042
vn 0.0075 1.0000 -0.0043
vn -0.7966 0.0048 -0.6045
vn -0.8996 0.0060 -0.4367
vn 0.0035 1.0000 -0.0050
vn -0.0022 1.0000 -0.0042
vn -0.0056 1.0000 -0.0043
vn 0.0012 1.0000 -0.0028
vn 0.7988 -0.0031 0.6016
vn -0.0012 -1.0000 0.0028
vn -0.0011 -1.0000 0.0038
vn -0.7988 0.0048 -0.6015
vn -0.7949 0.0048 -0.6067
vn -0.7988 0.0049 -0.6015
vn 0.0010 1.0000 -0.0037
vn 0.7988 -0.0026 0.6016
vn 0.3096 0.0037 0.9509
vn 0.3094 0.0038 0.9509
vn 0.3092 0.0039 0.9510
vn -0.1791 -0.0217 0.9836
vn -0.1775 -0.0304 0.9836
vn -0.1794 -0.0207 0.9836
vn -0.2032 0.0038 0.9791
vn -0.2035 0.0038 0.9791
vn -0.2036 0.0038 0.9791
vn -0.1786 0.0295 0.9835
vn -0.1769 0.0376 0.9835
vn -0.1766 0.0379 0.9835
vn -0.1473 0.0038 0.9891
vn -0.1489 0.0038 0.9888
vn -0.0087 -0.9999 0.0063
vn -0.0063 -1.0000 0.0040
vn -0.0097 -0.9999 0.0057
vn -0.8361 0.0030 -0.5485
vn -0.4896 0.0003 -0.8719
vn 0.0060 1.0000 -0.0043
vn 0.0080 0.9999 -0.0063
vn 0.0090 0.9999 -0.0057
vn 0.9920 0.0027 -0.1263
vn 0.9930 0.0027 -0.1177
vn 0.9920 0.0028 -0.1263
vn -0.0055 -1.0000 0.0049
vn 0.0188 -0.8960 -0.4436
vn -0.4984 0.0003 -0.8670
vn -0.3012 -0.0010 -0.9536
vn -0.0604 0.9089 -0.4126
vn 0.0051 1.0000 -0.0048
vn 0.9997 0.0030 0.0229
vn 0.9931 0.0028 -0.1171
vn 0.0150 -0.7705 -0.6372
vn 0.0265 -0.8749 -0.4836
vn -0.9973 0.0036 -0.0739
vn -0.9972 0.0030 -0.0749
vn -0.9975 0.0053 -0.0710
vn 0.0260 0.7709 -0.6364
vn 0.0215 0.7744 -0.6323
vn 0.9852 0.0020 0.1714
vn 0.9997 0.0019 0.0242
vn -0.0071 0.9992 0.0387
vn -0.0035 0.9998 0.0220
vn -0.0037 0.9997 0.0226
vn -0.1641 -0.4143 0.8952
vn -0.1641 -0.4135 0.8956
vn -0.0046 -1.0000 0.0049
vn -0.0081 -1.0000 0.0056
vn -0.1799 0.0049 0.9837
vn -0.1791 0.0046 0.9838
vn -0.1786 -0.0387 0.9832
vn -0.1772 -0.0304 0.9837
vn -0.0089 -1.0000 0.0046
vn -0.0059 -1.0000 0.0030
vn 0.0297 -0.7805 -0.6244
vn 0.0060 -0.7740 -0.6331
vn -0.0297 0.0036 0.9996
vn -0.0300 0.0037 0.9995
vn 0.0403 0.7781 -0.6269
vn 0.0284 0.8893 -0.4564
vn 0.0054 1.0000 -0.0032
vn 0.0083 1.0000 -0.0047
vn -0.1779 0.0461 0.9830
vn -0.1776 0.0460 0.9830
vn -0.1799 0.0025 0.9837
vn 0.0076 1.0000 -0.0057
vn 0.0033 1.0000 -0.0050
vn -0.1646 0.3777 0.9112
vn -0.1647 0.3783 0.9109
vn -0.1790 0.0039 0.9838
vn -0.1791 0.0036 0.9838
vn 0.0059 -0.9995 -0.0317
vn -0.0071 0.9992 0.0386
vn -0.1791 0.0031 0.9838
vn -0.0055 0.9994 0.0334
vn -0.1644 -0.4117 0.8964
vn -0.1641 -0.4119 0.8964
vn -0.1643 -0.4123 0.8961
vn -0.0040 -1.0000 0.0030
vn -0.0049 -1.0000 0.0053
vn -0.0088 -0.9999 0.0076
vn -0.1798 0.0039 0.9837
vn -0.1792 0.0038 0.9838
vn -0.1791 0.0037 0.9838
vn -0.1784 -0.0564 0.9823
vn -0.1783 -0.0528 0.9826
vn -0.1788 -0.0523 0.9825
vn -0.0047 -1.0000 0.0008
vn -0.0085 -1.0000 0.0013
vn -0.0085 -1.0000 0.0022
vn 0.0920 -0.9824 -0.1626
vn -0.0046 -1.0000 -0.0057
vn -0.0070 -0.8015 -0.5979
vn -0.0049 -0.8347 -0.5507
vn -0.0010 0.8279 -0.5609
vn -0.0025 0.7953 -0.6062
vn 0.0127 0.8733 -0.4869
vn 0.0042 1.0000 0.0050
vn 0.0040 1.0000 0.0005
vn 0.0079 1.0000 -0.0016
vn 0.0079 1.0000 -0.0025
vn -0.1773 0.0653 0.9820
vn -0.1773 0.0615 0.9822
vn -0.1782 0.0656 0.9818
vn -0.1799 0.0034 0.9837
vn -0.1792 0.0035 0.9838
vn -0.1799 0.0032 0.9837
vn 0.0083 0.9999 -0.0078
vn 0.0041 1.0000 -0.0061
vn 0.0029 1.0000 -0.0032
vn -0.1646 0.3762 0.9118
vn -0.1647 0.3761 0.9118
vn -0.1647 0.3765 0.9117
vn -0.5220 0.0035 0.8529
vn -0.1792 0.0036 0.9838
vn 0.2363 0.0034 0.9717
vn 0.2367 0.0034 0.9716
vn 0.0007 1.0000 -0.0035
vn 0.0009 1.0000 -0.0033
vn -0.1790 0.0037 0.9838
vn -0.1648 0.3774 0.9113
vn -0.1649 0.3777 0.9111
vn 0.0030 1.0000 -0.0031
vn 0.0038 1.0000 -0.0055
vn 0.0079 0.9999 -0.0069
vn -0.1799 0.0028 0.9837
vn -0.1792 0.0027 0.9838
vn -0.1775 0.0536 0.9827
vn -0.1770 0.0533 0.9828
vn 0.0084 1.0000 -0.0036
vn 0.0048 1.0000 -0.0013
vn 0.0080 0.8947 -0.4465
vn 0.0097 0.7780 -0.6282
vn -0.0028 0.0036 1.0000
vn -0.0029 0.0036 1.0000
vn 0.0038 -0.7825 -0.6226
vn 0.0662 -0.9770 -0.2026
vn -0.0053 -1.0000 0.0012
vn -0.0090 -1.0000 0.0031
vn -0.1783 -0.0455 0.9829
vn -0.1783 -0.0381 0.9832
vn -0.1800 0.0046 0.9837
vn -0.1792 0.0043 0.9838
vn -0.0046 -1.0000 0.0054
vn -0.1642 -0.4132 0.8957
vn -0.1644 -0.4135 0.8956
vn -0.0048 0.9996 0.0274
vn -0.0050 0.9996 0.0271
vn -0.1791 0.0032 0.9838
vn -0.0069 0.9993 0.0370
vn 0.0072 -0.9992 -0.0389
vn -0.0083 -0.9996 -0.0285
vn 0.0059 0.9998 0.0181
vn 0.0119 0.0028 0.9999
vn 0.0028 0.9999 0.0152
vn 0.0059 0.9998 0.0185
vn 0.0060 0.9998 0.0185
vn 0.2041 0.0020 0.9789
vn 0.2025 0.0024 0.9793
vn 0.0119 0.0035 0.9999
vn 0.2366 0.0033 0.9716
vn -0.1647 0.3768 0.9116
vn -0.1793 0.0030 0.9838
vn -0.1778 0.0607 0.9822
vn 0.0215 0.0034 0.9998
vn 0.0214 0.0035 0.9998
vn 0.1257 -0.9346 -0.3326
vn -0.1779 -0.0451 0.9830
vn -0.1799 0.0041 0.9837
vn -0.0085 -0.9999 0.0067
vn -0.1641 -0.4129 0.8959
vn -0.0053 0.9995 0.0326
vn -0.0068 0.9993 0.0369
vn 0.0060 0.9998 0.0187
vn 0.0090 0.9994 0.0338
vn 0.2039 0.0026 0.9790
vn -0.0102 -0.9999 0.0022
vn -0.0104 -0.9999 0.0040
vn -0.0093 -1.0000 0.0018
vn -0.9568 -0.0012 -0.2907
vn -0.9942 0.0003 0.1078
vn -0.9942 0.0003 0.1079
vn 0.0095 0.9999 -0.0040
vn 0.0093 1.0000 -0.0024
vn 0.0084 1.0000 -0.0020
vn 0.9789 0.0017 0.2042
vn 0.9852 0.0015 0.1713
vn 0.8477 0.0002 0.5306
vn 0.5546 0.0018 0.8321
vn 0.5546 0.0017 0.8321
vn -0.0034 -1.0000 0.0013
vn -0.0038 -1.0000 -0.0006
vn -0.0038 -1.0000 -0.0005
vn -0.7054 -0.0007 -0.7088
vn -0.7054 -0.0006 -0.7088
vn 0.0034 1.0000 0.0002
vn 0.0032 1.0000 -0.0013
vn 0.0035 1.0000 -0.0001
vn 0.9999 -0.0006 0.0149
vn 0.9570 0.0003 0.2900
vn 0.9570 0.0004 0.2899
vn -0.0033 -1.0000 0.0029
vn -0.0040 -1.0000 0.0011
vn -0.0047 -1.0000 0.0022
vn -0.7409 -0.0016 -0.6717
vn -0.7408 -0.0016 -0.6717
vn 0.0037 1.0000 -0.0013
vn 0.0030 1.0000 -0.0029
vn 0.0043 1.0000 -0.0023
vn -0.0093 -1.0000 0.0021
vn -0.0099 -1.0000 0.0016
vn -0.7852 -0.0024 -0.6192
vn -0.9522 -0.0012 -0.3056
vn 0.0090 1.0000 -0.0018
vn 0.0085 1.0000 -0.0022
vn 0.9949 0.0013 0.1012
vn 0.9995 -0.0021 -0.0318
vn 0.8421 0.0002 0.5394
vn -0.0037 -1.0000 0.0018
vn -0.0029 -1.0000 0.0015
vn -0.8191 0.0001 -0.5737
vn -0.8190 0.0001 -0.5738
vn 0.0026 1.0000 -0.0014
vn 0.0034 1.0000 -0.0018
vn 0.9538 -0.0018 -0.3004
vn 0.9997 -0.0006 0.0256
vn -0.0024 -1.0000 0.0035
vn -0.0036 -1.0000 0.0018
vn 0.0022 1.0000 -0.0034
vn 0.0038 1.0000 -0.0013
vn -0.0124 -0.9999 0.0071
vn -0.0079 -1.0000 0.0018
vn 0.0115 0.9999 -0.0064
vn 0.0073 1.0000 -0.0021
vn 0.9953 0.0013 0.0973
vn 0.9693 -0.0000 -0.2458
vn -0.0036 -1.0000 0.0011
vn -1.0000 0.0024 -0.0037
vn -0.9764 0.0031 0.2160
vn -1.0000 0.0024 -0.0036
vn 0.0027 1.0000 -0.0012
vn 0.0032 1.0000 -0.0012
vn -0.0028 -1.0000 0.0050
vn -0.0037 -1.0000 0.0056
vn -0.2615 0.0037 0.9652
vn 0.0033 1.0000 -0.0053
vn 0.0034 1.0000 0.0011
vn 0.0755 0.0035 0.9971
vn 0.0745 0.0037 0.9972
vn 0.0744 0.0037 0.9972
vn -0.0171 -0.9999 0.0019
vn 0.0531 -0.0037 -0.9986
vn 0.0527 -0.0036 -0.9986
vn 0.0532 -0.0037 -0.9986
vn -0.1613 -0.0032 -0.9869
vn -0.2207 -0.0031 -0.9753
vn -0.2203 -0.0032 -0.9754
vn 0.0046 1.0000 -0.0012
vn 0.1407 0.0033 0.9900
vn 0.1404 0.0033 0.9901
vn -0.0050 -1.0000 0.0012
vn -0.0050 -1.0000 0.0010
vn 0.1407 0.0032 0.9900
vn 0.1404 0.0032 0.9901
vn 0.0046 1.0000 -0.0011
vn -0.0968 -0.0033 -0.9953
vn -0.1596 -0.0032 -0.9872
vn -0.0087 -0.9999 0.0066
vn -0.0091 -0.9999 0.0100
vn 0.0084 0.9999 -0.0095
vn 0.0079 0.9999 -0.0063
vn 0.7621 -0.0017 -0.6474
vn 0.9675 -0.0000 -0.2530
vn -0.0088 -1.0000 0.0047
vn -0.0045 -1.0000 0.0029
vn -1.0000 0.0011 0.0032
vn -0.9930 0.0007 -0.1177
vn 0.0040 1.0000 -0.0026
vn 0.0095 0.9999 -0.0034
vn -0.0074 -0.9999 0.0068
vn 0.0067 1.0000 -0.0065
vn 0.9952 -0.0023 -0.0974
vn 0.9358 -0.0006 0.3524
vn -0.0037 -1.0000 0.0041
vn -0.0035 -1.0000 0.0025
vn -0.8845 0.0038 0.4666
vn -0.9772 0.0031 0.2121
vn 0.0031 1.0000 -0.0025
vn 0.0034 1.0000 -0.0040
vn 0.7086 -0.0038 -0.7056
vn 0.9964 -0.0023 -0.0853
vn -0.0037 -1.0000 0.0057
vn -0.0045 -1.0000 0.0048
vn -0.7317 0.0041 0.6817
vn -0.8828 0.0038 0.4697
vn 0.0040 1.0000 -0.0046
vn 0.7070 -0.0038 -0.7072
vn 0.5217 -0.0040 -0.8531
vn -0.0034 -1.0000 0.0059
vn -0.0031 -1.0000 0.0063
vn -0.5035 0.0042 0.8640
vn -0.7299 0.0041 0.6835
vn 0.0028 1.0000 -0.0059
vn 0.0030 1.0000 -0.0055
vn 0.5202 -0.0040 -0.8540
vn 0.4075 -0.0039 -0.9132
vn -0.0028 -1.0000 0.0067
vn -0.0115 -0.9999 0.0051
vn -0.4143 0.0041 0.9101
vn -0.5022 0.0042 0.8647
vn 0.0102 0.9999 -0.0048
vn 0.0025 1.0000 -0.0062
vn -0.0080 -0.9999 0.0096
vn -0.0073 -0.9999 0.0097
vn -0.8319 0.0019 0.5549
vn -0.8679 0.0017 0.4968
vn 0.0066 0.9999 -0.0092
vn 0.0075 0.9999 -0.0088
vn 0.7113 -0.0020 -0.7028
vn 0.7650 -0.0017 -0.6440
vn 0.9673 0.0002 0.2536
vn 0.9397 0.0005 0.3419
vn -0.0042 -1.0000 0.0022
vn -0.9934 0.0007 -0.1144
vn -0.9470 -0.0001 -0.3212
vn 0.0038 1.0000 -0.0023
vn -0.0063 -0.9999 0.0098
vn -0.0062 -1.0000 0.0058
vn -0.7768 0.0022 0.6298
vn -0.8306 0.0020 0.5569
vn 0.0056 1.0000 -0.0055
vn 0.0057 0.9999 -0.0093
vn 0.7339 -0.0019 -0.6793
vn 0.7109 -0.0020 -0.7033
vn 0.9999 -0.0007 0.0134
vn 0.9664 0.0002 0.2570
vn -0.0034 -1.0000 0.0025
vn -0.0040 -1.0000 0.0017
vn -0.9482 -0.0001 -0.3176
vn -0.9045 -0.0005 -0.4264
vn 0.0036 1.0000 -0.0018
vn 0.0029 1.0000 -0.0028
vn -0.0036 -1.0000 0.0081
vn -0.0043 -1.0000 0.0027
vn -0.9859 -0.0007 -0.1671
vn 0.0038 1.0000 -0.0027
vn 0.0032 1.0000 -0.0077
vn 0.5102 -0.0028 -0.8601
vn 0.9948 -0.0011 -0.1016
vn 0.9998 -0.0006 0.0177
vn -0.0034 -1.0000 0.0024
vn -0.0104 -0.9999 0.0031
vn 0.0093 1.0000 -0.0031
vn 0.0030 1.0000 -0.0024
vn -0.0035 -1.0000 0.0062
vn -0.0087 -1.0000 0.0018
vn -0.3344 0.0037 0.9424
vn -0.3353 0.0040 0.9421
vn -0.3355 0.0040 0.9420
vn 0.0083 1.0000 -0.0024
vn 0.0031 1.0000 -0.0056
vn -0.1785 -0.0030 -0.9839
vn -0.1773 -0.0033 -0.9842
vn -0.1786 -0.0030 -0.9839
vn -0.0035 -1.0000 0.0016
vn -0.0029 -1.0000 0.0052
vn 0.0031 1.0000 -0.0018
vn 0.0025 1.0000 -0.0051
vn 0.8172 0.0030 0.5763
vn 0.0033 1.0000 -0.0018
vn -0.8549 0.0039 0.5187
vn -0.8549 0.0039 0.5188
vn 0.0103 0.9999 -0.0089
vn -0.0117 -0.9999 0.0096
vn 0.0036 1.0000 -0.0020
vn 0.0834 0.0036 0.9965
vn 0.0832 0.0036 0.9965
vn 0.0831 0.0037 0.9965
vn -0.0040 -1.0000 0.0019
vn -0.0705 -0.0036 -0.9975
vn -0.0707 -0.0036 -0.9975
vn -0.0704 -0.0037 -0.9975
vn -0.8806 -0.0012 -0.4739
vn 0.7628 0.0019 0.6466
vn 0.9596 0.0005 0.2814
vn 0.1794 -0.0037 -0.9838
vn 0.5371 0.0028 0.8435
vn 0.9905 -0.0011 -0.1374
vn 0.5396 0.0031 0.8419
vn -0.7247 0.0036 0.6890
vn 0.0016 1.0000 0.0007
vn -0.0016 -1.0000 -0.0007
vn -0.9975 0.0003 -0.0713
vn -0.2379 -0.0034 -0.9713
vn 0.8525 -0.0024 -0.5227
vn 0.5371 0.0027 0.8435
vn 0.1989 0.0014 0.9800
vn -0.5357 0.0047 0.8444
vn -0.1760 0.0037 0.9844
vn 0.0077 -1.0000 0.0051
vn -0.0078 1.0000 -0.0051
vn 0.3098 0.0035 0.9508
vn -0.2032 0.0037 0.9791
vn -0.1788 0.0286 0.9835
vn -0.1490 0.0038 0.9888
vn 0.0336 0.8766 -0.4800
vn -0.9971 0.0022 -0.0762
vn -0.0296 0.0036 0.9996
vn -0.1638 -0.4116 0.8965
vn -0.1793 -0.0567 0.9822
vn -0.0391 -0.8232 -0.5664
vn -0.0340 0.8159 -0.5772
vn -0.1645 0.3761 0.9119
vn -0.0027 0.0035 1.0000
vn 0.0216 0.0034 0.9998
vn 0.0091 0.9994 0.0339
vn 0.9995 -0.0021 -0.0317
vn 0.9538 -0.0018 -0.3003
vn 0.0756 0.0035 0.9971
vn 0.1408 0.0031 0.9900
vn -0.0971 -0.0032 -0.9953
vn 0.4074 -0.0039 -0.9132
vn 0.7339 -0.0019 -0.6792
vn -0.3342 0.0037 0.9425
vn -0.1771 -0.0033 -0.9842
vn -0.0063 -1.0000 0.0024
vn 0.0056 1.0000 -0.0024
vn 0.0835 0.0035 0.9965
vn -0.0708 -0.0035 -0.9975
vt 0.256288 0.280681
vt 0.263004 0.431778
vt 0.263004 0.280681
vt 0.269719 0.280681
vt 0.276435 0.431778
vt 0.276435 0.280681
vt 0.283150 0.280681
vt 0.289865 0.431778
vt 0.289865 0.280681
vt 0.296581 0.431778
vt 0.296581 0.280681
vt 0.303296 0.280681
vt 0.303296 0.431778
vt 0.310012 0.280681
vt 0.316727 0.431778
vt 0.316727 0.280681
vt 0.323442 0.431778
vt 0.323442 0.280681
vt 0.330158 0.280681
vt 0.330158 0.431778
vt 0.336873 0.280681
vt 0.343589 0.431778
vt 0.343589 0.280681
vt 0.350304 0.280681
vt 0.357020 0.431778
vt 0.357020 0.280681
vt 0.545041 0.639095
vt 0.522317 0.664332
vt 0.553341 0.650519
vt 0.532811 0.632034
vt 0.518767 0.630558
vt 0.505336 0.634922
vt 0.494842 0.644371
vt 0.489098 0.657271
vt 0.489098 0.671393
vt 0.494842 0.684294
vt 0.505336 0.693743
vt 0.518767 0.698107
vt 0.532811 0.696631
vt 0.545041 0.689570
vt 0.553341 0.678145
vt 0.556277 0.664332
vt 0.731585 0.334452
vt 0.706319 0.323203
vt 0.724825 0.343756
vt 0.714865 0.349506
vt 0.703428 0.350708
vt 0.692490 0.347154
vt 0.683944 0.339459
vt 0.679266 0.328953
vt 0.679266 0.317453
vt 0.683944 0.306947
vt 0.692490 0.299251
vt 0.703428 0.295697
vt 0.714865 0.296900
vt 0.724825 0.302650
vt 0.731585 0.311954
vt 0.733976 0.323203
vt 0.563658 0.681115
vt 0.553147 0.695582
vt 0.537661 0.704522
vt 0.519878 0.706392
vt 0.502871 0.700866
vt 0.489583 0.688901
vt 0.482309 0.672565
vt 0.482309 0.654683
vt 0.489583 0.638348
vt 0.502871 0.626382
vt 0.519878 0.620857
vt 0.537662 0.622726
vt 0.553147 0.631667
vt 0.563658 0.646133
vt 0.567376 0.663624
vt 0.545041 0.638376
vt 0.553341 0.649801
vt 0.532811 0.631316
vt 0.518767 0.629839
vt 0.505336 0.634203
vt 0.494842 0.643652
vt 0.489098 0.656553
vt 0.489098 0.670675
vt 0.494842 0.683575
vt 0.505336 0.693025
vt 0.518767 0.697388
vt 0.532811 0.695912
vt 0.545041 0.688851
vt 0.553341 0.677427
vt 0.556277 0.663614
vt 0.731814 0.460956
vt 0.723514 0.472380
vt 0.711284 0.479441
vt 0.697240 0.480917
vt 0.683810 0.476553
vt 0.673315 0.467104
vt 0.667571 0.454203
vt 0.667571 0.440082
vt 0.673315 0.427181
vt 0.683810 0.417732
vt 0.697240 0.413368
vt 0.711284 0.414844
vt 0.723514 0.421905
vt 0.731814 0.433330
vt 0.734750 0.447143
vt 0.745458 0.365165
vt 0.699461 0.344686
vt 0.733151 0.382103
vt 0.715020 0.392571
vt 0.694198 0.394760
vt 0.674286 0.388290
vt 0.658727 0.374281
vt 0.650211 0.355154
vt 0.650211 0.334217
vt 0.658727 0.315091
vt 0.674286 0.301082
vt 0.694198 0.294612
vt 0.715020 0.296800
vt 0.733151 0.307269
vt 0.745458 0.324207
vt 0.749811 0.344686
vt 0.473931 0.285859
vt 0.475806 0.328030
vt 0.475806 0.285859
vt 0.477680 0.285859
vt 0.477680 0.328030
vt 0.479554 0.285859
vt 0.479554 0.328030
vt 0.481429 0.285859
vt 0.483303 0.328030
vt 0.483303 0.285859
vt 0.485177 0.285859
vt 0.485177 0.328030
vt 0.487051 0.285859
vt 0.487051 0.328030
vt 0.488926 0.285859
vt 0.488926 0.328030
vt 0.490800 0.285859
vt 0.490800 0.328030
vt 0.492674 0.285859
vt 0.498297 0.285859
vt 0.500171 0.328030
vt 0.500171 0.285859
vt 0.502045 0.328030
vt 0.502045 0.285859
vt 0.499746 0.255230
vt 0.487988 0.268288
vt 0.504041 0.261141
vt 0.493418 0.251577
vt 0.486152 0.250813
vt 0.479203 0.253071
vt 0.473773 0.257960
vt 0.470801 0.264634
vt 0.470801 0.271941
vt 0.473773 0.278616
vt 0.479203 0.283505
vt 0.486152 0.285763
vt 0.489000 0.271400
vt 0.488151 0.285553
vt 0.491664 0.279598
vt 0.495004 0.284083
vt 0.496537 0.283199
vt 0.504041 0.275435
vt 0.499746 0.281346
vt 0.505560 0.268288
vt 0.525894 0.657257
vt 0.499477 0.645495
vt 0.518826 0.666985
vt 0.508413 0.672998
vt 0.496454 0.674254
vt 0.485018 0.670539
vt 0.476082 0.662493
vt 0.471191 0.651507
vt 0.471191 0.639483
vt 0.476082 0.628498
vt 0.485018 0.620452
vt 0.496454 0.616736
vt 0.501141 0.640373
vt 0.499745 0.617082
vt 0.505525 0.626881
vt 0.511023 0.619500
vt 0.508413 0.617993
vt 0.518826 0.624005
vt 0.525894 0.633733
vt 0.528394 0.645495
vt 0.504041 0.352748
vt 0.499746 0.358659
vt 0.493418 0.362312
vt 0.486152 0.363076
vt 0.479203 0.360818
vt 0.473773 0.355929
vt 0.470801 0.349254
vt 0.470801 0.341948
vt 0.473773 0.335273
vt 0.479203 0.330384
vt 0.486152 0.328126
vt 0.488151 0.328336
vt 0.493418 0.328890
vt 0.495004 0.329806
vt 0.499746 0.332543
vt 0.504041 0.338454
vt 0.505560 0.345601
vt 0.506150 0.744455
vt 0.513218 0.734727
vt 0.495736 0.750468
vt 0.483777 0.751724
vt 0.472341 0.748009
vt 0.463405 0.739963
vt 0.458514 0.728977
vt 0.458514 0.716953
vt 0.463405 0.705968
vt 0.472341 0.697922
vt 0.483777 0.694206
vt 0.487068 0.694552
vt 0.498346 0.696970
vt 0.495736 0.695463
vt 0.513218 0.711203
vt 0.506150 0.701475
vt 0.515718 0.722965
vt 0.560746 0.292321
vt 0.565041 0.298232
vt 0.554419 0.288667
vt 0.547152 0.287904
vt 0.540203 0.290161
vt 0.534774 0.295050
vt 0.531802 0.301725
vt 0.531802 0.309032
vt 0.534774 0.315707
vt 0.540203 0.320596
vt 0.547152 0.322853
vt 0.549152 0.322643
vt 0.553193 0.319024
vt 0.554778 0.318109
vt 0.565041 0.312525
vt 0.560746 0.318437
vt 0.566560 0.305379
vt 0.836465 0.303183
vt 0.842603 0.299640
vt 0.438585 0.390035
vt 0.439419 0.385544
vt 0.438412 0.385517
vt 0.438205 0.385520
vt 0.438609 0.470928
vt 0.555123 0.308863
vt 0.555143 0.299251
vt 0.555126 0.299774
vt 0.439421 0.476043
vt 0.438412 0.476043
vt 0.492674 0.328030
vt 0.493163 0.285867
vt 0.496544 0.285938
vt 0.498297 0.328030
vt 0.488060 0.328327
vt 0.494799 0.329839
vt 0.493087 0.328855
vt 0.499918 0.332781
vt 0.488106 0.285557
vt 0.842029 0.299744
vt 0.842602 0.299640
vt 0.499651 0.281401
vt 0.923232 0.257342
vt 0.924294 0.257411
vt 0.994364 0.246917
vt 0.994329 0.339663
vt 0.972471 0.459925
vt 0.971424 0.459875
vt 0.990155 0.339464
vt 0.990127 0.246638
vt 0.841151 0.314753
vt 0.842818 0.314862
vt 0.847804 0.315191
vt 0.847749 0.460808
vt 0.842837 0.460574
vt 0.841195 0.460496
vt 0.856811 0.492763
vt 0.856811 0.460808
vt 0.975599 0.492029
vt 0.850257 0.492451
vt 0.847749 0.492763
vt 0.850257 0.460496
vt 0.699378 0.465847
vt 0.701001 0.320214
vt 0.699334 0.320104
vt 0.842851 0.424079
vt 0.776932 0.352214
vt 0.778599 0.352324
vt 0.783585 0.352652
vt 0.778632 0.461540
vt 0.776976 0.497957
vt 0.697960 0.510524
vt 0.705987 0.320542
vt 0.641768 0.358003
vt 0.701034 0.429430
vt 0.848533 0.296216
vt 0.556311 0.317224
vt 0.848026 0.296355
vt 0.439511 0.390096
vt 0.440392 0.385569
vt 0.925320 0.257479
vt 0.844430 0.314969
vt 0.780210 0.352430
vt 0.702612 0.320320
vt 0.702635 0.394241
vt 0.780233 0.426350
vt 0.844452 0.388889
vt 0.844424 0.460649
vt 0.973481 0.459973
vt 0.440396 0.476043
vt 0.439521 0.470971
vt 0.496454 0.330790
vt 0.496537 0.330690
vt 0.500868 0.698426
vt 0.513545 0.620956
vt 0.498863 0.281856
vt 0.559863 0.318947
vt 0.559863 0.318946
vt 0.498758 0.281905
vt 0.555080 0.299249
vt 0.555068 0.299770
vt 0.927470 0.257621
vt 0.926878 0.257582
vt 0.846876 0.315130
vt 0.782656 0.352591
vt 0.705058 0.320481
vt 0.705065 0.340824
vt 0.782663 0.372934
vt 0.846882 0.335472
vt 0.846834 0.460764
vt 0.975599 0.460074
vt 0.975016 0.460046
vt 0.555081 0.309419
vt 0.555066 0.308861
vt 0.498965 0.332233
vt 0.498863 0.332033
vt 0.504696 0.700636
vt 0.517373 0.623166
vt 0.505850 0.617723
vt 0.504229 0.630870
vt 0.514677 0.621609
vt 0.502000 0.699079
vt 0.497224 0.331087
vt 0.440798 0.471032
vt 0.440402 0.471013
vt 0.973935 0.459994
vt 0.845137 0.460683
vt 0.845170 0.373094
vt 0.780951 0.410555
vt 0.703353 0.378445
vt 0.703336 0.320368
vt 0.780934 0.352477
vt 0.845153 0.315016
vt 0.925781 0.257509
vt 0.440806 0.390181
vt 0.440405 0.390154
vt 0.850717 0.294834
vt 0.851195 0.294679
vt 0.556999 0.316827
vt 0.497224 0.282802
vt 0.490876 0.277174
vt 0.491861 0.285163
vt 0.493418 0.284999
vt 0.830438 0.303817
vt 0.551635 0.319188
vt 0.835823 0.303251
vt 0.829933 0.303870
vt 0.536409 0.470766
vt 0.537435 0.356053
vt 0.536398 0.356037
vt 0.491861 0.328726
vt 0.491601 0.328699
vt 0.493173 0.695193
vt 0.497196 0.331216
vt 0.554964 0.309419
vt 0.554960 0.308856
vt 0.554963 0.299246
vt 0.554961 0.299763
vt 0.497101 0.282842
vt 0.558637 0.315881
vt 0.857535 0.291019
vt 0.552861 0.322253
vt 0.491730 0.285176
vt 0.493165 0.328030
vt 0.494071 0.285881
vt 0.704197 0.320424
vt 0.704209 0.359635
vt 0.256288 0.431778
vt 0.269719 0.431778
vt 0.283150 0.431778
vt 0.310012 0.431778
vt 0.336873 0.431778
vt 0.350304 0.431778
vt 0.473931 0.328030
vt 0.481429 0.328030
vt 0.438216 0.476043
vt 0.555144 0.309419
vt 0.496511 0.328030
vt 0.440834 0.476043
vt 0.440829 0.385581
vt 0.537450 0.470766
vt 0.494075 0.328030
s 1
usemtl lambert2SG.006
f 1/1/1 17/2/2 2/3/2
f 17/2/2 3/4/3 2/3/2
f 3/4/3 19/5/4 4/6/5
f 19/5/4 5/7/6 4/6/5
f 5/7/6 21/8/7 6/9/8
f 6/9/8 22/10/9 7/11/10
f 22/10/9 8/12/11 7/11/10
f 23/13/12 9/14/13 8/12/11
f 9/14/13 25/15/14 10/16/14
f 10/16/14 26/17/15 11/18/16
f 26/17/15 12/19/17 11/18/16
f 27/20/17 13/21/18 12/19/17
f 13/21/18 29/22/19 14/23/20
f 29/22/19 15/24/21 14/23/20
f 15/24/21 16/25/22 1/26/1
f 77/27/23 78/28/23 76/29/24
f 79/30/23 78/28/23 77/27/23
f 80/31/23 78/28/23 79/30/23
f 81/32/24 78/28/23 80/31/23
f 82/33/23 78/28/23 81/32/24
f 83/34/24 78/28/23 82/33/23
f 84/35/23 78/28/23 83/34/24
f 85/36/23 78/28/23 84/35/23
f 86/37/23 78/28/23 85/36/23
f 87/38/23 78/28/23 86/37/23
f 88/39/23 78/28/23 87/38/23
f 89/40/24 78/28/23 88/39/23
f 90/41/23 78/28/23 89/40/24
f 91/42/24 78/28/23 90/41/23
f 76/29/24 78/28/23 91/42/24
f 122/43/25 124/44/25 123/45/25
f 123/45/25 124/44/25 125/46/26
f 125/46/26 124/44/25 126/47/25
f 126/47/25 124/44/25 127/48/25
f 127/48/25 124/44/25 128/49/25
f 128/49/25 124/44/25 129/50/25
f 129/50/25 124/44/25 130/51/26
f 130/51/26 124/44/25 131/52/25
f 131/52/25 124/44/25 132/53/25
f 132/53/25 124/44/25 133/54/26
f 133/54/26 124/44/25 134/55/26
f 134/55/26 124/44/25 135/56/25
f 135/56/25 124/44/25 136/57/26
f 136/57/26 124/44/25 137/58/26
f 137/58/26 124/44/25 122/43/25
f 49/59/22 47/60/2 46/59/1
f 47/60/2 51/61/3 50/61/3
f 51/61/3 52/62/5 50/61/3
f 52/62/5 55/63/27 54/63/6
f 54/63/6 57/64/8 56/64/28
f 56/64/28 59/65/29 58/65/30
f 59/65/29 60/66/31 58/65/30
f 61/66/32 62/67/13 60/66/31
f 63/67/13 64/68/14 62/67/13
f 64/68/14 67/69/16 66/69/16
f 66/69/16 69/70/17 68/70/33
f 68/70/33 71/71/34 70/71/18
f 70/71/18 73/72/19 72/72/35
f 73/72/19 74/73/36 72/72/35
f 75/73/37 46/59/1 74/73/36
f 46/59/24 17/60/38 16/59/24
f 32/60/26 49/59/25 31/59/26
f 47/60/38 18/61/39 17/60/38
f 33/61/26 48/60/25 32/60/26
f 50/61/39 19/62/24 18/61/39
f 34/62/25 51/61/25 33/61/26
f 52/62/24 20/63/39 19/62/24
f 55/63/25 34/62/25 35/63/25
f 54/63/39 21/64/40 20/63/39
f 57/64/25 35/63/25 36/64/25
f 56/64/23 22/65/23 21/64/40
f 59/65/25 36/64/25 37/65/25
f 22/65/23 60/66/24 23/66/24
f 61/66/25 37/65/25 38/66/25
f 23/66/24 62/67/38 24/67/38
f 63/67/25 38/66/25 39/67/25
f 24/67/38 64/68/23 25/68/23
f 65/68/25 39/67/25 40/68/26
f 25/68/23 66/69/23 26/69/23
f 67/69/25 40/68/26 41/69/25
f 26/69/23 68/70/24 27/70/24
f 42/70/25 67/69/25 41/69/25
f 27/70/24 70/71/24 28/71/24
f 43/71/26 69/70/25 42/70/25
f 28/71/24 72/72/23 29/72/23
f 44/72/25 71/71/25 43/71/26
f 29/72/23 74/73/24 30/73/24
f 45/73/25 73/72/25 44/72/25
f 74/73/24 16/59/24 30/73/24
f 31/59/26 75/73/25 45/73/25
f 93/74/41 94/75/22 92/75/42
f 97/76/3 93/74/41 96/76/3
f 99/77/5 96/76/3 98/77/5
f 100/78/43 99/77/5 98/77/5
f 103/79/44 100/78/43 102/79/7
f 104/80/9 103/79/44 102/79/7
f 106/81/45 105/80/46 104/80/9
f 108/82/47 107/81/31 106/81/45
f 110/83/48 109/82/13 108/82/47
f 113/84/49 110/83/48 112/84/50
f 114/85/51 113/84/49 112/84/50
f 116/86/52 115/85/53 114/85/51
f 119/87/20 116/86/52 118/87/19
f 121/88/21 118/87/19 120/88/54
f 94/75/22 120/88/54 92/75/42
f 93/74/25 1/75/26 2/74/25
f 94/75/24 77/74/23 76/75/24
f 3/76/25 93/74/25 2/74/25
f 77/74/23 97/76/23 79/76/23
f 4/77/25 96/76/25 3/76/25
f 79/76/23 99/77/23 80/77/23
f 5/78/26 98/77/25 4/77/25
f 99/77/23 81/78/24 80/77/23
f 6/79/25 100/78/26 5/78/26
f 101/78/24 82/79/23 81/78/24
f 104/80/26 6/79/25 7/80/26
f 103/79/23 83/80/24 82/79/23
f 106/81/25 7/80/26 8/81/25
f 105/80/24 84/81/23 83/80/24
f 108/82/26 8/81/25 9/82/26
f 107/81/23 85/82/23 84/81/23
f 110/83/25 9/82/26 10/83/25
f 109/82/23 86/83/23 85/82/23
f 112/84/55 10/83/25 11/84/55
f 86/83/23 113/84/23 87/84/23
f 114/85/26 11/84/55 12/85/26
f 87/84/23 115/85/23 88/85/23
f 116/86/26 12/85/26 13/86/26
f 88/85/23 117/86/24 89/86/24
f 14/87/25 116/86/26 13/86/26
f 89/86/24 119/87/23 90/87/23
f 15/88/26 118/87/25 14/87/25
f 119/87/23 91/88/24 90/87/23
f 1/75/26 120/88/26 15/88/26
f 121/88/24 76/75/24 91/88/24
f 31/89/22 123/90/2 32/90/2
f 123/90/2 33/91/3 32/90/2
f 125/91/3 34/92/56 33/91/3
f 34/92/56 127/93/57 35/93/6
f 127/93/57 36/94/8 35/93/6
f 36/94/8 129/95/58 37/95/46
f 129/95/58 38/96/59 37/95/46
f 38/96/59 131/97/13 39/97/60
f 131/97/13 40/98/14 39/97/60
f 132/98/14 41/99/16 40/98/14
f 133/99/15 42/100/17 41/99/16
f 134/100/17 43/101/61 42/100/17
f 135/101/52 44/102/62 43/101/61
f 44/102/62 137/103/63 45/103/64
f 137/103/63 31/89/22 45/103/64
f 138/104/26 140/105/25 139/106/25
f 139/106/25 140/105/25 141/107/25
f 141/107/25 140/105/25 142/108/25
f 142/108/25 140/105/25 143/109/26
f 143/109/26 140/105/25 144/110/26
f 144/110/26 140/105/25 145/111/26
f 145/111/26 140/105/25 146/112/25
f 146/112/25 140/105/25 147/113/25
f 147/113/25 140/105/25 148/114/26
f 148/114/26 140/105/25 149/115/26
f 149/115/26 140/105/25 150/116/25
f 150/116/25 140/105/25 151/117/26
f 151/117/26 140/105/25 152/118/26
f 152/118/26 140/105/25 153/119/26
f 153/119/26 140/105/25 138/104/26
f 153/119/64 154/104/65 155/119/66
f 156/118/67 153/119/64 155/119/66
f 157/117/68 152/118/69 156/118/67
f 158/116/17 151/117/61 157/117/68
f 159/115/16 150/116/70 158/116/17
f 160/114/71 149/115/16 159/115/16
f 161/113/72 148/114/14 160/114/71
f 146/112/73 161/113/72 162/112/73
f 163/111/10 146/112/73 162/112/73
f 164/110/8 145/111/10 163/111/10
f 143/109/6 164/110/8 165/109/6
f 142/108/74 165/109/6 166/108/5
f 167/107/3 142/108/74 166/108/5
f 139/106/41 167/107/3 168/106/2
f 138/104/75 168/106/2 154/104/65
f 169/104/23 170/106/24 171/105/23
f 170/106/24 172/107/24 171/105/23
f 172/107/24 173/108/23 171/105/23
f 173/108/23 174/109/24 171/105/23
f 174/109/24 175/110/24 171/105/23
f 175/110/24 176/111/24 171/105/23
f 176/111/24 177/112/24 171/105/23
f 177/112/24 178/113/24 171/105/23
f 178/113/24 179/114/24 171/105/23
f 179/114/24 180/115/24 171/105/23
f 180/115/24 181/116/23 171/105/23
f 181/116/23 182/117/23 171/105/23
f 182/117/23 183/118/23 171/105/23
f 183/118/23 184/119/23 171/105/23
f 184/119/23 169/104/23 171/105/23
f 154/104/65 184/119/76 155/119/66
f 155/119/66 183/118/20 156/118/67
f 157/117/68 183/118/20 182/117/77
f 158/116/17 182/117/77 181/116/17
f 158/116/17 180/115/49 159/115/16
f 159/115/16 179/114/48 160/114/71
f 160/114/71 178/113/13 161/113/72
f 161/113/72 177/112/73 162/112/73
f 163/111/10 177/112/73 176/111/46
f 163/111/10 175/110/8 164/110/8
f 165/109/6 175/110/8 174/109/6
f 166/108/5 174/109/6 173/108/5
f 166/108/5 172/107/3 167/107/3
f 168/106/2 172/107/3 170/106/2
f 154/104/65 170/106/2 169/104/22
f 185/120/78 199/121/79 186/122/80
f 199/121/79 187/123/81 186/122/80
f 200/124/82 188/125/83 187/123/81
f 201/126/84 189/127/14 188/125/83
f 189/127/14 203/128/85 190/129/86
f 203/128/85 191/130/87 190/129/86
f 204/131/88 192/132/89 191/130/87
f 205/133/90 193/134/91 192/132/89
f 206/135/92 194/136/93 193/134/91
f 207/137/94 195/138/95 194/136/93
f 196/139/96 210/140/97 197/141/98
f 197/141/98 198/142/99 185/143/78
f 257/144/100 258/145/25 256/146/101
f 259/147/102 258/145/25 257/144/100
f 260/148/103 258/145/25 259/147/102
f 261/149/104 258/145/25 260/148/103
f 262/150/105 258/145/25 261/149/104
f 263/151/106 258/145/25 262/150/105
f 264/152/26 258/145/25 263/151/106
f 265/153/107 258/145/25 264/152/26
f 266/154/108 258/145/25 265/153/107
f 267/155/109 258/145/25 266/154/108
f 530/156/25 267/155/109 531/157/110
f 427/158/26 398/159/111 428/160/112
f 270/161/113 258/145/25 269/162/114
f 271/163/115 258/145/25 270/161/113
f 256/146/101 258/145/25 271/163/115
f 302/164/24 304/165/24 303/166/24
f 303/166/24 304/165/24 305/167/23
f 305/167/23 304/165/24 306/168/23
f 306/168/23 304/165/24 307/169/24
f 307/169/24 304/165/24 308/170/23
f 308/170/23 304/165/24 309/171/23
f 309/171/23 304/165/24 310/172/24
f 310/172/24 304/165/24 311/173/24
f 311/173/24 304/165/24 312/174/24
f 312/174/24 304/165/24 313/175/23
f 313/175/23 500/176/38 499/177/23
f 457/178/116 426/179/23 314/180/38
f 315/181/24 304/165/24 316/182/24
f 316/182/24 304/165/24 317/183/24
f 317/183/24 304/165/24 302/164/24
f 229/184/117 227/185/118 226/184/119
f 228/185/120 230/186/121 227/185/118
f 231/186/122 232/187/123 230/186/121
f 232/187/123 235/188/124 234/188/124
f 234/188/124 237/189/125 236/189/126
f 236/189/126 239/190/127 238/190/128
f 239/190/127 240/191/129 238/190/128
f 241/191/130 242/192/91 240/191/129
f 243/192/131 244/193/132 242/192/91
f 245/193/133 246/194/134 244/193/132
f 246/194/134 537/195/135 536/195/135
f 248/196/136 424/197/137 423/197/138
f 250/198/139 253/199/140 252/199/141
f 253/199/140 254/200/98 252/199/141
f 254/200/98 229/184/117 226/184/119
f 198/184/24 227/185/23 199/185/23
f 212/201/24 229/202/23 211/202/24
f 199/185/23 230/186/23 200/186/23
f 213/203/24 228/201/23 212/201/24
f 200/186/23 232/187/23 201/187/23
f 214/204/24 231/203/23 213/203/24
f 201/187/23 234/188/23 202/188/23
f 235/205/23 214/204/24 215/205/23
f 202/188/23 236/189/24 203/189/24
f 237/206/23 215/205/23 216/206/23
f 203/189/24 238/190/23 204/190/23
f 239/207/23 216/206/23 217/207/23
f 238/190/23 205/191/23 204/190/23
f 241/208/23 217/207/23 218/208/23
f 240/191/23 206/192/24 205/191/23
f 243/209/23 218/208/23 219/209/23
f 242/192/24 207/193/24 206/192/24
f 245/210/23 219/209/23 220/210/24
f 244/193/24 208/194/24 207/193/24
f 247/211/24 220/210/24 221/211/23
f 537/212/24 221/211/23 498/212/23
f 424/213/24 222/214/24 425/213/23
f 224/215/23 251/216/24 223/216/24
f 252/199/24 210/200/24 209/199/24
f 225/217/23 253/215/23 224/215/23
f 210/200/24 226/184/24 198/184/24
f 211/202/24 255/217/24 225/217/23
f 275/218/142 272/219/117 273/218/143
f 277/220/121 273/218/143 276/220/144
f 279/221/123 276/220/144 278/221/84
f 281/222/145 278/221/84 280/222/146
f 283/223/147 280/222/146 282/223/148
f 284/224/149 283/223/147 282/223/148
f 286/225/150 285/224/151 284/224/149
f 289/226/152 286/225/150 288/226/153
f 290/227/154 289/226/152 288/226/153
f 292/228/155 291/227/156 290/227/154
f 532/229/157 292/228/155 533/229/157
f 295/230/158 400/231/159 399/231/159
f 298/232/160 297/233/161 296/233/162
f 301/234/163 298/232/160 300/234/164
f 274/219/119 300/234/164 272/219/117
f 186/144/165 272/146/166 185/146/167
f 274/146/168 257/144/100 256/146/101
f 187/147/169 273/144/170 186/144/165
f 275/144/171 259/147/102 257/144/100
f 188/148/172 276/147/173 187/147/169
f 277/147/174 260/148/103 259/147/102
f 280/149/175 188/148/172 189/149/176
f 260/148/103 281/149/177 261/149/104
f 282/150/178 189/149/176 190/150/179
f 261/149/104 283/150/180 262/150/105
f 284/151/181 190/150/179 191/151/182
f 262/150/105 285/151/183 263/151/106
f 286/152/184 191/151/182 192/152/185
f 263/151/106 287/152/186 264/152/26
f 288/153/187 192/152/185 193/153/188
f 264/152/26 289/153/189 265/153/107
f 290/154/190 193/153/188 194/154/191
f 265/153/107 291/154/192 266/154/108
f 292/155/193 194/154/191 195/155/194
f 266/154/108 293/155/195 267/155/109
f 293/155/195 531/157/110 267/155/109
f 295/235/196 398/236/111 268/235/197
f 297/162/198 270/161/113 269/162/114
f 197/163/199 298/161/200 196/161/201
f 299/161/202 271/163/115 270/161/113
f 185/146/167 300/163/203 197/163/199
f 301/163/204 256/146/101 271/163/115
f 211/164/205 303/166/79 212/166/206
f 212/166/206 305/167/82 213/167/121
f 305/167/82 214/168/83 213/167/121
f 214/168/83 307/169/14 215/169/207
f 307/169/14 216/170/86 215/169/207
f 308/170/208 217/171/209 216/170/86
f 217/171/209 310/172/90 218/172/210
f 218/172/210 311/173/211 219/173/91
f 311/173/211 220/174/93 219/173/91
f 312/174/212 221/175/213 220/174/93
f 221/175/213 499/177/214 498/177/215
f 314/180/216 425/179/217 222/180/218
f 315/181/219 224/182/141 223/181/220
f 224/182/141 317/183/97 225/183/221
f 317/183/97 211/164/205 225/183/221
f 318/237/222 401/238/223 319/239/224
f 319/240/225 322/241/226 318/237/227
f 324/242/228 321/243/229 320/244/230
f 422/245/231 322/241/232 323/246/233
f 208/247/234 534/248/235 195/138/95
f 321/249/229 209/250/236 196/139/96
f 246/194/24 535/251/24 208/194/24
f 248/196/23 422/252/23 323/253/23
f 325/254/23 252/199/24 209/199/24
f 292/155/193 534/255/237 533/157/238
f 294/235/239 401/256/240 400/257/241
f 196/161/201 296/162/242 321/258/243
f 318/259/244 403/260/244 402/260/244
f 326/261/245 324/262/245 320/261/245
f 420/263/246 322/264/246 421/263/246
f 329/265/247 318/266/247 322/265/247
f 339/267/248 405/268/249 404/268/244
f 333/269/250 330/270/251 331/269/251
f 418/271/252 346/272/253 419/271/246
f 335/272/254 336/267/254 334/267/254
f 357/269/48 354/270/48 355/269/48
f 347/273/255 350/274/256 349/274/257
f 363/270/258 358/269/258 360/270/258
f 340/269/259 342/269/260 338/269/261
f 329/272/14 334/267/14 327/267/14
f 345/267/262 341/267/263 339/267/248
f 365/267/264 361/272/265 359/267/266
f 348/272/267 352/272/268 346/272/253
f 327/267/14 404/268/14 403/268/14
f 406/268/269 359/267/266 407/268/270
f 326/275/71 342/276/71 331/276/71
f 331/272/251 343/270/271 333/270/250
f 375/270/272 376/270/272 374/270/272
f 366/270/273 365/270/264 359/270/266
f 344/277/254 334/275/254 336/277/254
f 345/269/14 327/269/14 334/269/14
f 346/269/14 420/269/14 419/269/71
f 361/269/265 417/269/274 416/269/275
f 378/267/272 380/267/272 379/267/272
f 332/267/276 351/267/245 330/267/251
f 330/267/14 347/267/14 328/259/71
f 346/276/14 335/278/14 329/276/14
f 335/272/254 353/272/254 337/272/254
f 364/272/277 371/272/278 361/272/265
f 355/269/279 328/270/279 326/269/279
f 354/270/280 330/270/280 328/270/280
f 330/270/251 357/269/251 331/269/251
f 357/269/260 326/269/260 331/269/260
f 333/269/250 363/270/281 332/270/276
f 364/272/247 336/267/254 337/272/254
f 341/267/263 406/268/282 405/268/249
f 367/270/283 343/270/284 340/274/259
f 368/270/285 333/270/250 343/270/271
f 336/270/254 369/270/247 344/270/254
f 344/274/286 366/270/287 341/274/263
f 417/269/288 348/269/267 418/269/252
f 332/267/276 372/267/289 350/267/290
f 350/267/256 370/267/291 349/267/257
f 371/272/292 353/272/293 348/272/267
f 373/272/247 337/272/254 353/272/254
f 362/270/294 374/270/294 358/270/294
f 374/270/295 367/270/295 358/270/295
f 376/270/296 368/270/297 367/270/283
f 368/270/285 375/270/298 362/270/299
f 378/267/296 363/267/296 360/267/296
f 363/267/281 380/267/300 372/267/289
f 372/267/301 381/267/294 370/267/291
f 381/267/302 360/267/302 370/267/302
f 629/279/303 626/280/304 627/281/305
f 383/267/306 407/268/307 359/267/308
f 358/269/309 384/269/310 360/269/311
f 385/272/312 416/282/313 415/282/314
f 385/272/315 359/267/316 361/272/315
f 383/283/317 409/284/318 408/284/319
f 382/285/320 388/285/321 384/285/320
f 414/286/322 385/287/323 415/286/324
f 385/287/325 387/283/326 383/283/327
f 387/283/328 410/284/329 409/284/318
f 386/288/330 392/288/331 388/288/321
f 413/286/332 389/287/333 414/286/322
f 393/287/334 387/283/326 389/287/335
f 395/281/336 410/280/329 391/281/337
f 394/289/338 392/289/339 390/290/340
f 397/279/341 413/291/332 412/291/342
f 397/279/343 391/281/344 393/279/334
f 399/236/345 428/292/112 398/236/111
f 399/231/159 430/293/159 429/293/159
f 400/257/241 431/294/346 430/292/347
f 402/295/348 431/296/349 401/238/223
f 433/297/244 402/260/244 403/260/244
f 434/298/14 403/268/14 404/268/14
f 435/298/350 404/268/244 405/268/249
f 436/298/351 405/268/249 406/268/282
f 436/298/352 407/268/270 437/298/353
f 438/298/354 407/268/307 408/268/355
f 409/284/318 438/299/356 408/284/319
f 410/284/329 439/299/357 409/284/318
f 441/300/358 410/280/329 411/280/359
f 412/291/360 441/300/361 411/280/361
f 442/301/362 413/291/332 443/301/363
f 413/286/332 444/302/364 443/302/363
f 414/286/322 445/302/365 444/302/364
f 445/303/366 416/282/313 446/303/367
f 447/269/368 416/269/275 417/269/274
f 447/269/369 418/269/252 448/269/370
f 448/304/370 419/271/246 449/304/246
f 419/269/71 450/269/14 449/269/14
f 420/263/246 451/305/246 450/305/246
f 452/306/371 421/307/372 422/245/231
f 423/197/23 452/308/24 422/252/23
f 424/197/137 453/309/373 423/197/138
f 454/310/23 425/213/23 455/310/24
f 456/311/374 425/179/217 426/179/258
f 269/162/114 530/156/25 529/312/375
f 528/312/376 269/162/114 529/312/375
f 296/233/162 528/313/377 527/314/377
f 296/162/242 526/315/378 321/258/243
f 320/244/379 526/316/380 525/317/381
f 326/318/382 525/319/244 524/319/244
f 523/320/14 326/269/71 524/320/71
f 522/320/383 338/269/261 523/320/244
f 521/320/384 340/269/259 522/320/383
f 367/269/385 520/320/386 358/269/387
f 382/269/388 520/320/389 519/320/390
f 518/321/391 382/285/392 519/321/393
f 517/321/394 386/285/395 518/321/391
f 516/322/396 390/289/397 517/322/394
f 392/289/398 515/323/399 514/323/400
f 388/285/401 514/324/400 513/324/402
f 384/285/403 513/324/402 512/324/404
f 384/285/405 511/325/406 360/269/407
f 370/269/408 511/269/409 510/269/410
f 349/269/257 510/269/411 509/269/412
f 347/270/255 509/326/412 508/326/246
f 347/269/14 507/269/71 328/269/71
f 324/327/413 507/328/246 506/328/246
f 505/329/414 324/242/415 506/330/416
f 250/198/23 505/331/24 504/332/24
f 251/198/417 504/332/387 503/332/387
f 223/216/24 503/333/24 502/333/23
f 501/334/418 223/181/220 502/334/217
f 500/176/38 315/181/24 501/334/24
f 314/180/216 458/335/419 459/335/420
f 457/178/116 459/335/23 460/336/23
f 457/178/116 461/337/421 456/311/422
f 456/311/374 462/337/258 455/311/258
f 454/310/23 462/338/24 463/338/23
f 463/339/423 453/309/373 454/309/373
f 464/339/24 452/308/24 453/309/24
f 452/306/371 466/340/424 451/341/425
f 450/305/246 466/342/246 467/342/246
f 449/269/14 467/269/14 468/269/14
f 448/304/370 468/343/426 469/343/427
f 447/269/369 469/269/427 470/269/428
f 470/269/429 446/269/430 447/269/368
f 472/344/431 446/303/367 471/344/432
f 444/302/364 472/345/433 473/345/434
f 443/302/363 473/345/434 474/345/435
f 475/346/436 443/301/363 474/346/435
f 631/301/437 632/347/438 630/300/438
f 476/347/439 440/300/440 441/300/358
f 440/299/440 478/348/441 439/299/357
f 439/299/357 479/348/442 438/299/356
f 479/349/443 437/298/444 438/298/354
f 481/349/445 437/298/353 480/349/446
f 436/298/351 482/349/447 435/298/350
f 482/349/447 434/298/244 435/298/350
f 483/349/14 433/298/14 434/298/14
f 433/297/244 485/350/244 432/297/244
f 485/351/448 431/296/349 432/352/449
f 430/292/347 486/353/450 487/354/451
f 429/293/159 487/355/452 488/355/452
f 429/292/453 489/354/454 428/292/112
f 427/158/26 489/356/454 490/357/25
f 427/158/26 491/358/455 268/359/197
f 492/360/456 268/235/197 491/360/455
f 294/230/457 492/361/214 493/361/214
f 319/362/458 493/360/459 494/363/460
f 495/364/461 319/365/225 494/366/462
f 496/367/24 323/253/23 495/368/24
f 249/196/463 496/367/464 497/367/464
f 222/214/24 497/369/23 458/369/24
f 499/177/214 458/335/419 498/177/215
f 460/336/23 499/177/23 500/176/38
f 460/336/23 501/334/24 461/337/421
f 501/334/418 462/337/258 461/337/418
f 463/338/23 502/333/23 503/333/24
f 503/332/387 464/339/423 463/339/423
f 504/332/24 465/370/24 464/339/24
f 465/371/465 506/330/416 466/372/424
f 507/328/246 466/342/246 506/328/246
f 508/269/14 467/269/14 507/269/71
f 509/326/412 468/343/426 508/326/246
f 470/269/428 509/269/412 510/269/411
f 510/269/410 471/269/466 470/269/429
f 512/325/467 471/344/432 511/325/406
f 473/345/434 512/324/404 513/324/402
f 474/345/435 513/324/402 514/324/400
f 515/323/399 474/346/435 514/323/400
f 475/346/468 516/322/469 476/347/469
f 516/322/396 477/347/470 476/347/439
f 477/348/470 518/321/391 478/348/441
f 478/348/441 519/321/393 479/348/442
f 519/320/390 480/349/471 479/349/443
f 521/320/472 480/349/446 520/320/386
f 481/349/473 522/320/383 482/349/447
f 522/320/383 483/349/244 482/349/447
f 483/349/14 524/320/71 484/349/71
f 524/319/244 485/350/244 484/350/244
f 525/317/381 486/373/474 485/374/448
f 527/312/475 486/375/450 526/315/378
f 488/355/452 527/376/377 528/376/377
f 488/354/476 529/377/375 489/354/454
f 490/357/25 529/312/375 530/156/25
f 490/357/25 531/157/110 491/358/455
f 532/157/477 491/358/455 531/157/110
f 492/378/214 533/229/157 493/378/214
f 533/157/478 494/379/460 493/358/459
f 535/380/479 494/381/462 534/248/235
f 536/195/24 495/368/24 535/251/24
f 497/367/464 536/195/135 537/195/135
f 537/212/24 458/369/24 497/369/23
f 539/281/480 411/280/481 395/281/482
f 538/280/483 412/291/484 411/280/485
f 412/291/486 541/279/487 397/279/488
f 397/279/343 539/281/489 395/281/490
f 542/323/491 516/322/492 515/323/493
f 543/322/494 394/289/495 516/322/496
f 394/289/497 545/289/498 396/289/498
f 396/289/499 542/323/500 515/323/501
f 547/301/502 441/300/503 442/301/504
f 546/300/505 476/347/506 441/300/507
f 476/347/508 549/346/509 475/346/509
f 475/346/510 547/301/511 442/301/512
f 551/281/513 538/280/514 539/281/480
f 550/280/515 540/291/516 538/280/483
f 540/291/517 553/279/518 541/279/487
f 541/279/489 551/281/519 539/281/489
f 542/323/491 555/322/520 543/322/521
f 555/322/522 544/289/523 543/322/494
f 544/289/524 557/289/525 545/289/525
f 545/289/526 554/323/527 542/323/500
f 547/301/502 558/300/528 546/300/529
f 546/300/505 560/347/530 548/347/531
f 561/346/532 547/301/511 549/346/533
f 551/281/513 562/280/534 550/280/535
f 564/291/536 553/279/518 552/291/537
f 553/279/538 563/281/539 551/281/519
f 567/322/540 556/289/523 555/322/522
f 556/289/541 569/289/542 557/289/543
f 557/289/544 566/323/545 554/323/527
f 558/300/546 572/347/547 560/347/530
f 572/347/548 561/346/548 560/347/548
f 573/346/549 559/301/550 561/346/532
f 559/301/550 564/291/536 552/291/537
f 580/291/551 582/300/552 578/280/553
f 562/280/534 558/300/554 550/280/535
f 558/300/555 552/291/556 550/280/557
f 574/382/558 549/346/559 548/347/560
f 577/383/561 561/346/532 549/346/533
f 561/346/562 575/382/563 560/347/563
f 560/347/530 574/382/564 548/347/531
f 575/382/565 555/322/522 574/382/564
f 576/383/566 567/322/567 575/382/563
f 554/323/527 576/383/568 577/383/561
f 555/322/569 577/383/570 574/382/558
f 563/281/571 578/280/572 562/280/534
f 580/291/573 565/279/574 564/291/536
f 581/279/575 563/281/539 565/279/576
f 570/300/577 584/347/578 572/347/547
f 572/347/579 585/346/580 573/346/579
f 585/346/581 571/301/582 573/346/549
f 562/280/534 582/300/583 570/300/577
f 583/301/584 564/291/536 571/301/582
f 586/323/585 567/322/586 566/323/586
f 587/322/587 568/289/588 567/322/540
f 588/289/589 569/289/542 568/289/590
f 569/289/591 586/323/592 566/323/545
f 586/323/585 591/322/593 587/322/594
f 587/322/587 592/289/595 588/289/596
f 592/289/597 589/289/598 588/289/589
f 593/289/549 586/323/592 589/289/599
f 590/323/600 595/322/601 591/322/593
f 591/322/602 596/289/603 592/289/595
f 596/289/604 593/289/605 592/289/597
f 597/289/606 590/323/607 593/289/549
f 594/323/608 599/322/609 595/322/601
f 595/322/610 600/289/611 596/289/603
f 600/289/612 597/289/613 596/289/604
f 601/289/614 594/323/615 597/289/606
f 579/281/616 602/280/617 578/280/572
f 602/280/618 580/291/619 578/280/619
f 604/291/620 581/279/621 580/291/573
f 605/279/622 579/281/623 581/279/575
f 607/301/624 582/300/625 583/301/625
f 606/300/626 584/347/578 582/300/583
f 584/347/627 609/346/628 585/346/580
f 585/346/581 607/301/629 583/301/584
f 603/281/630 610/280/631 602/280/617
f 610/280/632 604/291/633 602/280/618
f 612/291/634 605/279/635 604/291/620
f 613/279/636 603/281/637 605/279/622
f 615/301/638 606/300/639 607/301/624
f 614/300/640 608/347/641 606/300/626
f 608/347/642 617/346/643 609/346/628
f 609/346/644 615/301/645 607/301/629
f 611/281/646 618/280/647 610/280/631
f 610/280/648 620/291/648 612/291/648
f 620/291/649 613/279/650 612/291/634
f 613/279/651 619/281/651 611/281/651
f 615/301/638 622/300/652 614/300/653
f 622/300/654 616/347/655 614/300/640
f 617/346/656 623/301/657 615/301/645
f 599/322/658 624/347/659 600/289/611
f 635/289/660 633/346/661 634/289/662
f 625/346/663 598/323/664 601/289/614
f 617/346/665 599/322/666 598/323/667
f 627/281/668 618/280/647 619/281/669
f 620/291/649 629/279/670 621/279/671
f 621/279/672 627/281/672 619/281/672
f 630/300/531 624/347/659 622/300/654
f 625/346/663 631/301/673 623/301/657
f 635/289/674 601/289/675 600/289/674
f 634/289/676 625/346/663 601/289/614
f 624/347/659 635/289/677 600/289/611
f 623/301/657 628/291/678 620/291/649
f 628/291/679 630/300/680 626/280/681
f 626/280/682 622/300/654 618/280/647
f 622/300/683 620/291/684 618/280/685
f 1/1/1 16/384/22 17/2/2
f 17/2/2 18/385/3 3/4/3
f 3/4/3 18/385/3 19/5/4
f 19/5/4 20/386/6 5/7/6
f 5/7/6 20/386/6 21/8/7
f 6/9/8 21/8/7 22/10/9
f 22/10/9 23/13/12 8/12/11
f 23/13/12 24/387/13 9/14/13
f 9/14/13 24/387/13 25/15/14
f 10/16/14 25/15/14 26/17/15
f 26/17/15 27/20/17 12/19/17
f 27/20/17 28/388/686 13/21/18
f 13/21/18 28/388/686 29/22/19
f 29/22/19 30/389/63 15/24/21
f 15/24/21 30/389/63 16/25/22
f 49/59/22 48/60/2 47/60/2
f 47/60/2 48/60/2 51/61/3
f 51/61/3 53/62/5 52/62/5
f 52/62/5 53/62/5 55/63/27
f 54/63/6 55/63/27 57/64/8
f 56/64/28 57/64/8 59/65/29
f 59/65/29 61/66/32 60/66/31
f 61/66/32 63/67/13 62/67/13
f 63/67/13 65/68/14 64/68/14
f 64/68/14 65/68/14 67/69/16
f 66/69/16 67/69/16 69/70/17
f 68/70/33 69/70/17 71/71/34
f 70/71/18 71/71/34 73/72/19
f 73/72/19 75/73/37 74/73/36
f 75/73/37 49/59/22 46/59/1
f 46/59/24 47/60/38 17/60/38
f 32/60/26 48/60/25 49/59/25
f 47/60/38 50/61/39 18/61/39
f 33/61/26 51/61/25 48/60/25
f 50/61/39 52/62/24 19/62/24
f 34/62/25 53/62/25 51/61/25
f 52/62/24 54/63/39 20/63/39
f 55/63/25 53/62/25 34/62/25
f 54/63/39 56/64/23 21/64/40
f 57/64/25 55/63/25 35/63/25
f 56/64/23 58/65/23 22/65/23
f 59/65/25 57/64/25 36/64/25
f 22/65/23 58/65/23 60/66/24
f 61/66/25 59/65/25 37/65/25
f 23/66/24 60/66/24 62/67/38
f 63/67/25 61/66/25 38/66/25
f 24/67/38 62/67/38 64/68/23
f 65/68/25 63/67/25 39/67/25
f 25/68/23 64/68/23 66/69/23
f 67/69/25 65/68/25 40/68/26
f 26/69/23 66/69/23 68/70/24
f 42/70/25 69/70/25 67/69/25
f 27/70/24 68/70/24 70/71/24
f 43/71/26 71/71/25 69/70/25
f 28/71/24 70/71/24 72/72/23
f 44/72/25 73/72/25 71/71/25
f 29/72/23 72/72/23 74/73/24
f 45/73/25 75/73/25 73/72/25
f 74/73/24 46/59/24 16/59/24
f 31/59/26 49/59/25 75/73/25
f 93/74/41 95/74/41 94/75/22
f 97/76/3 95/74/41 93/74/41
f 99/77/5 97/76/3 96/76/3
f 100/78/43 101/78/687 99/77/5
f 103/79/44 101/78/687 100/78/43
f 104/80/9 105/80/46 103/79/44
f 106/81/45 107/81/31 105/80/46
f 108/82/47 109/82/13 107/81/31
f 110/83/48 111/83/48 109/82/13
f 113/84/49 111/83/48 110/83/48
f 114/85/51 115/85/53 113/84/49
f 116/86/52 117/86/68 115/85/53
f 119/87/20 117/86/68 116/86/52
f 121/88/21 119/87/20 118/87/19
f 94/75/22 121/88/21 120/88/54
f 93/74/25 92/75/26 1/75/26
f 94/75/24 95/74/24 77/74/23
f 3/76/25 96/76/25 93/74/25
f 77/74/23 95/74/24 97/76/23
f 4/77/25 98/77/25 96/76/25
f 79/76/23 97/76/23 99/77/23
f 5/78/26 100/78/26 98/77/25
f 99/77/23 101/78/24 81/78/24
f 6/79/25 102/79/25 100/78/26
f 101/78/24 103/79/23 82/79/23
f 104/80/26 102/79/25 6/79/25
f 103/79/23 105/80/24 83/80/24
f 106/81/25 104/80/26 7/80/26
f 105/80/24 107/81/23 84/81/23
f 108/82/26 106/81/25 8/81/25
f 107/81/23 109/82/23 85/82/23
f 110/83/25 108/82/26 9/82/26
f 109/82/23 111/83/24 86/83/23
f 112/84/55 110/83/25 10/83/25
f 86/83/23 111/83/24 113/84/23
f 114/85/26 112/84/55 11/84/55
f 87/84/23 113/84/23 115/85/23
f 116/86/26 114/85/26 12/85/26
f 88/85/23 115/85/23 117/86/24
f 14/87/25 118/87/25 116/86/26
f 89/86/24 117/86/24 119/87/23
f 15/88/26 120/88/26 118/87/25
f 119/87/23 121/88/24 91/88/24
f 1/75/26 92/75/26 120/88/26
f 121/88/24 94/75/24 76/75/24
f 31/89/22 122/89/22 123/90/2
f 123/90/2 125/91/3 33/91/3
f 125/91/3 126/92/4 34/92/56
f 34/92/56 126/92/4 127/93/57
f 127/93/57 128/94/688 36/94/8
f 36/94/8 128/94/688 129/95/58
f 129/95/58 130/96/73 38/96/59
f 38/96/59 130/96/73 131/97/13
f 131/97/13 132/98/14 40/98/14
f 132/98/14 133/99/15 41/99/16
f 133/99/15 134/100/17 42/100/17
f 134/100/17 135/101/52 43/101/61
f 135/101/52 136/102/69 44/102/62
f 44/102/62 136/102/69 137/103/63
f 137/103/63 122/89/22 31/89/22
f 153/119/64 138/104/75 154/104/65
f 156/118/67 152/118/69 153/119/64
f 157/117/68 151/117/61 152/118/69
f 158/116/17 150/116/70 151/117/61
f 159/115/16 149/115/16 150/116/70
f 160/114/71 148/114/14 149/115/16
f 161/113/72 147/113/13 148/114/14
f 146/112/73 147/113/13 161/113/72
f 163/111/10 145/111/10 146/112/73
f 164/110/8 144/110/8 145/111/10
f 143/109/6 144/110/8 164/110/8
f 142/108/74 143/109/6 165/109/6
f 167/107/3 141/107/3 142/108/74
f 139/106/41 141/107/3 167/107/3
f 138/104/75 139/106/41 168/106/2
f 154/104/65 169/104/22 184/119/76
f 155/119/66 184/119/76 183/118/20
f 157/117/68 156/118/67 183/118/20
f 158/116/17 157/117/68 182/117/77
f 158/116/17 181/116/17 180/115/49
f 159/115/16 180/115/49 179/114/48
f 160/114/71 179/114/48 178/113/13
f 161/113/72 178/113/13 177/112/73
f 163/111/10 162/112/73 177/112/73
f 163/111/10 176/111/46 175/110/8
f 165/109/6 164/110/8 175/110/8
f 166/108/5 165/109/6 174/109/6
f 166/108/5 173/108/5 172/107/3
f 168/106/2 167/107/3 172/107/3
f 154/104/65 168/106/2 170/106/2
f 185/120/78 198/390/99 199/121/79
f 199/121/79 200/124/82 187/123/81
f 200/124/82 201/126/84 188/125/83
f 201/126/84 202/391/689 189/127/14
f 189/127/14 202/391/689 203/128/85
f 203/128/85 204/131/88 191/130/87
f 204/131/88 205/133/90 192/132/89
f 205/133/90 206/135/92 193/134/91
f 206/135/92 207/137/94 194/136/93
f 207/137/94 208/247/234 195/138/95
f 196/139/96 209/250/236 210/140/97
f 197/141/98 210/140/97 198/142/99
f 530/156/25 258/145/25 267/155/109
f 427/158/26 268/359/197 398/159/111
f 313/175/23 304/165/24 500/176/38
f 457/178/116 456/311/422 426/179/23
f 229/184/117 228/185/120 227/185/118
f 228/185/120 231/186/122 230/186/121
f 231/186/122 233/187/84 232/187/123
f 232/187/123 233/187/84 235/188/124
f 234/188/124 235/188/124 237/189/125
f 236/189/126 237/189/125 239/190/127
f 239/190/127 241/191/130 240/191/129
f 241/191/130 243/192/131 242/192/91
f 243/192/131 245/193/133 244/193/132
f 245/193/133 247/194/690 246/194/134
f 246/194/134 247/194/690 537/195/135
f 248/196/136 249/196/463 424/197/137
f 250/198/139 251/198/417 253/199/140
f 253/199/140 255/200/97 254/200/98
f 254/200/98 255/200/97 229/184/117
f 198/184/24 226/184/24 227/185/23
f 212/201/24 228/201/23 229/202/23
f 199/185/23 227/185/23 230/186/23
f 213/203/24 231/203/23 228/201/23
f 200/186/23 230/186/23 232/187/23
f 214/204/24 233/204/23 231/203/23
f 201/187/23 232/187/23 234/188/23
f 235/205/23 233/204/23 214/204/24
f 202/188/23 234/188/23 236/189/24
f 237/206/23 235/205/23 215/205/23
f 203/189/24 236/189/24 238/190/23
f 239/207/23 237/206/23 216/206/23
f 238/190/23 240/191/23 205/191/23
f 241/208/23 239/207/23 217/207/23
f 240/191/23 242/192/24 206/192/24
f 243/209/23 241/208/23 218/208/23
f 242/192/24 244/193/24 207/193/24
f 245/210/23 243/209/23 219/209/23
f 244/193/24 246/194/24 208/194/24
f 247/211/24 245/210/23 220/210/24
f 537/212/24 247/211/24 221/211/23
f 424/213/24 249/214/23 222/214/24
f 224/215/23 253/215/23 251/216/24
f 252/199/24 254/200/24 210/200/24
f 225/217/23 255/217/24 253/215/23
f 210/200/24 254/200/24 226/184/24
f 211/202/24 229/202/23 255/217/24
f 275/218/142 274/219/119 272/219/117
f 277/220/121 275/218/142 273/218/143
f 279/221/123 277/220/121 276/220/144
f 281/222/145 279/221/123 278/221/84
f 283/223/147 281/222/145 280/222/146
f 284/224/149 285/224/151 283/223/147
f 286/225/150 287/225/691 285/224/151
f 289/226/152 287/225/691 286/225/150
f 290/227/154 291/227/156 289/226/152
f 292/228/155 293/228/692 291/227/156
f 532/229/157 293/228/692 292/228/155
f 295/230/158 294/230/457 400/231/159
f 298/232/160 299/232/693 297/233/161
f 301/234/163 299/232/693 298/232/160
f 274/219/119 301/234/163 300/234/164
f 186/144/165 273/144/170 272/146/166
f 274/146/168 275/144/171 257/144/100
f 187/147/169 276/147/173 273/144/170
f 275/144/171 277/147/174 259/147/102
f 188/148/172 278/148/694 276/147/173
f 277/147/174 279/148/695 260/148/103
f 280/149/175 278/148/694 188/148/172
f 260/148/103 279/148/695 281/149/177
f 282/150/178 280/149/175 189/149/176
f 261/149/104 281/149/177 283/150/180
f 284/151/181 282/150/178 190/150/179
f 262/150/105 283/150/180 285/151/183
f 286/152/184 284/151/181 191/151/182
f 263/151/106 285/151/183 287/152/186
f 288/153/187 286/152/184 192/152/185
f 264/152/26 287/152/186 289/153/189
f 290/154/190 288/153/187 193/153/188
f 265/153/107 289/153/189 291/154/192
f 292/155/193 290/154/190 194/154/191
f 266/154/108 291/154/192 293/155/195
f 293/155/195 532/157/477 531/157/110
f 295/235/196 399/236/345 398/236/111
f 297/162/198 299/161/202 270/161/113
f 197/163/199 300/163/203 298/161/200
f 299/161/202 301/163/204 271/163/115
f 185/146/167 272/146/166 300/163/203
f 301/163/204 274/146/168 256/146/101
f 211/164/205 302/164/696 303/166/79
f 212/166/206 303/166/79 305/167/82
f 305/167/82 306/168/697 214/168/83
f 214/168/83 306/168/697 307/169/14
f 307/169/14 308/170/208 216/170/86
f 308/170/208 309/171/698 217/171/209
f 217/171/209 309/171/698 310/172/90
f 218/172/210 310/172/90 311/173/211
f 311/173/211 312/174/212 220/174/93
f 312/174/212 313/175/699 221/175/213
f 221/175/213 313/175/699 499/177/214
f 314/180/216 426/179/258 425/179/217
f 315/181/219 316/182/140 224/182/141
f 224/182/141 316/182/140 317/183/97
f 317/183/97 302/164/696 211/164/205
f 318/237/222 402/295/348 401/238/223
f 319/240/225 323/392/700 322/241/226
f 324/242/228 325/393/701 321/243/229
f 422/245/231 421/307/372 322/241/232
f 208/247/234 535/380/479 534/248/235
f 321/249/229 325/394/701 209/250/236
f 246/194/24 536/195/24 535/251/24
f 248/196/23 423/197/23 422/252/23
f 325/254/23 250/198/23 252/199/24
f 292/155/193 195/155/194 534/255/237
f 294/235/239 319/362/458 401/256/240
f 196/161/201 298/161/200 296/162/242
f 318/259/244 327/259/244 403/260/244
f 326/261/245 328/262/245 324/262/245
f 420/263/246 329/264/246 322/264/246
f 329/265/247 327/266/247 318/266/247
f 339/267/248 341/267/263 405/268/249
f 333/269/250 332/270/276 330/270/251
f 418/271/252 348/272/267 346/272/253
f 335/272/254 337/272/254 336/267/254
f 357/269/48 356/270/48 354/270/48
f 347/273/255 351/274/280 350/274/256
f 363/270/258 362/269/258 358/269/258
f 340/269/259 343/269/284 342/269/260
f 329/272/14 335/272/14 334/267/14
f 345/267/262 344/267/286 341/267/263
f 365/267/264 364/272/277 361/272/265
f 348/272/267 353/272/293 352/272/268
f 327/267/14 339/267/14 404/268/14
f 406/268/269 366/267/273 359/267/266
f 326/275/71 338/273/14 342/276/71
f 331/272/251 342/272/245 343/270/271
f 375/270/272 377/270/258 376/270/272
f 366/270/273 369/270/702 365/270/264
f 344/277/254 345/273/254 334/275/254
f 345/269/14 339/269/14 327/269/14
f 346/269/14 329/269/14 420/269/14
f 361/269/265 371/269/278 417/269/274
f 378/267/272 381/267/258 380/267/272
f 332/267/276 350/267/290 351/267/245
f 330/267/14 351/267/14 347/267/14
f 346/276/14 352/278/14 335/278/14
f 335/272/254 352/272/254 353/272/254
f 364/272/277 373/272/702 371/272/278
f 355/269/279 354/270/279 328/270/279
f 354/270/280 356/270/280 330/270/280
f 330/270/251 356/270/245 357/269/251
f 357/269/260 355/269/260 326/269/260
f 333/269/250 362/269/299 363/270/281
f 364/272/247 365/267/254 336/267/254
f 341/267/263 366/267/287 406/268/282
f 367/270/283 368/270/297 343/270/284
f 368/270/285 362/270/299 333/270/250
f 336/270/254 365/270/254 369/270/247
f 344/274/286 369/270/703 366/270/287
f 417/269/288 371/269/292 348/269/267
f 332/267/276 363/267/281 372/267/289
f 350/267/256 372/267/301 370/267/291
f 371/272/292 373/272/704 353/272/293
f 373/272/247 364/272/247 337/272/254
f 362/270/294 375/270/294 374/270/294
f 374/270/295 376/270/295 367/270/295
f 376/270/296 377/270/296 368/270/297
f 368/270/285 377/270/298 375/270/298
f 378/267/296 379/267/296 363/267/296
f 363/267/281 379/267/300 380/267/300
f 372/267/301 380/267/294 381/267/294
f 381/267/302 378/267/302 360/267/302
f 629/279/303 628/291/705 626/280/304
f 383/267/306 408/268/355 407/268/307
f 358/269/309 382/269/706 384/269/310
f 385/272/312 361/272/707 416/282/313
f 385/272/315 383/267/708 359/267/316
f 383/283/317 387/283/328 409/284/318
f 382/285/320 386/285/330 388/285/321
f 414/286/322 389/287/333 385/287/323
f 385/287/325 389/287/335 387/283/326
f 387/283/328 391/283/337 410/284/329
f 386/288/330 390/288/331 392/288/331
f 413/286/332 393/287/709 389/287/333
f 393/287/334 391/283/344 387/283/326
f 395/281/336 411/280/359 410/280/329
f 394/289/338 396/289/710 392/289/339
f 397/279/341 393/279/709 413/291/332
f 397/279/343 395/281/490 391/281/344
f 399/236/345 429/292/453 428/292/112
f 399/231/159 400/231/159 430/293/159
f 400/257/241 401/256/240 431/294/346
f 402/295/348 432/352/449 431/296/349
f 433/297/244 432/297/244 402/260/244
f 434/298/14 433/298/14 403/268/14
f 435/298/350 434/298/244 404/268/244
f 436/298/351 435/298/350 405/268/249
f 436/298/352 406/268/269 407/268/270
f 438/298/354 437/298/444 407/268/307
f 409/284/318 439/299/357 438/299/356
f 410/284/329 440/299/440 439/299/357
f 441/300/358 440/300/440 410/280/329
f 412/291/360 442/301/711 441/300/361
f 442/301/362 412/291/342 413/291/332
f 413/286/332 414/286/322 444/302/364
f 414/286/322 415/286/324 445/302/365
f 445/303/366 415/282/314 416/282/313
f 447/269/368 446/269/430 416/269/275
f 447/269/369 417/269/288 418/269/252
f 448/304/370 418/271/252 419/271/246
f 419/269/71 420/269/14 450/269/14
f 420/263/246 421/263/246 451/305/246
f 452/306/371 451/341/425 421/307/372
f 423/197/23 453/309/24 452/308/24
f 424/197/137 454/309/373 453/309/373
f 454/310/23 424/213/24 425/213/23
f 456/311/374 455/311/258 425/179/217
f 269/162/114 258/145/25 530/156/25
f 528/312/376 297/162/198 269/162/114
f 296/233/162 297/233/161 528/313/377
f 296/162/242 527/312/475 526/315/378
f 320/244/379 321/243/712 526/316/380
f 326/318/382 320/318/244 525/319/244
f 523/320/14 338/269/14 326/269/71
f 522/320/383 340/269/259 338/269/261
f 521/320/384 367/269/283 340/269/259
f 367/269/385 521/320/472 520/320/386
f 382/269/388 358/269/713 520/320/389
f 518/321/391 386/285/395 382/285/392
f 517/321/394 390/285/397 386/285/395
f 516/322/396 394/289/714 390/289/397
f 392/289/398 396/289/715 515/323/399
f 388/285/401 392/290/398 514/324/400
f 384/285/403 388/288/401 513/324/402
f 384/285/405 512/325/467 511/325/406
f 370/269/408 360/269/423 511/269/409
f 349/269/257 370/269/291 510/269/411
f 347/270/255 349/270/257 509/326/412
f 347/269/14 508/269/14 507/269/71
f 324/327/413 328/275/246 507/328/246
f 505/329/414 325/393/716 324/242/415
f 250/198/23 325/254/23 505/331/24
f 251/198/417 250/198/139 504/332/387
f 223/216/24 251/216/24 503/333/24
f 501/334/418 315/181/219 223/181/220
f 500/176/38 304/165/24 315/181/24
f 314/180/216 222/180/218 458/335/419
f 457/178/116 314/180/38 459/335/23
f 457/178/116 460/336/23 461/337/421
f 456/311/374 461/337/418 462/337/258
f 454/310/23 455/310/24 462/338/24
f 463/339/423 464/339/423 453/309/373
f 464/339/24 465/370/24 452/308/24
f 452/306/371 465/395/465 466/340/424
f 450/305/246 451/305/246 466/342/246
f 449/269/14 450/269/14 467/269/14
f 448/304/370 449/304/246 468/343/426
f 447/269/369 448/269/370 469/269/427
f 470/269/429 471/269/466 446/269/430
f 472/344/431 445/303/366 446/303/367
f 444/302/364 445/302/365 472/345/433
f 443/302/363 444/302/364 473/345/434
f 475/346/436 442/301/362 443/301/363
f 631/301/437 633/346/717 632/347/438
f 476/347/439 477/347/470 440/300/440
f 440/299/440 477/348/470 478/348/441
f 439/299/357 478/348/441 479/348/442
f 479/349/443 480/349/471 437/298/444
f 481/349/445 436/298/352 437/298/353
f 436/298/351 481/349/473 482/349/447
f 482/349/447 483/349/244 434/298/244
f 483/349/14 484/349/71 433/298/14
f 433/297/244 484/350/244 485/350/244
f 485/351/448 486/396/474 431/296/349
f 430/292/347 431/294/346 486/353/450
f 429/293/159 430/293/159 487/355/452
f 429/292/453 488/354/476 489/354/454
f 427/158/26 428/160/112 489/356/454
f 427/158/26 490/357/25 491/358/455
f 492/360/456 295/235/196 268/235/197
f 294/230/457 295/230/158 492/361/214
f 319/362/458 294/235/239 493/360/459
f 495/364/461 323/397/700 319/365/225
f 496/367/24 248/196/23 323/253/23
f 249/196/463 248/196/136 496/367/464
f 222/214/24 249/214/23 497/369/23
f 499/177/214 459/335/420 458/335/419
f 460/336/23 459/335/23 499/177/23
f 460/336/23 500/176/38 501/334/24
f 501/334/418 502/334/217 462/337/258
f 463/338/23 462/338/24 502/333/23
f 503/332/387 504/332/387 464/339/423
f 504/332/24 505/331/24 465/370/24
f 465/371/465 505/329/414 506/330/416
f 507/328/246 467/342/246 466/342/246
f 508/269/14 468/269/14 467/269/14
f 509/326/412 469/343/427 468/343/426
f 470/269/428 469/269/427 509/269/412
f 510/269/410 511/269/409 471/269/466
f 512/325/467 472/344/431 471/344/432
f 473/345/434 472/345/433 512/324/404
f 474/345/435 473/345/434 513/324/402
f 515/323/399 475/346/436 474/346/435
f 475/346/468 515/323/718 516/322/469
f 516/322/396 517/322/394 477/347/470
f 477/348/470 517/321/394 518/321/391
f 478/348/441 518/321/391 519/321/393
f 519/320/390 520/320/389 480/349/471
f 521/320/472 481/349/445 480/349/446
f 481/349/473 521/320/384 522/320/383
f 522/320/383 523/320/244 483/349/244
f 483/349/14 523/320/14 524/320/71
f 524/319/244 525/319/244 485/350/244
f 525/317/381 526/316/380 486/373/474
f 527/312/475 487/356/451 486/375/450
f 488/355/452 487/355/452 527/376/377
f 488/354/476 528/377/376 529/377/375
f 490/357/25 489/356/454 529/312/375
f 490/357/25 530/156/25 531/157/110
f 532/157/477 492/358/456 491/358/455
f 492/378/214 532/229/157 533/229/157
f 533/157/478 534/255/719 494/379/460
f 535/380/479 495/398/461 494/381/462
f 536/195/24 496/367/24 495/368/24
f 497/367/464 496/367/464 536/195/135
f 537/212/24 498/212/23 458/369/24
f 539/281/480 538/280/514 411/280/481
f 538/280/483 540/291/516 412/291/484
f 412/291/486 540/291/517 541/279/487
f 397/279/343 541/279/489 539/281/489
f 542/323/491 543/322/521 516/322/492
f 543/322/494 544/289/523 394/289/495
f 394/289/497 544/289/497 545/289/498
f 396/289/499 545/289/526 542/323/500
f 547/301/502 546/300/529 441/300/503
f 546/300/505 548/347/531 476/347/506
f 476/347/508 548/347/508 549/346/509
f 475/346/510 549/346/533 547/301/511
f 551/281/513 550/280/535 538/280/514
f 550/280/515 552/291/515 540/291/516
f 540/291/517 552/291/537 553/279/518
f 541/279/489 553/279/538 551/281/519
f 542/323/491 554/323/720 555/322/520
f 555/322/522 556/289/523 544/289/523
f 544/289/524 556/289/524 557/289/525
f 545/289/526 557/289/544 554/323/527
f 547/301/502 559/301/721 558/300/528
f 546/300/505 558/300/546 560/347/530
f 561/346/532 559/301/550 547/301/511
f 551/281/513 563/281/571 562/280/534
f 564/291/536 565/279/574 553/279/518
f 553/279/538 565/279/576 563/281/539
f 567/322/540 568/289/588 556/289/523
f 556/289/541 568/289/590 569/289/542
f 557/289/544 569/289/591 566/323/545
f 558/300/546 570/300/577 572/347/547
f 572/347/548 573/346/548 561/346/548
f 573/346/549 571/301/582 559/301/550
f 559/301/550 571/301/582 564/291/536
f 580/291/551 583/301/722 582/300/552
f 562/280/534 570/300/577 558/300/554
f 558/300/555 559/301/556 552/291/556
f 574/382/558 577/383/570 549/346/559
f 577/383/561 576/383/568 561/346/532
f 561/346/562 576/383/566 575/382/563
f 560/347/530 575/382/565 574/382/564
f 575/382/565 567/322/540 555/322/522
f 576/383/566 566/323/723 567/322/567
f 554/323/527 566/323/545 576/383/568
f 555/322/569 554/323/724 577/383/570
f 563/281/571 579/281/616 578/280/572
f 580/291/573 581/279/621 565/279/574
f 581/279/575 579/281/623 563/281/539
f 570/300/577 582/300/583 584/347/578
f 572/347/579 584/347/627 585/346/580
f 585/346/581 583/301/584 571/301/582
f 562/280/534 578/280/572 582/300/583
f 583/301/584 580/291/573 564/291/536
f 586/323/585 587/322/594 567/322/586
f 587/322/587 588/289/596 568/289/588
f 588/289/589 589/289/598 569/289/542
f 569/289/591 589/289/599 586/323/592
f 586/323/585 590/323/600 591/322/593
f 587/322/587 591/322/602 592/289/595
f 592/289/597 593/289/605 589/289/598
f 593/289/549 590/323/607 586/323/592
f 590/323/600 594/323/608 595/322/601
f 591/322/602 595/322/610 596/289/603
f 596/289/604 597/289/613 593/289/605
f 597/289/606 594/323/615 590/323/607
f 594/323/608 598/323/725 599/322/609
f 595/322/610 599/322/658 600/289/611
f 600/289/612 601/289/612 597/289/613
f 601/289/614 598/323/664 594/323/615
f 579/281/616 603/281/630 602/280/617
f 602/280/618 604/291/633 580/291/619
f 604/291/620 605/279/635 581/279/621
f 605/279/622 603/281/637 579/281/623
f 607/301/624 606/300/639 582/300/625
f 606/300/626 608/347/641 584/347/578
f 584/347/627 608/347/642 609/346/628
f 585/346/581 609/346/644 607/301/629
f 603/281/630 611/281/646 610/280/631
f 610/280/632 612/291/632 604/291/633
f 612/291/634 613/279/650 605/279/635
f 613/279/636 611/281/726 603/281/637
f 615/301/638 614/300/653 606/300/639
f 614/300/640 616/347/655 608/347/641
f 608/347/642 616/347/643 617/346/643
f 609/346/644 617/346/656 615/301/645
f 611/281/646 619/281/669 618/280/647
f 610/280/648 618/280/648 620/291/648
f 620/291/649 621/279/671 613/279/650
f 613/279/651 621/279/651 619/281/651
f 615/301/638 623/301/652 622/300/652
f 622/300/654 624/347/659 616/347/655
f 617/346/656 625/346/663 623/301/657
f 599/322/658 616/347/655 624/347/659
f 635/289/660 632/347/727 633/346/661
f 625/346/663 617/346/656 598/323/664
f 617/346/665 616/347/728 599/322/666
f 627/281/668 626/280/682 618/280/647
f 620/291/649 628/291/678 629/279/670
f 621/279/672 629/279/672 627/281/672
f 630/300/531 632/347/729 624/347/659
f 625/346/663 633/346/730 631/301/673
f 635/289/674 634/289/675 601/289/675
f 634/289/676 633/346/730 625/346/663
f 624/347/659 632/347/729 635/289/677
f 623/301/657 631/301/673 628/291/678
f 628/291/679 631/301/731 630/300/680
f 626/280/682 630/300/531 622/300/654
f 622/300/683 623/301/732 620/291/684
