# This file uses centimeters as units for non-parametric coordinates.

mtllib Coxa.mtl
g default
v 0.210033 -0.730294 -0.094437
v 0.153284 -0.730294 -0.172545
v 0.069673 -0.730294 -0.220818
v -0.026345 -0.730294 -0.230910
v -0.118167 -0.730294 -0.201075
v -0.189915 -0.730294 -0.136473
v -0.229184 -0.730294 -0.048273
v -0.229184 -0.730294 0.048273
v -0.189915 -0.730294 0.136473
v -0.118167 -0.730294 0.201075
v -0.026345 -0.730294 0.230910
v 0.069672 -0.730294 0.220818
v 0.153284 -0.730294 0.172545
v 0.210033 -0.730294 0.094437
v 0.230106 -0.730294 -0.000000
v 0.210033 -0.131041 -0.094437
v 0.153284 -0.131041 -0.172545
v 0.069673 -0.131041 -0.220818
v -0.026345 -0.131041 -0.230910
v -0.118167 -0.131041 -0.201075
v -0.189915 -0.131041 -0.136473
v -0.229184 -0.131041 -0.048273
v -0.229184 -0.131041 0.048273
v -0.189915 -0.131041 0.136473
v -0.118167 -0.131041 0.201075
v -0.026345 -0.131041 0.230910
v 0.069672 -0.131041 0.220818
v 0.153284 -0.131041 0.172545
v 0.210033 -0.131041 0.094437
v 0.230106 -0.131041 -0.000000
v 0.045875 -0.094209 -0.020464
v 0.033577 -0.094209 -0.037390
v 0.015459 -0.094209 -0.047851
v -0.005348 -0.094209 -0.050037
v -0.025245 -0.094209 -0.043572
v -0.040793 -0.094209 -0.029573
v -0.049302 -0.094209 -0.010461
v -0.049302 -0.094209 0.010461
v -0.040793 -0.094209 0.029573
v -0.025245 -0.094209 0.043572
v -0.005348 -0.094209 0.050038
v 0.015459 -0.094209 0.047851
v 0.033577 -0.094209 0.037390
v 0.045875 -0.094209 0.020464
v 0.050225 -0.094209 -0.000000
v 0.221017 -0.131041 -0.099367
v 0.161306 -0.131041 -0.181552
v 0.161306 -0.094209 -0.181552
v 0.221017 -0.094209 -0.099367
v 0.073330 -0.131041 -0.232345
v 0.073330 -0.094209 -0.232345
v -0.027700 -0.131041 -0.242964
v -0.027700 -0.094209 -0.242964
v -0.124315 -0.131041 -0.211572
v -0.124315 -0.094209 -0.211572
v -0.199809 -0.131041 -0.143597
v -0.199809 -0.094209 -0.143597
v -0.241127 -0.131041 -0.050793
v -0.241127 -0.094209 -0.050793
v -0.241127 -0.131041 0.050793
v -0.241127 -0.094209 0.050793
v -0.199809 -0.131041 0.143597
v -0.199809 -0.094209 0.143597
v -0.124315 -0.131041 0.211572
v -0.124315 -0.094209 0.211572
v -0.027700 -0.131041 0.242964
v -0.027700 -0.094209 0.242964
v 0.073330 -0.131041 0.232345
v 0.073330 -0.094209 0.232345
v 0.161306 -0.131041 0.181552
v 0.161306 -0.094209 0.181552
v 0.221017 -0.131041 0.099367
v 0.221017 -0.094209 0.099367
v 0.242139 -0.131041 -0.000000
v 0.242139 -0.094209 -0.000000
v 0.210033 -0.745909 -0.094437
v 0.153284 -0.745909 -0.172545
v -0.002076 -0.745909 -0.000000
v 0.069673 -0.745909 -0.220818
v -0.026345 -0.745909 -0.230910
v -0.118167 -0.745909 -0.201075
v -0.189915 -0.745909 -0.136473
v -0.229184 -0.745909 -0.048273
v -0.229184 -0.745909 0.048273
v -0.189915 -0.745909 0.136473
v -0.118167 -0.745909 0.201075
v -0.026345 -0.745909 0.230910
v 0.069672 -0.745909 0.220818
v 0.153284 -0.745909 0.172545
v 0.210033 -0.745909 0.094437
v 0.230106 -0.745909 0.000000
v 0.224437 -0.730294 -0.100850
v 0.163834 -0.730294 -0.184262
v 0.224437 -0.745909 -0.100850
v 0.163834 -0.745909 -0.184262
v 0.074545 -0.730294 -0.235814
v 0.074545 -0.745909 -0.235814
v -0.027993 -0.730294 -0.246591
v -0.027993 -0.745909 -0.246591
v -0.126050 -0.730294 -0.214730
v -0.126050 -0.745909 -0.214730
v -0.202671 -0.730294 -0.145741
v -0.202671 -0.745909 -0.145741
v -0.244607 -0.730294 -0.051552
v -0.244607 -0.745909 -0.051552
v -0.244607 -0.730294 0.051551
v -0.244607 -0.745909 0.051551
v -0.202671 -0.730294 0.145741
v -0.202671 -0.745909 0.145741
v -0.126051 -0.730294 0.214730
v -0.126051 -0.745909 0.214730
v -0.027994 -0.730294 0.246591
v -0.027994 -0.745909 0.246591
v 0.074545 -0.730294 0.235814
v 0.074545 -0.745909 0.235814
v 0.163834 -0.730294 0.184262
v 0.163834 -0.745909 0.184262
v 0.224437 -0.730294 0.100850
v 0.224437 -0.745909 0.100850
v 0.245873 -0.730294 -0.000000
v 0.245873 -0.745909 -0.000000
v 0.045875 0.000000 -0.020464
v 0.033577 0.000000 -0.037390
v 0.000000 0.000000 -0.000000
v 0.015459 0.000000 -0.047851
v -0.005348 0.000000 -0.050037
v -0.025245 0.000000 -0.043572
v -0.040793 0.000000 -0.029573
v -0.049302 0.000000 -0.010461
v -0.049302 0.000000 0.010461
v -0.040793 0.000000 0.029573
v -0.025245 0.000000 0.043572
v -0.005348 0.000000 0.050037
v 0.015459 0.000000 0.047851
v 0.033577 0.000000 0.037390
v 0.045875 0.000000 0.020464
v 0.050225 0.000000 -0.000000
vt 0.567173 0.778776
vt 0.557948 0.766079
vt 0.544356 0.758231
vt 0.491929 0.582703
vt 0.513822 0.761441
vt 0.502158 0.771942
vt 0.495775 0.786280
vt 0.495775 0.801974
vt 0.502158 0.816311
vt 0.513822 0.826813
vt 0.528748 0.831663
vt 0.544356 0.830022
vt 0.557948 0.822175
vt 0.567173 0.809478
vt 0.570436 0.794127
vt 0.242230 0.367009
vt 0.247735 0.367009
vt 0.253240 0.367009
vt 0.258745 0.367009
vt 0.264251 0.367009
vt 0.269756 0.367009
vt 0.275261 0.367009
vt 0.280766 0.367009
vt 0.286271 0.367009
vt 0.291776 0.367009
vt 0.297281 0.367009
vt 0.302786 0.367009
vt 0.308292 0.367009
vt 0.313797 0.367009
vt 0.319302 0.367009
vt 0.324807 0.367009
vt 0.242230 0.490874
vt 0.247735 0.490874
vt 0.253240 0.490874
vt 0.258745 0.490874
vt 0.264251 0.490874
vt 0.269756 0.490874
vt 0.275261 0.490874
vt 0.280766 0.490874
vt 0.286271 0.490874
vt 0.291776 0.490874
vt 0.297281 0.490874
vt 0.302786 0.490874
vt 0.308292 0.490874
vt 0.313797 0.490874
vt 0.319302 0.490874
vt 0.324807 0.490874
vt 0.534319 0.665187
vt 0.524478 0.651642
vt 0.509979 0.643270
vt 0.493328 0.641520
vt 0.477404 0.646694
vt 0.464962 0.657897
vt 0.458152 0.673192
vt 0.458152 0.689935
vt 0.464962 0.705230
vt 0.477404 0.716433
vt 0.493328 0.721607
vt 0.509979 0.719857
vt 0.524478 0.711486
vt 0.534319 0.697941
vt 0.537801 0.681564
vt 0.532693 0.794127
vt 0.699997 0.414330
vt 0.736780 0.430707
vt 0.726939 0.444252
vt 0.712439 0.452624
vt 0.695788 0.454374
vt 0.679865 0.449200
vt 0.667422 0.437997
vt 0.660612 0.422702
vt 0.660612 0.405959
vt 0.667422 0.390664
vt 0.679865 0.379461
vt 0.695788 0.374287
vt 0.712439 0.376037
vt 0.726939 0.384408
vt 0.736780 0.397954
vt 0.740261 0.414330
vt 0.534319 0.697941
vt 0.524478 0.711486
vt 0.524478 0.711486
vt 0.534319 0.697941
vt 0.509979 0.719857
vt 0.509979 0.719857
vt 0.493328 0.721607
vt 0.493328 0.721607
vt 0.477404 0.716433
vt 0.477404 0.716433
vt 0.464962 0.705230
vt 0.464962 0.705230
vt 0.458152 0.689935
vt 0.458152 0.689935
vt 0.458152 0.673192
vt 0.458152 0.673192
vt 0.464962 0.657897
vt 0.464962 0.657897
vt 0.477404 0.646694
vt 0.477404 0.646694
vt 0.493328 0.641520
vt 0.493328 0.641520
vt 0.509979 0.643270
vt 0.509979 0.643270
vt 0.524478 0.651642
vt 0.524478 0.651642
vt 0.534319 0.665187
vt 0.534319 0.665187
vt 0.537801 0.681564
vt 0.537801 0.681564
vt 0.557948 0.766079
vt 0.567173 0.778776
vt 0.556545 0.589494
vt 0.528748 0.756591
vt 0.513822 0.761441
vt 0.502158 0.771942
vt 0.495775 0.786280
vt 0.495775 0.801974
vt 0.502158 0.816311
vt 0.513822 0.826813
vt 0.528748 0.831663
vt 0.544356 0.830022
vt 0.557948 0.822175
vt 0.567173 0.809478
vt 0.570436 0.794127
vt 0.557948 0.766079
vt 0.567173 0.778776
vt 0.567173 0.778776
vt 0.557948 0.766079
vt 0.556545 0.589494
vt 0.556545 0.589494
vt 0.528748 0.756591
vt 0.528748 0.756591
vt 0.513822 0.761441
vt 0.513822 0.761441
vt 0.502158 0.771942
vt 0.502158 0.771942
vt 0.495775 0.786280
vt 0.495775 0.786280
vt 0.495775 0.801974
vt 0.495775 0.801974
vt 0.502158 0.816311
vt 0.502158 0.816311
vt 0.513822 0.826813
vt 0.513822 0.826813
vt 0.528748 0.831663
vt 0.528748 0.831663
vt 0.544356 0.830022
vt 0.544356 0.830022
vt 0.557948 0.822175
vt 0.557948 0.822175
vt 0.567173 0.809478
vt 0.567173 0.809478
vt 0.570436 0.794127
vt 0.570436 0.794127
vt 0.736780 0.430707
vt 0.726939 0.444252
vt 0.712439 0.452624
vt 0.695788 0.454374
vt 0.679865 0.449200
vt 0.667422 0.437997
vt 0.660612 0.422702
vt 0.660612 0.405959
vt 0.667422 0.390664
vt 0.679865 0.379461
vt 0.695788 0.374287
vt 0.712439 0.376037
vt 0.726939 0.384408
vt 0.736780 0.397954
vt 0.740261 0.414330
vt 0.740261 0.414330
vt 0.740261 0.414330
vt 0.740261 0.414330
vt 0.736780 0.430707
vt 0.736780 0.430707
vt 0.736780 0.430707
vt 0.699997 0.414330
vt 0.699997 0.414330
vt 0.699997 0.414330
vt 0.699997 0.414330
vt 0.699997 0.414330
vt 0.699997 0.414330
vt 0.699997 0.414330
vt 0.699997 0.414330
vt 0.699997 0.414330
vt 0.699997 0.414330
vt 0.699997 0.414330
vt 0.699997 0.414330
vt 0.699997 0.414330
vt 0.699997 0.414330
vt 0.736780 0.397954
vt 0.736780 0.397954
vt 0.736780 0.397954
vt 0.538652 0.683693
vt 0.740261 0.414330
vt 0.726939 0.384408
vt 0.726939 0.384408
vt 0.726939 0.384408
vt 0.535171 0.667316
vt 0.736780 0.397954
vt 0.712439 0.376037
vt 0.712439 0.376037
vt 0.712439 0.376037
vt 0.525330 0.653771
vt 0.726939 0.384408
vt 0.695788 0.374287
vt 0.695788 0.374287
vt 0.695788 0.374287
vt 0.510830 0.645399
vt 0.712439 0.376037
vt 0.679865 0.379461
vt 0.679865 0.379461
vt 0.679865 0.379461
vt 0.494179 0.643649
vt 0.695788 0.374287
vt 0.667422 0.390664
vt 0.667422 0.390664
vt 0.667422 0.390664
vt 0.478256 0.648823
vt 0.679865 0.379461
vt 0.660612 0.405959
vt 0.660612 0.405959
vt 0.660612 0.405959
vt 0.465814 0.660026
vt 0.667422 0.390664
vt 0.660612 0.422702
vt 0.660612 0.422702
vt 0.660612 0.422702
vt 0.459004 0.675322
vt 0.660612 0.405959
vt 0.667422 0.437997
vt 0.667422 0.437997
vt 0.667422 0.437997
vt 0.459004 0.692064
vt 0.660612 0.422702
vt 0.679865 0.449200
vt 0.679865 0.449200
vt 0.679865 0.449200
vt 0.465814 0.707360
vt 0.667422 0.437997
vt 0.695788 0.454374
vt 0.695788 0.454374
vt 0.695788 0.454374
vt 0.478256 0.718563
vt 0.679865 0.449200
vt 0.712439 0.452624
vt 0.712439 0.452624
vt 0.712439 0.452624
vt 0.494179 0.723736
vt 0.695788 0.454374
vt 0.726939 0.444252
vt 0.726939 0.444252
vt 0.726939 0.444252
vt 0.510830 0.721986
vt 0.712439 0.452624
vt 0.525330 0.713615
vt 0.726939 0.444252
vt 0.535171 0.700070
vt 0.736780 0.430707
vt 0.538652 0.683693
vt 0.535171 0.667316
vt 0.525330 0.653771
vt 0.510830 0.645399
vt 0.494179 0.643649
vt 0.478256 0.648823
vt 0.465814 0.660026
vt 0.459004 0.675322
vt 0.459004 0.692064
vt 0.465814 0.707360
vt 0.478256 0.718563
vt 0.494179 0.723736
vt 0.510830 0.721986
vt 0.525330 0.713615
vt 0.535171 0.700070
vt 0.537801 0.681564
vt 0.537801 0.681564
vt 0.537801 0.681564
vt 0.534319 0.697941
vt 0.534319 0.697941
vt 0.534319 0.697941
vt 0.537801 0.681564
vt 0.537801 0.681564
vt 0.537801 0.681564
vt 0.534319 0.697941
vt 0.534319 0.697941
vt 0.534319 0.697941
vt 0.534319 0.665187
vt 0.534319 0.665187
vt 0.534319 0.665187
vt 0.534319 0.665187
vt 0.534319 0.665187
vt 0.534319 0.665187
vt 0.537801 0.681564
vt 0.524478 0.651642
vt 0.524478 0.651642
vt 0.524478 0.651642
vt 0.524478 0.651642
vt 0.524478 0.651642
vt 0.524478 0.651642
vt 0.534319 0.665187
vt 0.509979 0.643270
vt 0.509979 0.643270
vt 0.509979 0.643270
vt 0.509979 0.643270
vt 0.509979 0.643270
vt 0.509979 0.643270
vt 0.524478 0.651642
vt 0.493328 0.641520
vt 0.493328 0.641520
vt 0.493328 0.641520
vt 0.493328 0.641520
vt 0.493328 0.641520
vt 0.493328 0.641520
vt 0.509979 0.643270
vt 0.477404 0.646694
vt 0.477404 0.646694
vt 0.477404 0.646694
vt 0.477404 0.646694
vt 0.477404 0.646694
vt 0.477404 0.646694
vt 0.493328 0.641520
vt 0.464962 0.657897
vt 0.464962 0.657897
vt 0.464962 0.657897
vt 0.464962 0.657897
vt 0.464962 0.657897
vt 0.464962 0.657897
vt 0.477404 0.646694
vt 0.458152 0.673192
vt 0.458152 0.673192
vt 0.458152 0.673192
vt 0.458152 0.673192
vt 0.458152 0.673192
vt 0.458152 0.673192
vt 0.464962 0.657897
vt 0.458152 0.689935
vt 0.458152 0.689935
vt 0.458152 0.689935
vt 0.458152 0.689935
vt 0.458152 0.689935
vt 0.458152 0.689935
vt 0.458152 0.673192
vt 0.464962 0.705230
vt 0.464962 0.705230
vt 0.464962 0.705230
vt 0.464962 0.705230
vt 0.464962 0.705230
vt 0.464962 0.705230
vt 0.458152 0.689935
vt 0.477404 0.716433
vt 0.477404 0.716433
vt 0.477404 0.716433
vt 0.477404 0.716433
vt 0.477404 0.716433
vt 0.477404 0.716433
vt 0.464962 0.705230
vt 0.493328 0.721607
vt 0.493328 0.721607
vt 0.493328 0.721607
vt 0.493328 0.721607
vt 0.493328 0.721607
vt 0.493328 0.721607
vt 0.477404 0.716433
vt 0.509979 0.719857
vt 0.509979 0.719857
vt 0.509979 0.719857
vt 0.509979 0.719857
vt 0.509979 0.719857
vt 0.509979 0.719857
vt 0.493328 0.721607
vt 0.524478 0.711486
vt 0.524478 0.711486
vt 0.524478 0.711486
vt 0.524478 0.711486
vt 0.524478 0.711486
vt 0.524478 0.711486
vt 0.509979 0.719857
vt 0.524478 0.711486
vt 0.534319 0.697941
vt 0.570436 0.794127
vt 0.570436 0.794127
vt 0.570436 0.794127
vt 0.567173 0.778776
vt 0.567173 0.778776
vt 0.567173 0.778776
vt 0.570436 0.794127
vt 0.570436 0.794127
vt 0.570436 0.794127
vt 0.567173 0.778776
vt 0.567173 0.778776
vt 0.567173 0.778776
vt 0.567173 0.809478
vt 0.567173 0.809478
vt 0.567173 0.809478
vt 0.570436 0.794127
vt 0.570436 0.794127
vt 0.570436 0.794127
vt 0.567173 0.809478
vt 0.567173 0.809478
vt 0.567173 0.809478
vt 0.570436 0.794127
vt 0.557948 0.822175
vt 0.557948 0.822175
vt 0.557948 0.822175
vt 0.567173 0.809478
vt 0.567173 0.809478
vt 0.567173 0.809478
vt 0.557948 0.822175
vt 0.557948 0.822175
vt 0.557948 0.822175
vt 0.567173 0.809478
vt 0.544356 0.830022
vt 0.544356 0.830022
vt 0.544356 0.830022
vt 0.557948 0.822175
vt 0.557948 0.822175
vt 0.557948 0.822175
vt 0.544356 0.830022
vt 0.544356 0.830022
vt 0.544356 0.830022
vt 0.557948 0.822175
vt 0.528748 0.831663
vt 0.528748 0.831663
vt 0.528748 0.831663
vt 0.544356 0.830022
vt 0.544356 0.830022
vt 0.544356 0.830022
vt 0.528748 0.831663
vt 0.528748 0.831663
vt 0.528748 0.831663
vt 0.544356 0.830022
vt 0.513822 0.826813
vt 0.513822 0.826813
vt 0.513822 0.826813
vt 0.528748 0.831663
vt 0.528748 0.831663
vt 0.528748 0.831663
vt 0.513822 0.826813
vt 0.513822 0.826813
vt 0.513822 0.826813
vt 0.528748 0.831663
vt 0.502158 0.816311
vt 0.502158 0.816311
vt 0.502158 0.816311
vt 0.513822 0.826813
vt 0.513822 0.826813
vt 0.513822 0.826813
vt 0.502158 0.816311
vt 0.502158 0.816311
vt 0.502158 0.816311
vt 0.513822 0.826813
vt 0.495775 0.801974
vt 0.495775 0.801974
vt 0.495775 0.801974
vt 0.502158 0.816311
vt 0.502158 0.816311
vt 0.502158 0.816311
vt 0.495775 0.801974
vt 0.495775 0.801974
vt 0.495775 0.801974
vt 0.502158 0.816311
vt 0.495775 0.786280
vt 0.495775 0.786280
vt 0.495775 0.786280
vt 0.495775 0.801974
vt 0.495775 0.801974
vt 0.495775 0.801974
vt 0.495775 0.786280
vt 0.495775 0.786280
vt 0.495775 0.786280
vt 0.495775 0.801974
vt 0.502158 0.771942
vt 0.502158 0.771942
vt 0.502158 0.771942
vt 0.495775 0.786280
vt 0.495775 0.786280
vt 0.495775 0.786280
vt 0.502158 0.771942
vt 0.502158 0.771942
vt 0.502158 0.771942
vt 0.495775 0.786280
vt 0.513822 0.761441
vt 0.513822 0.761441
vt 0.513822 0.761441
vt 0.502158 0.771942
vt 0.502158 0.771942
vt 0.502158 0.771942
vt 0.513822 0.761441
vt 0.513822 0.761441
vt 0.513822 0.761441
vt 0.502158 0.771942
vt 0.491929 0.582703
vt 0.491929 0.582703
vt 0.528748 0.756591
vt 0.513822 0.761441
vt 0.513822 0.761441
vt 0.513822 0.761441
vt 0.491929 0.582703
vt 0.491929 0.582703
vt 0.528748 0.756591
vt 0.513822 0.761441
vt 0.544356 0.758231
vt 0.544356 0.758231
vt 0.556545 0.589494
vt 0.528748 0.756591
vt 0.528748 0.756591
vt 0.491929 0.582703
vt 0.544356 0.758231
vt 0.544356 0.758231
vt 0.556545 0.589494
vt 0.528748 0.756591
vt 0.557948 0.766079
vt 0.557948 0.766079
vt 0.557948 0.766079
vt 0.544356 0.758231
vt 0.544356 0.758231
vt 0.544356 0.758231
vt 0.557948 0.766079
vt 0.557948 0.766079
vt 0.557948 0.766079
vt 0.556545 0.589494
vt 0.557948 0.766079
vt 0.557948 0.766079
vt 0.557948 0.766079
vt 0.567173 0.778776
vt 0.567173 0.778776
vt 0.567173 0.778776
vt 0.557948 0.766079
vt 0.567173 0.778776
vt 0.532693 0.794127
vt 0.532693 0.794127
vt 0.532693 0.794127
vt 0.532693 0.794127
vt 0.532693 0.794127
vt 0.532693 0.794127
vt 0.532693 0.794127
vt 0.532693 0.794127
vt 0.532693 0.794127
vt 0.532693 0.794127
vt 0.532693 0.794127
vt 0.532693 0.794127
vt 0.532693 0.794127
vt 0.532693 0.794127
vn 0.913544 0.000000 -0.406739
vn 0.669132 0.000000 -0.743143
vn 0.669132 0.000000 -0.743143
vn 0.913544 0.000000 -0.406739
vn 0.309018 0.000000 -0.951056
vn 0.309018 0.000000 -0.951056
vn -0.104528 0.000000 -0.994522
vn -0.104528 0.000000 -0.994522
vn -0.499999 0.000000 -0.866026
vn -0.499999 0.000000 -0.866026
vn -0.809017 0.000000 -0.587786
vn -0.809017 0.000000 -0.587786
vn -0.978148 0.000000 -0.207910
vn -0.978148 0.000000 -0.207910
vn -0.978148 0.000000 0.207910
vn -0.978148 0.000000 0.207910
vn -0.809018 0.000000 0.587783
vn -0.809018 0.000000 0.587783
vn -0.500000 0.000000 0.866026
vn -0.500000 0.000000 0.866026
vn -0.104528 0.000000 0.994522
vn -0.104528 0.000000 0.994522
vn 0.309018 0.000000 0.951056
vn 0.309018 0.000000 0.951056
vn 0.669132 0.000000 0.743144
vn 0.669132 0.000000 0.743144
vn 0.913544 0.000000 0.406739
vn 0.913544 0.000000 0.406739
vn 1.000000 0.000000 -0.000001
vn 1.000000 0.000000 -0.000001
vn 0.000000 -1.000000 0.000000
vn 0.000000 -1.000000 0.000000
vn 0.000000 -1.000000 0.000000
vn 0.000000 -1.000000 0.000000
vn 0.000000 -1.000000 -0.000000
vn -0.000000 -1.000000 -0.000000
vn -0.000000 -1.000000 -0.000000
vn -0.000000 -1.000000 -0.000000
vn -0.000000 -1.000000 0.000000
vn 0.000000 -1.000000 0.000000
vn 0.000000 -1.000000 -0.000000
vn 0.000000 -1.000000 -0.000000
vn 0.000000 -1.000000 0.000000
vn 0.000000 -1.000000 0.000000
vn 0.000000 -1.000000 0.000000
vn 0.000000 -1.000000 0.000000
vn 0.000000 1.000000 -0.000000
vn 0.000000 1.000000 -0.000002
vn 0.000000 1.000000 -0.000000
vn 0.000000 1.000000 -0.000000
vn 0.000000 1.000000 0.000000
vn 0.000000 1.000000 -0.000000
vn 0.000000 1.000000 0.000001
vn 0.000000 1.000000 0.000002
vn 0.000000 1.000000 -0.000002
vn 0.000000 1.000000 -0.000000
vn 0.000000 1.000000 0.000001
vn 0.000000 1.000000 -0.000000
vn 0.000000 1.000000 0.000000
vn 0.000000 1.000000 0.000001
vn 0.000000 1.000000 -0.000001
vn 0.000000 1.000000 0.000000
vn 0.913545 -0.000000 -0.406739
vn 0.669131 0.000000 -0.743145
vn 0.669131 0.000000 -0.743145
vn 0.913545 -0.000000 -0.406739
vn 0.309017 0.000000 -0.951056
vn 0.309017 0.000000 -0.951056
vn -0.104529 0.000001 -0.994522
vn -0.104529 0.000001 -0.994522
vn -0.499999 0.000000 -0.866026
vn -0.499999 0.000000 -0.866026
vn -0.809016 -0.000000 -0.587786
vn -0.809016 -0.000000 -0.587786
vn -0.978148 -0.000000 -0.207910
vn -0.978148 -0.000000 -0.207911
vn -0.978148 -0.000000 0.207910
vn -0.978148 -0.000000 0.207911
vn -0.809017 -0.000000 0.587785
vn -0.809017 -0.000000 0.587785
vn -0.500000 -0.000000 0.866026
vn -0.500000 -0.000000 0.866026
vn -0.104529 0.000000 0.994522
vn -0.104529 0.000000 0.994522
vn 0.309017 0.000000 0.951056
vn 0.309017 0.000000 0.951056
vn 0.669130 0.000000 0.743145
vn 0.669130 0.000000 0.743145
vn 0.913545 0.000000 0.406739
vn 0.913545 0.000000 0.406738
vn 1.000000 -0.000000 -0.000000
vn 1.000000 -0.000000 -0.000001
vn 0.000000 -1.000000 -0.000000
vn 0.000000 -1.000000 -0.000001
vn 0.000000 -1.000000 -0.000001
vn 0.000000 -1.000000 -0.000000
vn 0.000000 1.000000 0.000000
vn 0.000000 1.000000 0.000000
vn 0.000000 1.000000 0.000000
vn 0.000000 1.000000 0.000000
vn 0.000000 -1.000000 -0.000001
vn 0.000000 -1.000000 -0.000001
vn 0.000000 1.000000 0.000000
vn 0.000000 1.000000 0.000000
vn 0.000000 -1.000000 -0.000000
vn 0.000000 -1.000000 -0.000000
vn 0.000000 1.000000 0.000000
vn 0.000000 1.000000 0.000000
vn 0.000000 -1.000000 0.000001
vn 0.000000 -1.000000 0.000001
vn 0.000000 1.000000 -0.000000
vn 0.000000 1.000000 -0.000000
vn 0.000000 -1.000000 0.000000
vn 0.000000 -1.000000 0.000000
vn 0.000000 1.000000 -0.000000
vn 0.000000 1.000000 -0.000000
vn 0.000000 -1.000000 -0.000000
vn 0.000000 -1.000000 -0.000000
vn 0.000000 1.000000 0.000000
vn 0.000000 1.000000 0.000000
vn 0.000000 -1.000000 0.000000
vn 0.000000 -1.000000 0.000000
vn 0.000000 1.000000 -0.000000
vn 0.000000 1.000000 -0.000000
vn 0.000000 -1.000000 0.000000
vn 0.000000 -1.000000 0.000000
vn 0.000000 1.000000 0.000000
vn 0.000000 1.000000 -0.000000
vn 0.000000 -1.000000 -0.000000
vn 0.000000 -1.000000 -0.000000
vn 0.000000 1.000000 0.000000
vn 0.000000 1.000000 0.000000
vn 0.000000 -1.000000 -0.000000
vn 0.000000 -1.000000 -0.000000
vn 0.000000 1.000000 -0.000000
vn 0.000000 1.000000 -0.000000
vn 0.000000 -1.000000 -0.000000
vn 0.000000 -1.000000 -0.000000
vn 0.000000 1.000000 0.000000
vn 0.000000 1.000000 0.000000
vn 0.000000 -1.000000 0.000000
vn 0.000000 -1.000000 0.000000
vn 0.000000 1.000000 0.000000
vn 0.000000 1.000000 0.000000
vn 0.000000 -1.000000 0.000000
vn 0.000000 -1.000000 0.000000
vn 0.000000 1.000000 0.000000
vn 0.000000 1.000000 0.000000
vn 0.000000 -1.000000 0.000000
vn 0.000000 -1.000000 -0.000000
vn 0.000000 1.000000 0.000000
vn 0.000000 1.000000 0.000000
vn 0.669131 0.000000 -0.743144
vn 0.913545 0.000000 -0.406738
vn 0.913545 0.000000 -0.406738
vn 0.669131 0.000000 -0.743144
vn 0.309018 0.000000 -0.951056
vn 0.309018 0.000000 -0.951056
vn -0.104528 0.000000 -0.994522
vn -0.104528 0.000000 -0.994522
vn -0.499999 0.000000 -0.866026
vn -0.499999 0.000000 -0.866026
vn -0.809017 0.000000 -0.587785
vn -0.809017 0.000000 -0.587786
vn -0.978148 0.000001 -0.207911
vn -0.978148 0.000001 -0.207911
vn -0.978148 0.000000 0.207911
vn -0.978148 0.000000 0.207911
vn -0.809018 0.000000 0.587784
vn -0.809018 0.000000 0.587784
vn -0.500000 0.000000 0.866026
vn -0.500000 0.000000 0.866026
vn -0.104528 0.000000 0.994522
vn -0.104528 0.000000 0.994522
vn 0.309017 0.000000 0.951056
vn 0.309017 0.000000 0.951056
vn 0.669131 0.000000 0.743144
vn 0.669131 0.000000 0.743144
vn 0.913545 0.000000 0.406737
vn 0.913545 0.000000 0.406737
vn 1.000000 0.000000 -0.000000
vn 1.000000 0.000000 0.000000
vn 0.000000 1.000000 -0.000000
vn 0.000000 1.000000 -0.000000
vn 0.000000 1.000000 -0.000000
vn 0.000000 1.000000 -0.000000
vn 0.000000 -1.000000 0.000000
vn 0.000000 -1.000000 0.000000
vn 0.000000 1.000000 -0.000001
vn 0.000000 1.000000 -0.000001
vn 0.000000 -1.000000 0.000001
vn 0.000000 1.000000 -0.000000
vn 0.000000 1.000000 -0.000000
vn 0.000000 -1.000000 0.000001
vn 0.000001 1.000000 0.000001
vn 0.000001 1.000000 0.000001
vn -0.000000 -1.000000 -0.000001
vn 0.000003 1.000000 0.000002
vn 0.000003 1.000000 0.000002
vn -0.000001 -1.000000 -0.000001
vn 0.000003 1.000000 0.000001
vn 0.000003 1.000000 0.000001
vn -0.000002 -1.000000 -0.000001
vn 0.000001 1.000000 0.000000
vn 0.000001 1.000000 0.000000
vn -0.000001 -1.000000 0.000000
vn 0.000000 1.000000 0.000001
vn 0.000000 1.000000 0.000001
vn 0.000000 -1.000000 0.000000
vn 0.000000 1.000000 0.000001
vn 0.000000 1.000000 0.000001
vn 0.000000 -1.000000 0.000000
vn 0.000000 1.000000 0.000001
vn 0.000000 1.000000 0.000001
vn 0.000000 -1.000000 0.000000
vn 0.000000 1.000000 0.000000
vn 0.000000 1.000000 0.000000
vn 0.000000 -1.000000 0.000001
vn 0.000000 1.000000 -0.000000
vn 0.000000 1.000000 -0.000000
vn 0.000000 -1.000000 0.000001
vn 0.000000 1.000000 0.000000
vn 0.000000 1.000000 0.000000
vn 0.000000 -1.000000 0.000000
vn 0.000000 1.000000 -0.000000
vn 0.000000 1.000000 -0.000000
vn 0.000000 -1.000000 0.000000
vn 0.913543 0.000000 -0.406742
vn 0.669133 0.000000 -0.743143
vn 0.669133 0.000000 -0.743143
vn 0.913543 0.000000 -0.406742
vn 0.309010 0.000000 -0.951059
vn 0.309010 0.000000 -0.951059
vn -0.104535 0.000001 -0.994521
vn -0.104535 0.000001 -0.994521
vn -0.499994 0.000001 -0.866029
vn -0.499994 0.000001 -0.866029
vn -0.809014 0.000000 -0.587789
vn -0.809014 0.000000 -0.587789
vn -0.978148 0.000000 -0.207910
vn -0.978148 0.000000 -0.207910
vn -0.978148 0.000000 0.207910
vn -0.978148 0.000000 0.207910
vn -0.809016 0.000000 0.587786
vn -0.809016 0.000000 0.587786
vn -0.499996 0.000002 0.866028
vn -0.499996 0.000002 0.866027
vn -0.104532 0.000002 0.994521
vn -0.104532 0.000002 0.994521
vn 0.309013 0.000001 0.951058
vn 0.309013 0.000001 0.951058
vn 0.669132 0.000000 0.743143
vn 0.669132 0.000000 0.743143
vn 0.913543 0.000000 0.406741
vn 0.913543 0.000000 0.406741
vn 1.000000 0.000000 0.000000
vn 1.000000 0.000000 0.000000
s 1
g Coxa SILVER2
usemtl lambert2SG
f 1/16/1 2/17/2 17/33/3 16/32/4
f 2/17/2 3/18/5 18/34/6 17/33/3
f 3/18/5 4/19/7 19/35/8 18/34/6
f 4/19/7 5/20/9 20/36/10 19/35/8
f 5/20/9 6/21/11 21/37/12 20/36/10
f 6/21/11 7/22/13 22/38/14 21/37/12
f 7/22/13 8/23/15 23/39/16 22/38/14
f 8/23/15 9/24/17 24/40/18 23/39/16
f 9/24/17 10/25/19 25/41/20 24/40/18
f 10/25/19 11/26/21 26/42/22 25/41/20
f 11/26/21 12/27/23 27/43/24 26/42/22
f 12/27/23 13/28/25 28/44/26 27/43/24
f 13/28/25 14/29/27 29/45/28 28/44/26
f 14/29/27 15/30/29 30/46/30 29/45/28
f 15/30/29 1/31/1 16/47/4 30/46/30
s 2
f 77/522/31 76/524/32 78/529/33
f 79/515/34 77/521/31 78/530/33
f 80/505/35 79/514/34 78/531/33
f 81/495/36 80/504/35 78/532/33
f 82/485/37 81/494/36 78/533/33
f 83/475/38 82/484/37 78/534/33
f 84/465/39 83/474/38 78/535/33
f 85/455/40 84/464/39 78/536/33
f 86/445/41 85/454/40 78/537/33
f 87/435/42 86/444/41 78/538/33
f 88/425/43 87/434/42 78/539/33
f 89/415/44 88/424/43 78/540/33
f 90/405/45 89/414/44 78/541/33
f 91/395/46 90/404/45 78/542/33
f 76/525/32 91/394/46 78/63/33
s 3
f 122/173/47 123/251/48 124/188/49
f 123/252/48 125/246/50 124/187/49
f 125/247/50 126/241/51 124/186/49
f 126/242/51 127/236/52 124/185/49
f 127/237/52 128/231/53 124/184/49
f 128/232/53 129/226/54 124/183/49
f 129/227/54 130/221/55 124/182/49
f 130/222/55 131/216/56 124/181/49
f 131/217/56 132/211/57 124/180/49
f 132/212/57 133/206/58 124/179/49
f 133/207/58 134/201/59 124/178/49
f 134/202/59 135/196/60 124/177/49
f 135/197/60 136/191/61 124/176/49
f 136/192/61 137/171/62 124/64/49
f 137/172/62 122/155/47 124/189/49
s 4
f 46/283/63 47/374/64 48/370/65 49/278/66
f 47/375/64 50/367/67 51/363/68 48/82/65
f 50/368/67 52/360/69 53/356/70 51/85/68
f 52/361/69 54/353/71 55/349/72 53/87/70
f 54/354/71 56/346/73 57/342/74 55/89/72
f 56/347/73 58/339/75 59/335/76 57/91/74
f 58/340/75 60/332/77 61/328/78 59/93/76
f 60/333/77 62/325/79 63/321/80 61/95/78
f 62/326/79 64/318/81 65/314/82 63/97/80
f 64/319/81 66/311/83 67/307/84 65/99/82
f 66/312/83 68/304/85 69/300/86 67/101/84
f 68/305/85 70/297/87 71/293/88 69/103/86
f 70/298/87 72/290/89 73/286/90 71/105/88
f 72/291/89 74/281/91 75/274/92 73/107/90
f 74/282/91 46/80/63 49/279/66 75/109/92
s 5
f 16/61/93 17/377/94 47/373/95 46/284/96
s 6
f 32/272/97 31/257/98 49/277/99 48/371/100
s 5
f 17/60/94 18/376/101 50/366/102 47/81/95
s 6
f 33/271/103 32/255/97 48/372/100 51/364/104
s 5
f 18/59/101 19/369/105 52/359/106 50/84/102
s 6
f 34/270/107 33/253/103 51/365/104 53/357/108
s 5
f 19/58/105 20/362/109 54/352/110 52/86/106
s 6
f 35/269/111 34/248/107 53/358/108 55/350/112
s 5
f 20/57/109 21/355/113 56/345/114 54/88/110
s 6
f 36/268/115 35/243/111 55/351/112 57/343/116
s 5
f 21/56/113 22/348/117 58/338/118 56/90/114
s 6
f 37/267/119 36/238/115 57/344/116 59/336/120
s 5
f 22/55/117 23/341/121 60/331/122 58/92/118
s 6
f 38/266/123 37/233/119 59/337/120 61/329/124
s 5
f 23/54/121 24/334/125 62/324/126 60/94/122
s 6
f 39/265/127 38/228/123 61/330/124 63/322/128
s 5
f 24/53/125 25/327/129 64/317/130 62/96/126
s 6
f 40/264/131 39/223/127 63/323/128 65/315/132
s 5
f 25/52/129 26/320/133 66/310/134 64/98/130
s 6
f 41/263/135 40/218/131 65/316/132 67/308/136
s 5
f 26/51/133 27/313/137 68/303/138 66/100/134
s 6
f 42/262/139 41/213/135 67/309/136 69/301/140
s 5
f 27/50/137 28/306/141 70/296/142 68/102/138
s 6
f 43/261/143 42/208/139 69/302/140 71/294/144
s 5
f 28/49/141 29/299/145 72/289/146 70/104/142
s 6
f 44/260/147 43/203/143 71/295/144 73/287/148
s 5
f 29/48/145 30/292/149 74/280/150 72/106/146
s 6
f 45/259/151 44/198/147 73/288/148 75/275/152
s 5
f 30/62/149 16/378/93 46/285/96 74/108/150
s 6
f 31/273/98 45/193/151 75/276/152 49/83/99
s 7
f 93/517/153 92/389/154 94/382/155 95/512/156
f 96/507/157 93/125/153 95/513/156 97/502/158
f 98/497/159 96/129/157 97/503/158 99/492/160
f 100/487/161 98/131/159 99/493/160 101/482/162
f 102/477/163 100/133/161 101/483/162 103/472/164
f 104/467/165 102/135/163 103/473/164 105/462/166
f 106/457/167 104/137/165 105/463/166 107/452/168
f 108/447/169 106/139/167 107/453/168 109/442/170
f 110/437/171 108/141/169 109/443/170 111/432/172
f 112/427/173 110/143/171 111/433/172 113/422/174
f 114/417/175 112/145/173 113/423/174 115/412/176
f 116/407/177 114/147/175 115/413/176 117/402/178
f 118/397/179 116/149/177 117/403/178 119/392/180
f 120/385/181 118/151/179 119/393/180 121/380/182
f 92/390/154 120/153/181 121/381/182 94/127/155
s 8
f 2/2/183 1/528/184 92/388/185 93/518/186
s 2
f 76/111/32 77/523/31 95/511/187 94/383/188
s 8
f 3/3/189 2/527/183 93/519/186 96/508/190
s 2
f 77/110/31 79/516/34 97/501/191 95/128/187
s 8
f 4/4/192 3/520/189 96/509/190 98/498/193
s 2
f 79/112/34 80/506/35 99/491/194 97/130/191
s 8
f 5/5/195 4/510/192 98/499/193 100/488/196
s 2
f 80/113/35 81/496/36 101/481/197 99/132/194
s 8
f 6/6/198 5/500/195 100/489/196 102/478/199
s 2
f 81/114/36 82/486/37 103/471/200 101/134/197
s 8
f 7/7/201 6/490/198 102/479/199 104/468/202
s 2
f 82/115/37 83/476/38 105/461/203 103/136/200
s 8
f 8/8/204 7/480/201 104/469/202 106/458/205
s 2
f 83/116/38 84/466/39 107/451/206 105/138/203
s 8
f 9/9/207 8/470/204 106/459/205 108/448/208
s 2
f 84/117/39 85/456/40 109/441/209 107/140/206
s 8
f 10/10/210 9/460/207 108/449/208 110/438/211
s 2
f 85/118/40 86/446/41 111/431/212 109/142/209
s 8
f 11/11/213 10/450/210 110/439/211 112/428/214
s 2
f 86/119/41 87/436/42 113/421/215 111/144/212
s 8
f 12/12/216 11/440/213 112/429/214 114/418/217
s 2
f 87/120/42 88/426/43 115/411/218 113/146/215
s 8
f 13/13/219 12/430/216 114/419/217 116/408/220
s 2
f 88/121/43 89/416/44 117/401/221 115/148/218
s 8
f 14/14/222 13/420/219 116/409/220 118/398/223
s 2
f 89/122/44 90/406/45 119/391/224 117/150/221
s 8
f 15/15/225 14/410/222 118/399/223 120/386/226
s 2
f 90/123/45 91/396/46 121/379/227 119/152/224
s 8
f 1/1/184 15/400/225 120/387/226 92/126/185
s 2
f 91/124/46 76/526/32 94/384/188 121/154/227
s 9
f 31/65/228 32/256/229 123/250/230 122/174/231
f 32/66/229 33/254/232 125/245/233 123/156/230
f 33/67/232 34/249/234 126/240/235 125/157/233
f 34/68/234 35/244/236 127/235/237 126/158/235
f 35/69/236 36/239/238 128/230/239 127/159/237
f 36/70/238 37/234/240 129/225/241 128/160/239
f 37/71/240 38/229/242 130/220/243 129/161/241
f 38/72/242 39/224/244 131/215/245 130/162/243
f 39/73/244 40/219/246 132/210/247 131/163/245
f 40/74/246 41/214/248 133/205/249 132/164/247
f 41/75/248 42/209/250 134/200/251 133/165/249
f 42/76/250 43/204/252 135/195/253 134/166/251
f 43/77/252 44/199/254 136/190/255 135/167/253
f 44/78/254 45/194/256 137/170/257 136/168/255
f 45/79/256 31/258/228 122/175/231 137/169/257
g default
v 0.020966 -0.894234 0.347270
v 0.020966 -0.894234 0.319177
v 0.537635 -0.894234 0.347270
v 0.537635 -0.894234 0.319177
v 0.537635 -0.677891 0.347270
v 0.537635 -0.677891 0.319177
v 0.020966 -0.677891 0.347270
v 0.020966 -0.677891 0.319177
v 0.048383 -0.894234 0.347270
v 0.048383 -0.677891 0.347270
v 0.048383 -0.677891 0.319177
v 0.048383 -0.894234 0.319177
v 0.020966 -0.783268 -0.066507
v 0.020966 -0.894234 -0.066507
v 0.048383 -0.783268 -0.066507
v 0.048383 -0.894234 -0.066507
v 0.020966 -0.783268 0.211542
v 0.020966 -0.894234 0.211542
v 0.048383 -0.894234 0.211542
v 0.048383 -0.783268 0.211542
v 0.020966 -0.677891 0.373284
v 0.020966 -0.894234 0.373284
v 0.048383 -0.894234 0.373284
v 0.048383 -0.677891 0.373284
v 0.537635 -0.894234 0.516544
v 0.537635 -0.677891 0.516544
v 0.020966 -0.731977 0.347270
v 0.020966 -0.731977 0.373284
v 0.048383 -0.731977 0.373284
v 0.537635 -0.731977 0.516544
v 0.537635 -0.731977 0.347270
v 0.537635 -0.731977 0.319177
v 0.048383 -0.731977 0.319177
v 0.048383 -0.811009 0.211542
v 0.048383 -0.811009 -0.066507
v 0.020966 -0.811009 -0.066507
v 0.020966 -0.811009 0.211542
v 0.020966 -0.731977 0.319177
v 0.537635 -0.840148 0.347270
v 0.537635 -0.840148 0.516544
v 0.048383 -0.840148 0.373284
v 0.020966 -0.840148 0.373284
v 0.020966 -0.840148 0.347270
v 0.020966 -0.840148 0.319177
v 0.020966 -0.866492 0.211542
v 0.020966 -0.866492 -0.066507
v 0.048383 -0.866492 -0.066507
v 0.048383 -0.866492 0.211542
v 0.048383 -0.840148 0.319177
v 0.537635 -0.840148 0.319177
v 0.537635 -0.731977 0.474225
v 0.537635 -0.677891 0.474225
v 0.048383 -0.677891 0.366780
v 0.020966 -0.677891 0.366780
v 0.020966 -0.731977 0.366780
v 0.020966 -0.840148 0.366780
v 0.020966 -0.894234 0.366780
v 0.048383 -0.894234 0.366780
v 0.537635 -0.894234 0.474225
v 0.537635 -0.840148 0.474225
v 0.020966 -0.677891 0.353773
v 0.048383 -0.677891 0.353773
v 0.537635 -0.677891 0.389588
v 0.537635 -0.731977 0.389588
v 0.537635 -0.840148 0.389588
v 0.537635 -0.894234 0.389588
v 0.048383 -0.894234 0.353773
v 0.020966 -0.894234 0.353773
v 0.020966 -0.840148 0.353773
v 0.020966 -0.731977 0.353773
v 0.537635 -0.840148 0.389588
v 0.537635 -0.840148 0.474225
v 0.537635 -0.731977 0.389588
v 0.537635 -0.731977 0.474225
vt 0.705535 0.335581
vt 0.717512 0.335581
vt 0.705535 0.347558
vt 0.717512 0.347558
vt 0.705535 0.359535
vt 0.717512 0.359535
vt 0.705535 0.371512
vt 0.717512 0.371512
vt 0.705535 0.383489
vt 0.717512 0.383489
vt 0.729489 0.335581
vt 0.729489 0.347558
vt 0.693559 0.335581
vt 0.693559 0.347558
vt 0.705535 0.336217
vt 0.693559 0.336217
vt 0.705535 0.370876
vt 0.717512 0.370876
vt 0.729489 0.336217
vt 0.717512 0.336217
vt 0.717512 0.335581
vt 0.729489 0.335581
vt 0.729489 0.336217
vt 0.717512 0.336217
vt 0.729489 0.335581
vt 0.717512 0.335581
vt 0.717512 0.336217
vt 0.729489 0.336217
vt 0.693559 0.335581
vt 0.705535 0.335581
vt 0.705535 0.336217
vt 0.693559 0.336217
vt 0.705535 0.347558
vt 0.693559 0.347558
vt 0.696553 0.335581
vt 0.705535 0.374506
vt 0.696553 0.335581
vt 0.696553 0.336217
vt 0.696553 0.347558
vt 0.696553 0.347558
vt 0.705535 0.356541
vt 0.717512 0.356541
vt 0.726495 0.347558
vt 0.726495 0.336217
vt 0.726495 0.336217
vt 0.726495 0.336217
vt 0.726495 0.335581
vt 0.726495 0.335581
vt 0.717512 0.374506
vt 0.726495 0.335581
vt 0.702541 0.347558
vt 0.705535 0.350552
vt 0.702541 0.347558
vt 0.702541 0.336217
vt 0.702541 0.335581
vt 0.702541 0.335581
vt 0.705535 0.380494
vt 0.717512 0.380494
vt 0.720506 0.335581
vt 0.720506 0.335581
vt 0.720506 0.335581
vt 0.720506 0.336217
vt 0.720506 0.336217
vt 0.720506 0.336217
vt 0.717512 0.350552
vt 0.720506 0.347558
vt 0.696553 0.347558
vt 0.693559 0.347558
vt 0.693559 0.336217
vt 0.693559 0.335581
vt 0.696553 0.335581
vt 0.702541 0.335581
vt 0.705535 0.335581
vt 0.705535 0.336217
vt 0.705535 0.347558
vt 0.702541 0.347558
vt 0.693559 0.335581
vt 0.693559 0.336217
vt 0.693559 0.347558
vt 0.696553 0.347558
vt 0.702541 0.347558
vt 0.705535 0.347558
vt 0.705535 0.336217
vt 0.705535 0.335581
vt 0.702541 0.335581
vt 0.696553 0.335581
vt 0.702541 0.347558
vt 0.702541 0.347558
vt 0.696553 0.347558
vt 0.696553 0.347558
vn -0.000000 -1.000000 -0.000000
vn -0.000000 -1.000000 -0.000000
vn -0.000000 -1.000000 -0.000000
vn -0.000000 -1.000000 -0.000000
vn 1.000000 -0.000000 -0.000000
vn 1.000000 -0.000000 -0.000000
vn 1.000000 -0.000000 -0.000000
vn 1.000000 -0.000000 -0.000000
vn 0.000000 1.000000 0.000000
vn 0.000000 0.986593 -0.163200
vn 0.000000 0.789885 -0.613256
vn 0.000000 1.000000 0.000000
vn -1.000000 0.000000 0.000000
vn -1.000000 0.000000 0.000000
vn -1.000000 0.000000 0.000000
vn -1.000000 0.000000 0.000000
vn 0.000000 -0.000000 -1.000000
vn 0.000000 -0.000000 -1.000000
vn 0.000000 -0.000000 -1.000000
vn 0.000000 -0.000000 -1.000000
vn -0.267196 0.000000 0.963642
vn 0.000000 0.000000 1.000000
vn 0.000000 0.000000 1.000000
vn -0.267195 0.000000 0.963642
vn -0.281016 0.000000 0.959703
vn -0.281016 0.000000 0.959703
vn 0.000000 1.000000 0.000000
vn 0.000000 1.000000 0.000000
vn 0.000000 -0.000000 -1.000000
vn 0.000000 -0.000000 -1.000000
vn 0.000000 -0.000000 -1.000000
vn 0.000000 -0.000000 -1.000000
vn -0.000000 -1.000000 -0.000000
vn -0.000000 -1.000000 -0.000000
vn -1.000000 0.000000 0.000000
vn -1.000000 0.000000 0.000000
vn 0.000000 0.964643 -0.263560
vn 0.000000 0.964643 -0.263560
vn 1.000000 -0.000002 0.000000
vn 1.000000 -0.000001 0.000000
vn 1.000000 -0.000003 0.000000
vn 1.000000 -0.000005 0.000000
vn -0.000000 -1.000000 -0.000000
vn -0.000000 -1.000000 -0.000000
vn -1.000000 0.000000 0.000000
vn -1.000000 0.000000 0.000000
vn -0.000000 -1.000000 -0.000000
vn -0.000000 -1.000000 -0.000000
vn 1.000000 -0.000002 -0.000000
vn 1.000000 -0.000005 -0.000000
vn 0.000000 1.000000 0.000000
vn 0.000000 1.000000 0.000000
vn -1.000000 0.000000 -0.000001
vn -1.000000 0.000000 -0.000002
vn -0.000000 -1.000000 -0.000000
vn -0.000000 -1.000000 -0.000000
vn 0.000000 1.000000 0.000000
vn 0.000000 1.000000 0.000000
vn -0.000000 -1.000000 -0.000000
vn 1.000000 -0.000000 -0.000000
vn 1.000000 -0.000000 -0.000000
vn 0.000000 1.000000 0.000000
vn 1.000000 -0.000000 -0.000000
vn 1.000000 -0.000000 -0.000000
vn 1.000000 -0.000000 -0.000000
vn 1.000000 -0.000000 -0.000000
vn -0.267195 0.000000 0.963642
vn -0.267196 0.000000 0.963642
vn -0.281016 0.000000 0.959703
vn -0.281016 0.000000 0.959703
vn 0.000000 0.000000 1.000000
vn 0.000000 0.000000 1.000000
vn -1.000000 -0.000000 0.000000
vn -1.000000 -0.000000 0.000000
vn -1.000000 -0.000000 -0.000002
vn -1.000000 -0.000000 -0.000001
vn -1.000000 -0.000000 0.000000
vn -1.000000 -0.000000 0.000000
vn -1.000000 0.000000 0.000000
vn -1.000000 0.000000 0.000000
vn -1.000000 0.000000 0.000000
vn -1.000000 0.000000 0.000000
vn 0.000000 -0.000000 -1.000000
vn 0.000000 -0.000000 -1.000000
vn 0.000000 -0.000000 -1.000000
vn 0.000000 -0.000000 -1.000000
vn 1.000000 -0.000000 -0.000000
vn 1.000000 -0.000000 -0.000000
vn 1.000000 -0.000000 -0.000000
vn 1.000000 -0.000000 -0.000000
vn 1.000000 -0.000000 -0.000000
vn 1.000000 -0.000000 -0.000000
vn 0.000000 -0.000000 -1.000000
vn 0.000000 -0.000000 -1.000000
vn 0.000000 -0.000000 -1.000000
vn 0.000000 -0.000000 -1.000000
vn 1.000000 -0.000000 -0.000000
vn 1.000000 -0.000000 -0.000000
vn 0.000000 1.000000 0.000000
vn 0.000000 1.000000 0.000000
vn 0.000000 1.000000 0.000000
vn 0.000000 1.000000 0.000000
vn 0.000000 1.000000 0.000000
vn 0.000000 1.000000 0.000000
vn 1.000000 -0.000000 -0.000000
vn 1.000000 -0.000000 -0.000000
vn 1.000000 -0.000000 -0.000000
vn 1.000000 -0.000000 -0.000000
vn 1.000000 -0.000000 -0.000000
vn 1.000000 -0.000000 -0.000000
vn 1.000000 -0.000000 -0.000000
vn 1.000000 -0.000000 -0.000000
vn -0.000000 -1.000000 -0.000000
vn -0.000000 -1.000000 -0.000000
vn -0.000000 -1.000000 -0.000000
vn -0.000000 -1.000000 -0.000000
vn -0.000000 -1.000000 -0.000000
vn -0.000000 -1.000000 -0.000000
vn -1.000000 0.000000 0.000005
vn -1.000000 0.000000 0.000002
vn -1.000000 0.000000 0.000001
vn -1.000000 0.000000 0.000003
vn -1.000000 -0.000000 0.000002
vn -1.000000 -0.000000 0.000005
vn -1.000000 -0.000000 0.000001
vn -1.000000 -0.000000 0.000003
vn 1.000000 -0.000000 -0.000000
vn 1.000000 -0.000000 -0.000000
vn 1.000000 -0.000000 -0.000000
vn 1.000000 -0.000000 -0.000000
vn 0.000000 -0.000000 -0.000000
vn 0.000000 -0.000000 -0.000000
vn 0.000000 -0.000000 -0.000000
vn 0.000000 -0.000000 -0.000000
vn 0.000000 -0.000000 -0.000000
vn 0.000000 -0.000000 -0.000000
vn 0.000000 -0.000000 -0.000000
vn 0.000000 -0.000000 -0.000000
vn 0.000000 -0.000000 -0.000000
vn 0.000000 -0.000000 -0.000000
vn 0.000000 -0.000000 -0.000000
vn 0.000000 -0.000000 -0.000000
vn 0.000000 -0.000000 -0.000000
vn 0.000000 -0.000000 -0.000000
vn 0.000000 -0.000000 -0.000000
vn 0.000000 -0.000000 -0.000000
s 1
g Coxa SILVER2 CoxaSupport
usemtl lambert2SG
f 138/543/258 139/544/259 149/562/260 146/557/261
s 2
f 140/545/262 141/546/263 187/607/264 176/594/265
s 3
f 147/559/266 148/560/267 145/550/268 144/549/269
s 4
f 180/599/270 181/600/271 139/552/272 138/551/273
s 5
f 151/563/274 183/603/275 184/604/276 153/566/277
s 6
f 178/596/278 179/597/279 159/572/280 160/573/281
f 177/595/282 178/596/278 160/573/281 162/575/283
s 3
f 142/547/284 143/548/285 148/560/267 147/559/266
s 7
f 149/562/286 186/606/287 187/608/288 141/546/289
s 1
f 146/557/261 149/562/260 141/546/290 140/545/291
s 4
f 139/544/272 181/601/271 182/602/292 155/568/293
s 3
f 145/553/268 148/561/267 157/570/294 154/567/295
s 8
f 185/605/296 186/606/297 149/562/298 156/569/299
s 1
f 149/562/260 139/544/259 155/568/300 156/569/301
s 4
f 155/568/293 182/602/292 183/603/302 151/563/303
s 1
f 156/569/301 155/568/300 151/563/304 153/566/305
s 8
f 184/604/306 185/605/296 156/569/299 153/566/307
s 3
f 154/567/295 157/570/294 152/565/308 150/564/309
s 4
f 205/626/310 206/627/311 180/598/270 138/543/273
s 1
f 138/543/258 146/557/261 204/625/312 205/626/313
s 3
f 147/558/266 144/555/269 198/619/314 199/620/315
s 1
f 146/557/261 140/545/291 203/624/316 204/625/312
s 2
f 140/545/262 176/593/265 202/623/317 203/624/318
s 3
f 142/556/284 147/558/266 199/620/315 200/621/319
s 2
f 200/621/320 201/622/321 168/582/322 142/556/323
s 6
f 161/574/324 166/580/325 167/581/326 163/576/327
f 158/571/328 165/579/329 166/580/325 161/574/324
s 4
f 144/555/330 164/577/331 207/628/332 198/619/333
f 144/549/330 145/550/334 175/591/335 164/578/331
f 174/590/336 175/592/335 145/553/334 154/567/337
f 173/589/338 174/590/336 154/567/337 150/564/339
s 5
f 172/588/340 173/589/341 150/564/342 152/565/343
s 8
f 157/570/344 171/587/345 172/588/346 152/565/347
f 148/561/348 170/586/349 171/587/345 157/570/344
s 7
f 169/585/350 170/586/351 148/561/352 143/554/353
s 2
f 168/583/322 169/584/354 143/548/355 142/547/323
f 201/622/321 202/623/317 176/593/265 168/582/322
s 6
f 166/580/325 178/596/278 177/595/282 167/581/326
f 179/597/279 178/596/278 166/580/325 165/579/329
s 4
f 180/598/270 206/627/311 207/628/332 164/577/331
f 181/600/271 180/599/270 164/578/331 175/591/335
f 182/602/292 181/601/271 175/592/335 174/590/336
f 183/603/302 182/602/292 174/590/336 173/589/338
s 5
f 184/604/276 183/603/275 173/589/341 172/588/340
s 8
f 171/587/345 185/605/296 184/604/306 172/588/346
f 186/606/297 185/605/296 171/587/345 170/586/349
s 7
f 169/585/350 187/608/288 186/606/287 170/586/351
s 2
f 168/583/322 176/594/265 187/607/264 169/584/354
s 3
f 190/611/356 191/612/357 158/571/358 161/574/359
f 189/610/360 190/611/356 161/574/359 163/576/361
s 2
f 167/581/362 188/609/363 189/610/364 163/576/365
f 167/581/362 177/595/366 197/618/367 188/609/363
f 196/617/368 197/618/367 177/595/366 162/575/369
s 1
f 195/616/370 196/617/371 162/575/372 160/573/373
f 194/615/374 195/616/370 160/573/373 159/572/375
s 4
f 179/597/376 193/614/377 194/615/378 159/572/379
f 192/613/380 193/614/377 179/597/376 165/579/381
f 191/612/382 192/613/380 165/579/381 158/571/383
s 3
f 190/611/356 199/620/315 198/619/314 191/612/357
f 189/610/360 200/621/319 199/620/315 190/611/356
s 2
f 201/622/321 200/621/320 189/610/364 188/609/363
s off
f 209/629/384 208/630/385 210/631/386 211/632/387
s 2
f 196/617/368 203/624/318 202/623/317 197/618/367
s 1
f 195/616/370 204/625/312 203/624/316 196/617/371
f 194/615/374 205/626/313 204/625/312 195/616/370
s 4
f 206/627/311 205/626/310 194/615/378 193/614/377
f 192/613/380 207/628/332 206/627/311 193/614/377
f 191/612/382 198/619/333 207/628/332 192/613/380
s off
f 197/618/388 202/623/389 208/630/390 209/629/391
f 202/623/392 201/622/393 210/631/394 208/630/395
f 201/622/396 188/609/397 211/632/398 210/631/399
f 188/609/400 197/618/401 209/629/402 211/632/403
