# This file uses centimeters as units for non-parametric coordinates.

mtllib Coxa_Mirrored.mtl
g default
v 0.210032 -0.730294 0.094437
v 0.153284 -0.730294 0.172545
v 0.069673 -0.730294 0.220818
v -0.026345 -0.730294 0.230910
v -0.118167 -0.730294 0.201076
v -0.189915 -0.730294 0.136473
v -0.229184 -0.730294 0.048274
v -0.229184 -0.730294 -0.048273
v -0.189915 -0.730294 -0.136473
v -0.118167 -0.730294 -0.201075
v -0.026345 -0.730294 -0.230910
v 0.069672 -0.730294 -0.220818
v 0.153284 -0.730294 -0.172544
v 0.210032 -0.730294 -0.094437
v 0.230106 -0.730294 -0.000000
v 0.210032 -0.131041 0.094437
v 0.153284 -0.131041 0.172545
v 0.069673 -0.131041 0.220818
v -0.026345 -0.131041 0.230910
v -0.118167 -0.131041 0.201076
v -0.189915 -0.131041 0.136473
v -0.229184 -0.131041 0.048274
v -0.229184 -0.131041 -0.048273
v -0.189915 -0.131041 -0.136473
v -0.118167 -0.131041 -0.201075
v -0.026345 -0.131041 -0.230910
v 0.069672 -0.131041 -0.220818
v 0.153284 -0.131041 -0.172544
v 0.210032 -0.131041 -0.094437
v 0.230106 -0.131041 -0.000000
v 0.045875 -0.094209 0.020464
v 0.033577 -0.094209 0.037390
v 0.015459 -0.094209 0.047851
v -0.005348 -0.094209 0.050037
v -0.025245 -0.094209 0.043572
v -0.040793 -0.094209 0.029573
v -0.049302 -0.094209 0.010461
v -0.049302 -0.094209 -0.010461
v -0.040793 -0.094209 -0.029573
v -0.025245 -0.094209 -0.043573
v -0.005348 -0.094209 -0.050037
v 0.015459 -0.094209 -0.047851
v 0.033577 -0.094209 -0.037390
v 0.045875 -0.094209 -0.020464
v 0.050225 -0.094209 0.000000
v 0.221017 -0.131041 0.099367
v 0.161306 -0.131041 0.181552
v 0.161306 -0.094209 0.181552
v 0.221017 -0.094209 0.099367
v 0.073330 -0.131041 0.232345
v 0.073330 -0.094209 0.232345
v -0.027700 -0.131041 0.242964
v -0.027700 -0.094209 0.242964
v -0.124315 -0.131041 0.211572
v -0.124315 -0.094209 0.211572
v -0.199808 -0.131041 0.143597
v -0.199808 -0.094209 0.143597
v -0.241127 -0.131041 0.050794
v -0.241127 -0.094209 0.050794
v -0.241127 -0.131041 -0.050793
v -0.241127 -0.094209 -0.050793
v -0.199808 -0.131041 -0.143597
v -0.199808 -0.094209 -0.143597
v -0.124315 -0.131041 -0.211572
v -0.124315 -0.094209 -0.211572
v -0.027700 -0.131041 -0.242964
v -0.027700 -0.094209 -0.242964
v 0.073330 -0.131041 -0.232345
v 0.073330 -0.094209 -0.232345
v 0.161306 -0.131041 -0.181552
v 0.161306 -0.094209 -0.181552
v 0.221017 -0.131041 -0.099367
v 0.221017 -0.094209 -0.099367
v 0.242139 -0.131041 -0.000000
v 0.242139 -0.094209 0.000000
v 0.210032 -0.745909 0.094437
v 0.153284 -0.745909 0.172545
v -0.002076 -0.745909 -0.000000
v 0.069673 -0.745909 0.220818
v -0.026345 -0.745909 0.230910
v -0.118167 -0.745909 0.201076
v -0.189915 -0.745909 0.136473
v -0.229184 -0.745909 0.048274
v -0.229184 -0.745909 -0.048273
v -0.189915 -0.745909 -0.136473
v -0.118167 -0.745909 -0.201075
v -0.026345 -0.745909 -0.230910
v 0.069672 -0.745909 -0.220818
v 0.153284 -0.745909 -0.172544
v 0.210032 -0.745909 -0.094437
v 0.230106 -0.745909 -0.000000
v 0.224437 -0.730294 0.100850
v 0.163834 -0.730294 0.184262
v 0.224437 -0.745909 0.100850
v 0.163834 -0.745909 0.184262
v 0.074545 -0.730294 0.235813
v 0.074545 -0.745909 0.235813
v -0.027993 -0.730294 0.246591
v -0.027993 -0.745909 0.246591
v -0.126050 -0.730294 0.214731
v -0.126050 -0.745909 0.214731
v -0.202671 -0.730294 0.145741
v -0.202671 -0.745909 0.145741
v -0.244607 -0.730294 0.051552
v -0.244607 -0.745909 0.051552
v -0.244607 -0.730294 -0.051552
v -0.244607 -0.745909 -0.051552
v -0.202671 -0.730294 -0.145740
v -0.202671 -0.745909 -0.145740
v -0.126051 -0.730294 -0.214730
v -0.126051 -0.745909 -0.214730
v -0.027994 -0.730294 -0.246591
v -0.027994 -0.745909 -0.246591
v 0.074544 -0.730294 -0.235814
v 0.074544 -0.745909 -0.235814
v 0.163834 -0.730294 -0.184262
v 0.163834 -0.745909 -0.184262
v 0.224437 -0.730294 -0.100850
v 0.224437 -0.745909 -0.100850
v 0.245874 -0.730294 0.000000
v 0.245874 -0.745909 -0.000000
v 0.045875 0.000000 0.020464
v 0.033577 0.000000 0.037390
v -0.000000 0.000000 -0.000000
v 0.015459 0.000000 0.047851
v -0.005348 0.000000 0.050037
v -0.025245 0.000000 0.043572
v -0.040793 0.000000 0.029573
v -0.049302 0.000000 0.010461
v -0.049302 0.000000 -0.010461
v -0.040793 0.000000 -0.029573
v -0.025245 0.000000 -0.043572
v -0.005348 0.000000 -0.050037
v 0.015459 0.000000 -0.047851
v 0.033577 0.000000 -0.037390
v 0.045875 0.000000 -0.020464
v 0.050225 0.000000 0.000000
vt 0.242230 0.367009
vt 0.242230 0.490874
vt 0.247735 0.490874
vt 0.247735 0.367009
vt 0.253240 0.490874
vt 0.253240 0.367009
vt 0.258745 0.490874
vt 0.258745 0.367009
vt 0.264251 0.490874
vt 0.264251 0.367009
vt 0.269756 0.490874
vt 0.269756 0.367009
vt 0.275261 0.490874
vt 0.275261 0.367009
vt 0.280766 0.490874
vt 0.280766 0.367009
vt 0.286271 0.490874
vt 0.286271 0.367009
vt 0.291776 0.490874
vt 0.291776 0.367009
vt 0.297281 0.490874
vt 0.297281 0.367009
vt 0.302786 0.490874
vt 0.302786 0.367009
vt 0.308292 0.490874
vt 0.308292 0.367009
vt 0.313797 0.490874
vt 0.313797 0.367009
vt 0.319302 0.490874
vt 0.319302 0.367009
vt 0.324807 0.490874
vt 0.324807 0.367009
vt 0.557948 0.766079
vt 0.532693 0.794127
vt 0.567173 0.778776
vt 0.544356 0.758231
vt 0.532693 0.794127
vt 0.557948 0.766079
vt 0.528748 0.756591
vt 0.532693 0.794127
vt 0.544356 0.758231
vt 0.513822 0.761441
vt 0.532693 0.794127
vt 0.528748 0.756591
vt 0.502158 0.771942
vt 0.532693 0.794127
vt 0.513822 0.761441
vt 0.495775 0.786280
vt 0.532693 0.794127
vt 0.502158 0.771942
vt 0.495775 0.801974
vt 0.532693 0.794127
vt 0.495775 0.786280
vt 0.502158 0.816311
vt 0.532693 0.794127
vt 0.495775 0.801974
vt 0.513822 0.826813
vt 0.532693 0.794127
vt 0.502158 0.816311
vt 0.528748 0.831663
vt 0.532693 0.794127
vt 0.513822 0.826813
vt 0.544356 0.830022
vt 0.532693 0.794127
vt 0.528748 0.831663
vt 0.557948 0.822175
vt 0.532693 0.794127
vt 0.544356 0.830022
vt 0.567173 0.809478
vt 0.532693 0.794127
vt 0.557948 0.822175
vt 0.570436 0.794127
vt 0.532693 0.794127
vt 0.567173 0.809478
vt 0.567173 0.778776
vt 0.532693 0.794127
vt 0.570436 0.794127
vt 0.736780 0.430707
vt 0.699997 0.414330
vt 0.726939 0.444252
vt 0.726939 0.444252
vt 0.699997 0.414330
vt 0.712439 0.452624
vt 0.712439 0.452624
vt 0.699997 0.414330
vt 0.695788 0.454374
vt 0.695788 0.454374
vt 0.699997 0.414330
vt 0.679865 0.449200
vt 0.679865 0.449200
vt 0.699997 0.414330
vt 0.667422 0.437997
vt 0.667422 0.437997
vt 0.699997 0.414330
vt 0.660612 0.422702
vt 0.660612 0.422702
vt 0.699997 0.414330
vt 0.660612 0.405959
vt 0.660612 0.405959
vt 0.699997 0.414330
vt 0.667422 0.390664
vt 0.667422 0.390664
vt 0.699997 0.414330
vt 0.679865 0.379461
vt 0.679865 0.379461
vt 0.699997 0.414330
vt 0.695788 0.374287
vt 0.695788 0.374287
vt 0.699997 0.414330
vt 0.712439 0.376037
vt 0.712439 0.376037
vt 0.699997 0.414330
vt 0.726939 0.384408
vt 0.726939 0.384408
vt 0.699997 0.414330
vt 0.736780 0.397954
vt 0.736780 0.397954
vt 0.699997 0.414330
vt 0.740261 0.414330
vt 0.740261 0.414330
vt 0.699997 0.414330
vt 0.736780 0.430707
vt 0.534319 0.697941
vt 0.534319 0.697941
vt 0.524478 0.711486
vt 0.524478 0.711486
vt 0.524478 0.711486
vt 0.524478 0.711486
vt 0.509979 0.719857
vt 0.509979 0.719857
vt 0.509979 0.719857
vt 0.509979 0.719857
vt 0.493328 0.721607
vt 0.493328 0.721607
vt 0.493328 0.721607
vt 0.493328 0.721607
vt 0.477404 0.716433
vt 0.477404 0.716433
vt 0.477404 0.716433
vt 0.477404 0.716433
vt 0.464962 0.705230
vt 0.464962 0.705230
vt 0.464962 0.705230
vt 0.464962 0.705230
vt 0.458152 0.689935
vt 0.458152 0.689935
vt 0.458152 0.689935
vt 0.458152 0.689935
vt 0.458152 0.673192
vt 0.458152 0.673192
vt 0.458152 0.673192
vt 0.458152 0.673192
vt 0.464962 0.657897
vt 0.464962 0.657897
vt 0.464962 0.657897
vt 0.464962 0.657897
vt 0.477404 0.646694
vt 0.477404 0.646694
vt 0.477404 0.646694
vt 0.477404 0.646694
vt 0.493328 0.641520
vt 0.493328 0.641520
vt 0.493328 0.641520
vt 0.493328 0.641520
vt 0.509979 0.643270
vt 0.509979 0.643270
vt 0.509979 0.643270
vt 0.509979 0.643270
vt 0.524478 0.651642
vt 0.524478 0.651642
vt 0.524478 0.651642
vt 0.524478 0.651642
vt 0.534319 0.665187
vt 0.534319 0.665187
vt 0.534319 0.665187
vt 0.534319 0.665187
vt 0.537801 0.681564
vt 0.537801 0.681564
vt 0.537801 0.681564
vt 0.537801 0.681564
vt 0.534319 0.697941
vt 0.534319 0.697941
vt 0.534319 0.697941
vt 0.534319 0.697941
vt 0.524478 0.711486
vt 0.524478 0.711486
vt 0.525330 0.713615
vt 0.524478 0.711486
vt 0.534319 0.697941
vt 0.535171 0.700070
vt 0.524478 0.711486
vt 0.524478 0.711486
vt 0.509979 0.719857
vt 0.509979 0.719857
vt 0.510830 0.721986
vt 0.509979 0.719857
vt 0.524478 0.711486
vt 0.525330 0.713615
vt 0.509979 0.719857
vt 0.509979 0.719857
vt 0.493328 0.721607
vt 0.493328 0.721607
vt 0.494179 0.723736
vt 0.493328 0.721607
vt 0.509979 0.719857
vt 0.510830 0.721986
vt 0.493328 0.721607
vt 0.493328 0.721607
vt 0.477404 0.716433
vt 0.477404 0.716433
vt 0.478256 0.718563
vt 0.477404 0.716433
vt 0.493328 0.721607
vt 0.494179 0.723736
vt 0.477404 0.716433
vt 0.477404 0.716433
vt 0.464962 0.705230
vt 0.464962 0.705230
vt 0.465814 0.707360
vt 0.464962 0.705230
vt 0.477404 0.716433
vt 0.478256 0.718563
vt 0.464962 0.705230
vt 0.464962 0.705230
vt 0.458152 0.689935
vt 0.458152 0.689935
vt 0.459004 0.692064
vt 0.458152 0.689935
vt 0.464962 0.705230
vt 0.465814 0.707360
vt 0.458152 0.689935
vt 0.458152 0.689935
vt 0.458152 0.673192
vt 0.458152 0.673192
vt 0.459004 0.675322
vt 0.458152 0.673192
vt 0.458152 0.689935
vt 0.459004 0.692064
vt 0.458152 0.673192
vt 0.458152 0.673192
vt 0.464962 0.657897
vt 0.464962 0.657897
vt 0.465814 0.660026
vt 0.464962 0.657897
vt 0.458152 0.673192
vt 0.459004 0.675322
vt 0.464962 0.657897
vt 0.464962 0.657897
vt 0.477404 0.646694
vt 0.477404 0.646694
vt 0.478256 0.648823
vt 0.477404 0.646694
vt 0.464962 0.657897
vt 0.465814 0.660026
vt 0.477404 0.646694
vt 0.477404 0.646694
vt 0.493328 0.641520
vt 0.493328 0.641520
vt 0.494179 0.643649
vt 0.493328 0.641520
vt 0.477404 0.646694
vt 0.478256 0.648823
vt 0.493328 0.641520
vt 0.493328 0.641520
vt 0.509979 0.643270
vt 0.509979 0.643270
vt 0.510830 0.645399
vt 0.509979 0.643270
vt 0.493328 0.641520
vt 0.494179 0.643649
vt 0.509979 0.643270
vt 0.509979 0.643270
vt 0.524478 0.651642
vt 0.524478 0.651642
vt 0.525330 0.653771
vt 0.524478 0.651642
vt 0.509979 0.643270
vt 0.510830 0.645399
vt 0.524478 0.651642
vt 0.524478 0.651642
vt 0.534319 0.665187
vt 0.534319 0.665187
vt 0.535171 0.667316
vt 0.534319 0.665187
vt 0.524478 0.651642
vt 0.525330 0.653771
vt 0.534319 0.665187
vt 0.534319 0.665187
vt 0.537801 0.681564
vt 0.537801 0.681564
vt 0.538652 0.683693
vt 0.537801 0.681564
vt 0.534319 0.665187
vt 0.535171 0.667316
vt 0.537801 0.681564
vt 0.537801 0.681564
vt 0.534319 0.697941
vt 0.534319 0.697941
vt 0.535171 0.700070
vt 0.534319 0.697941
vt 0.537801 0.681564
vt 0.538652 0.683693
vt 0.557948 0.766079
vt 0.557948 0.766079
vt 0.567173 0.778776
vt 0.567173 0.778776
vt 0.544356 0.758231
vt 0.544356 0.758231
vt 0.557948 0.766079
vt 0.557948 0.766079
vt 0.504911 0.572081
vt 0.504911 0.572081
vt 0.569528 0.578872
vt 0.569528 0.578872
vt 0.513822 0.761441
vt 0.513822 0.761441
vt 0.528748 0.756591
vt 0.528748 0.756591
vt 0.502158 0.771942
vt 0.502158 0.771942
vt 0.513822 0.761441
vt 0.513822 0.761441
vt 0.495775 0.786280
vt 0.495775 0.786280
vt 0.502158 0.771942
vt 0.502158 0.771942
vt 0.495775 0.801974
vt 0.495775 0.801974
vt 0.495775 0.786280
vt 0.495775 0.786280
vt 0.502158 0.816311
vt 0.502158 0.816311
vt 0.495775 0.801974
vt 0.495775 0.801974
vt 0.513822 0.826813
vt 0.513822 0.826813
vt 0.502158 0.816311
vt 0.502158 0.816311
vt 0.528748 0.831663
vt 0.528748 0.831663
vt 0.513822 0.826813
vt 0.513822 0.826813
vt 0.544356 0.830022
vt 0.544356 0.830022
vt 0.528748 0.831663
vt 0.528748 0.831663
vt 0.557948 0.822175
vt 0.557948 0.822175
vt 0.544356 0.830022
vt 0.544356 0.830022
vt 0.567173 0.809478
vt 0.567173 0.809478
vt 0.557948 0.822175
vt 0.557948 0.822175
vt 0.570436 0.794127
vt 0.570436 0.794127
vt 0.567173 0.809478
vt 0.567173 0.809478
vt 0.567173 0.778776
vt 0.567173 0.778776
vt 0.570436 0.794127
vt 0.570436 0.794127
vt 0.557948 0.766079
vt 0.557948 0.766079
vt 0.567173 0.778776
vt 0.567173 0.778776
vt 0.567173 0.778776
vt 0.567173 0.778776
vt 0.557948 0.766079
vt 0.557948 0.766079
vt 0.544356 0.758231
vt 0.544356 0.758231
vt 0.557948 0.766079
vt 0.557948 0.766079
vt 0.557948 0.766079
vt 0.557948 0.766079
vt 0.544356 0.758231
vt 0.544356 0.758231
vt 0.504911 0.572081
vt 0.504911 0.572081
vt 0.569528 0.578872
vt 0.569528 0.578872
vt 0.569528 0.578872
vt 0.569528 0.578872
vt 0.504911 0.572081
vt 0.504911 0.572081
vt 0.513822 0.761441
vt 0.513822 0.761441
vt 0.528748 0.756591
vt 0.528748 0.756591
vt 0.528748 0.756591
vt 0.528748 0.756591
vt 0.513822 0.761441
vt 0.513822 0.761441
vt 0.502158 0.771942
vt 0.502158 0.771942
vt 0.513822 0.761441
vt 0.513822 0.761441
vt 0.513822 0.761441
vt 0.513822 0.761441
vt 0.502158 0.771942
vt 0.502158 0.771942
vt 0.495775 0.786280
vt 0.495775 0.786280
vt 0.502158 0.771942
vt 0.502158 0.771942
vt 0.502158 0.771942
vt 0.502158 0.771942
vt 0.495775 0.786280
vt 0.495775 0.786280
vt 0.495775 0.801974
vt 0.495775 0.801974
vt 0.495775 0.786280
vt 0.495775 0.786280
vt 0.495775 0.786280
vt 0.495775 0.786280
vt 0.495775 0.801974
vt 0.495775 0.801974
vt 0.502158 0.816311
vt 0.502158 0.816311
vt 0.495775 0.801974
vt 0.495775 0.801974
vt 0.495775 0.801974
vt 0.495775 0.801974
vt 0.502158 0.816311
vt 0.502158 0.816311
vt 0.513822 0.826813
vt 0.513822 0.826813
vt 0.502158 0.816311
vt 0.502158 0.816311
vt 0.502158 0.816311
vt 0.502158 0.816311
vt 0.513822 0.826813
vt 0.513822 0.826813
vt 0.528748 0.831663
vt 0.528748 0.831663
vt 0.513822 0.826813
vt 0.513822 0.826813
vt 0.513822 0.826813
vt 0.513822 0.826813
vt 0.528748 0.831663
vt 0.528748 0.831663
vt 0.544356 0.830022
vt 0.544356 0.830022
vt 0.528748 0.831663
vt 0.528748 0.831663
vt 0.528748 0.831663
vt 0.528748 0.831663
vt 0.544356 0.830022
vt 0.544356 0.830022
vt 0.557948 0.822175
vt 0.557948 0.822175
vt 0.544356 0.830022
vt 0.544356 0.830022
vt 0.544356 0.830022
vt 0.544356 0.830022
vt 0.557948 0.822175
vt 0.557948 0.822175
vt 0.567173 0.809478
vt 0.567173 0.809478
vt 0.557948 0.822175
vt 0.557948 0.822175
vt 0.557948 0.822175
vt 0.557948 0.822175
vt 0.567173 0.809478
vt 0.567173 0.809478
vt 0.570436 0.794127
vt 0.570436 0.794127
vt 0.567173 0.809478
vt 0.567173 0.809478
vt 0.567173 0.809478
vt 0.567173 0.809478
vt 0.570436 0.794127
vt 0.570436 0.794127
vt 0.567173 0.778776
vt 0.567173 0.778776
vt 0.570436 0.794127
vt 0.570436 0.794127
vt 0.570436 0.794127
vt 0.570436 0.794127
vt 0.567173 0.778776
vt 0.567173 0.778776
vt 0.736780 0.430707
vt 0.736780 0.430707
vt 0.726939 0.444252
vt 0.726939 0.444252
vt 0.726939 0.444252
vt 0.726939 0.444252
vt 0.712439 0.452624
vt 0.712439 0.452624
vt 0.712439 0.452624
vt 0.712439 0.452624
vt 0.695788 0.454374
vt 0.695788 0.454374
vt 0.695788 0.454374
vt 0.695788 0.454374
vt 0.679865 0.449200
vt 0.679865 0.449200
vt 0.679865 0.449200
vt 0.679865 0.449200
vt 0.667422 0.437997
vt 0.667422 0.437997
vt 0.667422 0.437997
vt 0.667422 0.437997
vt 0.660612 0.422702
vt 0.660612 0.422702
vt 0.660612 0.422702
vt 0.660612 0.422702
vt 0.660612 0.405959
vt 0.660612 0.405959
vt 0.660612 0.405959
vt 0.660612 0.405959
vt 0.667422 0.390664
vt 0.667422 0.390664
vt 0.667422 0.390664
vt 0.667422 0.390664
vt 0.679865 0.379461
vt 0.679865 0.379461
vt 0.679865 0.379461
vt 0.679865 0.379461
vt 0.695788 0.374287
vt 0.695788 0.374287
vt 0.695788 0.374287
vt 0.695788 0.374287
vt 0.712439 0.376037
vt 0.712439 0.376037
vt 0.712439 0.376037
vt 0.712439 0.376037
vt 0.726939 0.384408
vt 0.726939 0.384408
vt 0.726939 0.384408
vt 0.726939 0.384408
vt 0.736780 0.397954
vt 0.736780 0.397954
vt 0.736780 0.397954
vt 0.736780 0.397954
vt 0.740261 0.414330
vt 0.740261 0.414330
vt 0.740261 0.414330
vt 0.740261 0.414330
vt 0.736780 0.430707
vt 0.736780 0.430707
vn 0.913544 0.000000 0.406739
vn 0.913544 0.000000 0.406739
vn 0.669131 0.000000 0.743145
vn 0.669131 0.000000 0.743145
vn 0.309017 0.000000 0.951056
vn 0.309017 0.000000 0.951056
vn -0.104527 0.000000 0.994522
vn -0.104527 0.000000 0.994522
vn -0.499999 0.000000 0.866026
vn -0.499999 0.000000 0.866026
vn -0.809016 0.000000 0.587786
vn -0.809016 0.000000 0.587786
vn -0.978148 0.000000 0.207911
vn -0.978148 0.000000 0.207911
vn -0.978148 0.000000 -0.207911
vn -0.978148 0.000000 -0.207911
vn -0.809019 0.000000 -0.587783
vn -0.809019 0.000000 -0.587783
vn -0.499999 0.000000 -0.866026
vn -0.499999 0.000000 -0.866026
vn -0.104529 0.000000 -0.994522
vn -0.104529 0.000000 -0.994522
vn 0.309018 0.000000 -0.951056
vn 0.309018 0.000000 -0.951056
vn 0.669132 0.000000 -0.743143
vn 0.669132 0.000000 -0.743143
vn 0.913544 0.000000 -0.406740
vn 0.913544 0.000000 -0.406740
vn 1.000000 0.000000 0.000001
vn 1.000000 0.000000 0.000001
vn 0.000000 -1.000000 -0.000000
vn 0.000000 -1.000000 -0.000000
vn 0.000000 -1.000000 -0.000000
vn 0.000000 -1.000000 0.000000
vn 0.000000 -1.000000 0.000000
vn 0.000000 -1.000000 0.000000
vn 0.000000 -1.000000 -0.000000
vn 0.000000 -1.000000 -0.000000
vn 0.000000 -1.000000 0.000000
vn 0.000000 -1.000000 0.000000
vn 0.000000 -1.000000 -0.000000
vn 0.000000 -1.000000 -0.000000
vn 0.000000 -1.000000 -0.000000
vn 0.000000 -1.000000 -0.000000
vn 0.000000 -1.000000 0.000000
vn 0.000000 -1.000000 0.000000
vn 0.000000 1.000000 0.000001
vn 0.000000 1.000000 -0.000000
vn 0.000000 1.000000 -0.000000
vn 0.000000 1.000000 -0.000000
vn 0.000000 1.000000 -0.000001
vn 0.000000 1.000000 -0.000001
vn 0.000000 1.000000 0.000001
vn 0.000000 1.000000 0.000001
vn 0.000000 1.000000 -0.000001
vn 0.000000 1.000000 -0.000001
vn 0.000000 1.000000 0.000001
vn 0.000000 1.000000 0.000001
vn 0.000000 1.000000 0.000000
vn 0.000000 1.000000 0.000000
vn 0.000000 1.000000 -0.000001
vn 0.000000 1.000000 0.000000
vn 0.913545 -0.000001 0.406738
vn 0.913545 -0.000001 0.406738
vn 0.669129 0.000000 0.743146
vn 0.669129 0.000000 0.743146
vn 0.309017 0.000000 0.951057
vn 0.309017 0.000000 0.951057
vn -0.104526 0.000000 0.994522
vn -0.104526 0.000000 0.994522
vn -0.499999 0.000000 0.866026
vn -0.499999 0.000000 0.866026
vn -0.809016 0.000000 0.587786
vn -0.809016 0.000000 0.587786
vn -0.978148 0.000000 0.207911
vn -0.978148 0.000000 0.207911
vn -0.978148 0.000000 -0.207911
vn -0.978148 0.000000 -0.207911
vn -0.809017 0.000000 -0.587786
vn -0.809017 0.000000 -0.587786
vn -0.500001 0.000000 -0.866025
vn -0.500001 0.000000 -0.866025
vn -0.104528 0.000000 -0.994522
vn -0.104528 0.000000 -0.994522
vn 0.309018 0.000000 -0.951056
vn 0.309018 0.000000 -0.951056
vn 0.669129 0.000000 -0.743146
vn 0.669129 0.000000 -0.743146
vn 0.913545 0.000000 -0.406738
vn 0.913545 0.000000 -0.406738
vn 1.000000 -0.000000 0.000003
vn 1.000000 -0.000000 -0.000001
vn 0.000000 -1.000000 0.000000
vn 0.000000 -1.000000 0.000000
vn 0.000000 -1.000000 0.000000
vn 0.000000 -1.000000 0.000000
vn 0.000000 1.000000 0.000000
vn 0.000000 1.000000 0.000000
vn 0.000000 1.000000 0.000000
vn 0.000000 1.000000 0.000000
vn 0.000000 -1.000000 0.000001
vn 0.000000 -1.000000 0.000001
vn 0.000000 1.000000 0.000000
vn 0.000000 1.000000 0.000000
vn 0.000000 -1.000000 0.000001
vn 0.000000 -1.000000 0.000001
vn 0.000000 1.000000 -0.000000
vn 0.000000 1.000000 -0.000000
vn 0.000000 -1.000000 0.000000
vn 0.000000 -1.000000 0.000000
vn 0.000000 1.000000 0.000000
vn 0.000000 1.000000 0.000000
vn 0.000000 -1.000000 0.000000
vn 0.000000 -1.000000 0.000000
vn 0.000000 1.000000 0.000000
vn 0.000000 1.000000 0.000000
vn 0.000000 -1.000000 0.000000
vn 0.000000 -1.000000 0.000000
vn 0.000000 1.000000 0.000000
vn 0.000000 1.000000 0.000000
vn 0.000000 -1.000000 0.000000
vn 0.000000 -1.000000 0.000000
vn 0.000000 1.000000 0.000000
vn 0.000000 1.000000 0.000000
vn 0.000000 -1.000000 0.000000
vn 0.000000 -1.000000 0.000000
vn 0.000000 1.000000 -0.000000
vn 0.000000 1.000000 -0.000000
vn 0.000000 -1.000000 0.000000
vn 0.000000 -1.000000 0.000000
vn 0.000000 1.000000 -0.000000
vn 0.000000 1.000000 -0.000000
vn 0.000000 -1.000000 0.000000
vn 0.000000 -1.000000 0.000000
vn 0.000000 1.000000 0.000000
vn 0.000000 1.000000 0.000000
vn 0.000000 -1.000000 0.000000
vn 0.000000 -1.000000 0.000000
vn 0.000000 1.000000 0.000000
vn 0.000000 1.000000 0.000000
vn 0.000000 -1.000000 0.000001
vn 0.000000 -1.000000 0.000001
vn 0.000000 1.000000 0.000000
vn 0.000000 1.000000 0.000000
vn 0.000000 -1.000000 0.000001
vn 0.000000 -1.000000 0.000001
vn 0.000000 1.000000 -0.000000
vn 0.000000 1.000000 -0.000000
vn 0.000000 -1.000000 0.000000
vn 0.000000 -1.000000 0.000000
vn 0.000000 1.000000 -0.000000
vn 0.000000 1.000000 -0.000000
vn 0.669130 0.000000 0.743146
vn 0.669130 0.000000 0.743146
vn 0.913545 -0.000002 0.406738
vn 0.913545 -0.000002 0.406738
vn 0.309017 0.000000 0.951056
vn 0.309017 0.000000 0.951056
vn -0.104526 0.000000 0.994522
vn -0.104526 0.000000 0.994522
vn -0.499999 0.000000 0.866026
vn -0.499999 0.000000 0.866026
vn -0.809016 0.000000 0.587786
vn -0.809016 0.000000 0.587786
vn -0.978148 0.000000 0.207911
vn -0.978148 0.000000 0.207911
vn -0.978148 0.000000 -0.207911
vn -0.978148 0.000000 -0.207911
vn -0.809017 0.000000 -0.587786
vn -0.809017 0.000000 -0.587786
vn -0.500002 0.000000 -0.866024
vn -0.500002 0.000000 -0.866024
vn -0.104532 0.000000 -0.994521
vn -0.104532 0.000000 -0.994521
vn 0.309020 0.000000 -0.951056
vn 0.309020 0.000000 -0.951056
vn 0.669131 0.000000 -0.743144
vn 0.669131 0.000000 -0.743144
vn 0.913545 0.000002 -0.406738
vn 0.913545 0.000002 -0.406738
vn 1.000000 -0.000000 0.000005
vn 1.000000 0.000000 -0.000005
vn 0.000000 1.000000 -0.000000
vn 0.000000 1.000000 -0.000000
vn 0.000000 1.000000 -0.000000
vn 0.000000 1.000000 -0.000000
vn 0.000000 -1.000000 -0.000001
vn 0.000000 -1.000000 -0.000001
vn 0.000000 1.000000 0.000001
vn 0.000000 1.000000 0.000001
vn 0.000000 -1.000000 0.000000
vn 0.000000 1.000000 0.000001
vn 0.000000 1.000000 0.000001
vn 0.000000 -1.000000 0.000000
vn 0.000000 1.000000 0.000000
vn 0.000000 1.000000 0.000000
vn 0.000000 -1.000000 0.000000
vn 0.000000 1.000000 0.000000
vn 0.000000 1.000000 0.000000
vn 0.000000 -1.000000 0.000000
vn 0.000000 1.000000 0.000000
vn 0.000000 1.000000 0.000000
vn 0.000000 -1.000000 0.000000
vn 0.000000 1.000000 0.000000
vn 0.000000 1.000000 0.000000
vn 0.000000 -1.000000 0.000000
vn 0.000000 1.000000 0.000000
vn 0.000000 1.000000 0.000000
vn 0.000000 -1.000000 0.000000
vn 0.000000 1.000000 0.000000
vn 0.000000 1.000000 0.000000
vn 0.000000 -1.000000 0.000000
vn 0.000000 1.000000 -0.000001
vn 0.000000 1.000000 -0.000001
vn 0.000000 -1.000000 0.000000
vn 0.000000 1.000000 -0.000001
vn 0.000000 1.000000 -0.000001
vn 0.000000 -1.000000 -0.000001
vn 0.000000 1.000000 0.000000
vn 0.000000 1.000000 0.000000
vn 0.000000 -1.000000 -0.000001
vn 0.000000 1.000000 0.000000
vn 0.000000 1.000000 0.000000
vn 0.000000 -1.000000 0.000000
vn 0.000000 1.000000 -0.000000
vn 0.000000 1.000000 -0.000000
vn 0.000000 -1.000000 0.000000
vn 0.913543 0.000000 0.406743
vn 0.913543 0.000000 0.406743
vn 0.669137 0.000000 0.743139
vn 0.669137 0.000000 0.743139
vn 0.309012 0.000000 0.951058
vn 0.309012 0.000000 0.951058
vn -0.104541 0.000000 0.994521
vn -0.104541 0.000000 0.994521
vn -0.499998 0.000000 0.866027
vn -0.499998 0.000000 0.866027
vn -0.809011 0.000000 0.587793
vn -0.809011 0.000000 0.587793
vn -0.978147 0.000000 0.207914
vn -0.978147 0.000000 0.207914
vn -0.978148 0.000000 -0.207912
vn -0.978148 0.000000 -0.207912
vn -0.809017 0.000002 -0.587785
vn -0.809017 0.000002 -0.587785
vn -0.500004 0.000005 -0.866023
vn -0.500003 0.000005 -0.866024
vn -0.104533 0.000005 -0.994521
vn -0.104533 0.000005 -0.994521
vn 0.309020 0.000001 -0.951056
vn 0.309020 0.000001 -0.951056
vn 0.669137 0.000000 -0.743139
vn 0.669137 0.000000 -0.743139
vn 0.913545 0.000000 -0.406737
vn 0.913545 0.000000 -0.406737
vn 1.000000 0.000000 0.000000
vn 1.000000 0.000000 0.000000
s 1
g Coxa_Mirrored
usemtl lambert2SG
f 1/1/1 16/2/2 17/3/3 2/4/4
f 2/4/4 17/3/3 18/5/5 3/6/6
f 3/6/6 18/5/5 19/7/7 4/8/8
f 4/8/8 19/7/7 20/9/9 5/10/10
f 5/10/10 20/9/9 21/11/11 6/12/12
f 6/12/12 21/11/11 22/13/13 7/14/14
f 7/14/14 22/13/13 23/15/15 8/16/16
f 8/16/16 23/15/15 24/17/17 9/18/18
f 9/18/18 24/17/17 25/19/19 10/20/20
f 10/20/20 25/19/19 26/21/21 11/22/22
f 11/22/22 26/21/21 27/23/23 12/24/24
f 12/24/24 27/23/23 28/25/25 13/26/26
f 13/26/26 28/25/25 29/27/27 14/28/28
f 14/28/28 29/27/27 30/29/29 15/30/30
f 15/30/30 30/29/29 16/31/2 1/32/1
s 2
f 77/33/31 78/34/32 76/35/33
f 79/36/34 78/37/32 77/38/31
f 80/39/35 78/40/32 79/41/34
f 81/42/36 78/43/32 80/44/35
f 82/45/37 78/46/32 81/47/36
f 83/48/38 78/49/32 82/50/37
f 84/51/39 78/52/32 83/53/38
f 85/54/40 78/55/32 84/56/39
f 86/57/41 78/58/32 85/59/40
f 87/60/42 78/61/32 86/62/41
f 88/63/43 78/64/32 87/65/42
f 89/66/44 78/67/32 88/68/43
f 90/69/45 78/70/32 89/71/44
f 91/72/46 78/73/32 90/74/45
f 76/75/33 78/76/32 91/77/46
s 3
f 122/78/47 124/79/48 123/80/49
f 123/81/49 124/82/48 125/83/50
f 125/84/50 124/85/48 126/86/51
f 126/87/51 124/88/48 127/89/52
f 127/90/52 124/91/48 128/92/53
f 128/93/53 124/94/48 129/95/54
f 129/96/54 124/97/48 130/98/55
f 130/99/55 124/100/48 131/101/56
f 131/102/56 124/103/48 132/104/57
f 132/105/57 124/106/48 133/107/58
f 133/108/58 124/109/48 134/110/59
f 134/111/59 124/112/48 135/113/60
f 135/114/60 124/115/48 136/116/61
f 136/117/61 124/118/48 137/119/62
f 137/120/62 124/121/48 122/122/47
s 4
f 46/123/63 49/124/64 48/125/65 47/126/66
f 47/127/66 48/128/65 51/129/67 50/130/68
f 50/131/68 51/132/67 53/133/69 52/134/70
f 52/135/70 53/136/69 55/137/71 54/138/72
f 54/139/72 55/140/71 57/141/73 56/142/74
f 56/143/74 57/144/73 59/145/75 58/146/76
f 58/147/76 59/148/75 61/149/77 60/150/78
f 60/151/78 61/152/77 63/153/79 62/154/80
f 62/155/80 63/156/79 65/157/81 64/158/82
f 64/159/82 65/160/81 67/161/83 66/162/84
f 66/163/84 67/164/83 69/165/85 68/166/86
f 68/167/86 69/168/85 71/169/87 70/170/88
f 70/171/88 71/172/87 73/173/89 72/174/90
f 72/175/90 73/176/89 75/177/91 74/178/92
f 74/179/92 75/180/91 49/181/64 46/182/63
s 5
f 16/183/93 46/184/94 47/185/95 17/186/96
s 6
f 32/187/97 48/188/98 49/189/99 31/190/100
s 5
f 17/191/96 47/192/95 50/193/101 18/194/102
s 6
f 33/195/103 51/196/104 48/197/98 32/198/97
s 5
f 18/199/102 50/200/101 52/201/105 19/202/106
s 6
f 34/203/107 53/204/108 51/205/104 33/206/103
s 5
f 19/207/106 52/208/105 54/209/109 20/210/110
s 6
f 35/211/111 55/212/112 53/213/108 34/214/107
s 5
f 20/215/110 54/216/109 56/217/113 21/218/114
s 6
f 36/219/115 57/220/116 55/221/112 35/222/111
s 5
f 21/223/114 56/224/113 58/225/117 22/226/118
s 6
f 37/227/119 59/228/120 57/229/116 36/230/115
s 5
f 22/231/118 58/232/117 60/233/121 23/234/122
s 6
f 38/235/123 61/236/124 59/237/120 37/238/119
s 5
f 23/239/122 60/240/121 62/241/125 24/242/126
s 6
f 39/243/127 63/244/128 61/245/124 38/246/123
s 5
f 24/247/126 62/248/125 64/249/129 25/250/130
s 6
f 40/251/131 65/252/132 63/253/128 39/254/127
s 5
f 25/255/130 64/256/129 66/257/133 26/258/134
s 6
f 41/259/135 67/260/136 65/261/132 40/262/131
s 5
f 26/263/134 66/264/133 68/265/137 27/266/138
s 6
f 42/267/139 69/268/140 67/269/136 41/270/135
s 5
f 27/271/138 68/272/137 70/273/141 28/274/142
s 6
f 43/275/143 71/276/144 69/277/140 42/278/139
s 5
f 28/279/142 70/280/141 72/281/145 29/282/146
s 6
f 44/283/147 73/284/148 71/285/144 43/286/143
s 5
f 29/287/146 72/288/145 74/289/149 30/290/150
s 6
f 45/291/151 75/292/152 73/293/148 44/294/147
s 5
f 30/295/150 74/296/149 46/297/94 16/298/93
s 6
f 31/299/100 49/300/99 75/301/152 45/302/151
s 7
f 93/303/153 95/304/154 94/305/155 92/306/156
f 96/307/157 97/308/158 95/309/154 93/310/153
f 98/311/159 99/312/160 97/313/158 96/314/157
f 100/315/161 101/316/162 99/317/160 98/318/159
f 102/319/163 103/320/164 101/321/162 100/322/161
f 104/323/165 105/324/166 103/325/164 102/326/163
f 106/327/167 107/328/168 105/329/166 104/330/165
f 108/331/169 109/332/170 107/333/168 106/334/167
f 110/335/171 111/336/172 109/337/170 108/338/169
f 112/339/173 113/340/174 111/341/172 110/342/171
f 114/343/175 115/344/176 113/345/174 112/346/173
f 116/347/177 117/348/178 115/349/176 114/350/175
f 118/351/179 119/352/180 117/353/178 116/354/177
f 120/355/181 121/356/182 119/357/180 118/358/179
f 92/359/156 94/360/155 121/361/182 120/362/181
s 8
f 2/363/183 93/364/184 92/365/185 1/366/186
s 2
f 76/367/33 94/368/187 95/369/188 77/370/31
s 8
f 3/371/189 96/372/190 93/373/184 2/374/183
s 2
f 77/375/31 95/376/188 97/377/191 79/378/34
s 8
f 4/379/192 98/380/193 96/381/190 3/382/189
s 2
f 79/383/34 97/384/191 99/385/194 80/386/35
s 8
f 5/387/195 100/388/196 98/389/193 4/390/192
s 2
f 80/391/35 99/392/194 101/393/197 81/394/36
s 8
f 6/395/198 102/396/199 100/397/196 5/398/195
s 2
f 81/399/36 101/400/197 103/401/200 82/402/37
s 8
f 7/403/201 104/404/202 102/405/199 6/406/198
s 2
f 82/407/37 103/408/200 105/409/203 83/410/38
s 8
f 8/411/204 106/412/205 104/413/202 7/414/201
s 2
f 83/415/38 105/416/203 107/417/206 84/418/39
s 8
f 9/419/207 108/420/208 106/421/205 8/422/204
s 2
f 84/423/39 107/424/206 109/425/209 85/426/40
s 8
f 10/427/210 110/428/211 108/429/208 9/430/207
s 2
f 85/431/40 109/432/209 111/433/212 86/434/41
s 8
f 11/435/213 112/436/214 110/437/211 10/438/210
s 2
f 86/439/41 111/440/212 113/441/215 87/442/42
s 8
f 12/443/216 114/444/217 112/445/214 11/446/213
s 2
f 87/447/42 113/448/215 115/449/218 88/450/43
s 8
f 13/451/219 116/452/220 114/453/217 12/454/216
s 2
f 88/455/43 115/456/218 117/457/221 89/458/44
s 8
f 14/459/222 118/460/223 116/461/220 13/462/219
s 2
f 89/463/44 117/464/221 119/465/224 90/466/45
s 8
f 15/467/225 120/468/226 118/469/223 14/470/222
s 2
f 90/471/45 119/472/224 121/473/227 91/474/46
s 8
f 1/475/186 92/476/185 120/477/226 15/478/225
s 2
f 91/479/46 121/480/227 94/481/187 76/482/33
s 9
f 31/483/228 122/484/229 123/485/230 32/486/231
f 32/487/231 123/488/230 125/489/232 33/490/233
f 33/491/233 125/492/232 126/493/234 34/494/235
f 34/495/235 126/496/234 127/497/236 35/498/237
f 35/499/237 127/500/236 128/501/238 36/502/239
f 36/503/239 128/504/238 129/505/240 37/506/241
f 37/507/241 129/508/240 130/509/242 38/510/243
f 38/511/243 130/512/242 131/513/244 39/514/245
f 39/515/245 131/516/244 132/517/246 40/518/247
f 40/519/247 132/520/246 133/521/248 41/522/249
f 41/523/249 133/524/248 134/525/250 42/526/251
f 42/527/251 134/528/250 135/529/252 43/530/253
f 43/531/253 135/532/252 136/533/254 44/534/255
f 44/535/255 136/536/254 137/537/256 45/538/257
f 45/539/257 137/540/256 122/541/229 31/542/228
g default
v 0.020966 -0.894234 -0.347270
v 0.020966 -0.894234 -0.319177
v 0.537635 -0.894234 -0.347270
v 0.537635 -0.894234 -0.319177
v 0.537635 -0.677891 -0.347270
v 0.537635 -0.677891 -0.319177
v 0.020966 -0.677891 -0.347270
v 0.020966 -0.677891 -0.319177
v 0.048383 -0.894234 -0.347270
v 0.048383 -0.677891 -0.347270
v 0.048383 -0.677891 -0.319177
v 0.048383 -0.894234 -0.319177
v 0.020966 -0.783267 0.066507
v 0.020966 -0.894234 0.066507
v 0.048383 -0.783267 0.066507
v 0.048383 -0.894234 0.066507
v 0.020966 -0.783267 -0.211542
v 0.020966 -0.894234 -0.211542
v 0.048383 -0.894234 -0.211542
v 0.048383 -0.783267 -0.211542
v 0.020966 -0.677891 -0.373284
v 0.020966 -0.894234 -0.373284
v 0.048383 -0.894234 -0.373284
v 0.048383 -0.677891 -0.373284
v 0.537635 -0.894234 -0.516544
v 0.537635 -0.677891 -0.516544
v 0.020966 -0.731976 -0.347270
v 0.020966 -0.731976 -0.373284
v 0.048383 -0.731976 -0.373284
v 0.537635 -0.731976 -0.516544
v 0.537635 -0.731976 -0.347270
v 0.537635 -0.731976 -0.319177
v 0.048383 -0.731976 -0.319177
v 0.048383 -0.811009 -0.211542
v 0.048383 -0.811009 0.066507
v 0.020966 -0.811009 0.066507
v 0.020966 -0.811009 -0.211542
v 0.020966 -0.731976 -0.319177
v 0.537635 -0.840148 -0.347270
v 0.537635 -0.840148 -0.516544
v 0.048383 -0.840148 -0.373284
v 0.020966 -0.840148 -0.373284
v 0.020966 -0.840148 -0.347270
v 0.020966 -0.840148 -0.319177
v 0.020966 -0.866492 -0.211542
v 0.020966 -0.866492 0.066507
v 0.048383 -0.866492 0.066507
v 0.048383 -0.866492 -0.211542
v 0.048383 -0.840148 -0.319177
v 0.537635 -0.840148 -0.319177
v 0.537635 -0.731976 -0.474225
v 0.537635 -0.677891 -0.474225
v 0.048383 -0.677891 -0.366780
v 0.020966 -0.677891 -0.366780
v 0.020966 -0.731976 -0.366780
v 0.020966 -0.840148 -0.366780
v 0.020966 -0.894234 -0.366780
v 0.048383 -0.894234 -0.366780
v 0.537635 -0.894234 -0.474225
v 0.537635 -0.840148 -0.474225
v 0.020966 -0.677891 -0.353774
v 0.048383 -0.677891 -0.353774
v 0.537635 -0.677891 -0.389588
v 0.537635 -0.731976 -0.389588
v 0.537635 -0.840148 -0.389588
v 0.537635 -0.894234 -0.389588
v 0.048383 -0.894234 -0.353774
v 0.020966 -0.894234 -0.353774
v 0.020966 -0.840148 -0.353774
v 0.020966 -0.731976 -0.353774
v 0.537635 -0.840148 -0.389588
v 0.537635 -0.840148 -0.474225
v 0.537635 -0.731976 -0.389588
v 0.537635 -0.731976 -0.474225
vt 0.705535 0.335581
vt 0.705535 0.336217
vt 0.717512 0.336217
vt 0.717512 0.335581
vt 0.705535 0.347558
vt 0.705535 0.350552
vt 0.717512 0.350552
vt 0.717512 0.347558
vt 0.705535 0.370876
vt 0.705535 0.371512
vt 0.717512 0.371512
vt 0.717512 0.370876
vt 0.705535 0.380494
vt 0.705535 0.383489
vt 0.717512 0.383489
vt 0.717512 0.380494
vt 0.717512 0.335581
vt 0.717512 0.336217
vt 0.720506 0.336217
vt 0.720506 0.335581
vt 0.702541 0.336217
vt 0.705535 0.336217
vt 0.705535 0.335581
vt 0.702541 0.335581
vt 0.702541 0.347558
vt 0.705535 0.347558
vt 0.705535 0.359535
vt 0.717512 0.359535
vt 0.720506 0.347558
vt 0.720506 0.336217
vt 0.717512 0.335581
vt 0.720506 0.335581
vt 0.720506 0.335581
vt 0.729489 0.335581
vt 0.729489 0.335581
vt 0.729489 0.336217
vt 0.729489 0.336217
vt 0.720506 0.336217
vt 0.717512 0.336217
vt 0.729489 0.335581
vt 0.729489 0.336217
vt 0.705535 0.335581
vt 0.702541 0.335581
vt 0.702541 0.335581
vt 0.705535 0.336217
vt 0.693559 0.336217
vt 0.693559 0.336217
vt 0.693559 0.335581
vt 0.693559 0.335581
vt 0.705535 0.347558
vt 0.702541 0.347558
vt 0.702541 0.347558
vt 0.693559 0.347558
vt 0.693559 0.347558
vt 0.696553 0.347558
vt 0.696553 0.347558
vt 0.693559 0.336217
vt 0.693559 0.347558
vt 0.696553 0.347558
vt 0.696553 0.336217
vt 0.693559 0.335581
vt 0.696553 0.335581
vt 0.696553 0.335581
vt 0.696553 0.335581
vt 0.705535 0.374506
vt 0.717512 0.374506
vt 0.726495 0.335581
vt 0.726495 0.335581
vt 0.726495 0.335581
vt 0.726495 0.336217
vt 0.726495 0.336217
vt 0.726495 0.336217
vt 0.726495 0.347558
vt 0.729489 0.347558
vt 0.705535 0.356541
vt 0.717512 0.356541
vt 0.693559 0.336217
vt 0.693559 0.335581
vt 0.693559 0.347558
vt 0.696553 0.347558
vt 0.702541 0.347558
vt 0.705535 0.347558
vt 0.705535 0.336217
vt 0.705535 0.335581
vt 0.702541 0.335581
vt 0.696553 0.335581
vt 0.702541 0.347558
vt 0.696553 0.347558
vt 0.696553 0.347558
vt 0.702541 0.347558
vn -0.000000 -1.000000 -0.000000
vn -0.000000 -1.000000 -0.000000
vn -0.000000 -1.000000 -0.000000
vn -0.000000 -1.000000 -0.000000
vn 1.000000 -0.000000 -0.000000
vn 1.000000 -0.000000 -0.000000
vn 1.000000 -0.000000 -0.000000
vn 1.000000 -0.000000 -0.000000
vn 0.000000 1.000000 0.000000
vn 0.000000 1.000000 0.000000
vn 0.000000 0.789885 0.613255
vn 0.000000 0.986593 0.163199
vn -1.000000 0.000000 0.000000
vn -1.000000 0.000000 0.000000
vn -1.000000 0.000000 0.000000
vn -1.000000 0.000000 0.000000
vn 0.000000 0.000000 1.000000
vn 0.000000 0.000000 1.000000
vn 0.000000 0.000000 1.000000
vn 0.000000 0.000000 1.000000
vn -0.267195 0.000000 -0.963642
vn -0.267195 0.000000 -0.963642
vn 0.000000 -0.000000 -1.000000
vn 0.000000 -0.000000 -1.000000
vn -0.281015 0.000000 -0.959703
vn -0.281015 0.000000 -0.959703
vn 0.000000 1.000000 0.000000
vn 0.000000 1.000000 0.000000
vn 0.000000 0.000000 1.000000
vn 0.000000 0.000000 1.000000
vn 0.000000 0.000000 1.000000
vn 0.000000 0.000000 1.000000
vn -0.000000 -1.000000 -0.000000
vn -0.000000 -1.000000 -0.000000
vn -1.000000 0.000000 0.000000
vn -1.000000 0.000000 0.000000
vn 0.000000 0.964643 0.263560
vn 0.000000 0.964643 0.263560
vn 1.000000 -0.000000 -0.000000
vn 1.000000 -0.000000 -0.000000
vn 1.000000 -0.000000 -0.000000
vn 1.000000 -0.000000 -0.000000
vn -0.000000 -1.000000 -0.000000
vn -0.000000 -1.000000 -0.000000
vn -1.000000 0.000000 0.000000
vn -1.000000 0.000000 0.000000
vn -0.000000 -1.000000 -0.000000
vn -0.000000 -1.000000 -0.000000
vn 1.000000 -0.000000 -0.000000
vn 1.000000 -0.000000 -0.000000
vn 0.000000 1.000000 -0.000000
vn 0.000000 1.000000 -0.000000
vn -1.000000 0.000000 0.000000
vn -1.000000 0.000000 0.000000
vn -0.000000 -1.000000 -0.000000
vn -0.000000 -1.000000 -0.000000
vn 0.000000 1.000000 0.000000
vn 0.000000 1.000000 0.000000
vn -0.000000 -1.000000 -0.000000
vn 1.000000 -0.000000 -0.000000
vn 1.000000 -0.000000 -0.000000
vn 0.000000 1.000000 0.000000
vn 1.000000 -0.000000 -0.000000
vn 1.000000 -0.000000 -0.000000
vn 1.000000 -0.000000 -0.000000
vn 1.000000 -0.000000 -0.000000
vn -0.267196 0.000000 -0.963642
vn -0.281016 0.000000 -0.959703
vn -0.281015 0.000000 -0.959703
vn -0.267195 0.000000 -0.963642
vn 0.000000 -0.000000 -1.000000
vn 0.000000 -0.000000 -1.000000
vn -1.000000 0.000000 0.000000
vn -1.000000 0.000000 0.000000
vn -1.000000 0.000000 0.000000
vn -1.000000 0.000000 0.000000
vn -1.000000 0.000000 0.000000
vn -1.000000 0.000000 0.000000
vn -1.000000 0.000000 0.000000
vn -1.000000 0.000000 0.000000
vn -1.000000 0.000000 0.000000
vn -1.000000 0.000000 0.000000
vn 0.000000 0.000000 1.000000
vn 0.000000 0.000000 1.000000
vn 0.000000 0.000000 1.000000
vn 0.000000 0.000000 1.000000
vn 1.000000 -0.000000 -0.000000
vn 1.000000 -0.000000 -0.000000
vn 1.000000 -0.000000 -0.000000
vn 1.000000 -0.000000 -0.000000
vn 1.000000 -0.000000 -0.000000
vn 1.000000 -0.000000 -0.000000
vn 0.000000 0.000000 1.000000
vn 0.000000 0.000000 1.000000
vn 0.000000 0.000000 1.000000
vn 0.000000 0.000000 1.000000
vn 1.000000 -0.000000 -0.000000
vn 1.000000 -0.000000 -0.000000
vn 0.000000 1.000000 0.000000
vn 0.000000 1.000000 0.000000
vn 0.000000 1.000000 0.000000
vn 0.000000 1.000000 0.000000
vn 0.000000 1.000000 0.000000
vn 0.000000 1.000000 0.000000
vn 1.000000 -0.000000 -0.000000
vn 1.000000 -0.000000 -0.000000
vn 1.000000 -0.000000 -0.000000
vn 1.000000 -0.000000 -0.000000
vn 1.000000 -0.000000 -0.000000
vn 1.000000 -0.000000 -0.000000
vn 1.000000 -0.000000 -0.000000
vn 1.000000 -0.000000 -0.000000
vn -0.000000 -1.000000 -0.000000
vn -0.000000 -1.000000 -0.000000
vn -0.000000 -1.000000 -0.000000
vn -0.000000 -1.000000 -0.000000
vn -0.000000 -1.000000 -0.000000
vn -0.000000 -1.000000 -0.000000
vn -1.000000 0.000000 0.000000
vn -1.000000 0.000000 0.000000
vn -1.000000 0.000000 0.000000
vn -1.000000 0.000000 0.000000
vn -1.000000 0.000000 0.000000
vn -1.000000 0.000000 0.000000
vn -1.000000 0.000000 0.000000
vn -1.000000 0.000000 0.000000
vn 1.000000 -0.000000 -0.000000
vn 1.000000 -0.000000 -0.000000
vn 1.000000 -0.000000 -0.000000
vn 1.000000 -0.000000 -0.000000
vn 0.000000 -0.000000 -0.000000
vn 0.000000 -0.000000 -0.000000
vn 0.000000 -0.000000 -0.000000
vn 0.000000 -0.000000 -0.000000
vn 0.000000 -0.000000 -0.000000
vn 0.000000 -0.000000 -0.000000
vn 0.000000 -0.000000 -0.000000
vn 0.000000 -0.000000 -0.000000
vn 0.000000 -0.000000 -0.000000
vn 0.000000 -0.000000 -0.000000
vn 0.000000 -0.000000 -0.000000
vn 0.000000 -0.000000 -0.000000
vn 0.000000 -0.000000 -0.000000
vn 0.000000 -0.000000 -0.000000
vn 0.000000 -0.000000 -0.000000
vn 0.000000 -0.000000 -0.000000
s 1
g Coxa_Mirrored CoxaSupport_Mirrored
usemtl lambert2SG
f 138/543/258 146/544/259 149/545/260 139/546/261
s 2
f 140/547/262 176/548/263 187/549/264 141/550/265
s 3
f 147/551/266 144/552/267 145/553/268 148/554/269
s 4
f 180/555/270 138/556/271 139/557/272 181/558/273
s 5
f 151/559/274 153/560/275 184/561/276 183/562/277
s 6
f 178/563/278 160/564/279 159/565/280 179/566/281
f 177/567/282 162/568/283 160/564/279 178/563/278
s 3
f 142/569/284 147/551/266 148/554/269 143/570/285
s 7
f 149/545/286 141/550/287 187/571/288 186/572/289
s 1
f 146/544/259 140/547/290 141/550/291 149/545/260
s 4
f 139/546/272 155/573/292 182/574/293 181/575/273
s 3
f 145/576/268 154/577/294 157/578/295 148/579/269
s 8
f 185/580/296 156/581/297 149/545/298 186/572/299
s 1
f 149/545/260 156/581/300 155/573/301 139/546/261
s 4
f 155/573/292 151/559/302 183/562/303 182/574/293
s 1
f 156/581/300 153/560/304 151/559/305 155/573/301
s 8
f 184/561/306 153/560/307 156/581/297 185/580/296
s 3
f 154/577/294 150/582/308 152/583/309 157/578/295
s 4
f 205/584/310 138/543/271 180/585/270 206/586/311
s 1
f 138/543/258 205/584/312 204/587/313 146/544/259
s 3
f 147/588/266 199/589/314 198/590/315 144/591/267
s 1
f 146/544/259 204/587/313 203/592/316 140/547/290
s 2
f 140/547/262 203/592/317 202/593/318 176/594/263
s 3
f 142/595/284 200/596/319 199/589/314 147/588/266
s 2
f 200/596/320 142/595/321 168/597/322 201/598/323
s 6
f 161/599/324 163/600/325 167/601/326 166/602/327
f 158/603/328 161/599/324 166/602/327 165/604/329
s 4
f 144/591/330 198/590/331 207/605/332 164/606/333
f 144/552/330 164/607/333 175/608/334 145/553/335
f 174/609/336 154/577/337 145/576/335 175/610/334
f 173/611/338 150/582/339 154/577/337 174/609/336
s 5
f 172/612/340 152/583/341 150/582/342 173/611/343
s 8
f 157/578/344 152/583/345 172/612/346 171/613/347
f 148/579/348 157/578/344 171/613/347 170/614/349
s 7
f 169/615/350 143/616/351 148/579/352 170/614/353
s 2
f 168/617/322 142/569/321 143/570/354 169/618/355
f 201/598/323 168/597/322 176/594/263 202/593/318
s 6
f 166/602/327 167/601/326 177/567/282 178/563/278
f 179/566/281 165/604/329 166/602/327 178/563/278
s 4
f 180/585/270 164/606/333 207/605/332 206/586/311
f 181/558/273 175/608/334 164/607/333 180/555/270
f 182/574/293 174/609/336 175/610/334 181/575/273
f 183/562/303 173/611/338 174/609/336 182/574/293
s 5
f 184/561/276 172/612/340 173/611/343 183/562/277
s 8
f 171/613/347 172/612/346 184/561/306 185/580/296
f 186/572/299 170/614/349 171/613/347 185/580/296
s 7
f 169/615/350 170/614/353 186/572/289 187/571/288
s 2
f 168/617/322 169/618/355 187/549/264 176/548/263
s 3
f 190/619/356 161/599/357 158/603/358 191/620/359
f 189/621/360 163/600/361 161/599/357 190/619/356
s 2
f 167/601/362 163/600/363 189/621/364 188/622/365
f 167/601/362 188/622/365 197/623/366 177/567/367
f 196/624/368 162/568/369 177/567/367 197/623/366
s 1
f 195/625/370 160/564/371 162/568/372 196/624/373
f 194/626/374 159/565/375 160/564/371 195/625/370
s 4
f 179/566/376 159/565/377 194/626/378 193/627/379
f 192/628/380 165/604/381 179/566/376 193/627/379
f 191/620/382 158/603/383 165/604/381 192/628/380
s 3
f 190/619/356 191/620/359 198/590/315 199/589/314
f 189/621/360 190/619/356 199/589/314 200/596/319
s 2
f 201/598/323 188/622/365 189/621/364 200/596/320
s off
f 209/629/384 211/630/385 210/631/386 208/632/387
s 2
f 196/624/368 197/623/366 202/593/318 203/592/317
s 1
f 195/625/370 196/624/373 203/592/316 204/587/313
f 194/626/374 195/625/370 204/587/313 205/584/312
s 4
f 206/586/311 193/627/379 194/626/378 205/584/310
f 192/628/380 193/627/379 206/586/311 207/605/332
f 191/620/382 192/628/380 207/605/332 198/590/331
s off
f 197/623/388 209/629/389 208/632/390 202/593/391
f 202/593/392 208/632/393 210/631/394 201/598/395
f 201/598/396 210/631/397 211/630/398 188/622/399
f 188/622/400 211/630/401 209/629/402 197/623/403
