# This file uses centimeters as units for non-parametric coordinates.

mtllib Femur.mtl
g default
v 0.198153 -0.119403 0.289557
v 0.132023 -0.189745 0.289710
v 0.042999 -0.227108 0.289721
v -0.053525 -0.225032 0.289587
v -0.140860 -0.183876 0.289333
v -0.203904 -0.110756 0.289001
v -0.231757 -0.018315 0.288650
v -0.219603 0.077463 0.288339
v -0.169542 0.160017 0.288124
v -0.090233 0.215073 0.288040
v 0.004615 0.233111 0.288103
v 0.098598 0.211012 0.288301
v 0.175467 0.152597 0.288601
v 0.221931 0.067967 0.288950
v 0.229956 -0.028245 0.289289
v 0.198938 -0.121444 -0.309692
v 0.132808 -0.191786 -0.309539
v 0.043785 -0.229149 -0.309529
v -0.052740 -0.227073 -0.309662
v -0.140074 -0.185917 -0.309917
v -0.203119 -0.112797 -0.310249
v -0.230972 -0.020356 -0.310600
v -0.218817 0.075422 -0.310910
v -0.168757 0.157976 -0.311126
v -0.089447 0.213032 -0.311209
v 0.005400 0.231070 -0.311146
v 0.099383 0.208971 -0.310948
v 0.176252 0.150556 -0.310648
v 0.222716 0.065926 -0.310299
v 0.230741 -0.030286 -0.309961
v 0.055319 0.050267 -0.347297
v 0.040989 0.035024 -0.347264
v 0.021698 0.026927 -0.347262
v 0.000781 0.027377 -0.347291
v -0.018144 0.036296 -0.347346
v -0.031806 0.052140 -0.347418
v -0.037841 0.072172 -0.347494
v -0.035207 0.092927 -0.347561
v -0.024360 0.110816 -0.347608
v -0.007173 0.122747 -0.347626
v 0.013380 0.126655 -0.347613
v 0.033746 0.121867 -0.347570
v 0.050403 0.109208 -0.347505
v 0.060472 0.090869 -0.347429
v 0.062211 0.070020 -0.347356
v 0.209215 -0.127717 -0.309657
v 0.139632 -0.201731 -0.309496
v 0.139681 -0.201857 -0.346328
v 0.209263 -0.127843 -0.346489
v 0.045962 -0.241045 -0.309485
v 0.046010 -0.241170 -0.346317
v -0.055601 -0.238861 -0.309626
v -0.055553 -0.238986 -0.346458
v -0.147495 -0.195556 -0.309894
v -0.147447 -0.195682 -0.346726
v -0.213831 -0.118619 -0.310243
v -0.213782 -0.118744 -0.347074
v -0.243137 -0.021352 -0.310612
v -0.243089 -0.021478 -0.347444
v -0.230348 0.079426 -0.310939
v -0.230300 0.079300 -0.347771
v -0.177675 0.166289 -0.311166
v -0.177627 0.166164 -0.347997
v -0.094224 0.224219 -0.311254
v -0.094176 0.224093 -0.348085
v 0.005573 0.243198 -0.311187
v 0.005622 0.243073 -0.348019
v 0.104463 0.219946 -0.310979
v 0.104511 0.219820 -0.347810
v 0.185345 0.158482 -0.310663
v 0.185393 0.158356 -0.347495
v 0.234234 0.069434 -0.310296
v 0.234283 0.069308 -0.347128
v 0.242678 -0.031801 -0.309940
v 0.242726 -0.031926 -0.346772
v 0.198132 -0.119350 0.305172
v 0.132002 -0.189692 0.305325
v -0.000399 0.001037 0.304501
v 0.042979 -0.227055 0.305335
v -0.053545 -0.224979 0.305202
v -0.140880 -0.183823 0.304947
v -0.203925 -0.110703 0.304615
v -0.231778 -0.018262 0.304264
v -0.219623 0.077516 0.303954
v -0.169563 0.160070 0.303738
v -0.090253 0.215126 0.303655
v 0.004594 0.233164 0.303717
v 0.098578 0.211065 0.303916
v 0.175446 0.152650 0.304216
v 0.221910 0.068020 0.304565
v 0.229935 -0.028192 0.304903
v 0.211635 -0.127578 0.289603
v 0.141014 -0.202697 0.289766
v 0.211615 -0.127525 0.305217
v 0.140994 -0.202644 0.305380
v 0.045945 -0.242598 0.289777
v 0.045924 -0.242545 0.305392
v -0.057134 -0.240381 0.289635
v -0.057155 -0.240328 0.305249
v -0.150400 -0.196430 0.289363
v -0.150420 -0.196377 0.304977
v -0.217726 -0.118344 0.289009
v -0.217746 -0.118291 0.304623
v -0.247470 -0.019625 0.288633
v -0.247490 -0.019572 0.304248
v -0.234490 0.082657 0.288302
v -0.234511 0.082710 0.303916
v -0.181030 0.170817 0.288072
v -0.181051 0.170870 0.303686
v -0.096334 0.229612 0.287983
v -0.096355 0.229665 0.303597
v 0.004954 0.248874 0.288050
v 0.004933 0.248928 0.303664
v 0.105319 0.225275 0.288262
v 0.105299 0.225328 0.303876
v 0.187409 0.162893 0.288582
v 0.187388 0.162946 0.304196
v 0.237028 0.072516 0.288955
v 0.237007 0.072569 0.304569
v 0.245598 -0.030230 0.289316
v 0.245577 -0.030177 0.304930
v 0.055442 0.049946 -0.441506
v 0.041112 0.034703 -0.441473
v 0.012509 0.076022 -0.441651
v 0.021821 0.026606 -0.441470
v 0.000905 0.027057 -0.441499
v -0.018021 0.035975 -0.441554
v -0.031682 0.051820 -0.441626
v -0.037718 0.071851 -0.441702
v -0.035084 0.092606 -0.441770
v -0.024236 0.110495 -0.441816
v -0.007050 0.122425 -0.441834
v 0.013503 0.126334 -0.441821
v 0.033869 0.121546 -0.441778
v 0.050526 0.108887 -0.441713
v 0.060595 0.090548 -0.441637
v 0.062334 0.069699 -0.441564
vt 0.556810 0.550448
vt 0.510804 0.565082
vt 0.503115 0.560642
vt 0.494284 0.559714
vt 0.485840 0.562458
vt 0.479241 0.568399
vt 0.475630 0.576511
vt 0.475630 0.585390
vt 0.479241 0.593502
vt 0.485840 0.599443
vt 0.494284 0.602187
vt 0.503115 0.601259
vt 0.510804 0.596819
vt 0.516024 0.589636
vt 0.570318 0.614001
vt 0.244441 0.343059
vt 0.250753 0.343059
vt 0.257065 0.343059
vt 0.263377 0.343059
vt 0.269689 0.343059
vt 0.276001 0.343059
vt 0.282313 0.343059
vt 0.288625 0.343059
vt 0.294937 0.343059
vt 0.301249 0.343059
vt 0.307561 0.343059
vt 0.313873 0.343059
vt 0.320185 0.343059
vt 0.326497 0.343059
vt 0.332809 0.343059
vt 0.339121 0.343059
vt 0.244441 0.485078
vt 0.250753 0.485078
vt 0.257065 0.485078
vt 0.263377 0.485078
vt 0.269689 0.485078
vt 0.276001 0.485078
vt 0.282313 0.485078
vt 0.288625 0.485078
vt 0.294937 0.485078
vt 0.301249 0.485078
vt 0.307561 0.485078
vt 0.313873 0.485078
vt 0.320185 0.485078
vt 0.326497 0.485078
vt 0.332809 0.485078
vt 0.339121 0.485078
vt 0.539406 0.744462
vt 0.527408 0.727948
vt 0.509730 0.717742
vt 0.489430 0.715608
vt 0.470016 0.721916
vt 0.454847 0.735575
vt 0.446544 0.754222
vt 0.446544 0.774635
vt 0.454847 0.793282
vt 0.470016 0.806941
vt 0.489430 0.813249
vt 0.509730 0.811115
vt 0.527408 0.800909
vt 0.539406 0.784395
vt 0.543650 0.764429
vt 0.496516 0.580950
vt 0.707916 0.415745
vt 0.737789 0.429045
vt 0.729797 0.440045
vt 0.718021 0.446844
vt 0.704498 0.448265
vt 0.691566 0.444063
vt 0.681462 0.434965
vt 0.675931 0.422543
vt 0.675931 0.408946
vt 0.681462 0.396524
vt 0.691566 0.387426
vt 0.704498 0.383224
vt 0.718021 0.384645
vt 0.729797 0.391444
vt 0.737789 0.402444
vt 0.740616 0.415745
vt 0.539406 0.784395
vt 0.527408 0.800909
vt 0.527408 0.800909
vt 0.539406 0.784395
vt 0.509730 0.811115
vt 0.509730 0.811115
vt 0.489430 0.813249
vt 0.489430 0.813249
vt 0.470016 0.806941
vt 0.470016 0.806941
vt 0.454847 0.793282
vt 0.454847 0.793282
vt 0.446544 0.774635
vt 0.446544 0.774635
vt 0.446544 0.754222
vt 0.446544 0.754222
vt 0.454847 0.735575
vt 0.454847 0.735575
vt 0.470016 0.721916
vt 0.470016 0.721916
vt 0.489430 0.715608
vt 0.489430 0.715608
vt 0.509730 0.717742
vt 0.509730 0.717742
vt 0.527408 0.727948
vt 0.527408 0.727948
vt 0.539406 0.744462
vt 0.539406 0.744462
vt 0.543650 0.764429
vt 0.543650 0.764429
vt 0.510804 0.565082
vt 0.516024 0.572265
vt 0.503115 0.560642
vt 0.494284 0.559714
vt 0.485840 0.562458
vt 0.479241 0.568399
vt 0.475630 0.576511
vt 0.475630 0.585390
vt 0.479241 0.593502
vt 0.485840 0.599443
vt 0.494284 0.602187
vt 0.503115 0.601259
vt 0.510804 0.596819
vt 0.556810 0.677554
vt 0.570318 0.614001
vt 0.509152 0.621268
vt 0.556810 0.550448
vt 0.555157 0.606634
vt 0.510804 0.565082
vt 0.501462 0.616828
vt 0.503115 0.560642
vt 0.492632 0.615900
vt 0.494284 0.559714
vt 0.484187 0.618644
vt 0.485840 0.562458
vt 0.477589 0.624585
vt 0.479241 0.568399
vt 0.473977 0.632697
vt 0.475630 0.576511
vt 0.473977 0.641576
vt 0.475630 0.585390
vt 0.477589 0.649688
vt 0.479241 0.593502
vt 0.484187 0.655629
vt 0.485840 0.599443
vt 0.492632 0.658373
vt 0.494284 0.602187
vt 0.501462 0.657445
vt 0.503115 0.601259
vt 0.509152 0.653005
vt 0.510804 0.596819
vt 0.555157 0.733740
vt 0.556810 0.677554
vt 0.568666 0.670187
vt 0.570318 0.614001
vt 0.737789 0.429045
vt 0.729797 0.440045
vt 0.718021 0.446844
vt 0.704498 0.448265
vt 0.691566 0.444063
vt 0.681462 0.434965
vt 0.675931 0.422543
vt 0.675931 0.408946
vt 0.681462 0.396524
vt 0.691566 0.387426
vt 0.704498 0.383224
vt 0.718021 0.384645
vt 0.729797 0.391444
vt 0.737789 0.402444
vt 0.740616 0.415745
vt 0.740616 0.415745
vt 0.740616 0.415745
vt 0.740616 0.415745
vt 0.737789 0.429045
vt 0.737789 0.429045
vt 0.737789 0.429045
vt 0.707916 0.415745
vt 0.707916 0.415745
vt 0.707916 0.415745
vt 0.707916 0.415745
vt 0.707916 0.415745
vt 0.707916 0.415745
vt 0.707916 0.415745
vt 0.707916 0.415745
vt 0.707916 0.415745
vt 0.707916 0.415745
vt 0.707916 0.415745
vt 0.707916 0.415745
vt 0.707916 0.415745
vt 0.707916 0.415745
vt 0.737789 0.402444
vt 0.737789 0.402444
vt 0.737789 0.402444
vt 0.543650 0.764429
vt 0.543650 0.764429
vt 0.740616 0.415745
vt 0.729797 0.391444
vt 0.729797 0.391444
vt 0.729797 0.391444
vt 0.539406 0.744462
vt 0.539406 0.744462
vt 0.737789 0.402444
vt 0.718021 0.384645
vt 0.718021 0.384645
vt 0.718021 0.384645
vt 0.527408 0.727948
vt 0.527408 0.727948
vt 0.729797 0.391444
vt 0.704498 0.383224
vt 0.704498 0.383224
vt 0.704498 0.383224
vt 0.509730 0.717742
vt 0.509730 0.717742
vt 0.718021 0.384645
vt 0.691566 0.387426
vt 0.691566 0.387426
vt 0.691566 0.387426
vt 0.489430 0.715608
vt 0.489430 0.715608
vt 0.704498 0.383224
vt 0.681462 0.396524
vt 0.681462 0.396524
vt 0.681462 0.396524
vt 0.470016 0.721916
vt 0.470016 0.721916
vt 0.691566 0.387426
vt 0.675931 0.408946
vt 0.675931 0.408946
vt 0.675931 0.408946
vt 0.454847 0.735575
vt 0.454847 0.735575
vt 0.681462 0.396524
vt 0.675931 0.422543
vt 0.675931 0.422543
vt 0.675931 0.422543
vt 0.446544 0.754222
vt 0.446544 0.754222
vt 0.675931 0.408946
vt 0.681462 0.434965
vt 0.681462 0.434965
vt 0.681462 0.434965
vt 0.446544 0.774635
vt 0.446544 0.774635
vt 0.675931 0.422543
vt 0.691566 0.444063
vt 0.691566 0.444063
vt 0.691566 0.444063
vt 0.454847 0.793282
vt 0.454847 0.793282
vt 0.681462 0.434965
vt 0.704498 0.448265
vt 0.704498 0.448265
vt 0.704498 0.448265
vt 0.470016 0.806941
vt 0.470016 0.806941
vt 0.691566 0.444063
vt 0.718021 0.446844
vt 0.718021 0.446844
vt 0.718021 0.446844
vt 0.489430 0.813249
vt 0.489430 0.813249
vt 0.704498 0.448265
vt 0.729797 0.440045
vt 0.729797 0.440045
vt 0.729797 0.440045
vt 0.509730 0.811115
vt 0.509730 0.811115
vt 0.718021 0.446844
vt 0.527408 0.800909
vt 0.527408 0.800909
vt 0.729797 0.440045
vt 0.539406 0.784395
vt 0.539406 0.784395
vt 0.737789 0.429045
vt 0.570318 0.614001
vt 0.568666 0.670187
vt 0.568666 0.670187
vt 0.514371 0.628451
vt 0.516024 0.572265
vt 0.556810 0.550448
vt 0.568666 0.670187
vt 0.570318 0.614001
vt 0.570318 0.614001
vt 0.516024 0.572265
vt 0.514371 0.628451
vt 0.555157 0.606634
vt 0.516024 0.589636
vt 0.514371 0.645822
vt 0.555157 0.733740
vt 0.517870 0.580950
vt 0.517870 0.580950
vt 0.570318 0.614001
vt 0.514371 0.645822
vt 0.516024 0.589636
vt 0.556810 0.677554
vt 0.332809 0.343059
vt 0.570318 0.614001
vt 0.510804 0.596819
vt 0.509152 0.653005
vt 0.509152 0.653005
vt 0.516024 0.589636
vt 0.516024 0.589636
vt 0.516024 0.589636
vt 0.509152 0.653005
vt 0.510804 0.596819
vt 0.510804 0.596819
vt 0.326497 0.343059
vt 0.556810 0.677554
vt 0.503115 0.601259
vt 0.501462 0.657445
vt 0.501462 0.657445
vt 0.510804 0.596819
vt 0.510804 0.596819
vt 0.510804 0.596819
vt 0.501462 0.657445
vt 0.503115 0.601259
vt 0.503115 0.601259
vt 0.320185 0.343059
vt 0.510804 0.596819
vt 0.494284 0.602187
vt 0.492632 0.658373
vt 0.492632 0.658373
vt 0.503115 0.601259
vt 0.503115 0.601259
vt 0.503115 0.601259
vt 0.492632 0.658373
vt 0.494284 0.602187
vt 0.494284 0.602187
vt 0.313873 0.343059
vt 0.503115 0.601259
vt 0.485840 0.599443
vt 0.484187 0.655629
vt 0.484187 0.655629
vt 0.494284 0.602187
vt 0.494284 0.602187
vt 0.494284 0.602187
vt 0.484187 0.655629
vt 0.485840 0.599443
vt 0.485840 0.599443
vt 0.307561 0.343059
vt 0.494284 0.602187
vt 0.479241 0.593502
vt 0.477589 0.649688
vt 0.477589 0.649688
vt 0.485840 0.599443
vt 0.485840 0.599443
vt 0.485840 0.599443
vt 0.477589 0.649688
vt 0.479241 0.593502
vt 0.479241 0.593502
vt 0.301249 0.343059
vt 0.485840 0.599443
vt 0.475630 0.585390
vt 0.473977 0.641576
vt 0.473977 0.641576
vt 0.479241 0.593502
vt 0.479241 0.593502
vt 0.479241 0.593502
vt 0.473977 0.641576
vt 0.475630 0.585390
vt 0.475630 0.585390
vt 0.294937 0.343059
vt 0.479241 0.593502
vt 0.475630 0.576511
vt 0.473977 0.632697
vt 0.473977 0.632697
vt 0.475630 0.585390
vt 0.475630 0.585390
vt 0.475630 0.585390
vt 0.473977 0.632697
vt 0.475630 0.576511
vt 0.475630 0.576511
vt 0.288625 0.343059
vt 0.475630 0.585390
vt 0.479241 0.568399
vt 0.477589 0.624585
vt 0.477589 0.624585
vt 0.475630 0.576511
vt 0.475630 0.576511
vt 0.475630 0.576511
vt 0.477589 0.624585
vt 0.479241 0.568399
vt 0.479241 0.568399
vt 0.282313 0.343059
vt 0.475630 0.576511
vt 0.485840 0.562458
vt 0.484187 0.618644
vt 0.484187 0.618644
vt 0.479241 0.568399
vt 0.479241 0.568399
vt 0.479241 0.568399
vt 0.484187 0.618644
vt 0.485840 0.562458
vt 0.485840 0.562458
vt 0.276001 0.343059
vt 0.479241 0.568399
vt 0.494284 0.559714
vt 0.492632 0.615900
vt 0.492632 0.615900
vt 0.485840 0.562458
vt 0.485840 0.562458
vt 0.485840 0.562458
vt 0.492632 0.615900
vt 0.494284 0.559714
vt 0.494284 0.559714
vt 0.269689 0.343059
vt 0.485840 0.562458
vt 0.503115 0.560642
vt 0.501462 0.616828
vt 0.501462 0.616828
vt 0.494284 0.559714
vt 0.494284 0.559714
vt 0.494284 0.559714
vt 0.501462 0.616828
vt 0.503115 0.560642
vt 0.503115 0.560642
vt 0.263377 0.343059
vt 0.494284 0.559714
vt 0.510804 0.565082
vt 0.509152 0.621268
vt 0.509152 0.621268
vt 0.503115 0.560642
vt 0.503115 0.560642
vt 0.503115 0.560642
vt 0.509152 0.621268
vt 0.510804 0.565082
vt 0.510804 0.565082
vt 0.257065 0.343059
vt 0.503115 0.560642
vt 0.510804 0.565082
vt 0.510804 0.565082
vt 0.510804 0.565082
vt 0.516024 0.572265
vt 0.516024 0.572265
vt 0.556810 0.550448
vt 0.250753 0.343059
vt 0.510804 0.565082
vt 0.516024 0.572265
vt 0.496516 0.580950
vt 0.496516 0.580950
vt 0.496516 0.580950
vt 0.496516 0.580950
vt 0.496516 0.580950
vt 0.496516 0.580950
vt 0.496516 0.580950
vt 0.496516 0.580950
vt 0.496516 0.580950
vt 0.496516 0.580950
vt 0.496516 0.580950
vt 0.496516 0.580950
vt 0.496516 0.580950
vt 0.496516 0.580950
vt 0.543650 0.764429
vt 0.543650 0.764429
vt 0.543650 0.764429
vt 0.539406 0.784395
vt 0.539406 0.784395
vt 0.539406 0.784395
vt 0.543650 0.764429
vt 0.543650 0.764429
vt 0.543650 0.764429
vt 0.539406 0.784395
vt 0.539406 0.784395
vt 0.539406 0.784395
vt 0.539406 0.744462
vt 0.539406 0.744462
vt 0.539406 0.744462
vt 0.539406 0.744462
vt 0.539406 0.744462
vt 0.539406 0.744462
vt 0.332809 0.485078
vt 0.543650 0.764429
vt 0.527408 0.727948
vt 0.527408 0.727948
vt 0.527408 0.727948
vt 0.527408 0.727948
vt 0.527408 0.727948
vt 0.527408 0.727948
vt 0.326497 0.485078
vt 0.539406 0.744462
vt 0.509730 0.717742
vt 0.509730 0.717742
vt 0.509730 0.717742
vt 0.509730 0.717742
vt 0.509730 0.717742
vt 0.509730 0.717742
vt 0.320185 0.485078
vt 0.527408 0.727948
vt 0.489430 0.715608
vt 0.489430 0.715608
vt 0.489430 0.715608
vt 0.489430 0.715608
vt 0.489430 0.715608
vt 0.489430 0.715608
vt 0.313873 0.485078
vt 0.509730 0.717742
vt 0.470016 0.721916
vt 0.470016 0.721916
vt 0.470016 0.721916
vt 0.470016 0.721916
vt 0.470016 0.721916
vt 0.470016 0.721916
vt 0.307561 0.485078
vt 0.489430 0.715608
vt 0.454847 0.735575
vt 0.454847 0.735575
vt 0.454847 0.735575
vt 0.454847 0.735575
vt 0.454847 0.735575
vt 0.454847 0.735575
vt 0.301249 0.485078
vt 0.470016 0.721916
vt 0.446544 0.754222
vt 0.446544 0.754222
vt 0.446544 0.754222
vt 0.446544 0.754222
vt 0.446544 0.754222
vt 0.446544 0.754222
vt 0.294937 0.485078
vt 0.454847 0.735575
vt 0.446544 0.774635
vt 0.446544 0.774635
vt 0.446544 0.774635
vt 0.446544 0.774635
vt 0.446544 0.774635
vt 0.446544 0.774635
vt 0.288625 0.485078
vt 0.446544 0.754222
vt 0.454847 0.793282
vt 0.454847 0.793282
vt 0.454847 0.793282
vt 0.454847 0.793282
vt 0.454847 0.793282
vt 0.454847 0.793282
vt 0.282313 0.485078
vt 0.446544 0.774635
vt 0.470016 0.806941
vt 0.470016 0.806941
vt 0.470016 0.806941
vt 0.470016 0.806941
vt 0.470016 0.806941
vt 0.470016 0.806941
vt 0.276001 0.485078
vt 0.454847 0.793282
vt 0.489430 0.813249
vt 0.489430 0.813249
vt 0.489430 0.813249
vt 0.489430 0.813249
vt 0.489430 0.813249
vt 0.489430 0.813249
vt 0.269689 0.485078
vt 0.470016 0.806941
vt 0.509730 0.811115
vt 0.509730 0.811115
vt 0.509730 0.811115
vt 0.509730 0.811115
vt 0.509730 0.811115
vt 0.509730 0.811115
vt 0.263377 0.485078
vt 0.489430 0.813249
vt 0.527408 0.800909
vt 0.527408 0.800909
vt 0.527408 0.800909
vt 0.527408 0.800909
vt 0.527408 0.800909
vt 0.527408 0.800909
vt 0.257065 0.485078
vt 0.509730 0.811115
vt 0.250753 0.485078
vt 0.527408 0.800909
vt 0.539406 0.784395
vn 0.855070 -0.518505 0.002887
vn 0.570252 -0.821462 0.003545
vn 0.570252 -0.821462 0.003545
vn 0.855070 -0.518505 0.002887
vn 0.186828 -0.982386 0.003591
vn 0.186828 -0.982386 0.003591
vn -0.228899 -0.973445 0.003015
vn -0.228899 -0.973445 0.003015
vn -0.605047 -0.796188 0.001919
vn -0.605047 -0.796188 0.001919
vn -0.876577 -0.481261 0.000490
vn -0.876577 -0.481261 0.000490
vn -0.996539 -0.083118 -0.001023
vn -0.996539 -0.083118 -0.001023
vn -0.944190 0.329392 -0.002359
vn -0.944190 0.329392 -0.002359
vn -0.728583 0.684949 -0.003288
vn -0.728583 0.684949 -0.003288
vn -0.386995 0.922075 -0.003648
vn -0.386995 0.922075 -0.003648
vn 0.021507 0.999763 -0.003377
vn 0.021507 0.999763 -0.003377
vn 0.426290 0.904583 -0.002522
vn 0.426290 0.904583 -0.002522
vn 0.757364 0.652992 -0.001231
vn 0.757364 0.652992 -0.001231
vn 0.957481 0.288497 0.000272
vn 0.957481 0.288497 0.000272
vn 0.992043 -0.125888 0.001729
vn 0.992043 -0.125888 0.001729
vn -0.001311 0.003406 0.999993
vn -0.001311 0.003406 0.999993
vn -0.001311 0.003406 0.999993
vn -0.001311 0.003406 0.999993
vn -0.001311 0.003406 0.999993
vn -0.001311 0.003406 0.999993
vn -0.001311 0.003406 0.999993
vn -0.001311 0.003406 0.999993
vn -0.001311 0.003406 0.999993
vn -0.001311 0.003406 0.999993
vn -0.001311 0.003406 0.999993
vn -0.001311 0.003406 0.999993
vn -0.001311 0.003406 0.999993
vn -0.001311 0.003406 0.999993
vn -0.001311 0.003406 0.999993
vn -0.001311 0.003406 0.999993
vn 0.001311 -0.003406 -0.999993
vn 0.001310 -0.003408 -0.999993
vn 0.001311 -0.003406 -0.999993
vn 0.001311 -0.003406 -0.999993
vn 0.001311 -0.003405 -0.999993
vn 0.001311 -0.003406 -0.999993
vn 0.001311 -0.003405 -0.999993
vn 0.001311 -0.003404 -0.999993
vn 0.001310 -0.003408 -0.999993
vn 0.001311 -0.003406 -0.999993
vn 0.001311 -0.003405 -0.999993
vn 0.001311 -0.003406 -0.999993
vn 0.001311 -0.003405 -0.999993
vn 0.001311 -0.003405 -0.999993
vn 0.001311 -0.003407 -0.999993
vn 0.001311 -0.003406 -0.999993
vn 0.855070 -0.518505 0.002887
vn 0.570250 -0.821464 0.003545
vn 0.570250 -0.821464 0.003545
vn 0.855070 -0.518505 0.002887
vn 0.186828 -0.982386 0.003590
vn 0.186828 -0.982386 0.003590
vn -0.228900 -0.973445 0.003015
vn -0.228900 -0.973445 0.003015
vn -0.605046 -0.796188 0.001918
vn -0.605046 -0.796188 0.001918
vn -0.876577 -0.481261 0.000490
vn -0.876577 -0.481261 0.000490
vn -0.996539 -0.083118 -0.001023
vn -0.996539 -0.083119 -0.001023
vn -0.944190 0.329392 -0.002359
vn -0.944190 0.329392 -0.002359
vn -0.728582 0.684951 -0.003287
vn -0.728582 0.684951 -0.003287
vn -0.386995 0.922075 -0.003647
vn -0.386995 0.922075 -0.003647
vn 0.021506 0.999763 -0.003377
vn 0.021506 0.999763 -0.003377
vn 0.426290 0.904583 -0.002522
vn 0.426290 0.904583 -0.002522
vn 0.757362 0.652994 -0.001232
vn 0.757362 0.652994 -0.001232
vn 0.957481 0.288497 0.000272
vn 0.957481 0.288496 0.000272
vn 0.992043 -0.125888 0.001729
vn 0.992043 -0.125888 0.001729
vn -0.001311 0.003406 0.999993
vn -0.001311 0.003405 0.999993
vn -0.001311 0.003405 0.999993
vn -0.001311 0.003406 0.999993
vn 0.001311 -0.003406 -0.999993
vn 0.001311 -0.003406 -0.999993
vn 0.001311 -0.003406 -0.999993
vn 0.001311 -0.003406 -0.999993
vn -0.001311 0.003405 0.999993
vn -0.001311 0.003405 0.999993
vn 0.001311 -0.003406 -0.999993
vn 0.001311 -0.003406 -0.999993
vn -0.001311 0.003405 0.999993
vn -0.001311 0.003405 0.999993
vn 0.001311 -0.003406 -0.999993
vn 0.001311 -0.003406 -0.999993
vn -0.001311 0.003406 0.999993
vn -0.001311 0.003406 0.999993
vn 0.001311 -0.003406 -0.999993
vn 0.001311 -0.003406 -0.999993
vn -0.001311 0.003406 0.999993
vn -0.001311 0.003406 0.999993
vn 0.001311 -0.003406 -0.999993
vn 0.001311 -0.003406 -0.999993
vn -0.001311 0.003405 0.999993
vn -0.001311 0.003405 0.999993
vn 0.001311 -0.003406 -0.999993
vn 0.001311 -0.003406 -0.999993
vn -0.001311 0.003406 0.999993
vn -0.001311 0.003406 0.999993
vn 0.001311 -0.003406 -0.999993
vn 0.001311 -0.003406 -0.999993
vn -0.001311 0.003406 0.999993
vn -0.001311 0.003406 0.999993
vn 0.001311 -0.003406 -0.999993
vn 0.001311 -0.003406 -0.999993
vn -0.001311 0.003405 0.999993
vn -0.001311 0.003405 0.999993
vn 0.001311 -0.003406 -0.999993
vn 0.001311 -0.003406 -0.999993
vn -0.001311 0.003405 0.999993
vn -0.001311 0.003405 0.999993
vn 0.001311 -0.003406 -0.999993
vn 0.001311 -0.003406 -0.999993
vn -0.001311 0.003405 0.999993
vn -0.001311 0.003405 0.999993
vn 0.001311 -0.003406 -0.999993
vn 0.001311 -0.003406 -0.999993
vn -0.001311 0.003406 0.999993
vn -0.001311 0.003406 0.999993
vn 0.001311 -0.003406 -0.999993
vn 0.001311 -0.003406 -0.999993
vn -0.001311 0.003406 0.999993
vn -0.001311 0.003406 0.999993
vn 0.001311 -0.003406 -0.999993
vn 0.001311 -0.003406 -0.999993
vn -0.001311 0.003406 0.999993
vn -0.001311 0.003406 0.999993
vn 0.001311 -0.003406 -0.999993
vn 0.001311 -0.003406 -0.999993
vn 0.570250 -0.821463 0.003545
vn 0.855071 -0.518504 0.002887
vn 0.855071 -0.518504 0.002887
vn 0.570250 -0.821463 0.003545
vn 0.186828 -0.982386 0.003591
vn 0.186828 -0.982386 0.003591
vn -0.228899 -0.973445 0.003015
vn -0.228899 -0.973445 0.003015
vn -0.605047 -0.796187 0.001919
vn -0.605047 -0.796187 0.001919
vn -0.876577 -0.481261 0.000490
vn -0.876577 -0.481261 0.000490
vn -0.996539 -0.083119 -0.001024
vn -0.996539 -0.083119 -0.001024
vn -0.944190 0.329392 -0.002360
vn -0.944190 0.329392 -0.002360
vn -0.728582 0.684950 -0.003288
vn -0.728582 0.684950 -0.003288
vn -0.386995 0.922075 -0.003649
vn -0.386995 0.922075 -0.003649
vn 0.021506 0.999763 -0.003379
vn 0.021507 0.999763 -0.003379
vn 0.426289 0.904583 -0.002523
vn 0.426289 0.904583 -0.002523
vn 0.757363 0.652993 -0.001231
vn 0.757363 0.652993 -0.001231
vn 0.957481 0.288495 0.000272
vn 0.957481 0.288495 0.000272
vn 0.992043 -0.125888 0.001729
vn 0.992043 -0.125888 0.001729
vn 0.001311 -0.003406 -0.999993
vn 0.001311 -0.003406 -0.999993
vn 0.001311 -0.003406 -0.999993
vn 0.001311 -0.003406 -0.999993
vn -0.001311 0.003406 0.999993
vn -0.001311 0.003406 0.999993
vn 0.001311 -0.003406 -0.999993
vn 0.001311 -0.003406 -0.999993
vn -0.001311 0.003406 0.999993
vn 0.001311 -0.003406 -0.999993
vn 0.001311 -0.003406 -0.999993
vn -0.001311 0.003406 0.999993
vn 0.001312 -0.003405 -0.999993
vn 0.001312 -0.003405 -0.999993
vn -0.001311 0.003405 0.999993
vn 0.001314 -0.003404 -0.999993
vn 0.001314 -0.003404 -0.999993
vn -0.001312 0.003405 0.999993
vn 0.001314 -0.003405 -0.999993
vn 0.001314 -0.003405 -0.999993
vn -0.001312 0.003405 0.999993
vn 0.001312 -0.003406 -0.999993
vn 0.001312 -0.003406 -0.999993
vn -0.001311 0.003406 0.999993
vn 0.001311 -0.003405 -0.999993
vn 0.001311 -0.003405 -0.999993
vn -0.001311 0.003406 0.999993
vn 0.001311 -0.003405 -0.999993
vn 0.001311 -0.003405 -0.999993
vn -0.001311 0.003406 0.999993
vn 0.001311 -0.003405 -0.999993
vn 0.001311 -0.003405 -0.999993
vn -0.001311 0.003406 0.999993
vn 0.001311 -0.003405 -0.999993
vn 0.001311 -0.003405 -0.999993
vn -0.001311 0.003406 0.999993
vn 0.001311 -0.003406 -0.999993
vn 0.001311 -0.003406 -0.999993
vn -0.001311 0.003406 0.999993
vn 0.001311 -0.003406 -0.999993
vn 0.001311 -0.003406 -0.999993
vn -0.001311 0.003406 0.999993
vn 0.001311 -0.003406 -0.999993
vn 0.001311 -0.003406 -0.999993
vn -0.001311 0.003406 0.999993
vn 0.855068 -0.518508 0.002887
vn 0.570252 -0.821462 0.003545
vn 0.570252 -0.821462 0.003545
vn 0.855068 -0.518508 0.002887
vn 0.186820 -0.982388 0.003590
vn 0.186820 -0.982388 0.003590
vn -0.228906 -0.973444 0.003014
vn -0.228906 -0.973444 0.003014
vn -0.605042 -0.796192 0.001918
vn -0.605042 -0.796191 0.001918
vn -0.876575 -0.481265 0.000490
vn -0.876575 -0.481265 0.000490
vn -0.996539 -0.083118 -0.001023
vn -0.996539 -0.083118 -0.001023
vn -0.944190 0.329392 -0.002359
vn -0.944190 0.329392 -0.002359
vn -0.728581 0.684952 -0.003288
vn -0.728581 0.684952 -0.003288
vn -0.386990 0.922076 -0.003649
vn -0.386991 0.922076 -0.003649
vn 0.021503 0.999763 -0.003379
vn 0.021503 0.999763 -0.003379
vn 0.426285 0.904585 -0.002523
vn 0.426285 0.904585 -0.002523
vn 0.757364 0.652991 -0.001231
vn 0.757364 0.652991 -0.001231
vn 0.957480 0.288499 0.000272
vn 0.957480 0.288499 0.000272
vn 0.992043 -0.125888 0.001729
vn 0.992043 -0.125888 0.001729
s 1
g Femur
usemtl lambert2SG
f 1/16/1 2/17/2 17/568/3 16/32/4
f 2/435/2 3/18/5 18/566/6 17/33/3
f 3/427/5 4/19/7 19/558/8 18/34/6
f 4/416/7 5/20/9 20/550/10 19/35/8
f 5/405/9 6/21/11 21/542/12 20/36/10
f 6/394/11 7/22/13 22/534/14 21/37/12
f 7/383/13 8/23/15 23/526/16 22/38/14
f 8/372/15 9/24/17 24/518/18 23/39/16
f 9/361/17 10/25/19 25/510/20 24/40/18
f 10/350/19 11/26/21 26/502/22 25/41/20
f 11/339/21 12/27/23 27/494/24 26/42/22
f 12/328/23 13/28/25 28/486/26 27/43/24
f 13/317/25 14/29/27 29/478/28 28/44/26
f 14/306/27 15/30/29 30/470/30 29/45/28
f 15/295/29 1/31/1 16/47/4 30/46/30
s 2
f 77/430/31 76/432/32 78/438/33
f 79/422/34 77/429/31 78/439/33
f 80/411/35 79/421/34 78/440/33
f 81/400/36 80/410/35 78/441/33
f 82/389/37 81/399/36 78/442/33
f 83/378/38 82/388/37 78/443/33
f 84/367/39 83/377/38 78/444/33
f 85/356/40 84/366/39 78/445/33
f 86/345/41 85/355/40 78/446/33
f 87/334/42 86/344/41 78/447/33
f 88/323/43 87/333/42 78/448/33
f 89/312/44 88/322/43 78/449/33
f 90/301/45 89/311/44 78/450/33
f 91/290/46 90/300/45 78/451/33
f 76/433/32 91/289/46 78/63/33
s 3
f 122/173/47 123/263/48 124/188/49
f 123/264/48 125/257/50 124/187/49
f 125/258/50 126/251/51 124/186/49
f 126/252/51 127/245/52 124/185/49
f 127/246/52 128/239/53 124/184/49
f 128/240/53 129/233/54 124/183/49
f 129/234/54 130/227/55 124/182/49
f 130/228/55 131/221/56 124/181/49
f 131/222/56 132/215/57 124/180/49
f 132/216/57 133/209/58 124/179/49
f 133/210/58 134/203/59 124/178/49
f 134/204/59 135/197/60 124/177/49
f 135/198/60 136/191/61 124/176/49
f 136/192/61 137/171/62 124/64/49
f 137/172/62 122/155/47 124/189/49
s 4
f 46/461/63 47/564/64 48/560/65 49/456/66
f 47/565/64 50/556/67 51/552/68 48/82/65
f 50/557/67 52/548/69 53/544/70 51/85/68
f 52/549/69 54/540/71 55/536/72 53/87/70
f 54/541/71 56/532/73 57/528/74 55/89/72
f 56/533/73 58/524/75 59/520/76 57/91/74
f 58/525/75 60/516/77 61/512/78 59/93/76
f 60/517/77 62/508/79 63/504/80 61/95/78
f 62/509/79 64/500/81 65/496/82 63/97/80
f 64/501/81 66/492/83 67/488/84 65/99/82
f 66/493/83 68/484/85 69/480/86 67/101/84
f 68/485/85 70/476/87 71/472/88 69/103/86
f 70/477/87 72/468/89 73/464/90 71/105/88
f 72/469/89 74/459/91 75/452/92 73/107/90
f 74/460/91 46/80/63 49/457/66 75/109/92
s 5
f 16/61/93 17/569/94 47/563/95 46/462/96
s 6
f 32/269/97 31/271/98 49/455/99 48/561/100
s 5
f 17/60/94 18/567/101 50/555/102 47/81/95
s 6
f 33/266/103 32/268/97 48/562/100 51/553/104
s 5
f 18/59/101 19/559/105 52/547/106 50/84/102
s 6
f 34/260/107 33/265/103 51/554/104 53/545/108
s 5
f 19/58/105 20/551/109 54/539/110 52/86/106
s 6
f 35/254/111 34/259/107 53/546/108 55/537/112
s 5
f 20/57/109 21/543/113 56/531/114 54/88/110
s 6
f 36/248/115 35/253/111 55/538/112 57/529/116
s 5
f 21/56/113 22/535/117 58/523/118 56/90/114
s 6
f 37/242/119 36/247/115 57/530/116 59/521/120
s 5
f 22/55/117 23/527/121 60/515/122 58/92/118
s 6
f 38/236/123 37/241/119 59/522/120 61/513/124
s 5
f 23/54/121 24/519/125 62/507/126 60/94/122
s 6
f 39/230/127 38/235/123 61/514/124 63/505/128
s 5
f 24/53/125 25/511/129 64/499/130 62/96/126
s 6
f 40/224/131 39/229/127 63/506/128 65/497/132
s 5
f 25/52/129 26/503/133 66/491/134 64/98/130
s 6
f 41/218/135 40/223/131 65/498/132 67/489/136
s 5
f 26/51/133 27/495/137 68/483/138 66/100/134
s 6
f 42/212/139 41/217/135 67/490/136 69/481/140
s 5
f 27/50/137 28/487/141 70/475/142 68/102/138
s 6
f 43/206/143 42/211/139 69/482/140 71/473/144
s 5
f 28/49/141 29/479/145 72/467/146 70/104/142
s 6
f 44/200/147 43/205/143 71/474/144 73/465/148
s 5
f 29/48/145 30/471/149 74/458/150 72/106/146
s 6
f 45/194/151 44/199/147 73/466/148 75/453/152
s 5
f 30/62/149 16/570/93 46/463/96 74/108/150
s 6
f 31/272/98 45/193/151 75/454/152 49/83/99
s 7
f 93/424/153 92/284/154 94/277/155 95/419/156
f 96/413/157 93/125/153 95/420/156 97/408/158
f 98/402/159 96/129/157 97/409/158 99/397/160
f 100/391/161 98/131/159 99/398/160 101/386/162
f 102/380/163 100/133/161 101/387/162 103/375/164
f 104/369/165 102/135/163 103/376/164 105/364/166
f 106/358/167 104/137/165 105/365/166 107/353/168
f 108/347/169 106/139/167 107/354/168 109/342/170
f 110/336/171 108/141/169 109/343/170 111/331/172
f 112/325/173 110/143/171 111/332/172 113/320/174
f 114/314/175 112/145/173 113/321/174 115/309/176
f 116/303/177 114/147/175 115/310/176 117/298/178
f 118/292/179 116/149/177 117/299/178 119/287/180
f 120/280/181 118/151/179 119/288/180 121/275/182
f 92/285/154 120/153/181 121/276/182 94/127/155
s 8
f 2/2/183 1/437/184 92/283/185 93/425/186
s 2
f 76/111/32 77/431/31 95/418/187 94/278/188
s 8
f 3/3/189 2/436/183 93/426/186 96/414/190
s 2
f 77/110/31 79/423/34 97/407/191 95/128/187
s 8
f 4/4/192 3/428/189 96/415/190 98/403/193
s 2
f 79/112/34 80/412/35 99/396/194 97/130/191
s 8
f 5/5/195 4/417/192 98/404/193 100/392/196
s 2
f 80/113/35 81/401/36 101/385/197 99/132/194
s 8
f 6/6/198 5/406/195 100/393/196 102/381/199
s 2
f 81/114/36 82/390/37 103/374/200 101/134/197
s 8
f 7/7/201 6/395/198 102/382/199 104/370/202
s 2
f 82/115/37 83/379/38 105/363/203 103/136/200
s 8
f 8/8/204 7/384/201 104/371/202 106/359/205
s 2
f 83/116/38 84/368/39 107/352/206 105/138/203
s 8
f 9/9/207 8/373/204 106/360/205 108/348/208
s 2
f 84/117/39 85/357/40 109/341/209 107/140/206
s 8
f 10/10/210 9/362/207 108/349/208 110/337/211
s 2
f 85/118/40 86/346/41 111/330/212 109/142/209
s 8
f 11/11/213 10/351/210 110/338/211 112/326/214
s 2
f 86/119/41 87/335/42 113/319/215 111/144/212
s 8
f 12/12/216 11/340/213 112/327/214 114/315/217
s 2
f 87/120/42 88/324/43 115/308/218 113/146/215
s 8
f 13/13/219 12/329/216 114/316/217 116/304/220
s 2
f 88/121/43 89/313/44 117/297/221 115/148/218
s 8
f 14/14/222 13/318/219 116/305/220 118/293/223
s 2
f 89/122/44 90/302/45 119/286/224 117/150/221
s 8
f 15/15/225 14/307/222 118/294/223 120/281/226
s 2
f 90/123/45 91/291/46 121/274/227 119/152/224
s 8
f 1/1/184 15/296/225 120/282/226 92/126/185
s 2
f 91/124/46 76/434/32 94/279/188 121/154/227
s 9
f 31/65/228 32/270/229 123/262/230 122/174/231
f 32/66/229 33/267/232 125/256/233 123/156/230
f 33/67/232 34/261/234 126/250/235 125/157/233
f 34/68/234 35/255/236 127/244/237 126/158/235
f 35/69/236 36/249/238 128/238/239 127/159/237
f 36/70/238 37/243/240 129/232/241 128/160/239
f 37/71/240 38/237/242 130/226/243 129/161/241
f 38/72/242 39/231/244 131/220/245 130/162/243
f 39/73/244 40/225/246 132/214/247 131/163/245
f 40/74/246 41/219/248 133/208/249 132/164/247
f 41/75/248 42/213/250 134/202/251 133/165/249
f 42/76/250 43/207/252 135/196/253 134/166/251
f 43/77/252 44/201/254 136/190/255 135/167/253
f 44/78/254 45/195/256 137/170/257 136/168/255
f 45/79/256 31/273/228 122/175/231 137/169/257
g default
v 0.034951 -0.111488 -0.438751
v 0.020621 -0.126731 -0.438718
v -0.007982 -0.085412 -0.438896
v 0.001330 -0.134827 -0.438715
v -0.019587 -0.134377 -0.438744
v -0.038512 -0.125459 -0.438800
v -0.052174 -0.109614 -0.438871
v -0.058209 -0.089582 -0.438948
v -0.055575 -0.068828 -0.439015
v -0.044727 -0.050938 -0.439062
v -0.027541 -0.039008 -0.439080
v -0.006988 -0.035099 -0.439066
v 0.013378 -0.039888 -0.439023
v 0.030035 -0.052546 -0.438958
v 0.040104 -0.070885 -0.438882
v 0.041843 -0.091734 -0.438809
v 0.034881 -0.111306 -0.385383
v 0.041773 -0.091552 -0.385441
v 0.040034 -0.070704 -0.385515
v 0.029966 -0.052364 -0.385590
v 0.013308 -0.039706 -0.385655
v -0.007058 -0.034918 -0.385698
v -0.027611 -0.038826 -0.385712
v -0.044797 -0.050757 -0.385694
v -0.055645 -0.068646 -0.385647
v -0.058279 -0.089401 -0.385580
v -0.052243 -0.109432 -0.385504
v -0.038582 -0.125277 -0.385432
v -0.019657 -0.134195 -0.385377
v 0.001260 -0.134646 -0.385348
v 0.020551 -0.126549 -0.385350
v 0.034811 -0.111124 -0.332015
v 0.020481 -0.126367 -0.331982
v -0.008122 -0.085048 -0.332160
v 0.001190 -0.134464 -0.331980
v -0.019726 -0.134014 -0.332009
v -0.038652 -0.125095 -0.332064
v -0.052313 -0.109250 -0.332136
v -0.058349 -0.089219 -0.332212
v -0.055715 -0.068464 -0.332279
v -0.044867 -0.050575 -0.332326
v -0.027681 -0.038645 -0.332344
v -0.007128 -0.034736 -0.332330
v 0.013238 -0.039524 -0.332287
v 0.029896 -0.052183 -0.332222
v 0.039964 -0.070522 -0.332147
v 0.041703 -0.091371 -0.332074
vt 0.697946 0.333118
vt 0.732426 0.348469
vt 0.723201 0.361166
vt 0.709609 0.369013
vt 0.694001 0.370654
vt 0.679075 0.365804
vt 0.667411 0.355303
vt 0.661028 0.340965
vt 0.661028 0.325271
vt 0.667412 0.310933
vt 0.679075 0.300432
vt 0.694001 0.295582
vt 0.709609 0.297223
vt 0.723201 0.305070
vt 0.732426 0.317767
vt 0.735689 0.333118
vt 0.732426 0.348469
vt 0.735689 0.333118
vt 0.732426 0.317767
vt 0.723201 0.305070
vt 0.709609 0.297223
vt 0.694001 0.295582
vt 0.679075 0.300432
vt 0.667412 0.310933
vt 0.661028 0.325271
vt 0.661028 0.340965
vt 0.667411 0.355303
vt 0.679075 0.365804
vt 0.694001 0.370654
vt 0.709609 0.369013
vt 0.723201 0.361166
vt 0.732426 0.348469
vt 0.723201 0.361166
vt 0.697946 0.333118
vt 0.709609 0.369013
vt 0.694001 0.370654
vt 0.679075 0.365804
vt 0.667411 0.355303
vt 0.661028 0.340965
vt 0.661028 0.325271
vt 0.667412 0.310933
vt 0.679075 0.300432
vt 0.694001 0.295582
vt 0.709609 0.297223
vt 0.723201 0.305070
vt 0.732426 0.317767
vt 0.735689 0.333118
vt 0.735689 0.333118
vt 0.732426 0.348469
vt 0.732426 0.317767
vt 0.723201 0.305070
vt 0.709609 0.297223
vt 0.694001 0.295582
vt 0.679075 0.300432
vt 0.667412 0.310933
vt 0.661028 0.325271
vt 0.661028 0.340965
vt 0.667411 0.355303
vt 0.679075 0.365804
vt 0.694001 0.370654
vt 0.709609 0.369013
vt 0.723201 0.361166
vn 0.001311 -0.003406 -0.999993
vn 0.001311 -0.003406 -0.999993
vn 0.001311 -0.003406 -0.999993
vn 0.001311 -0.003405 -0.999993
vn 0.001311 -0.003405 -0.999993
vn 0.001311 -0.003405 -0.999993
vn 0.001311 -0.003405 -0.999993
vn 0.001311 -0.003406 -0.999993
vn 0.001311 -0.003406 -0.999993
vn 0.001311 -0.003406 -0.999993
vn 0.001311 -0.003406 -0.999993
vn 0.001311 -0.003406 -0.999993
vn 0.001311 -0.003406 -0.999993
vn 0.001311 -0.003406 -0.999993
vn 0.001311 -0.003407 -0.999993
vn 0.001311 -0.003406 -0.999993
vn 0.992043 -0.125888 0.001729
vn 0.855069 -0.518506 0.002887
vn 0.855069 -0.518506 0.002887
vn 0.992043 -0.125888 0.001729
vn 0.957481 0.288497 0.000272
vn 0.957481 0.288497 0.000272
vn 0.757365 0.652991 -0.001231
vn 0.757365 0.652991 -0.001231
vn 0.426282 0.904587 -0.002522
vn 0.426282 0.904587 -0.002523
vn 0.021503 0.999763 -0.003377
vn 0.021503 0.999763 -0.003379
vn -0.386989 0.922077 -0.003648
vn -0.386989 0.922077 -0.003649
vn -0.728578 0.684955 -0.003288
vn -0.728578 0.684955 -0.003288
vn -0.944191 0.329391 -0.002359
vn -0.944191 0.329391 -0.002359
vn -0.996539 -0.083118 -0.001023
vn -0.996539 -0.083118 -0.001023
vn -0.876574 -0.481267 0.000490
vn -0.876574 -0.481267 0.000490
vn -0.605041 -0.796192 0.001919
vn -0.605041 -0.796192 0.001918
vn -0.228907 -0.973444 0.003015
vn -0.228907 -0.973444 0.003014
vn 0.186816 -0.982388 0.003591
vn 0.186817 -0.982388 0.003590
vn 0.570253 -0.821462 0.003545
vn 0.570253 -0.821462 0.003545
vn -0.001311 0.003406 0.999993
vn -0.001311 0.003406 0.999993
vn -0.001311 0.003406 0.999993
vn -0.001311 0.003406 0.999993
vn -0.001311 0.003406 0.999993
vn -0.001311 0.003406 0.999993
vn -0.001311 0.003406 0.999993
vn -0.001311 0.003406 0.999993
vn -0.001311 0.003406 0.999993
vn -0.001311 0.003406 0.999993
vn -0.001311 0.003405 0.999993
vn -0.001311 0.003405 0.999993
vn -0.001311 0.003405 0.999993
vn -0.001311 0.003406 0.999993
vn -0.001311 0.003406 0.999993
vn -0.001311 0.003406 0.999993
vn 0.992043 -0.125888 0.001729
vn 0.855069 -0.518506 0.002887
vn 0.957481 0.288497 0.000272
vn 0.757365 0.652990 -0.001231
vn 0.426282 0.904587 -0.002521
vn 0.021503 0.999763 -0.003375
vn -0.386989 0.922077 -0.003646
vn -0.728578 0.684955 -0.003287
vn -0.944191 0.329391 -0.002359
vn -0.996539 -0.083118 -0.001023
vn -0.876574 -0.481267 0.000490
vn -0.605041 -0.796192 0.001919
vn -0.228907 -0.973444 0.003016
vn 0.186816 -0.982388 0.003591
vn 0.570253 -0.821462 0.003545
s 1
g Femur FemurCanisterButton
usemtl lambert2SG
f 138/572/258 139/573/259 140/571/260
f 139/573/259 141/574/261 140/571/260
f 141/574/261 142/575/262 140/571/260
f 142/575/262 143/576/263 140/571/260
f 143/576/263 144/577/264 140/571/260
f 144/577/264 145/578/265 140/571/260
f 145/578/265 146/579/266 140/571/260
f 146/579/266 147/580/267 140/571/260
f 147/580/267 148/581/268 140/571/260
f 148/581/268 149/582/269 140/571/260
f 149/582/269 150/583/270 140/571/260
f 150/583/270 151/584/271 140/571/260
f 151/584/271 152/585/272 140/571/260
f 152/585/272 153/586/273 140/571/260
f 153/586/273 138/572/258 140/571/260
s 2
f 155/588/274 154/587/275 138/572/276 153/586/277
f 156/589/278 155/588/274 153/586/277 152/585/279
f 157/590/280 156/589/278 152/585/279 151/584/281
f 158/591/282 157/590/280 151/584/281 150/583/283
f 159/592/284 158/591/282 150/583/283 149/582/285
f 160/593/286 159/592/284 149/582/285 148/581/287
f 161/594/288 160/593/286 148/581/287 147/580/289
f 162/595/290 161/594/288 147/580/289 146/579/291
f 163/596/292 162/595/290 146/579/291 145/578/293
f 164/597/294 163/596/292 145/578/293 144/577/295
f 165/598/296 164/597/294 144/577/295 143/576/297
f 166/599/298 165/598/296 143/576/297 142/575/299
f 167/600/300 166/599/298 142/575/299 141/574/301
f 168/601/302 167/600/300 141/574/301 139/573/303
f 154/587/275 168/601/302 139/573/303 138/572/276
s 3
f 169/602/304 171/604/305 170/603/306
f 170/603/306 171/604/305 172/605/307
f 172/605/307 171/604/305 173/606/308
f 173/606/308 171/604/305 174/607/309
f 174/607/309 171/604/305 175/608/310
f 175/608/310 171/604/305 176/609/311
f 176/609/311 171/604/305 177/610/312
f 177/610/312 171/604/305 178/611/313
f 178/611/313 171/604/305 179/612/314
f 179/612/314 171/604/305 180/613/315
f 180/613/315 171/604/305 181/614/316
f 181/614/316 171/604/305 182/615/317
f 182/615/317 171/604/305 183/616/318
f 183/616/318 171/604/305 184/617/319
f 184/617/319 171/604/305 169/602/304
s 2
f 155/618/274 184/617/320 169/602/321 154/619/275
f 156/620/278 183/616/322 184/617/320 155/618/274
f 157/621/280 182/615/323 183/616/322 156/620/278
f 158/622/282 181/614/324 182/615/323 157/621/280
f 159/623/284 180/613/325 181/614/324 158/622/282
f 160/624/286 179/612/326 180/613/325 159/623/284
f 161/625/288 178/611/327 179/612/326 160/624/286
f 162/626/290 177/610/328 178/611/327 161/625/288
f 163/627/292 176/609/329 177/610/328 162/626/290
f 164/628/294 175/608/330 176/609/329 163/627/292
f 165/629/296 174/607/331 175/608/330 164/628/294
f 166/630/298 173/606/332 174/607/331 165/629/296
f 167/631/300 172/605/333 173/606/332 166/630/298
f 168/632/302 170/603/334 172/605/333 167/631/300
f 154/619/275 169/602/321 170/603/334 168/632/302
g default
v -0.030282 -0.130369 0.456564
v 0.135372 -0.151390 0.456853
v -0.017142 -0.026824 0.456229
v 0.148512 -0.047846 0.456517
v -0.016946 -0.027334 0.306670
v 0.148708 -0.048355 0.306959
v -0.030086 -0.130879 0.307006
v 0.135568 -0.151900 0.307294
v -0.017009 -0.027170 0.354667
v -0.030149 -0.130715 0.355002
v 0.135505 -0.151736 0.355291
v 0.148646 -0.048191 0.354956
v -0.018934 -0.040944 0.456274
v -0.018801 -0.041290 0.354713
v -0.018738 -0.041454 0.306716
v 0.146917 -0.062475 0.307005
v 0.146854 -0.062311 0.355001
v 0.146721 -0.061965 0.456563
v -0.028177 -0.113778 0.456510
v -0.028044 -0.114124 0.354949
v -0.027981 -0.114287 0.306952
v 0.137674 -0.135308 0.307241
v 0.137611 -0.135145 0.355237
v 0.137478 -0.134799 0.456799
v 1.592997 -0.319830 0.357774
v 1.592864 -0.319484 0.459335
v 1.602239 -0.246996 0.357538
v 1.602106 -0.246650 0.459099
v 1.287410 -0.281051 0.357241
v 1.287276 -0.280706 0.458803
v 1.296519 -0.207872 0.458567
v 1.296652 -0.208218 0.357005
v 1.296678 -0.208285 0.337305
v 1.287435 -0.281119 0.337541
v 1.602265 -0.247063 0.337838
v 1.593022 -0.319897 0.338074
v 1.296899 -0.206270 0.356999
v 1.623518 -0.079317 0.356995
v 1.623544 -0.079384 0.337295
v 1.296925 -0.206337 0.337299
v 2.029859 -0.375266 0.358535
v 2.039102 -0.302433 0.358299
v 2.029885 -0.375334 0.338835
v 2.039128 -0.302500 0.338599
v 2.060407 -0.134821 0.338056
v 2.060381 -0.134754 0.357756
vt 0.883194 0.287705
vt 0.913325 0.287705
vt 0.883194 0.317836
vt 0.913325 0.317836
vt 0.883194 0.347967
vt 0.913325 0.347967
vt 0.883194 0.378098
vt 0.913325 0.378098
vt 0.883194 0.408229
vt 0.913325 0.408229
vt 0.943456 0.287705
vt 0.943456 0.317836
vt 0.853063 0.287705
vt 0.853063 0.317836
vt 0.862733 0.317836
vt 0.883194 0.338297
vt 0.862733 0.287705
vt 0.883194 0.387768
vt 0.913325 0.387768
vt 0.933787 0.287705
vt 0.913325 0.338297
vt 0.933787 0.317836
vt 0.883194 0.313727
vt 0.862733 0.313727
vt 0.853063 0.313727
vt 0.883194 0.352076
vt 0.913325 0.352076
vt 0.943456 0.313727
vt 0.933787 0.313727
vt 0.913325 0.313727
vt 0.883194 0.292533
vt 0.862733 0.292533
vt 0.853063 0.292533
vt 0.883194 0.373270
vt 0.913325 0.373270
vt 0.943456 0.292533
vt 0.933787 0.292533
vt 0.913325 0.292533
vt 0.913325 0.292533
vt 0.684255 0.398295
vt 0.684255 0.419489
vt 0.913325 0.313727
vt 0.684255 0.398295
vt 0.913325 0.292533
vt 0.913325 0.313727
vt 0.684255 0.419489
vt 0.684255 0.398295
vt 0.684255 0.419489
vt 0.684255 0.419489
vt 0.684255 0.398295
vt 0.684255 0.419489
vt 0.684255 0.419489
vt 0.684255 0.419489
vt 0.684255 0.419489
vt 0.684255 0.419489
vt 0.684255 0.398295
vt 0.684255 0.398295
vt 0.684255 0.419489
vt 0.684255 0.419489
vt 0.684255 0.419489
vt 0.684255 0.419489
vt 0.684255 0.419489
vt 0.684255 0.419489
vt 0.684255 0.419489
vt 0.684255 0.419489
vt 0.684255 0.419489
vt 0.684255 0.419489
vt 0.684255 0.419489
vt 0.684255 0.419489
vt 0.684255 0.419489
vt 0.684255 0.419489
vt 0.684255 0.419489
vt 0.684255 0.419489
vt 0.684255 0.419489
vt 0.684255 0.419489
vt 0.684255 0.419489
vt 0.684255 0.398295
vt 0.684255 0.398295
vt 0.684255 0.419489
vt 0.684255 0.419489
vt 0.684255 0.419489
vt 0.684255 0.398295
vt 0.684255 0.398295
vt 0.684255 0.398295
vt 0.684255 0.398295
vt 0.684255 0.398295
vt 0.933787 0.313727
vt 0.933787 0.313727
vt 0.684255 0.419489
vt 0.684255 0.419489
vt 0.684255 0.398295
vt 0.933787 0.292533
vt 0.933787 0.292533
vt 0.684255 0.398295
vt 0.684255 0.419489
vt 0.684255 0.419489
vt 0.684255 0.419489
vt 0.684255 0.419489
vt 0.684255 0.419489
vt 0.684255 0.419489
vt 0.684255 0.419489
vt 0.933787 0.313727
vt 0.933787 0.313727
vt 0.933787 0.313727
vt 0.684255 0.419489
vt 0.684255 0.419489
vt 0.684255 0.398295
vt 0.684255 0.398295
vt 0.933787 0.292533
vt 0.933787 0.292533
vt 0.933787 0.292533
vt 0.684255 0.398295
vt 0.913325 0.313727
vt 0.913325 0.313727
vt 0.913325 0.313727
vt 0.913325 0.292533
vt 0.913325 0.292533
vt 0.913325 0.292533
vt 0.913325 0.313727
vt 0.913325 0.313727
vt 0.913325 0.292533
vt 0.913325 0.292533
vt 0.913325 0.313727
vt 0.913325 0.313727
vt 0.913325 0.313727
vt 0.913325 0.313727
vt 0.933787 0.313727
vt 0.933787 0.313727
vt 0.933787 0.313727
vt 0.933787 0.313727
vt 0.913325 0.292533
vt 0.913325 0.292533
vt 0.913325 0.292533
vt 0.913325 0.292533
vt 0.933787 0.292533
vt 0.933787 0.292533
vt 0.933787 0.292533
vt 0.933787 0.292533
vt 0.883194 0.292533
vt 0.883194 0.292533
vt 0.883194 0.292533
vt 0.913325 0.373270
vt 0.943456 0.292533
vt 0.853063 0.292533
vt 0.883194 0.373270
vt 0.862733 0.292533
vt 0.862733 0.292533
vt 0.862733 0.292533
vt 0.913325 0.378098
vt 0.883194 0.378098
vt 0.883194 0.387768
vt 0.862733 0.287705
vt 0.883194 0.313727
vt 0.883194 0.313727
vt 0.883194 0.313727
vt 0.913325 0.352076
vt 0.943456 0.313727
vt 0.853063 0.313727
vt 0.883194 0.352076
vt 0.862733 0.313727
vt 0.862733 0.313727
vt 0.862733 0.313727
vt 0.913325 0.317836
vt 0.913325 0.317836
vt 0.913325 0.338297
vt 0.933787 0.317836
vt 0.883194 0.317836
vt 0.883194 0.317836
vt 0.862733 0.317836
vt 0.883194 0.338297
vt 0.913325 0.387768
vt 0.933787 0.287705
vt 0.913325 0.347967
vt 0.913325 0.287705
vt 0.883194 0.287705
vt 0.883194 0.347967
vn -0.001311 0.003406 0.999993
vn -0.001311 0.003406 0.999993
vn -0.001311 0.003406 0.999993
vn -0.001311 0.003406 0.999993
vn 0.125893 0.992039 -0.003214
vn 0.125893 0.992039 -0.003214
vn 0.125893 0.992039 -0.003214
vn 0.125893 0.992039 -0.003214
vn 0.001311 -0.003406 -0.999993
vn 0.001311 -0.003406 -0.999993
vn 0.001311 -0.003406 -0.999993
vn 0.001311 -0.003406 -0.999993
vn -0.125893 -0.992039 0.003214
vn -0.125893 -0.992039 0.003214
vn -0.125893 -0.992039 0.003214
vn -0.125893 -0.992039 0.003214
vn 0.992043 -0.125888 0.001729
vn 0.992043 -0.125888 0.001729
vn 0.992043 -0.125888 0.001729
vn 0.992043 -0.125888 0.001729
vn -0.992043 0.125888 -0.001729
vn -0.992043 0.125888 -0.001729
vn -0.992043 0.125888 -0.001729
vn -0.992043 0.125888 -0.001729
vn -0.992043 0.125888 -0.001729
vn -0.992043 0.125888 -0.001729
vn -0.125893 -0.992039 0.003214
vn -0.125893 -0.992039 0.003214
vn 0.992043 -0.125888 0.001729
vn 0.992043 -0.125888 0.001729
vn 0.125893 0.992039 -0.003214
vn 0.125893 0.992039 -0.003214
vn -0.992043 0.125888 -0.001729
vn -0.992043 0.125888 -0.001729
vn -0.992043 0.125888 -0.001729
vn -0.992043 0.125888 -0.001729
vn -0.992043 0.125888 -0.001729
vn -0.992043 0.125888 -0.001729
vn 0.001311 -0.003406 -0.999993
vn 0.001311 -0.003406 -0.999993
vn 0.001311 -0.003406 -0.999993
vn 0.001311 -0.003406 -0.999993
vn 0.992043 -0.125888 0.001729
vn 0.992043 -0.125888 0.001729
vn 0.992043 -0.125888 0.001729
vn 0.992043 -0.125888 0.001729
vn 0.992043 -0.125888 0.001729
vn 0.992043 -0.125888 0.001729
vn -0.001311 0.003406 0.999993
vn -0.001311 0.003406 0.999993
vn -0.001311 0.003406 0.999993
vn -0.001311 0.003406 0.999993
vn 0.992043 -0.125888 0.001729
vn 0.992043 -0.125888 0.001729
vn 0.992043 -0.125888 0.001729
vn 0.992043 -0.125888 0.001729
vn -0.125893 -0.992039 0.003214
vn -0.125893 -0.992039 0.003214
vn -0.125893 -0.992039 0.003214
vn -0.125893 -0.992039 0.003214
vn 0.001311 -0.003406 -0.999993
vn 0.001311 -0.003406 -0.999993
vn 0.001311 -0.003406 -0.999993
vn 0.001311 -0.003406 -0.999993
vn 0.125893 0.992039 -0.003214
vn 0.125893 0.992039 -0.003214
vn 0.125893 0.992039 -0.003214
vn 0.125893 0.992039 -0.003214
vn -0.001311 0.003406 0.999993
vn -0.001311 0.003406 0.999993
vn -0.125893 -0.992039 0.003214
vn -0.125893 -0.992039 0.003214
vn -0.001311 0.003406 0.999993
vn -0.001311 0.003406 0.999993
vn 0.125893 0.992039 -0.003214
vn 0.125893 0.992039 -0.003214
vn 0.001311 -0.003406 -0.999993
vn 0.001311 -0.003406 -0.999993
vn 0.001311 -0.003406 -0.999993
vn 0.001311 -0.003406 -0.999993
vn -0.992043 0.125888 -0.001729
vn -0.992043 0.125888 -0.001729
vn -0.992043 0.125888 -0.001729
vn -0.992043 0.125888 -0.001729
vn -0.362283 0.932061 -0.003649
vn -0.093260 0.995636 -0.003513
vn -0.093260 0.995636 -0.003513
vn -0.362283 0.932061 -0.003649
vn 0.992043 -0.125888 0.001729
vn 0.992043 -0.125888 0.001729
vn 0.992043 -0.125888 0.001729
vn 0.992043 -0.125888 0.001729
vn -0.125893 -0.992039 0.003214
vn -0.125893 -0.992039 0.003214
vn -0.001311 0.003406 0.999993
vn -0.001311 0.003406 0.999993
vn -0.001311 0.003406 0.999993
vn -0.001311 0.003406 0.999993
vn 0.992043 -0.125888 0.001729
vn 0.992043 -0.125888 0.001729
vn 0.001311 -0.003406 -0.999993
vn 0.001311 -0.003406 -0.999993
vn -0.992043 0.125888 -0.001729
vn -0.992043 0.125888 -0.001729
vn -0.001311 0.003406 0.999993
vn -0.001311 0.003406 0.999993
vn -0.001311 0.003406 0.999993
vn -0.125893 -0.992039 0.003214
vn -0.125893 -0.992039 0.003214
vn 0.001311 -0.003406 -0.999993
vn 0.001311 -0.003406 -0.999993
vn 0.001311 -0.003406 -0.999993
vn 0.125893 0.992039 -0.003214
vn 0.125893 0.992039 -0.003214
vn -0.001311 0.003406 0.999993
s 1
g Femur FemurBone
usemtl lambert2SG
f 185/807/335 186/634/336 208/764/337 203/663/338
s 2
f 187/799/339 188/795/340 196/653/341 193/648/342
s 3
f 205/777/343 206/774/344 192/640/345 191/782/346
s 4
f 194/650/347 195/803/348 186/642/349 185/641/350
s 5
f 186/806/351 195/804/352 207/769/353 208/763/354
s 6
f 203/771/355 204/779/356 194/649/357 185/633/358
f 191/645/359 194/784/357 204/780/356 205/776/360
s 4
f 191/639/361 192/781/362 195/651/348 194/783/347
s 5
f 206/775/363 207/768/353 195/652/352 192/643/364
s 2
f 193/802/342 196/797/341 190/638/365 189/808/366
s 6
f 193/647/367 198/792/368 197/785/369 187/635/370
f 199/657/371 198/656/368 193/801/367 189/646/372
s 3
f 189/637/373 190/805/374 200/659/375 199/658/376
s 5
f 196/798/377 201/760/378 200/660/379 190/644/380
f 202/757/381 201/759/378 196/654/377 188/796/382
s 1
f 197/786/383 202/756/384 188/636/385 187/800/386
s 6
f 197/655/369 198/793/368 204/778/356 203/772/355
f 205/665/360 204/664/356 198/794/368 199/790/371
s 3
f 199/791/376 200/788/375 206/667/344 205/666/343
s 5
f 200/789/379 201/761/378 207/767/353 206/668/363
s off
f 210/753/387 209/725/388 211/719/389 212/751/390
s 1
f 203/773/338 208/765/337 202/755/384 197/787/383
s 9
f 208/670/391 207/770/392 213/742/393 214/749/394
s off
f 207/669/395 201/762/396 216/736/397 213/741/398
s 10
f 201/661/399 202/758/400 215/747/401 216/735/402
s 1
f 202/662/384 208/766/337 214/750/403 215/746/404
s 9
f 214/748/394 213/743/393 209/724/405 210/754/406
s 1
f 215/745/404 214/676/403 210/671/407 212/752/408
s 10
f 216/734/402 215/677/401 212/674/409 211/720/410
s 11
f 218/679/411 217/732/412 219/712/413 220/716/414
s 12
f 213/675/415 216/737/416 217/731/417 218/739/418
s 13
f 221/683/419 222/701/420 223/706/421 224/730/422
s 14
f 226/693/423 225/715/424 227/710/425 228/704/426
s 9
f 209/723/405 213/744/393 218/740/427 220/717/428
s 15
f 216/678/429 211/721/430 222/700/431 221/727/432
s 14
f 226/687/423 228/705/426 229/699/433 230/697/434
s 11
f 219/711/413 217/733/412 224/729/435 223/707/436
s 12
f 217/680/417 216/738/416 221/728/437 224/686/438
s 15
f 211/673/430 209/726/439 225/714/440 226/694/441
s 9
f 209/672/405 220/718/428 227/709/442 225/688/443
s 11
f 220/682/414 219/713/413 228/703/444 227/689/445
f 219/681/413 223/708/436 229/698/446 228/690/444
s 13
f 223/685/421 222/702/420 230/696/447 229/691/448
s 15
f 222/684/431 211/722/430 226/695/441 230/692/449
