# Blender v2.90.0 OBJ File: ''
# www.blender.org
v -1.000000 -1.000000 1.000000
v 1.000000 -1.000000 -1.000000
v 1.000000 -1.000000 1.000000
v -1.000000 1.000000 -1.000000
v 1.000000 1.000000 -1.000000
v -1.000000 -1.000000 -1.000000
v -1.000000 1.000000 1.000000
v 1.000000 1.000000 1.000000
vt 0.384490 0.916207
vt 0.051157 0.582874
vt 0.384490 0.582874
vt 0.112661 0.456200
vt 0.223772 0.382579
vt 0.223772 0.456200
vt 0.544160 0.452698
vt 0.877493 0.119365
vt 0.877493 0.452698
vt 0.753478 0.494595
vt 0.420144 0.161262
vt 0.753478 0.161262
vt 0.055807 0.916289
vt 0.389140 0.582956
vt 0.389140 0.916289
vt 0.449935 0.881069
vt 0.754691 0.611975
vt 0.754691 0.881070
vt 0.051156 0.916207
vt 0.112661 0.382579
vt 0.544160 0.119365
vt 0.420144 0.494595
vt 0.055807 0.582956
vt 0.449935 0.611975
vn 0.0000 -1.0000 -0.0000
vn 0.0000 0.0000 -1.0000
vn -1.0000 0.0000 0.0000
vn 0.0000 1.0000 0.0000
vn 1.0000 0.0000 0.0000
vn 0.0000 -0.0000 1.0000
s 1
f 1/1/1 2/2/1 3/3/1
f 2/4/2 4/5/2 5/6/2
f 6/7/3 7/8/3 4/9/3
f 8/10/4 4/11/4 7/12/4
f 3/13/5 5/14/5 8/15/5
f 1/16/6 8/17/6 7/18/6
f 1/1/1 6/19/1 2/2/1
f 2/4/2 6/20/2 4/5/2
f 6/7/3 1/21/3 7/8/3
f 8/10/4 5/22/4 4/11/4
f 3/13/5 2/23/5 5/14/5
f 1/16/6 3/24/6 8/17/6
