# This file uses centimeters as units for non-parametric coordinates.

mtllib Femur_Mirrored.mtl
g default
v 0.196361 -0.121085 -0.357546
v 0.130231 -0.191427 -0.357699
v 0.041208 -0.228791 -0.357709
v -0.055317 -0.226715 -0.357575
v -0.142651 -0.185559 -0.357320
v -0.205696 -0.112439 -0.356989
v -0.233549 -0.019997 -0.356638
v -0.221394 0.075781 -0.356328
v -0.171334 0.158335 -0.356112
v -0.092024 0.213391 -0.356028
v 0.002823 0.231428 -0.356091
v 0.096806 0.209329 -0.356289
v 0.173676 0.150915 -0.356590
v 0.220139 0.066285 -0.356939
v 0.228164 -0.029927 -0.357277
v 0.197147 -0.123126 0.241704
v 0.131016 -0.193468 0.241551
v 0.041993 -0.230832 0.241540
v -0.054531 -0.228756 0.241674
v -0.141866 -0.187600 0.241929
v -0.204910 -0.114479 0.242260
v -0.232763 -0.022038 0.242612
v -0.220609 0.073740 0.242922
v -0.170548 0.156294 0.243138
v -0.091239 0.211350 0.243221
v 0.003609 0.229387 0.243158
v 0.097592 0.207289 0.242960
v 0.174461 0.148874 0.242660
v 0.220925 0.064244 0.242311
v 0.228950 -0.031968 0.241973
v 0.053527 0.048584 0.279309
v 0.039197 0.033341 0.279276
v 0.019906 0.025245 0.279274
v -0.001010 0.025695 0.279303
v -0.019935 0.034613 0.279358
v -0.033597 0.050458 0.279430
v -0.039632 0.070489 0.279506
v -0.036999 0.091244 0.279573
v -0.026151 0.109134 0.279619
v -0.008964 0.121064 0.279638
v 0.011589 0.124973 0.279624
v 0.031954 0.120184 0.279582
v 0.048612 0.107526 0.279517
v 0.058680 0.089187 0.279441
v 0.060420 0.068338 0.279368
v 0.207424 -0.129400 0.241669
v 0.137841 -0.203414 0.241508
v 0.137890 -0.203539 0.278340
v 0.207472 -0.129525 0.278501
v 0.044170 -0.242727 0.241498
v 0.044218 -0.242853 0.278329
v -0.057393 -0.240543 0.241637
v -0.057344 -0.240669 0.278470
v -0.149286 -0.197239 0.241906
v -0.149238 -0.197364 0.278737
v -0.215622 -0.120301 0.242255
v -0.215574 -0.120427 0.279087
v -0.244929 -0.023035 0.242624
v -0.244880 -0.023160 0.279456
v -0.232140 0.077743 0.242951
v -0.232091 0.077618 0.279783
v -0.179466 0.164607 0.243178
v -0.179418 0.164481 0.280010
v -0.096015 0.222537 0.243266
v -0.095968 0.222411 0.280097
v 0.003782 0.241516 0.243199
v 0.003831 0.241391 0.280031
v 0.102671 0.218263 0.242991
v 0.102719 0.218138 0.279822
v 0.183553 0.156799 0.242675
v 0.183602 0.156674 0.279507
v 0.232443 0.067752 0.242308
v 0.232491 0.067626 0.279139
v 0.240887 -0.033483 0.241952
v 0.240935 -0.033609 0.278784
v 0.196341 -0.121032 -0.373160
v 0.130211 -0.191374 -0.373312
v -0.002190 -0.000645 -0.372490
v 0.041187 -0.228738 -0.373323
v -0.055337 -0.226662 -0.373190
v -0.142671 -0.185506 -0.372935
v -0.205716 -0.112385 -0.372603
v -0.233569 -0.019944 -0.372252
v -0.221414 0.075834 -0.371941
v -0.171354 0.158388 -0.371726
v -0.092044 0.213444 -0.371643
v 0.002803 0.231482 -0.371705
v 0.096786 0.209383 -0.371904
v 0.173656 0.150968 -0.372203
v 0.220119 0.066338 -0.372553
v 0.228144 -0.029874 -0.372891
v 0.209844 -0.129261 -0.357591
v 0.139223 -0.204380 -0.357754
v 0.209823 -0.129208 -0.373205
v 0.139202 -0.204327 -0.373369
v 0.044154 -0.244280 -0.357766
v 0.044133 -0.244227 -0.373380
v -0.058925 -0.242064 -0.357623
v -0.058946 -0.242010 -0.373237
v -0.152191 -0.198113 -0.357351
v -0.152211 -0.198059 -0.372965
v -0.219517 -0.120027 -0.356997
v -0.219537 -0.119973 -0.372610
v -0.249262 -0.021308 -0.356621
v -0.249282 -0.021255 -0.372236
v -0.236281 0.080974 -0.356290
v -0.236302 0.081027 -0.371905
v -0.182822 0.169135 -0.356059
v -0.182842 0.169188 -0.371674
v -0.098125 0.227929 -0.355971
v -0.098146 0.227982 -0.371585
v 0.003162 0.247192 -0.356037
v 0.003142 0.247245 -0.371652
v 0.103528 0.223592 -0.356250
v 0.103507 0.223645 -0.371864
v 0.185617 0.161211 -0.356570
v 0.185597 0.161264 -0.372184
v 0.235236 0.070834 -0.356943
v 0.235215 0.070887 -0.372558
v 0.243806 -0.031912 -0.357304
v 0.243786 -0.031859 -0.372918
v 0.053651 0.048263 0.373517
v 0.039321 0.033020 0.373485
v 0.010718 0.074340 0.373663
v 0.020030 0.024924 0.373482
v -0.000887 0.025374 0.373511
v -0.019812 0.034292 0.373566
v -0.033473 0.050137 0.373638
v -0.039509 0.070169 0.373714
v -0.036875 0.090924 0.373781
v -0.026028 0.108813 0.373828
v -0.008841 0.120743 0.373846
v 0.011712 0.124652 0.373832
v 0.032078 0.119863 0.373790
v 0.048735 0.107205 0.373725
v 0.058804 0.088866 0.373649
v 0.060543 0.068017 0.373576
vt 0.244441 0.343059
vt 0.244441 0.485078
vt 0.250753 0.485078
vt 0.250753 0.343059
vt 0.250753 0.343059
vt 0.250753 0.485078
vt 0.257065 0.485078
vt 0.257065 0.343059
vt 0.257065 0.343059
vt 0.257065 0.485078
vt 0.263377 0.485078
vt 0.263377 0.343059
vt 0.263377 0.343059
vt 0.263377 0.485078
vt 0.269689 0.485078
vt 0.269689 0.343059
vt 0.269689 0.343059
vt 0.269689 0.485078
vt 0.276001 0.485078
vt 0.276001 0.343059
vt 0.276001 0.343059
vt 0.276001 0.485078
vt 0.282313 0.485078
vt 0.282313 0.343059
vt 0.282313 0.343059
vt 0.282313 0.485078
vt 0.288625 0.485078
vt 0.288625 0.343059
vt 0.288625 0.343059
vt 0.288625 0.485078
vt 0.294937 0.485078
vt 0.294937 0.343059
vt 0.294937 0.343059
vt 0.294937 0.485078
vt 0.301249 0.485078
vt 0.301249 0.343059
vt 0.301249 0.343059
vt 0.301249 0.485078
vt 0.307561 0.485078
vt 0.307561 0.343059
vt 0.307561 0.343059
vt 0.307561 0.485078
vt 0.313873 0.485078
vt 0.313873 0.343059
vt 0.313873 0.343059
vt 0.313873 0.485078
vt 0.320185 0.485078
vt 0.320185 0.343059
vt 0.320185 0.343059
vt 0.320185 0.485078
vt 0.326497 0.485078
vt 0.326497 0.343059
vt 0.326497 0.343059
vt 0.326497 0.485078
vt 0.332809 0.485078
vt 0.332809 0.343059
vt 0.332809 0.343059
vt 0.332809 0.485078
vt 0.339121 0.485078
vt 0.339121 0.343059
vt 0.510804 0.565082
vt 0.496516 0.580950
vt 0.516024 0.572265
vt 0.503115 0.560642
vt 0.496516 0.580950
vt 0.510804 0.565082
vt 0.494284 0.559714
vt 0.496516 0.580950
vt 0.503115 0.560642
vt 0.485840 0.562458
vt 0.496516 0.580950
vt 0.494284 0.559714
vt 0.479241 0.568399
vt 0.496516 0.580950
vt 0.485840 0.562458
vt 0.475630 0.576511
vt 0.496516 0.580950
vt 0.479241 0.568399
vt 0.475630 0.585390
vt 0.496516 0.580950
vt 0.475630 0.576511
vt 0.479241 0.593502
vt 0.496516 0.580950
vt 0.475630 0.585390
vt 0.485840 0.599443
vt 0.496516 0.580950
vt 0.479241 0.593502
vt 0.494284 0.602187
vt 0.496516 0.580950
vt 0.485840 0.599443
vt 0.503115 0.601259
vt 0.496516 0.580950
vt 0.494284 0.602187
vt 0.510804 0.596819
vt 0.496516 0.580950
vt 0.503115 0.601259
vt 0.516024 0.589636
vt 0.496516 0.580950
vt 0.510804 0.596819
vt 0.517870 0.580950
vt 0.496516 0.580950
vt 0.516024 0.589636
vt 0.516024 0.572265
vt 0.496516 0.580950
vt 0.517870 0.580950
vt 0.737789 0.429045
vt 0.707916 0.415745
vt 0.729797 0.440045
vt 0.729797 0.440045
vt 0.707916 0.415745
vt 0.718021 0.446844
vt 0.718021 0.446844
vt 0.707916 0.415745
vt 0.704498 0.448265
vt 0.704498 0.448265
vt 0.707916 0.415745
vt 0.691566 0.444063
vt 0.691566 0.444063
vt 0.707916 0.415745
vt 0.681462 0.434965
vt 0.681462 0.434965
vt 0.707916 0.415745
vt 0.675931 0.422543
vt 0.675931 0.422543
vt 0.707916 0.415745
vt 0.675931 0.408946
vt 0.675931 0.408946
vt 0.707916 0.415745
vt 0.681462 0.396524
vt 0.681462 0.396524
vt 0.707916 0.415745
vt 0.691566 0.387426
vt 0.691566 0.387426
vt 0.707916 0.415745
vt 0.704498 0.383224
vt 0.704498 0.383224
vt 0.707916 0.415745
vt 0.718021 0.384645
vt 0.718021 0.384645
vt 0.707916 0.415745
vt 0.729797 0.391444
vt 0.729797 0.391444
vt 0.707916 0.415745
vt 0.737789 0.402444
vt 0.737789 0.402444
vt 0.707916 0.415745
vt 0.740616 0.415745
vt 0.740616 0.415745
vt 0.707916 0.415745
vt 0.737789 0.429045
vt 0.539406 0.784395
vt 0.539406 0.784395
vt 0.527408 0.800909
vt 0.527408 0.800909
vt 0.527408 0.800909
vt 0.527408 0.800909
vt 0.509730 0.811115
vt 0.509730 0.811115
vt 0.509730 0.811115
vt 0.509730 0.811115
vt 0.489430 0.813249
vt 0.489430 0.813249
vt 0.489430 0.813249
vt 0.489430 0.813249
vt 0.470016 0.806941
vt 0.470016 0.806941
vt 0.470016 0.806941
vt 0.470016 0.806941
vt 0.454847 0.793282
vt 0.454847 0.793282
vt 0.454847 0.793282
vt 0.454847 0.793282
vt 0.446544 0.774635
vt 0.446544 0.774635
vt 0.446544 0.774635
vt 0.446544 0.774635
vt 0.446544 0.754222
vt 0.446544 0.754222
vt 0.446544 0.754222
vt 0.446544 0.754222
vt 0.454847 0.735575
vt 0.454847 0.735575
vt 0.454847 0.735575
vt 0.454847 0.735575
vt 0.470016 0.721916
vt 0.470016 0.721916
vt 0.470016 0.721916
vt 0.470016 0.721916
vt 0.489430 0.715608
vt 0.489430 0.715608
vt 0.489430 0.715608
vt 0.489430 0.715608
vt 0.509730 0.717742
vt 0.509730 0.717742
vt 0.509730 0.717742
vt 0.509730 0.717742
vt 0.527408 0.727948
vt 0.527408 0.727948
vt 0.527408 0.727948
vt 0.527408 0.727948
vt 0.539406 0.744462
vt 0.539406 0.744462
vt 0.539406 0.744462
vt 0.539406 0.744462
vt 0.543650 0.764429
vt 0.543650 0.764429
vt 0.543650 0.764429
vt 0.543650 0.764429
vt 0.539406 0.784395
vt 0.539406 0.784395
vt 0.539406 0.784395
vt 0.539406 0.784395
vt 0.527408 0.800909
vt 0.527408 0.800909
vt 0.527408 0.800909
vt 0.527408 0.800909
vt 0.539406 0.784395
vt 0.539406 0.784395
vt 0.527408 0.800909
vt 0.527408 0.800909
vt 0.509730 0.811115
vt 0.509730 0.811115
vt 0.509730 0.811115
vt 0.509730 0.811115
vt 0.527408 0.800909
vt 0.527408 0.800909
vt 0.509730 0.811115
vt 0.509730 0.811115
vt 0.489430 0.813249
vt 0.489430 0.813249
vt 0.489430 0.813249
vt 0.489430 0.813249
vt 0.509730 0.811115
vt 0.509730 0.811115
vt 0.489430 0.813249
vt 0.489430 0.813249
vt 0.470016 0.806941
vt 0.470016 0.806941
vt 0.470016 0.806941
vt 0.470016 0.806941
vt 0.489430 0.813249
vt 0.489430 0.813249
vt 0.470016 0.806941
vt 0.470016 0.806941
vt 0.454847 0.793282
vt 0.454847 0.793282
vt 0.454847 0.793282
vt 0.454847 0.793282
vt 0.470016 0.806941
vt 0.470016 0.806941
vt 0.454847 0.793282
vt 0.454847 0.793282
vt 0.446544 0.774635
vt 0.446544 0.774635
vt 0.446544 0.774635
vt 0.446544 0.774635
vt 0.454847 0.793282
vt 0.454847 0.793282
vt 0.446544 0.774635
vt 0.446544 0.774635
vt 0.446544 0.754222
vt 0.446544 0.754222
vt 0.446544 0.754222
vt 0.446544 0.754222
vt 0.446544 0.774635
vt 0.446544 0.774635
vt 0.446544 0.754222
vt 0.446544 0.754222
vt 0.454847 0.735575
vt 0.454847 0.735575
vt 0.454847 0.735575
vt 0.454847 0.735575
vt 0.446544 0.754222
vt 0.446544 0.754222
vt 0.454847 0.735575
vt 0.454847 0.735575
vt 0.470016 0.721916
vt 0.470016 0.721916
vt 0.470016 0.721916
vt 0.470016 0.721916
vt 0.454847 0.735575
vt 0.454847 0.735575
vt 0.470016 0.721916
vt 0.470016 0.721916
vt 0.489430 0.715608
vt 0.489430 0.715608
vt 0.489430 0.715608
vt 0.489430 0.715608
vt 0.470016 0.721916
vt 0.470016 0.721916
vt 0.489430 0.715608
vt 0.489430 0.715608
vt 0.509730 0.717742
vt 0.509730 0.717742
vt 0.509730 0.717742
vt 0.509730 0.717742
vt 0.489430 0.715608
vt 0.489430 0.715608
vt 0.509730 0.717742
vt 0.509730 0.717742
vt 0.527408 0.727948
vt 0.527408 0.727948
vt 0.527408 0.727948
vt 0.527408 0.727948
vt 0.509730 0.717742
vt 0.509730 0.717742
vt 0.527408 0.727948
vt 0.527408 0.727948
vt 0.539406 0.744462
vt 0.539406 0.744462
vt 0.539406 0.744462
vt 0.539406 0.744462
vt 0.527408 0.727948
vt 0.527408 0.727948
vt 0.539406 0.744462
vt 0.539406 0.744462
vt 0.543650 0.764429
vt 0.543650 0.764429
vt 0.543650 0.764429
vt 0.543650 0.764429
vt 0.539406 0.744462
vt 0.539406 0.744462
vt 0.543650 0.764429
vt 0.543650 0.764429
vt 0.539406 0.784395
vt 0.539406 0.784395
vt 0.539406 0.784395
vt 0.539406 0.784395
vt 0.543650 0.764429
vt 0.543650 0.764429
vt 0.509152 0.621268
vt 0.509152 0.621268
vt 0.514371 0.628451
vt 0.514371 0.628451
vt 0.501462 0.616828
vt 0.501462 0.616828
vt 0.509152 0.621268
vt 0.509152 0.621268
vt 0.492632 0.615900
vt 0.492632 0.615900
vt 0.501462 0.616828
vt 0.501462 0.616828
vt 0.484187 0.618644
vt 0.484187 0.618644
vt 0.492632 0.615900
vt 0.492632 0.615900
vt 0.477589 0.624585
vt 0.477589 0.624585
vt 0.484187 0.618644
vt 0.484187 0.618644
vt 0.473977 0.632697
vt 0.473977 0.632697
vt 0.477589 0.624585
vt 0.477589 0.624585
vt 0.473977 0.641576
vt 0.473977 0.641576
vt 0.473977 0.632697
vt 0.473977 0.632697
vt 0.477589 0.649688
vt 0.477589 0.649688
vt 0.473977 0.641576
vt 0.473977 0.641576
vt 0.484187 0.655629
vt 0.484187 0.655629
vt 0.477589 0.649688
vt 0.477589 0.649688
vt 0.492632 0.658373
vt 0.492632 0.658373
vt 0.484187 0.655629
vt 0.484187 0.655629
vt 0.501462 0.657445
vt 0.501462 0.657445
vt 0.492632 0.658373
vt 0.492632 0.658373
vt 0.509152 0.653005
vt 0.509152 0.653005
vt 0.501462 0.657445
vt 0.501462 0.657445
vt 0.514371 0.645822
vt 0.514371 0.645822
vt 0.509152 0.653005
vt 0.509152 0.653005
vt 0.568666 0.670187
vt 0.568666 0.670187
vt 0.555157 0.733740
vt 0.555157 0.733740
vt 0.555157 0.606634
vt 0.555157 0.606634
vt 0.568666 0.670187
vt 0.568666 0.670187
vt 0.510804 0.565082
vt 0.510804 0.565082
vt 0.516024 0.572265
vt 0.516024 0.572265
vt 0.516024 0.572265
vt 0.516024 0.572265
vt 0.510804 0.565082
vt 0.510804 0.565082
vt 0.503115 0.560642
vt 0.503115 0.560642
vt 0.510804 0.565082
vt 0.510804 0.565082
vt 0.510804 0.565082
vt 0.510804 0.565082
vt 0.503115 0.560642
vt 0.503115 0.560642
vt 0.494284 0.559714
vt 0.494284 0.559714
vt 0.503115 0.560642
vt 0.503115 0.560642
vt 0.503115 0.560642
vt 0.503115 0.560642
vt 0.494284 0.559714
vt 0.494284 0.559714
vt 0.485840 0.562458
vt 0.485840 0.562458
vt 0.494284 0.559714
vt 0.494284 0.559714
vt 0.494284 0.559714
vt 0.494284 0.559714
vt 0.485840 0.562458
vt 0.485840 0.562458
vt 0.479241 0.568399
vt 0.479241 0.568399
vt 0.485840 0.562458
vt 0.485840 0.562458
vt 0.485840 0.562458
vt 0.485840 0.562458
vt 0.479241 0.568399
vt 0.479241 0.568399
vt 0.475630 0.576511
vt 0.475630 0.576511
vt 0.479241 0.568399
vt 0.479241 0.568399
vt 0.479241 0.568399
vt 0.479241 0.568399
vt 0.475630 0.576511
vt 0.475630 0.576511
vt 0.475630 0.585390
vt 0.475630 0.585390
vt 0.475630 0.576511
vt 0.475630 0.576511
vt 0.475630 0.576511
vt 0.475630 0.576511
vt 0.475630 0.585390
vt 0.475630 0.585390
vt 0.479241 0.593502
vt 0.479241 0.593502
vt 0.475630 0.585390
vt 0.475630 0.585390
vt 0.475630 0.585390
vt 0.475630 0.585390
vt 0.479241 0.593502
vt 0.479241 0.593502
vt 0.485840 0.599443
vt 0.485840 0.599443
vt 0.479241 0.593502
vt 0.479241 0.593502
vt 0.479241 0.593502
vt 0.479241 0.593502
vt 0.485840 0.599443
vt 0.485840 0.599443
vt 0.494284 0.602187
vt 0.494284 0.602187
vt 0.485840 0.599443
vt 0.485840 0.599443
vt 0.485840 0.599443
vt 0.485840 0.599443
vt 0.494284 0.602187
vt 0.494284 0.602187
vt 0.503115 0.601259
vt 0.503115 0.601259
vt 0.494284 0.602187
vt 0.494284 0.602187
vt 0.494284 0.602187
vt 0.494284 0.602187
vt 0.503115 0.601259
vt 0.503115 0.601259
vt 0.510804 0.596819
vt 0.510804 0.596819
vt 0.503115 0.601259
vt 0.503115 0.601259
vt 0.503115 0.601259
vt 0.503115 0.601259
vt 0.510804 0.596819
vt 0.510804 0.596819
vt 0.516024 0.589636
vt 0.516024 0.589636
vt 0.510804 0.596819
vt 0.510804 0.596819
vt 0.510804 0.596819
vt 0.510804 0.596819
vt 0.516024 0.589636
vt 0.516024 0.589636
vt 0.570318 0.614001
vt 0.570318 0.614001
vt 0.556810 0.677554
vt 0.556810 0.677554
vt 0.556810 0.677554
vt 0.556810 0.677554
vt 0.570318 0.614001
vt 0.570318 0.614001
vt 0.556810 0.550448
vt 0.556810 0.550448
vt 0.570318 0.614001
vt 0.570318 0.614001
vt 0.570318 0.614001
vt 0.570318 0.614001
vt 0.556810 0.550448
vt 0.556810 0.550448
vt 0.737789 0.429045
vt 0.737789 0.429045
vt 0.729797 0.440045
vt 0.729797 0.440045
vt 0.729797 0.440045
vt 0.729797 0.440045
vt 0.718021 0.446844
vt 0.718021 0.446844
vt 0.718021 0.446844
vt 0.718021 0.446844
vt 0.704498 0.448265
vt 0.704498 0.448265
vt 0.704498 0.448265
vt 0.704498 0.448265
vt 0.691566 0.444063
vt 0.691566 0.444063
vt 0.691566 0.444063
vt 0.691566 0.444063
vt 0.681462 0.434965
vt 0.681462 0.434965
vt 0.681462 0.434965
vt 0.681462 0.434965
vt 0.675931 0.422543
vt 0.675931 0.422543
vt 0.675931 0.422543
vt 0.675931 0.422543
vt 0.675931 0.408946
vt 0.675931 0.408946
vt 0.675931 0.408946
vt 0.675931 0.408946
vt 0.681462 0.396524
vt 0.681462 0.396524
vt 0.681462 0.396524
vt 0.681462 0.396524
vt 0.691566 0.387426
vt 0.691566 0.387426
vt 0.691566 0.387426
vt 0.691566 0.387426
vt 0.704498 0.383224
vt 0.704498 0.383224
vt 0.704498 0.383224
vt 0.704498 0.383224
vt 0.718021 0.384645
vt 0.718021 0.384645
vt 0.718021 0.384645
vt 0.718021 0.384645
vt 0.729797 0.391444
vt 0.729797 0.391444
vt 0.729797 0.391444
vt 0.729797 0.391444
vt 0.737789 0.402444
vt 0.737789 0.402444
vt 0.737789 0.402444
vt 0.737789 0.402444
vt 0.740616 0.415745
vt 0.740616 0.415745
vt 0.740616 0.415745
vt 0.740616 0.415745
vt 0.737789 0.429045
vt 0.737789 0.429045
vn 0.855204 -0.518283 -0.002887
vn 0.854934 -0.518728 -0.002888
vn 0.570168 -0.821520 -0.003545
vn 0.570334 -0.821405 -0.003545
vn 0.186903 -0.982372 -0.003591
vn 0.186754 -0.982400 -0.003591
vn -0.228666 -0.973500 -0.003016
vn -0.229133 -0.973391 -0.003015
vn -0.604759 -0.796406 -0.001920
vn -0.605336 -0.795968 -0.001918
vn -0.876375 -0.481630 -0.000492
vn -0.876781 -0.480891 -0.000489
vn -0.996505 -0.083527 0.001022
vn -0.996573 -0.082713 0.001025
vn -0.944297 0.329085 0.002359
vn -0.944084 0.329698 0.002361
vn -0.728710 0.684814 0.003288
vn -0.728458 0.685083 0.003288
vn -0.387006 0.922070 0.003648
vn -0.386982 0.922080 0.003648
vn 0.021668 0.999759 0.003376
vn 0.021345 0.999766 0.003377
vn 0.426568 0.904452 0.002521
vn 0.426012 0.904714 0.002523
vn 0.757626 0.652688 0.001230
vn 0.757103 0.653295 0.001233
vn 0.957603 0.288090 -0.000274
vn 0.957358 0.288903 -0.000271
vn 0.991996 -0.126259 -0.001731
vn 0.992090 -0.125515 -0.001728
vn -0.001314 0.003408 -0.999993
vn -0.001311 0.003406 -0.999993
vn -0.001313 0.003406 -0.999993
vn -0.001310 0.003408 -0.999993
vn -0.001307 0.003405 -0.999993
vn -0.001311 0.003406 -0.999993
vn -0.001314 0.003404 -0.999993
vn -0.001312 0.003407 -0.999993
vn -0.001309 0.003407 -0.999993
vn -0.001311 0.003405 -0.999993
vn -0.001311 0.003404 -0.999993
vn -0.001311 0.003407 -0.999993
vn -0.001309 0.003408 -0.999993
vn -0.001311 0.003406 -0.999993
vn -0.001314 0.003405 -0.999993
vn -0.001311 0.003405 -0.999993
vn 0.001316 -0.003404 0.999993
vn 0.001311 -0.003405 0.999993
vn 0.001316 -0.003390 0.999993
vn 0.001314 -0.003401 0.999993
vn 0.001307 -0.003399 0.999993
vn 0.001303 -0.003398 0.999993
vn 0.001312 -0.003408 0.999993
vn 0.001313 -0.003400 0.999993
vn 0.001310 -0.003406 0.999993
vn 0.001312 -0.003417 0.999993
vn 0.001321 -0.003408 0.999993
vn 0.001310 -0.003407 0.999993
vn 0.001304 -0.003419 0.999993
vn 0.001312 -0.003401 0.999993
vn 0.001309 -0.003401 0.999993
vn 0.001307 -0.003422 0.999993
vn 0.855205 -0.518282 -0.002888
vn 0.854935 -0.518728 -0.002890
vn 0.570167 -0.821521 -0.003547
vn 0.570331 -0.821407 -0.003547
vn 0.186897 -0.982373 -0.003591
vn 0.186752 -0.982401 -0.003591
vn -0.228668 -0.973500 -0.003017
vn -0.229135 -0.973390 -0.003016
vn -0.604757 -0.796407 -0.001920
vn -0.605337 -0.795967 -0.001918
vn -0.876374 -0.481631 -0.000492
vn -0.876780 -0.480892 -0.000489
vn -0.996505 -0.083527 0.001024
vn -0.996573 -0.082711 0.001027
vn -0.944296 0.329089 0.002364
vn -0.944083 0.329700 0.002366
vn -0.728707 0.684818 0.003290
vn -0.728454 0.685086 0.003290
vn -0.387008 0.922069 0.003648
vn -0.386980 0.922081 0.003648
vn 0.021671 0.999759 0.003377
vn 0.021342 0.999766 0.003377
vn 0.426567 0.904452 0.002519
vn 0.426013 0.904714 0.002521
vn 0.757626 0.652687 0.001225
vn 0.757101 0.653297 0.001228
vn 0.957604 0.288087 -0.000275
vn 0.957359 0.288901 -0.000272
vn 0.991995 -0.126262 -0.001728
vn 0.992090 -0.125518 -0.001725
vn -0.001296 0.003402 -0.999993
vn -0.001296 0.003402 -0.999993
vn -0.001304 0.003381 -0.999993
vn -0.001304 0.003381 -0.999993
vn 0.001310 -0.003403 0.999993
vn 0.001309 -0.003403 0.999993
vn 0.001311 -0.003404 0.999993
vn 0.001311 -0.003405 0.999993
vn -0.001304 0.003385 -0.999993
vn -0.001304 0.003385 -0.999993
vn 0.001312 -0.003405 0.999993
vn 0.001312 -0.003405 0.999993
vn -0.001311 0.003400 -0.999993
vn -0.001311 0.003400 -0.999993
vn 0.001314 -0.003406 0.999993
vn 0.001314 -0.003406 0.999993
vn -0.001316 0.003403 -0.999993
vn -0.001317 0.003403 -0.999993
vn 0.001309 -0.003406 0.999993
vn 0.001309 -0.003406 0.999993
vn -0.001296 0.003420 -0.999993
vn -0.001296 0.003420 -0.999993
vn 0.001309 -0.003404 0.999993
vn 0.001308 -0.003404 0.999993
vn -0.001271 0.003414 -0.999993
vn -0.001271 0.003414 -0.999993
vn 0.001310 -0.003406 0.999993
vn 0.001310 -0.003405 0.999993
vn -0.001289 0.003403 -0.999993
vn -0.001289 0.003403 -0.999993
vn 0.001311 -0.003409 0.999993
vn 0.001311 -0.003409 0.999993
vn -0.001312 0.003409 -0.999993
vn -0.001312 0.003409 -0.999993
vn 0.001313 -0.003411 0.999993
vn 0.001313 -0.003410 0.999993
vn -0.001312 0.003416 -0.999993
vn -0.001312 0.003416 -0.999993
vn 0.001311 -0.003411 0.999993
vn 0.001312 -0.003411 0.999993
vn -0.001308 0.003414 -0.999993
vn -0.001308 0.003414 -0.999993
vn 0.001308 -0.003410 0.999993
vn 0.001308 -0.003410 0.999993
vn -0.001304 0.003419 -0.999993
vn -0.001304 0.003419 -0.999993
vn 0.001310 -0.003408 0.999993
vn 0.001310 -0.003407 0.999993
vn -0.001294 0.003421 -0.999993
vn -0.001294 0.003421 -0.999993
vn 0.001311 -0.003407 0.999993
vn 0.001311 -0.003408 0.999993
vn -0.001274 0.003416 -0.999993
vn -0.001274 0.003416 -0.999993
vn 0.001312 -0.003407 0.999993
vn 0.001312 -0.003406 0.999993
vn -0.001276 0.003410 -0.999993
vn -0.001276 0.003410 -0.999993
vn 0.001311 -0.003406 0.999993
vn 0.001311 -0.003407 0.999993
vn 0.570165 -0.821523 -0.003548
vn 0.570330 -0.821408 -0.003548
vn 0.855202 -0.518287 -0.002894
vn 0.854933 -0.518730 -0.002895
vn 0.186901 -0.982372 -0.003594
vn 0.186752 -0.982401 -0.003594
vn -0.228664 -0.973501 -0.003020
vn -0.229141 -0.973389 -0.003019
vn -0.604763 -0.796403 -0.001925
vn -0.605334 -0.795970 -0.001923
vn -0.876379 -0.481622 -0.000502
vn -0.876785 -0.480882 -0.000499
vn -0.996506 -0.083520 0.001015
vn -0.996573 -0.082706 0.001018
vn -0.944297 0.329086 0.002361
vn -0.944083 0.329699 0.002363
vn -0.728711 0.684814 0.003290
vn -0.728455 0.685086 0.003291
vn -0.387005 0.922071 0.003647
vn -0.386981 0.922080 0.003647
vn 0.021662 0.999760 0.003376
vn 0.021347 0.999766 0.003376
vn 0.426563 0.904454 0.002522
vn 0.426011 0.904714 0.002523
vn 0.757626 0.652687 0.001229
vn 0.757102 0.653296 0.001232
vn 0.957604 0.288089 -0.000280
vn 0.957358 0.288905 -0.000276
vn 0.991996 -0.126259 -0.001739
vn 0.992090 -0.125514 -0.001737
vn 0.001313 -0.003429 0.999993
vn 0.001313 -0.003429 0.999993
vn 0.001307 -0.003415 0.999993
vn 0.001307 -0.003415 0.999993
vn -0.001315 0.003414 -0.999993
vn -0.001323 0.003431 -0.999993
vn 0.001317 -0.003451 0.999993
vn 0.001317 -0.003451 0.999993
vn -0.001315 0.003430 -0.999993
vn 0.001304 -0.003449 0.999993
vn 0.001304 -0.003449 0.999993
vn -0.001307 0.003408 -0.999993
vn 0.001293 -0.003427 0.999993
vn 0.001293 -0.003427 0.999993
vn -0.001316 0.003398 -0.999993
vn 0.001307 -0.003408 0.999993
vn 0.001307 -0.003408 0.999993
vn -0.001331 0.003395 -0.999993
vn 0.001328 -0.003405 0.999993
vn 0.001328 -0.003405 0.999993
vn -0.001318 0.003398 -0.999993
vn 0.001336 -0.003416 0.999993
vn 0.001336 -0.003416 0.999993
vn -0.001296 0.003406 -0.999993
vn 0.001331 -0.003421 0.999993
vn 0.001331 -0.003421 0.999993
vn -0.001301 0.003412 -0.999993
vn 0.001318 -0.003420 0.999993
vn 0.001318 -0.003420 0.999993
vn -0.001312 0.003398 -0.999993
vn 0.001311 -0.003419 0.999993
vn 0.001311 -0.003419 0.999993
vn -0.001308 0.003408 -0.999993
vn 0.001312 -0.003408 0.999993
vn 0.001312 -0.003408 0.999993
vn -0.001301 0.003428 -0.999993
vn 0.001304 -0.003402 0.999993
vn 0.001304 -0.003402 0.999993
vn -0.001314 0.003403 -0.999993
vn 0.001297 -0.003406 0.999993
vn 0.001297 -0.003406 0.999993
vn -0.001324 0.003394 -0.999993
vn 0.001304 -0.003410 0.999993
vn 0.001304 -0.003410 0.999993
vn -0.001313 0.003403 -0.999993
vn 0.855203 -0.518285 -0.002888
vn 0.854933 -0.518730 -0.002889
vn 0.570167 -0.821521 -0.003549
vn 0.570332 -0.821407 -0.003549
vn 0.186895 -0.982373 -0.003592
vn 0.186744 -0.982402 -0.003592
vn -0.228672 -0.973499 -0.003014
vn -0.229138 -0.973389 -0.003013
vn -0.604752 -0.796411 -0.001918
vn -0.605329 -0.795973 -0.001916
vn -0.876375 -0.481629 -0.000490
vn -0.876781 -0.480889 -0.000487
vn -0.996505 -0.083526 0.001024
vn -0.996573 -0.082713 0.001026
vn -0.944298 0.329082 0.002359
vn -0.944084 0.329696 0.002361
vn -0.728704 0.684821 0.003287
vn -0.728450 0.685091 0.003287
vn -0.387006 0.922070 0.003648
vn -0.386982 0.922080 0.003648
vn 0.021663 0.999760 0.003378
vn 0.021341 0.999767 0.003378
vn 0.426566 0.904453 0.002523
vn 0.426007 0.904716 0.002525
vn 0.757624 0.652690 0.001231
vn 0.757102 0.653296 0.001233
vn 0.957602 0.288094 -0.000274
vn 0.957357 0.288909 -0.000271
vn 0.991996 -0.126261 -0.001730
vn 0.992090 -0.125518 -0.001728
s 1
g Femur_Mirrored
usemtl lambert2SG
f 1/1/1 16/2/2 17/3/3 2/4/4
f 2/5/4 17/6/3 18/7/5 3/8/6
f 3/9/6 18/10/5 19/11/7 4/12/8
f 4/13/8 19/14/7 20/15/9 5/16/10
f 5/17/10 20/18/9 21/19/11 6/20/12
f 6/21/12 21/22/11 22/23/13 7/24/14
f 7/25/14 22/26/13 23/27/15 8/28/16
f 8/29/16 23/30/15 24/31/17 9/32/18
f 9/33/18 24/34/17 25/35/19 10/36/20
f 10/37/20 25/38/19 26/39/21 11/40/22
f 11/41/22 26/42/21 27/43/23 12/44/24
f 12/45/24 27/46/23 28/47/25 13/48/26
f 13/49/26 28/50/25 29/51/27 14/52/28
f 14/53/28 29/54/27 30/55/29 15/56/30
f 15/57/30 30/58/29 16/59/2 1/60/1
s 2
f 77/61/31 78/62/32 76/63/33
f 79/64/34 78/65/32 77/66/31
f 80/67/35 78/68/32 79/69/34
f 81/70/36 78/71/32 80/72/35
f 82/73/37 78/74/32 81/75/36
f 83/76/38 78/77/32 82/78/37
f 84/79/39 78/80/32 83/81/38
f 85/82/40 78/83/32 84/84/39
f 86/85/41 78/86/32 85/87/40
f 87/88/42 78/89/32 86/90/41
f 88/91/43 78/92/32 87/93/42
f 89/94/44 78/95/32 88/96/43
f 90/97/45 78/98/32 89/99/44
f 91/100/46 78/101/32 90/102/45
f 76/103/33 78/104/32 91/105/46
s 3
f 122/106/47 124/107/48 123/108/49
f 123/109/49 124/110/48 125/111/50
f 125/112/50 124/113/48 126/114/51
f 126/115/51 124/116/48 127/117/52
f 127/118/52 124/119/48 128/120/53
f 128/121/53 124/122/48 129/123/54
f 129/124/54 124/125/48 130/126/55
f 130/127/55 124/128/48 131/129/56
f 131/130/56 124/131/48 132/132/57
f 132/133/57 124/134/48 133/135/58
f 133/136/58 124/137/48 134/138/59
f 134/139/59 124/140/48 135/141/60
f 135/142/60 124/143/48 136/144/61
f 136/145/61 124/146/48 137/147/62
f 137/148/62 124/149/48 122/150/47
s 4
f 46/151/63 49/152/64 48/153/65 47/154/66
f 47/155/66 48/156/65 51/157/67 50/158/68
f 50/159/68 51/160/67 53/161/69 52/162/70
f 52/163/70 53/164/69 55/165/71 54/166/72
f 54/167/72 55/168/71 57/169/73 56/170/74
f 56/171/74 57/172/73 59/173/75 58/174/76
f 58/175/76 59/176/75 61/177/77 60/178/78
f 60/179/78 61/180/77 63/181/79 62/182/80
f 62/183/80 63/184/79 65/185/81 64/186/82
f 64/187/82 65/188/81 67/189/83 66/190/84
f 66/191/84 67/192/83 69/193/85 68/194/86
f 68/195/86 69/196/85 71/197/87 70/198/88
f 70/199/88 71/200/87 73/201/89 72/202/90
f 72/203/90 73/204/89 75/205/91 74/206/92
f 74/207/92 75/208/91 49/209/64 46/210/63
s 5
f 16/211/93 46/212/94 47/213/95 17/214/96
s 6
f 32/215/97 48/216/98 49/217/99 31/218/100
s 5
f 17/219/96 47/220/95 50/221/101 18/222/102
s 6
f 33/223/103 51/224/104 48/225/98 32/226/97
s 5
f 18/227/102 50/228/101 52/229/105 19/230/106
s 6
f 34/231/107 53/232/108 51/233/104 33/234/103
s 5
f 19/235/106 52/236/105 54/237/109 20/238/110
s 6
f 35/239/111 55/240/112 53/241/108 34/242/107
s 5
f 20/243/110 54/244/109 56/245/113 21/246/114
s 6
f 36/247/115 57/248/116 55/249/112 35/250/111
s 5
f 21/251/114 56/252/113 58/253/117 22/254/118
s 6
f 37/255/119 59/256/120 57/257/116 36/258/115
s 5
f 22/259/118 58/260/117 60/261/121 23/262/122
s 6
f 38/263/123 61/264/124 59/265/120 37/266/119
s 5
f 23/267/122 60/268/121 62/269/125 24/270/126
s 6
f 39/271/127 63/272/128 61/273/124 38/274/123
s 5
f 24/275/126 62/276/125 64/277/129 25/278/130
s 6
f 40/279/131 65/280/132 63/281/128 39/282/127
s 5
f 25/283/130 64/284/129 66/285/133 26/286/134
s 6
f 41/287/135 67/288/136 65/289/132 40/290/131
s 5
f 26/291/134 66/292/133 68/293/137 27/294/138
s 6
f 42/295/139 69/296/140 67/297/136 41/298/135
s 5
f 27/299/138 68/300/137 70/301/141 28/302/142
s 6
f 43/303/143 71/304/144 69/305/140 42/306/139
s 5
f 28/307/142 70/308/141 72/309/145 29/310/146
s 6
f 44/311/147 73/312/148 71/313/144 43/314/143
s 5
f 29/315/146 72/316/145 74/317/149 30/318/150
s 6
f 45/319/151 75/320/152 73/321/148 44/322/147
s 5
f 30/323/150 74/324/149 46/325/94 16/326/93
s 6
f 31/327/100 49/328/99 75/329/152 45/330/151
s 7
f 93/331/153 95/332/154 94/333/155 92/334/156
f 96/335/157 97/336/158 95/337/154 93/338/153
f 98/339/159 99/340/160 97/341/158 96/342/157
f 100/343/161 101/344/162 99/345/160 98/346/159
f 102/347/163 103/348/164 101/349/162 100/350/161
f 104/351/165 105/352/166 103/353/164 102/354/163
f 106/355/167 107/356/168 105/357/166 104/358/165
f 108/359/169 109/360/170 107/361/168 106/362/167
f 110/363/171 111/364/172 109/365/170 108/366/169
f 112/367/173 113/368/174 111/369/172 110/370/171
f 114/371/175 115/372/176 113/373/174 112/374/173
f 116/375/177 117/376/178 115/377/176 114/378/175
f 118/379/179 119/380/180 117/381/178 116/382/177
f 120/383/181 121/384/182 119/385/180 118/386/179
f 92/387/156 94/388/155 121/389/182 120/390/181
s 8
f 2/391/183 93/392/184 92/393/185 1/394/186
s 2
f 76/395/33 94/396/187 95/397/188 77/398/31
s 8
f 3/399/189 96/400/190 93/401/184 2/402/183
s 2
f 77/403/31 95/404/188 97/405/191 79/406/34
s 8
f 4/407/192 98/408/193 96/409/190 3/410/189
s 2
f 79/411/34 97/412/191 99/413/194 80/414/35
s 8
f 5/415/195 100/416/196 98/417/193 4/418/192
s 2
f 80/419/35 99/420/194 101/421/197 81/422/36
s 8
f 6/423/198 102/424/199 100/425/196 5/426/195
s 2
f 81/427/36 101/428/197 103/429/200 82/430/37
s 8
f 7/431/201 104/432/202 102/433/199 6/434/198
s 2
f 82/435/37 103/436/200 105/437/203 83/438/38
s 8
f 8/439/204 106/440/205 104/441/202 7/442/201
s 2
f 83/443/38 105/444/203 107/445/206 84/446/39
s 8
f 9/447/207 108/448/208 106/449/205 8/450/204
s 2
f 84/451/39 107/452/206 109/453/209 85/454/40
s 8
f 10/455/210 110/456/211 108/457/208 9/458/207
s 2
f 85/459/40 109/460/209 111/461/212 86/462/41
s 8
f 11/463/213 112/464/214 110/465/211 10/466/210
s 2
f 86/467/41 111/468/212 113/469/215 87/470/42
s 8
f 12/471/216 114/472/217 112/473/214 11/474/213
s 2
f 87/475/42 113/476/215 115/477/218 88/478/43
s 8
f 13/479/219 116/480/220 114/481/217 12/482/216
s 2
f 88/483/43 115/484/218 117/485/221 89/486/44
s 8
f 14/487/222 118/488/223 116/489/220 13/490/219
s 2
f 89/491/44 117/492/221 119/493/224 90/494/45
s 8
f 15/495/225 120/496/226 118/497/223 14/498/222
s 2
f 90/499/45 119/500/224 121/501/227 91/502/46
s 8
f 1/503/186 92/504/185 120/505/226 15/506/225
s 2
f 91/507/46 121/508/227 94/509/187 76/510/33
s 9
f 31/511/228 122/512/229 123/513/230 32/514/231
f 32/515/231 123/516/230 125/517/232 33/518/233
f 33/519/233 125/520/232 126/521/234 34/522/235
f 34/523/235 126/524/234 127/525/236 35/526/237
f 35/527/237 127/528/236 128/529/238 36/530/239
f 36/531/239 128/532/238 129/533/240 37/534/241
f 37/535/241 129/536/240 130/537/242 38/538/243
f 38/539/243 130/540/242 131/541/244 39/542/245
f 39/543/245 131/544/244 132/545/246 40/546/247
f 40/547/247 132/548/246 133/549/248 41/550/249
f 41/551/249 133/552/248 134/553/250 42/554/251
f 42/555/251 134/556/250 135/557/252 43/558/253
f 43/559/253 135/560/252 136/561/254 44/562/255
f 44/563/255 136/564/254 137/565/256 45/566/257
f 45/567/257 137/568/256 122/569/229 31/570/228
g default
v 0.033160 -0.113170 0.370763
v 0.018830 -0.128413 0.370730
v -0.009774 -0.087094 0.370908
v -0.000462 -0.136510 0.370727
v -0.021378 -0.136059 0.370756
v -0.040303 -0.127141 0.370811
v -0.053966 -0.111296 0.370883
v -0.060000 -0.091265 0.370960
v -0.057367 -0.070510 0.371027
v -0.046519 -0.052621 0.371074
v -0.029332 -0.040691 0.371091
v -0.008780 -0.036782 0.371078
v 0.011587 -0.041570 0.371034
v 0.028244 -0.054229 0.370970
v 0.038312 -0.072568 0.370894
v 0.040052 -0.093417 0.370821
v 0.033090 -0.112989 0.317395
v 0.039982 -0.093235 0.317453
v 0.038242 -0.072386 0.317526
v 0.028174 -0.054047 0.317602
v 0.011517 -0.041389 0.317667
v -0.008849 -0.036600 0.317710
v -0.029402 -0.040509 0.317724
v -0.046589 -0.052439 0.317705
v -0.057436 -0.070328 0.317659
v -0.060071 -0.091083 0.317592
v -0.054035 -0.111115 0.317515
v -0.040373 -0.126959 0.317443
v -0.021448 -0.135878 0.317388
v -0.000531 -0.136328 0.317359
v 0.018759 -0.128232 0.317361
v 0.033020 -0.112807 0.264027
v 0.018690 -0.128050 0.263994
v -0.009913 -0.086731 0.264172
v -0.000601 -0.136146 0.263992
v -0.021518 -0.135696 0.264021
v -0.040443 -0.126778 0.264076
v -0.054105 -0.110933 0.264148
v -0.060140 -0.090901 0.264224
v -0.057506 -0.070147 0.264291
v -0.046658 -0.052257 0.264338
v -0.029472 -0.040327 0.264356
v -0.008919 -0.036418 0.264342
v 0.011446 -0.041207 0.264300
v 0.028104 -0.053865 0.264234
v 0.038172 -0.072204 0.264159
v 0.039912 -0.093053 0.264085
vt 0.732426 0.348469
vt 0.697946 0.333118
vt 0.723201 0.361166
vt 0.709609 0.369013
vt 0.694001 0.370654
vt 0.679075 0.365804
vt 0.667411 0.355303
vt 0.661028 0.340965
vt 0.661028 0.325271
vt 0.667412 0.310933
vt 0.679075 0.300432
vt 0.694001 0.295582
vt 0.709609 0.297223
vt 0.723201 0.305070
vt 0.732426 0.317767
vt 0.735689 0.333118
vt 0.735689 0.333118
vt 0.732426 0.348469
vt 0.732426 0.317767
vt 0.723201 0.305070
vt 0.709609 0.297223
vt 0.694001 0.295582
vt 0.679075 0.300432
vt 0.667412 0.310933
vt 0.661028 0.325271
vt 0.661028 0.340965
vt 0.667411 0.355303
vt 0.679075 0.365804
vt 0.694001 0.370654
vt 0.709609 0.369013
vt 0.723201 0.361166
vt 0.732426 0.348469
vt 0.723201 0.361166
vt 0.697946 0.333118
vt 0.709609 0.369013
vt 0.694001 0.370654
vt 0.679075 0.365804
vt 0.667411 0.355303
vt 0.661028 0.340965
vt 0.661028 0.325271
vt 0.667412 0.310933
vt 0.679075 0.300432
vt 0.694001 0.295582
vt 0.709609 0.297223
vt 0.723201 0.305070
vt 0.732426 0.317767
vt 0.735689 0.333118
vt 0.735689 0.333118
vt 0.732426 0.348469
vt 0.732426 0.317767
vt 0.723201 0.305070
vt 0.709609 0.297223
vt 0.694001 0.295582
vt 0.679075 0.300432
vt 0.667412 0.310933
vt 0.661028 0.325271
vt 0.661028 0.340965
vt 0.667411 0.355303
vt 0.679075 0.365804
vt 0.694001 0.370654
vt 0.709609 0.369013
vt 0.723201 0.361166
vn 0.001319 -0.003403 0.999993
vn 0.001314 -0.003406 0.999993
vn 0.001307 -0.003408 0.999993
vn 0.001316 -0.003413 0.999993
vn 0.001319 -0.003409 0.999993
vn 0.001308 -0.003407 0.999993
vn 0.001315 -0.003419 0.999993
vn 0.001317 -0.003401 0.999993
vn 0.001309 -0.003392 0.999993
vn 0.001313 -0.003404 0.999993
vn 0.001311 -0.003399 0.999993
vn 0.001317 -0.003404 0.999993
vn 0.001306 -0.003388 0.999993
vn 0.001303 -0.003404 0.999993
vn 0.001324 -0.003424 0.999993
vn 0.001319 -0.003407 0.999993
vn 0.992043 -0.125886 -0.001731
vn 0.991996 -0.126260 -0.001733
vn 0.854929 -0.518737 -0.002889
vn 0.855068 -0.518508 -0.002886
vn 0.957479 0.288503 -0.000274
vn 0.957599 0.288103 -0.000275
vn 0.757366 0.652990 0.001231
vn 0.757627 0.652686 0.001230
vn 0.426284 0.904586 0.002522
vn 0.426561 0.904455 0.002523
vn 0.021504 0.999763 0.003377
vn 0.021665 0.999759 0.003378
vn -0.386991 0.922076 0.003648
vn -0.387003 0.922071 0.003650
vn -0.728582 0.684951 0.003287
vn -0.728706 0.684819 0.003287
vn -0.944190 0.329393 0.002358
vn -0.944298 0.329083 0.002356
vn -0.996540 -0.083108 0.001022
vn -0.996506 -0.083514 0.001021
vn -0.876574 -0.481267 -0.000491
vn -0.876371 -0.481636 -0.000492
vn -0.605041 -0.796192 -0.001918
vn -0.604750 -0.796413 -0.001919
vn -0.228908 -0.973443 -0.003015
vn -0.228676 -0.973498 -0.003014
vn 0.186816 -0.982388 -0.003590
vn 0.186891 -0.982374 -0.003590
vn 0.570252 -0.821462 -0.003543
vn 0.570171 -0.821518 -0.003545
vn -0.001319 0.003404 -0.999993
vn -0.001311 0.003401 -0.999993
vn -0.001310 0.003411 -0.999993
vn -0.001300 0.003411 -0.999993
vn -0.001306 0.003405 -0.999993
vn -0.001309 0.003401 -0.999993
vn -0.001315 0.003416 -0.999993
vn -0.001318 0.003414 -0.999993
vn -0.001317 0.003414 -0.999993
vn -0.001311 0.003423 -0.999993
vn -0.001315 0.003411 -0.999993
vn -0.001303 0.003405 -0.999993
vn -0.001296 0.003412 -0.999993
vn -0.001312 0.003413 -0.999993
vn -0.001310 0.003411 -0.999993
vn -0.001307 0.003420 -0.999993
vn 0.855206 -0.518281 -0.002883
vn 0.992090 -0.125515 -0.001729
vn 0.957358 0.288906 -0.000272
vn 0.757105 0.653292 0.001231
vn 0.426002 0.904719 0.002521
vn 0.021340 0.999767 0.003375
vn -0.386979 0.922081 0.003646
vn -0.728457 0.685084 0.003287
vn -0.944082 0.329702 0.002360
vn -0.996574 -0.082703 0.001023
vn -0.876776 -0.480899 -0.000491
vn -0.605331 -0.795972 -0.001918
vn -0.229140 -0.973389 -0.003016
vn 0.186740 -0.982403 -0.003590
vn 0.570338 -0.821403 -0.003541
s 1
g Femur_Mirrored FemurCanisterButton_Mirrored
usemtl lambert2SG
f 138/571/258 140/572/259 139/573/260
f 139/573/260 140/572/259 141/574/261
f 141/574/261 140/572/259 142/575/262
f 142/575/262 140/572/259 143/576/263
f 143/576/263 140/572/259 144/577/264
f 144/577/264 140/572/259 145/578/265
f 145/578/265 140/572/259 146/579/266
f 146/579/266 140/572/259 147/580/267
f 147/580/267 140/572/259 148/581/268
f 148/581/268 140/572/259 149/582/269
f 149/582/269 140/572/259 150/583/270
f 150/583/270 140/572/259 151/584/271
f 151/584/271 140/572/259 152/585/272
f 152/585/272 140/572/259 153/586/273
f 153/586/273 140/572/259 138/571/258
s 2
f 155/587/274 153/586/275 138/571/276 154/588/277
f 156/589/278 152/585/279 153/586/275 155/587/274
f 157/590/280 151/584/281 152/585/279 156/589/278
f 158/591/282 150/583/283 151/584/281 157/590/280
f 159/592/284 149/582/285 150/583/283 158/591/282
f 160/593/286 148/581/287 149/582/285 159/592/284
f 161/594/288 147/580/289 148/581/287 160/593/286
f 162/595/290 146/579/291 147/580/289 161/594/288
f 163/596/292 145/578/293 146/579/291 162/595/290
f 164/597/294 144/577/295 145/578/293 163/596/292
f 165/598/296 143/576/297 144/577/295 164/597/294
f 166/599/298 142/575/299 143/576/297 165/598/296
f 167/600/300 141/574/301 142/575/299 166/599/298
f 168/601/302 139/573/303 141/574/301 167/600/300
f 154/588/277 138/571/276 139/573/303 168/601/302
s 3
f 169/602/304 170/603/305 171/604/306
f 170/603/305 172/605/307 171/604/306
f 172/605/307 173/606/308 171/604/306
f 173/606/308 174/607/309 171/604/306
f 174/607/309 175/608/310 171/604/306
f 175/608/310 176/609/311 171/604/306
f 176/609/311 177/610/312 171/604/306
f 177/610/312 178/611/313 171/604/306
f 178/611/313 179/612/314 171/604/306
f 179/612/314 180/613/315 171/604/306
f 180/613/315 181/614/316 171/604/306
f 181/614/316 182/615/317 171/604/306
f 182/615/317 183/616/318 171/604/306
f 183/616/318 184/617/319 171/604/306
f 184/617/319 169/602/304 171/604/306
s 2
f 155/618/274 154/619/277 169/602/320 184/617/321
f 156/620/278 155/618/274 184/617/321 183/616/322
f 157/621/280 156/620/278 183/616/322 182/615/323
f 158/622/282 157/621/280 182/615/323 181/614/324
f 159/623/284 158/622/282 181/614/324 180/613/325
f 160/624/286 159/623/284 180/613/325 179/612/326
f 161/625/288 160/624/286 179/612/326 178/611/327
f 162/626/290 161/625/288 178/611/327 177/610/328
f 163/627/292 162/626/290 177/610/328 176/609/329
f 164/628/294 163/627/292 176/609/329 175/608/330
f 165/629/296 164/628/294 175/608/330 174/607/331
f 166/630/298 165/629/296 174/607/331 173/606/332
f 167/631/300 166/630/298 173/606/332 172/605/333
f 168/632/302 167/631/300 172/605/333 170/603/334
f 154/619/277 168/632/302 170/603/334 169/602/320
g default
v -0.032074 -0.132052 -0.524551
v 0.133581 -0.153073 -0.524841
v -0.018933 -0.028507 -0.524216
v 0.146722 -0.049528 -0.524505
v -0.018737 -0.029016 -0.374658
v 0.146917 -0.050037 -0.374947
v -0.031877 -0.132561 -0.374993
v 0.133777 -0.153582 -0.375282
v -0.018800 -0.028853 -0.422655
v -0.031940 -0.132398 -0.422990
v 0.133714 -0.153419 -0.423279
v 0.146854 -0.049874 -0.422944
v -0.020725 -0.042627 -0.524262
v -0.020592 -0.042973 -0.422701
v -0.020529 -0.043136 -0.374704
v 0.145125 -0.064158 -0.374993
v 0.145063 -0.063994 -0.422989
v 0.144929 -0.063648 -0.524551
v -0.029968 -0.115460 -0.524499
v -0.029835 -0.115806 -0.422937
v -0.029772 -0.115970 -0.374940
v 0.135883 -0.136991 -0.375229
v 0.135820 -0.136827 -0.423225
v 0.135687 -0.136482 -0.524787
v 1.591206 -0.321512 -0.425762
v 1.591072 -0.321166 -0.527323
v 1.600448 -0.248679 -0.425526
v 1.600315 -0.248333 -0.527087
v 1.285618 -0.282734 -0.425229
v 1.285485 -0.282388 -0.526791
v 1.294728 -0.209554 -0.526555
v 1.294861 -0.209900 -0.424994
v 1.294887 -0.209967 -0.405293
v 1.285644 -0.282801 -0.405530
v 1.600474 -0.248746 -0.405826
v 1.591232 -0.321579 -0.406061
v 1.295108 -0.207953 -0.424987
v 1.621728 -0.080999 -0.424982
v 1.621753 -0.081066 -0.405283
v 1.295134 -0.208020 -0.405287
v 2.028068 -0.376949 -0.426523
v 2.037311 -0.304115 -0.426287
v 2.028094 -0.377016 -0.406823
v 2.037337 -0.304182 -0.406587
v 2.058616 -0.136503 -0.406044
v 2.058590 -0.136436 -0.425744
vt 0.883194 0.287705
vt 0.883194 0.292533
vt 0.913325 0.292533
vt 0.913325 0.287705
vt 0.883194 0.317836
vt 0.883194 0.338297
vt 0.913325 0.338297
vt 0.913325 0.317836
vt 0.883194 0.373270
vt 0.883194 0.378098
vt 0.913325 0.378098
vt 0.913325 0.373270
vt 0.883194 0.387768
vt 0.883194 0.408229
vt 0.913325 0.408229
vt 0.913325 0.387768
vt 0.913325 0.287705
vt 0.913325 0.292533
vt 0.933787 0.292533
vt 0.933787 0.287705
vt 0.883194 0.292533
vt 0.883194 0.287705
vt 0.862733 0.287705
vt 0.862733 0.292533
vt 0.853063 0.287705
vt 0.853063 0.292533
vt 0.862733 0.292533
vt 0.862733 0.287705
vt 0.883194 0.378098
vt 0.883194 0.387768
vt 0.913325 0.387768
vt 0.913325 0.378098
vt 0.943456 0.292533
vt 0.943456 0.287705
vt 0.933787 0.287705
vt 0.933787 0.292533
vt 0.883194 0.338297
vt 0.883194 0.347967
vt 0.913325 0.347967
vt 0.913325 0.338297
vt 0.862733 0.317836
vt 0.883194 0.317836
vt 0.883194 0.313727
vt 0.862733 0.313727
vt 0.853063 0.313727
vt 0.853063 0.317836
vt 0.862733 0.317836
vt 0.862733 0.313727
vt 0.883194 0.347967
vt 0.883194 0.352076
vt 0.913325 0.352076
vt 0.913325 0.347967
vt 0.933787 0.317836
vt 0.943456 0.317836
vt 0.943456 0.313727
vt 0.933787 0.313727
vt 0.913325 0.313727
vt 0.913325 0.317836
vt 0.933787 0.317836
vt 0.933787 0.313727
vt 0.883194 0.313727
vt 0.883194 0.317836
vt 0.913325 0.317836
vt 0.913325 0.313727
vt 0.883194 0.313727
vt 0.883194 0.292533
vt 0.862733 0.292533
vt 0.862733 0.313727
vt 0.853063 0.292533
vt 0.853063 0.313727
vt 0.862733 0.313727
vt 0.862733 0.292533
vt 0.883194 0.352076
vt 0.883194 0.373270
vt 0.913325 0.373270
vt 0.913325 0.352076
vt 0.943456 0.313727
vt 0.943456 0.292533
vt 0.933787 0.292533
vt 0.933787 0.313727
vt 0.913325 0.292533
vt 0.913325 0.313727
vt 0.933787 0.313727
vt 0.933787 0.292533
vt 0.883194 0.292533
vt 0.883194 0.313727
vt 0.913325 0.313727
vt 0.913325 0.292533
vt 0.913325 0.292533
vt 0.913325 0.292533
vt 0.933787 0.292533
vt 0.933787 0.292533
vt 0.933787 0.292533
vt 0.933787 0.292533
vt 0.933787 0.313727
vt 0.933787 0.313727
vt 0.933787 0.313727
vt 0.933787 0.313727
vt 0.913325 0.313727
vt 0.913325 0.313727
vt 0.913325 0.313727
vt 0.913325 0.313727
vt 0.913325 0.292533
vt 0.913325 0.292533
vt 0.913325 0.292533
vt 0.913325 0.292533
vt 0.933787 0.292533
vt 0.933787 0.292533
vt 0.913325 0.313727
vt 0.913325 0.313727
vt 0.913325 0.292533
vt 0.913325 0.292533
vt 0.933787 0.313727
vt 0.933787 0.313727
vt 0.913325 0.313727
vt 0.913325 0.313727
vt 0.684255 0.398295
vt 0.684255 0.398295
vt 0.684255 0.419489
vt 0.684255 0.419489
vt 0.684255 0.398295
vt 0.684255 0.398295
vt 0.684255 0.419489
vt 0.684255 0.419489
vt 0.684255 0.419489
vt 0.684255 0.419489
vt 0.684255 0.419489
vt 0.684255 0.419489
vt 0.684255 0.419489
vt 0.684255 0.419489
vt 0.684255 0.398295
vt 0.684255 0.398295
vt 0.684255 0.398295
vt 0.684255 0.398295
vt 0.684255 0.398295
vt 0.684255 0.398295
vt 0.684255 0.419489
vt 0.684255 0.419489
vt 0.684255 0.419489
vt 0.684255 0.419489
vt 0.684255 0.419489
vt 0.684255 0.419489
vt 0.684255 0.419489
vt 0.684255 0.419489
vt 0.684255 0.419489
vt 0.684255 0.419489
vt 0.684255 0.419489
vt 0.684255 0.419489
vt 0.684255 0.419489
vt 0.684255 0.419489
vt 0.684255 0.419489
vt 0.684255 0.419489
vt 0.684255 0.419489
vt 0.684255 0.419489
vt 0.684255 0.398295
vt 0.684255 0.398295
vt 0.684255 0.398295
vt 0.684255 0.398295
vt 0.684255 0.398295
vt 0.684255 0.398295
vt 0.684255 0.398295
vt 0.684255 0.398295
vt 0.684255 0.419489
vt 0.684255 0.419489
vt 0.684255 0.419489
vt 0.684255 0.419489
vt 0.684255 0.419489
vt 0.684255 0.419489
vt 0.684255 0.419489
vt 0.684255 0.419489
vt 0.684255 0.419489
vt 0.684255 0.419489
vt 0.684255 0.419489
vt 0.684255 0.419489
vt 0.684255 0.419489
vt 0.684255 0.419489
vn -0.001315 0.003384 -0.999993
vn -0.001312 0.003403 -0.999993
vn -0.001311 0.003406 -0.999993
vn -0.001315 0.003384 -0.999993
vn 0.125893 0.992039 0.003214
vn 0.125893 0.992039 0.003213
vn 0.125893 0.992039 0.003213
vn 0.125893 0.992039 0.003214
vn 0.001312 -0.003403 0.999993
vn 0.001313 -0.003402 0.999993
vn 0.001313 -0.003402 0.999993
vn 0.001312 -0.003403 0.999993
vn -0.125892 -0.992039 -0.003214
vn -0.125892 -0.992039 -0.003214
vn -0.125892 -0.992039 -0.003214
vn -0.125892 -0.992039 -0.003214
vn 0.992044 -0.125881 -0.001727
vn 0.992044 -0.125881 -0.001727
vn 0.992043 -0.125886 -0.001730
vn 0.992044 -0.125882 -0.001728
vn -0.992043 0.125891 0.001729
vn -0.992042 0.125899 0.001730
vn -0.992042 0.125897 0.001729
vn -0.992043 0.125890 0.001728
vn -0.992042 0.125894 0.001728
vn -0.992043 0.125888 0.001725
vn -0.125892 -0.992039 -0.003215
vn -0.125892 -0.992039 -0.003215
vn 0.992043 -0.125888 -0.001731
vn 0.992043 -0.125885 -0.001731
vn 0.125893 0.992039 0.003212
vn 0.125893 0.992039 0.003212
vn -0.992044 0.125876 0.001727
vn -0.992045 0.125871 0.001727
vn -0.992043 0.125886 0.001728
vn -0.992043 0.125886 0.001727
vn -0.992043 0.125887 0.001725
vn -0.992043 0.125887 0.001728
vn 0.001311 -0.003407 0.999993
vn 0.001311 -0.003403 0.999993
vn 0.001311 -0.003403 0.999993
vn 0.001311 -0.003407 0.999993
vn 0.992042 -0.125899 -0.001729
vn 0.992042 -0.125892 -0.001732
vn 0.992043 -0.125889 -0.001731
vn 0.992042 -0.125892 -0.001730
vn 0.992041 -0.125902 -0.001727
vn 0.992041 -0.125902 -0.001727
vn -0.001311 0.003410 -0.999993
vn -0.001309 0.003427 -0.999993
vn -0.001309 0.003427 -0.999993
vn -0.001311 0.003407 -0.999993
vn 0.992043 -0.125887 -0.001731
vn 0.992043 -0.125887 -0.001731
vn 0.992043 -0.125887 -0.001731
vn 0.992043 -0.125887 -0.001731
vn -0.125893 -0.992039 -0.003214
vn -0.125893 -0.992039 -0.003214
vn -0.125893 -0.992039 -0.003214
vn -0.125893 -0.992039 -0.003214
vn 0.001311 -0.003403 0.999993
vn 0.001311 -0.003403 0.999993
vn 0.001311 -0.003403 0.999993
vn 0.001311 -0.003403 0.999993
vn 0.125893 0.992039 0.003213
vn 0.125893 0.992039 0.003213
vn 0.125893 0.992039 0.003213
vn 0.125893 0.992039 0.003213
vn -0.001310 0.003407 -0.999993
vn -0.001310 0.003407 -0.999993
vn -0.125893 -0.992039 -0.003214
vn -0.125893 -0.992039 -0.003213
vn -0.001309 0.003407 -0.999993
vn -0.001309 0.003407 -0.999993
vn 0.125893 0.992039 0.003213
vn 0.125893 0.992039 0.003213
vn 0.001309 -0.003407 0.999993
vn 0.001310 -0.003404 0.999993
vn 0.001311 -0.003405 0.999993
vn 0.001312 -0.003407 0.999993
vn -0.992043 0.125888 0.001725
vn -0.992043 0.125888 0.001725
vn -0.992043 0.125886 0.001725
vn -0.992043 0.125886 0.001725
vn -0.362289 0.932058 0.003646
vn -0.362289 0.932058 0.003646
vn -0.093022 0.995658 0.003514
vn -0.093511 0.995612 0.003514
vn 0.992043 -0.125887 -0.001727
vn 0.992043 -0.125887 -0.001727
vn 0.992043 -0.125886 -0.001732
vn 0.992043 -0.125886 -0.001732
vn -0.125893 -0.992039 -0.003211
vn -0.125893 -0.992039 -0.003214
vn -0.001308 0.003406 -0.999993
vn -0.001308 0.003406 -0.999993
vn -0.001310 0.003406 -0.999993
vn -0.001310 0.003407 -0.999993
vn 0.992043 -0.125887 -0.001725
vn 0.992043 -0.125887 -0.001725
vn 0.001312 -0.003405 0.999993
vn 0.001314 -0.003407 0.999993
vn -0.992055 0.125793 0.001717
vn -0.992055 0.125793 0.001717
vn -0.001311 0.003407 -0.999993
vn -0.001310 0.003411 -0.999993
vn -0.001310 0.003411 -0.999993
vn -0.125893 -0.992039 -0.003209
vn -0.125893 -0.992039 -0.003209
vn 0.001310 -0.003403 0.999993
vn 0.001311 -0.003404 0.999993
vn 0.001311 -0.003404 0.999993
vn 0.125893 0.992039 0.003218
vn 0.125893 0.992039 0.003218
vn -0.001311 0.003406 -0.999993
s 1
g Femur_Mirrored FemurBone_Mirrored
usemtl lambert2SG
f 185/633/335 203/634/336 208/635/337 186/636/338
s 2
f 187/637/339 193/638/340 196/639/341 188/640/342
s 3
f 205/641/343 191/642/344 192/643/345 206/644/346
s 4
f 194/645/347 185/646/348 186/647/349 195/648/350
s 5
f 186/649/351 208/650/352 207/651/353 195/652/354
s 6
f 203/653/355 185/654/356 194/655/357 204/656/358
f 191/657/359 205/658/360 204/659/358 194/660/357
s 4
f 191/661/361 194/662/347 195/663/350 192/664/362
s 5
f 206/665/363 192/666/364 195/667/354 207/668/353
s 2
f 193/669/340 189/670/365 190/671/366 196/672/341
s 6
f 193/673/367 187/674/368 197/675/369 198/676/370
f 199/677/371 189/678/372 193/679/367 198/680/370
s 3
f 189/681/373 199/682/374 200/683/375 190/684/376
s 5
f 196/685/377 190/686/378 200/687/379 201/688/380
f 202/689/381 188/690/382 196/691/377 201/692/380
s 1
f 197/693/383 187/694/384 188/695/385 202/696/386
s 6
f 197/697/369 203/698/355 204/699/358 198/700/370
f 205/701/360 199/702/371 198/703/370 204/704/358
s 3
f 199/705/374 205/706/343 206/707/346 200/708/375
s 5
f 200/709/379 206/710/363 207/711/353 201/712/380
s off
f 210/713/387 212/714/388 211/715/389 209/716/390
s 1
f 203/717/336 197/718/383 202/719/386 208/720/337
s 7
f 208/721/391 214/722/392 213/723/393 207/724/394
s off
f 207/725/395 213/726/396 216/727/397 201/728/398
s 8
f 201/729/399 216/730/400 215/731/401 202/732/402
s 1
f 202/733/386 215/734/403 214/735/404 208/736/337
s 7
f 214/737/392 210/738/405 209/739/406 213/740/393
s 1
f 215/741/403 212/742/407 210/743/408 214/744/404
s 8
f 216/745/400 211/746/409 212/747/410 215/748/401
s 9
f 218/749/411 220/750/412 219/751/413 217/752/414
s 10
f 213/753/415 218/754/416 217/755/417 216/756/418
s 11
f 221/757/419 224/758/420 223/759/421 222/760/422
s 12
f 226/761/423 228/762/424 227/763/425 225/764/426
s 7
f 209/765/406 220/766/427 218/767/428 213/768/393
s 13
f 216/769/429 221/770/430 222/771/431 211/772/432
s 12
f 226/773/423 230/774/433 229/775/434 228/776/424
s 9
f 219/777/413 223/778/435 224/779/436 217/780/414
s 10
f 217/781/417 224/782/437 221/783/438 216/784/418
s 13
f 211/785/432 226/786/439 225/787/440 209/788/441
s 7
f 209/789/406 225/790/442 227/791/443 220/792/427
s 9
f 220/793/412 227/794/444 228/795/445 219/796/413
f 219/797/413 228/798/445 229/799/446 223/800/435
s 11
f 223/801/421 229/802/447 230/803/448 222/804/422
s 13
f 222/805/431 230/806/449 226/807/439 211/808/432
